G75*
%MOIN*%
%OFA0B0*%
%FSLAX25Y25*%
%IPPOS*%
%LPD*%
%AMOC8*
5,1,8,0,0,1.08239X$1,22.5*
%
%ADD10C,0.00000*%
%ADD11R,0.06000X0.06000*%
%ADD12OC8,0.06000*%
%ADD13C,0.03181*%
%ADD14C,0.06693*%
%ADD15C,0.06000*%
%ADD16C,0.05000*%
%ADD17C,0.05150*%
%ADD18C,0.01000*%
%ADD19C,0.00500*%
%ADD20C,0.02781*%
%ADD21C,0.02978*%
%ADD22C,0.02362*%
%ADD23C,0.03200*%
D10*
X0016811Y0006117D02*
X0249094Y0006117D01*
X0249379Y0006120D01*
X0249665Y0006131D01*
X0249950Y0006148D01*
X0250234Y0006172D01*
X0250518Y0006203D01*
X0250801Y0006241D01*
X0251082Y0006286D01*
X0251363Y0006337D01*
X0251643Y0006395D01*
X0251921Y0006460D01*
X0252197Y0006532D01*
X0252471Y0006610D01*
X0252744Y0006695D01*
X0253014Y0006787D01*
X0253282Y0006885D01*
X0253548Y0006989D01*
X0253811Y0007100D01*
X0254071Y0007217D01*
X0254329Y0007340D01*
X0254583Y0007470D01*
X0254834Y0007606D01*
X0255082Y0007747D01*
X0255326Y0007895D01*
X0255567Y0008048D01*
X0255803Y0008208D01*
X0256036Y0008373D01*
X0256265Y0008543D01*
X0256490Y0008719D01*
X0256710Y0008901D01*
X0256926Y0009087D01*
X0257137Y0009279D01*
X0257344Y0009476D01*
X0257546Y0009678D01*
X0257743Y0009885D01*
X0257935Y0010096D01*
X0258121Y0010312D01*
X0258303Y0010532D01*
X0258479Y0010757D01*
X0258649Y0010986D01*
X0258814Y0011219D01*
X0258974Y0011455D01*
X0259127Y0011696D01*
X0259275Y0011940D01*
X0259416Y0012188D01*
X0259552Y0012439D01*
X0259682Y0012693D01*
X0259805Y0012951D01*
X0259922Y0013211D01*
X0260033Y0013474D01*
X0260137Y0013740D01*
X0260235Y0014008D01*
X0260327Y0014278D01*
X0260412Y0014551D01*
X0260490Y0014825D01*
X0260562Y0015101D01*
X0260627Y0015379D01*
X0260685Y0015659D01*
X0260736Y0015940D01*
X0260781Y0016221D01*
X0260819Y0016504D01*
X0260850Y0016788D01*
X0260874Y0017072D01*
X0260891Y0017357D01*
X0260902Y0017643D01*
X0260905Y0017928D01*
X0260906Y0017928D02*
X0260906Y0112416D01*
X0260905Y0112416D02*
X0260902Y0112701D01*
X0260891Y0112987D01*
X0260874Y0113272D01*
X0260850Y0113556D01*
X0260819Y0113840D01*
X0260781Y0114123D01*
X0260736Y0114404D01*
X0260685Y0114685D01*
X0260627Y0114965D01*
X0260562Y0115243D01*
X0260490Y0115519D01*
X0260412Y0115793D01*
X0260327Y0116066D01*
X0260235Y0116336D01*
X0260137Y0116604D01*
X0260033Y0116870D01*
X0259922Y0117133D01*
X0259805Y0117393D01*
X0259682Y0117651D01*
X0259552Y0117905D01*
X0259416Y0118156D01*
X0259275Y0118404D01*
X0259127Y0118648D01*
X0258974Y0118889D01*
X0258814Y0119125D01*
X0258649Y0119358D01*
X0258479Y0119587D01*
X0258303Y0119812D01*
X0258121Y0120032D01*
X0257935Y0120248D01*
X0257743Y0120459D01*
X0257546Y0120666D01*
X0257344Y0120868D01*
X0257137Y0121065D01*
X0256926Y0121257D01*
X0256710Y0121443D01*
X0256490Y0121625D01*
X0256265Y0121801D01*
X0256036Y0121971D01*
X0255803Y0122136D01*
X0255567Y0122296D01*
X0255326Y0122449D01*
X0255082Y0122597D01*
X0254834Y0122738D01*
X0254583Y0122874D01*
X0254329Y0123004D01*
X0254071Y0123127D01*
X0253811Y0123244D01*
X0253548Y0123355D01*
X0253282Y0123459D01*
X0253014Y0123557D01*
X0252744Y0123649D01*
X0252471Y0123734D01*
X0252197Y0123812D01*
X0251921Y0123884D01*
X0251643Y0123949D01*
X0251363Y0124007D01*
X0251082Y0124058D01*
X0250801Y0124103D01*
X0250518Y0124141D01*
X0250234Y0124172D01*
X0249950Y0124196D01*
X0249665Y0124213D01*
X0249379Y0124224D01*
X0249094Y0124227D01*
X0016811Y0124227D01*
X0016526Y0124224D01*
X0016240Y0124213D01*
X0015955Y0124196D01*
X0015671Y0124172D01*
X0015387Y0124141D01*
X0015104Y0124103D01*
X0014823Y0124058D01*
X0014542Y0124007D01*
X0014262Y0123949D01*
X0013984Y0123884D01*
X0013708Y0123812D01*
X0013434Y0123734D01*
X0013161Y0123649D01*
X0012891Y0123557D01*
X0012623Y0123459D01*
X0012357Y0123355D01*
X0012094Y0123244D01*
X0011834Y0123127D01*
X0011576Y0123004D01*
X0011322Y0122874D01*
X0011071Y0122738D01*
X0010823Y0122597D01*
X0010579Y0122449D01*
X0010338Y0122296D01*
X0010102Y0122136D01*
X0009869Y0121971D01*
X0009640Y0121801D01*
X0009415Y0121625D01*
X0009195Y0121443D01*
X0008979Y0121257D01*
X0008768Y0121065D01*
X0008561Y0120868D01*
X0008359Y0120666D01*
X0008162Y0120459D01*
X0007970Y0120248D01*
X0007784Y0120032D01*
X0007602Y0119812D01*
X0007426Y0119587D01*
X0007256Y0119358D01*
X0007091Y0119125D01*
X0006931Y0118889D01*
X0006778Y0118648D01*
X0006630Y0118404D01*
X0006489Y0118156D01*
X0006353Y0117905D01*
X0006223Y0117651D01*
X0006100Y0117393D01*
X0005983Y0117133D01*
X0005872Y0116870D01*
X0005768Y0116604D01*
X0005670Y0116336D01*
X0005578Y0116066D01*
X0005493Y0115793D01*
X0005415Y0115519D01*
X0005343Y0115243D01*
X0005278Y0114965D01*
X0005220Y0114685D01*
X0005169Y0114404D01*
X0005124Y0114123D01*
X0005086Y0113840D01*
X0005055Y0113556D01*
X0005031Y0113272D01*
X0005014Y0112987D01*
X0005003Y0112701D01*
X0005000Y0112416D01*
X0005000Y0017928D01*
X0005003Y0017643D01*
X0005014Y0017357D01*
X0005031Y0017072D01*
X0005055Y0016788D01*
X0005086Y0016504D01*
X0005124Y0016221D01*
X0005169Y0015940D01*
X0005220Y0015659D01*
X0005278Y0015379D01*
X0005343Y0015101D01*
X0005415Y0014825D01*
X0005493Y0014551D01*
X0005578Y0014278D01*
X0005670Y0014008D01*
X0005768Y0013740D01*
X0005872Y0013474D01*
X0005983Y0013211D01*
X0006100Y0012951D01*
X0006223Y0012693D01*
X0006353Y0012439D01*
X0006489Y0012188D01*
X0006630Y0011940D01*
X0006778Y0011696D01*
X0006931Y0011455D01*
X0007091Y0011219D01*
X0007256Y0010986D01*
X0007426Y0010757D01*
X0007602Y0010532D01*
X0007784Y0010312D01*
X0007970Y0010096D01*
X0008162Y0009885D01*
X0008359Y0009678D01*
X0008561Y0009476D01*
X0008768Y0009279D01*
X0008979Y0009087D01*
X0009195Y0008901D01*
X0009415Y0008719D01*
X0009640Y0008543D01*
X0009869Y0008373D01*
X0010102Y0008208D01*
X0010338Y0008048D01*
X0010579Y0007895D01*
X0010823Y0007747D01*
X0011071Y0007606D01*
X0011322Y0007470D01*
X0011576Y0007340D01*
X0011834Y0007217D01*
X0012094Y0007100D01*
X0012357Y0006989D01*
X0012623Y0006885D01*
X0012891Y0006787D01*
X0013161Y0006695D01*
X0013434Y0006610D01*
X0013708Y0006532D01*
X0013984Y0006460D01*
X0014262Y0006395D01*
X0014542Y0006337D01*
X0014823Y0006286D01*
X0015104Y0006241D01*
X0015387Y0006203D01*
X0015671Y0006172D01*
X0015955Y0006148D01*
X0016240Y0006131D01*
X0016526Y0006120D01*
X0016811Y0006117D01*
X0013268Y0019896D02*
X0013270Y0020044D01*
X0013276Y0020192D01*
X0013286Y0020340D01*
X0013300Y0020487D01*
X0013318Y0020634D01*
X0013339Y0020780D01*
X0013365Y0020926D01*
X0013395Y0021071D01*
X0013428Y0021215D01*
X0013466Y0021358D01*
X0013507Y0021500D01*
X0013552Y0021641D01*
X0013600Y0021781D01*
X0013653Y0021920D01*
X0013709Y0022057D01*
X0013769Y0022192D01*
X0013832Y0022326D01*
X0013899Y0022458D01*
X0013970Y0022588D01*
X0014044Y0022716D01*
X0014121Y0022842D01*
X0014202Y0022966D01*
X0014286Y0023088D01*
X0014373Y0023207D01*
X0014464Y0023324D01*
X0014558Y0023439D01*
X0014654Y0023551D01*
X0014754Y0023661D01*
X0014856Y0023767D01*
X0014962Y0023871D01*
X0015070Y0023972D01*
X0015181Y0024070D01*
X0015294Y0024166D01*
X0015410Y0024258D01*
X0015528Y0024347D01*
X0015649Y0024432D01*
X0015772Y0024515D01*
X0015897Y0024594D01*
X0016024Y0024670D01*
X0016153Y0024742D01*
X0016284Y0024811D01*
X0016417Y0024876D01*
X0016552Y0024937D01*
X0016688Y0024995D01*
X0016825Y0025050D01*
X0016964Y0025100D01*
X0017105Y0025147D01*
X0017246Y0025190D01*
X0017389Y0025230D01*
X0017533Y0025265D01*
X0017677Y0025297D01*
X0017823Y0025324D01*
X0017969Y0025348D01*
X0018116Y0025368D01*
X0018263Y0025384D01*
X0018410Y0025396D01*
X0018558Y0025404D01*
X0018706Y0025408D01*
X0018854Y0025408D01*
X0019002Y0025404D01*
X0019150Y0025396D01*
X0019297Y0025384D01*
X0019444Y0025368D01*
X0019591Y0025348D01*
X0019737Y0025324D01*
X0019883Y0025297D01*
X0020027Y0025265D01*
X0020171Y0025230D01*
X0020314Y0025190D01*
X0020455Y0025147D01*
X0020596Y0025100D01*
X0020735Y0025050D01*
X0020872Y0024995D01*
X0021008Y0024937D01*
X0021143Y0024876D01*
X0021276Y0024811D01*
X0021407Y0024742D01*
X0021536Y0024670D01*
X0021663Y0024594D01*
X0021788Y0024515D01*
X0021911Y0024432D01*
X0022032Y0024347D01*
X0022150Y0024258D01*
X0022266Y0024166D01*
X0022379Y0024070D01*
X0022490Y0023972D01*
X0022598Y0023871D01*
X0022704Y0023767D01*
X0022806Y0023661D01*
X0022906Y0023551D01*
X0023002Y0023439D01*
X0023096Y0023324D01*
X0023187Y0023207D01*
X0023274Y0023088D01*
X0023358Y0022966D01*
X0023439Y0022842D01*
X0023516Y0022716D01*
X0023590Y0022588D01*
X0023661Y0022458D01*
X0023728Y0022326D01*
X0023791Y0022192D01*
X0023851Y0022057D01*
X0023907Y0021920D01*
X0023960Y0021781D01*
X0024008Y0021641D01*
X0024053Y0021500D01*
X0024094Y0021358D01*
X0024132Y0021215D01*
X0024165Y0021071D01*
X0024195Y0020926D01*
X0024221Y0020780D01*
X0024242Y0020634D01*
X0024260Y0020487D01*
X0024274Y0020340D01*
X0024284Y0020192D01*
X0024290Y0020044D01*
X0024292Y0019896D01*
X0024290Y0019748D01*
X0024284Y0019600D01*
X0024274Y0019452D01*
X0024260Y0019305D01*
X0024242Y0019158D01*
X0024221Y0019012D01*
X0024195Y0018866D01*
X0024165Y0018721D01*
X0024132Y0018577D01*
X0024094Y0018434D01*
X0024053Y0018292D01*
X0024008Y0018151D01*
X0023960Y0018011D01*
X0023907Y0017872D01*
X0023851Y0017735D01*
X0023791Y0017600D01*
X0023728Y0017466D01*
X0023661Y0017334D01*
X0023590Y0017204D01*
X0023516Y0017076D01*
X0023439Y0016950D01*
X0023358Y0016826D01*
X0023274Y0016704D01*
X0023187Y0016585D01*
X0023096Y0016468D01*
X0023002Y0016353D01*
X0022906Y0016241D01*
X0022806Y0016131D01*
X0022704Y0016025D01*
X0022598Y0015921D01*
X0022490Y0015820D01*
X0022379Y0015722D01*
X0022266Y0015626D01*
X0022150Y0015534D01*
X0022032Y0015445D01*
X0021911Y0015360D01*
X0021788Y0015277D01*
X0021663Y0015198D01*
X0021536Y0015122D01*
X0021407Y0015050D01*
X0021276Y0014981D01*
X0021143Y0014916D01*
X0021008Y0014855D01*
X0020872Y0014797D01*
X0020735Y0014742D01*
X0020596Y0014692D01*
X0020455Y0014645D01*
X0020314Y0014602D01*
X0020171Y0014562D01*
X0020027Y0014527D01*
X0019883Y0014495D01*
X0019737Y0014468D01*
X0019591Y0014444D01*
X0019444Y0014424D01*
X0019297Y0014408D01*
X0019150Y0014396D01*
X0019002Y0014388D01*
X0018854Y0014384D01*
X0018706Y0014384D01*
X0018558Y0014388D01*
X0018410Y0014396D01*
X0018263Y0014408D01*
X0018116Y0014424D01*
X0017969Y0014444D01*
X0017823Y0014468D01*
X0017677Y0014495D01*
X0017533Y0014527D01*
X0017389Y0014562D01*
X0017246Y0014602D01*
X0017105Y0014645D01*
X0016964Y0014692D01*
X0016825Y0014742D01*
X0016688Y0014797D01*
X0016552Y0014855D01*
X0016417Y0014916D01*
X0016284Y0014981D01*
X0016153Y0015050D01*
X0016024Y0015122D01*
X0015897Y0015198D01*
X0015772Y0015277D01*
X0015649Y0015360D01*
X0015528Y0015445D01*
X0015410Y0015534D01*
X0015294Y0015626D01*
X0015181Y0015722D01*
X0015070Y0015820D01*
X0014962Y0015921D01*
X0014856Y0016025D01*
X0014754Y0016131D01*
X0014654Y0016241D01*
X0014558Y0016353D01*
X0014464Y0016468D01*
X0014373Y0016585D01*
X0014286Y0016704D01*
X0014202Y0016826D01*
X0014121Y0016950D01*
X0014044Y0017076D01*
X0013970Y0017204D01*
X0013899Y0017334D01*
X0013832Y0017466D01*
X0013769Y0017600D01*
X0013709Y0017735D01*
X0013653Y0017872D01*
X0013600Y0018011D01*
X0013552Y0018151D01*
X0013507Y0018292D01*
X0013466Y0018434D01*
X0013428Y0018577D01*
X0013395Y0018721D01*
X0013365Y0018866D01*
X0013339Y0019012D01*
X0013318Y0019158D01*
X0013300Y0019305D01*
X0013286Y0019452D01*
X0013276Y0019600D01*
X0013270Y0019748D01*
X0013268Y0019896D01*
X0158199Y0044867D02*
X0158201Y0044901D01*
X0158207Y0044935D01*
X0158217Y0044968D01*
X0158230Y0044999D01*
X0158248Y0045029D01*
X0158268Y0045057D01*
X0158292Y0045082D01*
X0158318Y0045104D01*
X0158346Y0045122D01*
X0158377Y0045138D01*
X0158409Y0045150D01*
X0158443Y0045158D01*
X0158477Y0045162D01*
X0158511Y0045162D01*
X0158545Y0045158D01*
X0158579Y0045150D01*
X0158611Y0045138D01*
X0158641Y0045122D01*
X0158670Y0045104D01*
X0158696Y0045082D01*
X0158720Y0045057D01*
X0158740Y0045029D01*
X0158758Y0044999D01*
X0158771Y0044968D01*
X0158781Y0044935D01*
X0158787Y0044901D01*
X0158789Y0044867D01*
X0158787Y0044833D01*
X0158781Y0044799D01*
X0158771Y0044766D01*
X0158758Y0044735D01*
X0158740Y0044705D01*
X0158720Y0044677D01*
X0158696Y0044652D01*
X0158670Y0044630D01*
X0158642Y0044612D01*
X0158611Y0044596D01*
X0158579Y0044584D01*
X0158545Y0044576D01*
X0158511Y0044572D01*
X0158477Y0044572D01*
X0158443Y0044576D01*
X0158409Y0044584D01*
X0158377Y0044596D01*
X0158346Y0044612D01*
X0158318Y0044630D01*
X0158292Y0044652D01*
X0158268Y0044677D01*
X0158248Y0044705D01*
X0158230Y0044735D01*
X0158217Y0044766D01*
X0158207Y0044799D01*
X0158201Y0044833D01*
X0158199Y0044867D01*
X0160955Y0044867D02*
X0160957Y0044901D01*
X0160963Y0044935D01*
X0160973Y0044968D01*
X0160986Y0044999D01*
X0161004Y0045029D01*
X0161024Y0045057D01*
X0161048Y0045082D01*
X0161074Y0045104D01*
X0161102Y0045122D01*
X0161133Y0045138D01*
X0161165Y0045150D01*
X0161199Y0045158D01*
X0161233Y0045162D01*
X0161267Y0045162D01*
X0161301Y0045158D01*
X0161335Y0045150D01*
X0161367Y0045138D01*
X0161397Y0045122D01*
X0161426Y0045104D01*
X0161452Y0045082D01*
X0161476Y0045057D01*
X0161496Y0045029D01*
X0161514Y0044999D01*
X0161527Y0044968D01*
X0161537Y0044935D01*
X0161543Y0044901D01*
X0161545Y0044867D01*
X0161543Y0044833D01*
X0161537Y0044799D01*
X0161527Y0044766D01*
X0161514Y0044735D01*
X0161496Y0044705D01*
X0161476Y0044677D01*
X0161452Y0044652D01*
X0161426Y0044630D01*
X0161398Y0044612D01*
X0161367Y0044596D01*
X0161335Y0044584D01*
X0161301Y0044576D01*
X0161267Y0044572D01*
X0161233Y0044572D01*
X0161199Y0044576D01*
X0161165Y0044584D01*
X0161133Y0044596D01*
X0161102Y0044612D01*
X0161074Y0044630D01*
X0161048Y0044652D01*
X0161024Y0044677D01*
X0161004Y0044705D01*
X0160986Y0044735D01*
X0160973Y0044766D01*
X0160963Y0044799D01*
X0160957Y0044833D01*
X0160955Y0044867D01*
X0163711Y0044867D02*
X0163713Y0044901D01*
X0163719Y0044935D01*
X0163729Y0044968D01*
X0163742Y0044999D01*
X0163760Y0045029D01*
X0163780Y0045057D01*
X0163804Y0045082D01*
X0163830Y0045104D01*
X0163858Y0045122D01*
X0163889Y0045138D01*
X0163921Y0045150D01*
X0163955Y0045158D01*
X0163989Y0045162D01*
X0164023Y0045162D01*
X0164057Y0045158D01*
X0164091Y0045150D01*
X0164123Y0045138D01*
X0164153Y0045122D01*
X0164182Y0045104D01*
X0164208Y0045082D01*
X0164232Y0045057D01*
X0164252Y0045029D01*
X0164270Y0044999D01*
X0164283Y0044968D01*
X0164293Y0044935D01*
X0164299Y0044901D01*
X0164301Y0044867D01*
X0164299Y0044833D01*
X0164293Y0044799D01*
X0164283Y0044766D01*
X0164270Y0044735D01*
X0164252Y0044705D01*
X0164232Y0044677D01*
X0164208Y0044652D01*
X0164182Y0044630D01*
X0164154Y0044612D01*
X0164123Y0044596D01*
X0164091Y0044584D01*
X0164057Y0044576D01*
X0164023Y0044572D01*
X0163989Y0044572D01*
X0163955Y0044576D01*
X0163921Y0044584D01*
X0163889Y0044596D01*
X0163858Y0044612D01*
X0163830Y0044630D01*
X0163804Y0044652D01*
X0163780Y0044677D01*
X0163760Y0044705D01*
X0163742Y0044735D01*
X0163729Y0044766D01*
X0163719Y0044799D01*
X0163713Y0044833D01*
X0163711Y0044867D01*
X0241614Y0019896D02*
X0241616Y0020044D01*
X0241622Y0020192D01*
X0241632Y0020340D01*
X0241646Y0020487D01*
X0241664Y0020634D01*
X0241685Y0020780D01*
X0241711Y0020926D01*
X0241741Y0021071D01*
X0241774Y0021215D01*
X0241812Y0021358D01*
X0241853Y0021500D01*
X0241898Y0021641D01*
X0241946Y0021781D01*
X0241999Y0021920D01*
X0242055Y0022057D01*
X0242115Y0022192D01*
X0242178Y0022326D01*
X0242245Y0022458D01*
X0242316Y0022588D01*
X0242390Y0022716D01*
X0242467Y0022842D01*
X0242548Y0022966D01*
X0242632Y0023088D01*
X0242719Y0023207D01*
X0242810Y0023324D01*
X0242904Y0023439D01*
X0243000Y0023551D01*
X0243100Y0023661D01*
X0243202Y0023767D01*
X0243308Y0023871D01*
X0243416Y0023972D01*
X0243527Y0024070D01*
X0243640Y0024166D01*
X0243756Y0024258D01*
X0243874Y0024347D01*
X0243995Y0024432D01*
X0244118Y0024515D01*
X0244243Y0024594D01*
X0244370Y0024670D01*
X0244499Y0024742D01*
X0244630Y0024811D01*
X0244763Y0024876D01*
X0244898Y0024937D01*
X0245034Y0024995D01*
X0245171Y0025050D01*
X0245310Y0025100D01*
X0245451Y0025147D01*
X0245592Y0025190D01*
X0245735Y0025230D01*
X0245879Y0025265D01*
X0246023Y0025297D01*
X0246169Y0025324D01*
X0246315Y0025348D01*
X0246462Y0025368D01*
X0246609Y0025384D01*
X0246756Y0025396D01*
X0246904Y0025404D01*
X0247052Y0025408D01*
X0247200Y0025408D01*
X0247348Y0025404D01*
X0247496Y0025396D01*
X0247643Y0025384D01*
X0247790Y0025368D01*
X0247937Y0025348D01*
X0248083Y0025324D01*
X0248229Y0025297D01*
X0248373Y0025265D01*
X0248517Y0025230D01*
X0248660Y0025190D01*
X0248801Y0025147D01*
X0248942Y0025100D01*
X0249081Y0025050D01*
X0249218Y0024995D01*
X0249354Y0024937D01*
X0249489Y0024876D01*
X0249622Y0024811D01*
X0249753Y0024742D01*
X0249882Y0024670D01*
X0250009Y0024594D01*
X0250134Y0024515D01*
X0250257Y0024432D01*
X0250378Y0024347D01*
X0250496Y0024258D01*
X0250612Y0024166D01*
X0250725Y0024070D01*
X0250836Y0023972D01*
X0250944Y0023871D01*
X0251050Y0023767D01*
X0251152Y0023661D01*
X0251252Y0023551D01*
X0251348Y0023439D01*
X0251442Y0023324D01*
X0251533Y0023207D01*
X0251620Y0023088D01*
X0251704Y0022966D01*
X0251785Y0022842D01*
X0251862Y0022716D01*
X0251936Y0022588D01*
X0252007Y0022458D01*
X0252074Y0022326D01*
X0252137Y0022192D01*
X0252197Y0022057D01*
X0252253Y0021920D01*
X0252306Y0021781D01*
X0252354Y0021641D01*
X0252399Y0021500D01*
X0252440Y0021358D01*
X0252478Y0021215D01*
X0252511Y0021071D01*
X0252541Y0020926D01*
X0252567Y0020780D01*
X0252588Y0020634D01*
X0252606Y0020487D01*
X0252620Y0020340D01*
X0252630Y0020192D01*
X0252636Y0020044D01*
X0252638Y0019896D01*
X0252636Y0019748D01*
X0252630Y0019600D01*
X0252620Y0019452D01*
X0252606Y0019305D01*
X0252588Y0019158D01*
X0252567Y0019012D01*
X0252541Y0018866D01*
X0252511Y0018721D01*
X0252478Y0018577D01*
X0252440Y0018434D01*
X0252399Y0018292D01*
X0252354Y0018151D01*
X0252306Y0018011D01*
X0252253Y0017872D01*
X0252197Y0017735D01*
X0252137Y0017600D01*
X0252074Y0017466D01*
X0252007Y0017334D01*
X0251936Y0017204D01*
X0251862Y0017076D01*
X0251785Y0016950D01*
X0251704Y0016826D01*
X0251620Y0016704D01*
X0251533Y0016585D01*
X0251442Y0016468D01*
X0251348Y0016353D01*
X0251252Y0016241D01*
X0251152Y0016131D01*
X0251050Y0016025D01*
X0250944Y0015921D01*
X0250836Y0015820D01*
X0250725Y0015722D01*
X0250612Y0015626D01*
X0250496Y0015534D01*
X0250378Y0015445D01*
X0250257Y0015360D01*
X0250134Y0015277D01*
X0250009Y0015198D01*
X0249882Y0015122D01*
X0249753Y0015050D01*
X0249622Y0014981D01*
X0249489Y0014916D01*
X0249354Y0014855D01*
X0249218Y0014797D01*
X0249081Y0014742D01*
X0248942Y0014692D01*
X0248801Y0014645D01*
X0248660Y0014602D01*
X0248517Y0014562D01*
X0248373Y0014527D01*
X0248229Y0014495D01*
X0248083Y0014468D01*
X0247937Y0014444D01*
X0247790Y0014424D01*
X0247643Y0014408D01*
X0247496Y0014396D01*
X0247348Y0014388D01*
X0247200Y0014384D01*
X0247052Y0014384D01*
X0246904Y0014388D01*
X0246756Y0014396D01*
X0246609Y0014408D01*
X0246462Y0014424D01*
X0246315Y0014444D01*
X0246169Y0014468D01*
X0246023Y0014495D01*
X0245879Y0014527D01*
X0245735Y0014562D01*
X0245592Y0014602D01*
X0245451Y0014645D01*
X0245310Y0014692D01*
X0245171Y0014742D01*
X0245034Y0014797D01*
X0244898Y0014855D01*
X0244763Y0014916D01*
X0244630Y0014981D01*
X0244499Y0015050D01*
X0244370Y0015122D01*
X0244243Y0015198D01*
X0244118Y0015277D01*
X0243995Y0015360D01*
X0243874Y0015445D01*
X0243756Y0015534D01*
X0243640Y0015626D01*
X0243527Y0015722D01*
X0243416Y0015820D01*
X0243308Y0015921D01*
X0243202Y0016025D01*
X0243100Y0016131D01*
X0243000Y0016241D01*
X0242904Y0016353D01*
X0242810Y0016468D01*
X0242719Y0016585D01*
X0242632Y0016704D01*
X0242548Y0016826D01*
X0242467Y0016950D01*
X0242390Y0017076D01*
X0242316Y0017204D01*
X0242245Y0017334D01*
X0242178Y0017466D01*
X0242115Y0017600D01*
X0242055Y0017735D01*
X0241999Y0017872D01*
X0241946Y0018011D01*
X0241898Y0018151D01*
X0241853Y0018292D01*
X0241812Y0018434D01*
X0241774Y0018577D01*
X0241741Y0018721D01*
X0241711Y0018866D01*
X0241685Y0019012D01*
X0241664Y0019158D01*
X0241646Y0019305D01*
X0241632Y0019452D01*
X0241622Y0019600D01*
X0241616Y0019748D01*
X0241614Y0019896D01*
X0241614Y0110447D02*
X0241616Y0110595D01*
X0241622Y0110743D01*
X0241632Y0110891D01*
X0241646Y0111038D01*
X0241664Y0111185D01*
X0241685Y0111331D01*
X0241711Y0111477D01*
X0241741Y0111622D01*
X0241774Y0111766D01*
X0241812Y0111909D01*
X0241853Y0112051D01*
X0241898Y0112192D01*
X0241946Y0112332D01*
X0241999Y0112471D01*
X0242055Y0112608D01*
X0242115Y0112743D01*
X0242178Y0112877D01*
X0242245Y0113009D01*
X0242316Y0113139D01*
X0242390Y0113267D01*
X0242467Y0113393D01*
X0242548Y0113517D01*
X0242632Y0113639D01*
X0242719Y0113758D01*
X0242810Y0113875D01*
X0242904Y0113990D01*
X0243000Y0114102D01*
X0243100Y0114212D01*
X0243202Y0114318D01*
X0243308Y0114422D01*
X0243416Y0114523D01*
X0243527Y0114621D01*
X0243640Y0114717D01*
X0243756Y0114809D01*
X0243874Y0114898D01*
X0243995Y0114983D01*
X0244118Y0115066D01*
X0244243Y0115145D01*
X0244370Y0115221D01*
X0244499Y0115293D01*
X0244630Y0115362D01*
X0244763Y0115427D01*
X0244898Y0115488D01*
X0245034Y0115546D01*
X0245171Y0115601D01*
X0245310Y0115651D01*
X0245451Y0115698D01*
X0245592Y0115741D01*
X0245735Y0115781D01*
X0245879Y0115816D01*
X0246023Y0115848D01*
X0246169Y0115875D01*
X0246315Y0115899D01*
X0246462Y0115919D01*
X0246609Y0115935D01*
X0246756Y0115947D01*
X0246904Y0115955D01*
X0247052Y0115959D01*
X0247200Y0115959D01*
X0247348Y0115955D01*
X0247496Y0115947D01*
X0247643Y0115935D01*
X0247790Y0115919D01*
X0247937Y0115899D01*
X0248083Y0115875D01*
X0248229Y0115848D01*
X0248373Y0115816D01*
X0248517Y0115781D01*
X0248660Y0115741D01*
X0248801Y0115698D01*
X0248942Y0115651D01*
X0249081Y0115601D01*
X0249218Y0115546D01*
X0249354Y0115488D01*
X0249489Y0115427D01*
X0249622Y0115362D01*
X0249753Y0115293D01*
X0249882Y0115221D01*
X0250009Y0115145D01*
X0250134Y0115066D01*
X0250257Y0114983D01*
X0250378Y0114898D01*
X0250496Y0114809D01*
X0250612Y0114717D01*
X0250725Y0114621D01*
X0250836Y0114523D01*
X0250944Y0114422D01*
X0251050Y0114318D01*
X0251152Y0114212D01*
X0251252Y0114102D01*
X0251348Y0113990D01*
X0251442Y0113875D01*
X0251533Y0113758D01*
X0251620Y0113639D01*
X0251704Y0113517D01*
X0251785Y0113393D01*
X0251862Y0113267D01*
X0251936Y0113139D01*
X0252007Y0113009D01*
X0252074Y0112877D01*
X0252137Y0112743D01*
X0252197Y0112608D01*
X0252253Y0112471D01*
X0252306Y0112332D01*
X0252354Y0112192D01*
X0252399Y0112051D01*
X0252440Y0111909D01*
X0252478Y0111766D01*
X0252511Y0111622D01*
X0252541Y0111477D01*
X0252567Y0111331D01*
X0252588Y0111185D01*
X0252606Y0111038D01*
X0252620Y0110891D01*
X0252630Y0110743D01*
X0252636Y0110595D01*
X0252638Y0110447D01*
X0252636Y0110299D01*
X0252630Y0110151D01*
X0252620Y0110003D01*
X0252606Y0109856D01*
X0252588Y0109709D01*
X0252567Y0109563D01*
X0252541Y0109417D01*
X0252511Y0109272D01*
X0252478Y0109128D01*
X0252440Y0108985D01*
X0252399Y0108843D01*
X0252354Y0108702D01*
X0252306Y0108562D01*
X0252253Y0108423D01*
X0252197Y0108286D01*
X0252137Y0108151D01*
X0252074Y0108017D01*
X0252007Y0107885D01*
X0251936Y0107755D01*
X0251862Y0107627D01*
X0251785Y0107501D01*
X0251704Y0107377D01*
X0251620Y0107255D01*
X0251533Y0107136D01*
X0251442Y0107019D01*
X0251348Y0106904D01*
X0251252Y0106792D01*
X0251152Y0106682D01*
X0251050Y0106576D01*
X0250944Y0106472D01*
X0250836Y0106371D01*
X0250725Y0106273D01*
X0250612Y0106177D01*
X0250496Y0106085D01*
X0250378Y0105996D01*
X0250257Y0105911D01*
X0250134Y0105828D01*
X0250009Y0105749D01*
X0249882Y0105673D01*
X0249753Y0105601D01*
X0249622Y0105532D01*
X0249489Y0105467D01*
X0249354Y0105406D01*
X0249218Y0105348D01*
X0249081Y0105293D01*
X0248942Y0105243D01*
X0248801Y0105196D01*
X0248660Y0105153D01*
X0248517Y0105113D01*
X0248373Y0105078D01*
X0248229Y0105046D01*
X0248083Y0105019D01*
X0247937Y0104995D01*
X0247790Y0104975D01*
X0247643Y0104959D01*
X0247496Y0104947D01*
X0247348Y0104939D01*
X0247200Y0104935D01*
X0247052Y0104935D01*
X0246904Y0104939D01*
X0246756Y0104947D01*
X0246609Y0104959D01*
X0246462Y0104975D01*
X0246315Y0104995D01*
X0246169Y0105019D01*
X0246023Y0105046D01*
X0245879Y0105078D01*
X0245735Y0105113D01*
X0245592Y0105153D01*
X0245451Y0105196D01*
X0245310Y0105243D01*
X0245171Y0105293D01*
X0245034Y0105348D01*
X0244898Y0105406D01*
X0244763Y0105467D01*
X0244630Y0105532D01*
X0244499Y0105601D01*
X0244370Y0105673D01*
X0244243Y0105749D01*
X0244118Y0105828D01*
X0243995Y0105911D01*
X0243874Y0105996D01*
X0243756Y0106085D01*
X0243640Y0106177D01*
X0243527Y0106273D01*
X0243416Y0106371D01*
X0243308Y0106472D01*
X0243202Y0106576D01*
X0243100Y0106682D01*
X0243000Y0106792D01*
X0242904Y0106904D01*
X0242810Y0107019D01*
X0242719Y0107136D01*
X0242632Y0107255D01*
X0242548Y0107377D01*
X0242467Y0107501D01*
X0242390Y0107627D01*
X0242316Y0107755D01*
X0242245Y0107885D01*
X0242178Y0108017D01*
X0242115Y0108151D01*
X0242055Y0108286D01*
X0241999Y0108423D01*
X0241946Y0108562D01*
X0241898Y0108702D01*
X0241853Y0108843D01*
X0241812Y0108985D01*
X0241774Y0109128D01*
X0241741Y0109272D01*
X0241711Y0109417D01*
X0241685Y0109563D01*
X0241664Y0109709D01*
X0241646Y0109856D01*
X0241632Y0110003D01*
X0241622Y0110151D01*
X0241616Y0110299D01*
X0241614Y0110447D01*
X0013268Y0110447D02*
X0013270Y0110595D01*
X0013276Y0110743D01*
X0013286Y0110891D01*
X0013300Y0111038D01*
X0013318Y0111185D01*
X0013339Y0111331D01*
X0013365Y0111477D01*
X0013395Y0111622D01*
X0013428Y0111766D01*
X0013466Y0111909D01*
X0013507Y0112051D01*
X0013552Y0112192D01*
X0013600Y0112332D01*
X0013653Y0112471D01*
X0013709Y0112608D01*
X0013769Y0112743D01*
X0013832Y0112877D01*
X0013899Y0113009D01*
X0013970Y0113139D01*
X0014044Y0113267D01*
X0014121Y0113393D01*
X0014202Y0113517D01*
X0014286Y0113639D01*
X0014373Y0113758D01*
X0014464Y0113875D01*
X0014558Y0113990D01*
X0014654Y0114102D01*
X0014754Y0114212D01*
X0014856Y0114318D01*
X0014962Y0114422D01*
X0015070Y0114523D01*
X0015181Y0114621D01*
X0015294Y0114717D01*
X0015410Y0114809D01*
X0015528Y0114898D01*
X0015649Y0114983D01*
X0015772Y0115066D01*
X0015897Y0115145D01*
X0016024Y0115221D01*
X0016153Y0115293D01*
X0016284Y0115362D01*
X0016417Y0115427D01*
X0016552Y0115488D01*
X0016688Y0115546D01*
X0016825Y0115601D01*
X0016964Y0115651D01*
X0017105Y0115698D01*
X0017246Y0115741D01*
X0017389Y0115781D01*
X0017533Y0115816D01*
X0017677Y0115848D01*
X0017823Y0115875D01*
X0017969Y0115899D01*
X0018116Y0115919D01*
X0018263Y0115935D01*
X0018410Y0115947D01*
X0018558Y0115955D01*
X0018706Y0115959D01*
X0018854Y0115959D01*
X0019002Y0115955D01*
X0019150Y0115947D01*
X0019297Y0115935D01*
X0019444Y0115919D01*
X0019591Y0115899D01*
X0019737Y0115875D01*
X0019883Y0115848D01*
X0020027Y0115816D01*
X0020171Y0115781D01*
X0020314Y0115741D01*
X0020455Y0115698D01*
X0020596Y0115651D01*
X0020735Y0115601D01*
X0020872Y0115546D01*
X0021008Y0115488D01*
X0021143Y0115427D01*
X0021276Y0115362D01*
X0021407Y0115293D01*
X0021536Y0115221D01*
X0021663Y0115145D01*
X0021788Y0115066D01*
X0021911Y0114983D01*
X0022032Y0114898D01*
X0022150Y0114809D01*
X0022266Y0114717D01*
X0022379Y0114621D01*
X0022490Y0114523D01*
X0022598Y0114422D01*
X0022704Y0114318D01*
X0022806Y0114212D01*
X0022906Y0114102D01*
X0023002Y0113990D01*
X0023096Y0113875D01*
X0023187Y0113758D01*
X0023274Y0113639D01*
X0023358Y0113517D01*
X0023439Y0113393D01*
X0023516Y0113267D01*
X0023590Y0113139D01*
X0023661Y0113009D01*
X0023728Y0112877D01*
X0023791Y0112743D01*
X0023851Y0112608D01*
X0023907Y0112471D01*
X0023960Y0112332D01*
X0024008Y0112192D01*
X0024053Y0112051D01*
X0024094Y0111909D01*
X0024132Y0111766D01*
X0024165Y0111622D01*
X0024195Y0111477D01*
X0024221Y0111331D01*
X0024242Y0111185D01*
X0024260Y0111038D01*
X0024274Y0110891D01*
X0024284Y0110743D01*
X0024290Y0110595D01*
X0024292Y0110447D01*
X0024290Y0110299D01*
X0024284Y0110151D01*
X0024274Y0110003D01*
X0024260Y0109856D01*
X0024242Y0109709D01*
X0024221Y0109563D01*
X0024195Y0109417D01*
X0024165Y0109272D01*
X0024132Y0109128D01*
X0024094Y0108985D01*
X0024053Y0108843D01*
X0024008Y0108702D01*
X0023960Y0108562D01*
X0023907Y0108423D01*
X0023851Y0108286D01*
X0023791Y0108151D01*
X0023728Y0108017D01*
X0023661Y0107885D01*
X0023590Y0107755D01*
X0023516Y0107627D01*
X0023439Y0107501D01*
X0023358Y0107377D01*
X0023274Y0107255D01*
X0023187Y0107136D01*
X0023096Y0107019D01*
X0023002Y0106904D01*
X0022906Y0106792D01*
X0022806Y0106682D01*
X0022704Y0106576D01*
X0022598Y0106472D01*
X0022490Y0106371D01*
X0022379Y0106273D01*
X0022266Y0106177D01*
X0022150Y0106085D01*
X0022032Y0105996D01*
X0021911Y0105911D01*
X0021788Y0105828D01*
X0021663Y0105749D01*
X0021536Y0105673D01*
X0021407Y0105601D01*
X0021276Y0105532D01*
X0021143Y0105467D01*
X0021008Y0105406D01*
X0020872Y0105348D01*
X0020735Y0105293D01*
X0020596Y0105243D01*
X0020455Y0105196D01*
X0020314Y0105153D01*
X0020171Y0105113D01*
X0020027Y0105078D01*
X0019883Y0105046D01*
X0019737Y0105019D01*
X0019591Y0104995D01*
X0019444Y0104975D01*
X0019297Y0104959D01*
X0019150Y0104947D01*
X0019002Y0104939D01*
X0018854Y0104935D01*
X0018706Y0104935D01*
X0018558Y0104939D01*
X0018410Y0104947D01*
X0018263Y0104959D01*
X0018116Y0104975D01*
X0017969Y0104995D01*
X0017823Y0105019D01*
X0017677Y0105046D01*
X0017533Y0105078D01*
X0017389Y0105113D01*
X0017246Y0105153D01*
X0017105Y0105196D01*
X0016964Y0105243D01*
X0016825Y0105293D01*
X0016688Y0105348D01*
X0016552Y0105406D01*
X0016417Y0105467D01*
X0016284Y0105532D01*
X0016153Y0105601D01*
X0016024Y0105673D01*
X0015897Y0105749D01*
X0015772Y0105828D01*
X0015649Y0105911D01*
X0015528Y0105996D01*
X0015410Y0106085D01*
X0015294Y0106177D01*
X0015181Y0106273D01*
X0015070Y0106371D01*
X0014962Y0106472D01*
X0014856Y0106576D01*
X0014754Y0106682D01*
X0014654Y0106792D01*
X0014558Y0106904D01*
X0014464Y0107019D01*
X0014373Y0107136D01*
X0014286Y0107255D01*
X0014202Y0107377D01*
X0014121Y0107501D01*
X0014044Y0107627D01*
X0013970Y0107755D01*
X0013899Y0107885D01*
X0013832Y0108017D01*
X0013769Y0108151D01*
X0013709Y0108286D01*
X0013653Y0108423D01*
X0013600Y0108562D01*
X0013552Y0108702D01*
X0013507Y0108843D01*
X0013466Y0108985D01*
X0013428Y0109128D01*
X0013395Y0109272D01*
X0013365Y0109417D01*
X0013339Y0109563D01*
X0013318Y0109709D01*
X0013300Y0109856D01*
X0013286Y0110003D01*
X0013276Y0110151D01*
X0013270Y0110299D01*
X0013268Y0110447D01*
D11*
X0037835Y0105132D03*
D12*
X0047835Y0105132D03*
X0057835Y0105132D03*
X0067835Y0105132D03*
X0077835Y0105132D03*
X0087835Y0105132D03*
X0097835Y0105132D03*
X0107835Y0105132D03*
X0117835Y0105132D03*
X0127835Y0105132D03*
X0137835Y0105132D03*
X0147835Y0105132D03*
X0157835Y0105132D03*
X0167835Y0105132D03*
X0177835Y0105132D03*
X0187835Y0105132D03*
X0197835Y0105132D03*
X0207835Y0105132D03*
X0217835Y0105132D03*
X0227835Y0105132D03*
X0227835Y0115132D03*
X0217835Y0115132D03*
X0207835Y0115132D03*
X0197835Y0115132D03*
X0187835Y0115132D03*
X0177835Y0115132D03*
X0167835Y0115132D03*
X0157835Y0115132D03*
X0147835Y0115132D03*
X0137835Y0115132D03*
X0127835Y0115132D03*
X0117835Y0115132D03*
X0107835Y0115132D03*
X0097835Y0115132D03*
X0087835Y0115132D03*
X0077835Y0115132D03*
X0067835Y0115132D03*
X0057835Y0115132D03*
X0047835Y0115132D03*
X0037835Y0115132D03*
D13*
X0031969Y0063085D03*
X0030000Y0061117D03*
X0028031Y0063085D03*
X0028031Y0059148D03*
X0031969Y0059148D03*
D14*
X0043110Y0020723D03*
X0056890Y0020723D03*
X0139360Y0020723D03*
X0153140Y0020723D03*
X0169360Y0020723D03*
X0183140Y0020723D03*
D15*
X0181250Y0017867D02*
X0181250Y0011867D01*
X0171250Y0011867D02*
X0171250Y0017867D01*
X0151250Y0017867D02*
X0151250Y0011867D01*
X0141250Y0011867D02*
X0141250Y0017867D01*
X0131250Y0017867D02*
X0131250Y0011867D01*
X0121250Y0011867D02*
X0121250Y0017867D01*
X0111250Y0017867D02*
X0111250Y0011867D01*
X0101250Y0011867D02*
X0101250Y0017867D01*
X0055000Y0017867D02*
X0055000Y0011867D01*
X0045000Y0011867D02*
X0045000Y0017867D01*
X0191250Y0017867D02*
X0191250Y0011867D01*
X0201250Y0011867D02*
X0201250Y0017867D01*
X0211250Y0017867D02*
X0211250Y0011867D01*
X0221250Y0011867D02*
X0221250Y0017867D01*
D16*
X0118750Y0064867D03*
X0098750Y0064867D03*
X0098750Y0074867D03*
X0118750Y0074867D03*
D17*
X0108750Y0074867D03*
X0108750Y0064867D03*
D18*
X0010762Y0006117D02*
X0005000Y0006117D01*
X0010762Y0006117D01*
X0007425Y0008541D01*
X0007425Y0008541D01*
X0005000Y0011878D01*
X0005000Y0006117D01*
X0005000Y0007115D02*
X0009387Y0007115D01*
X0008013Y0008114D02*
X0005000Y0008114D01*
X0005000Y0009112D02*
X0007010Y0009112D01*
X0006284Y0010111D02*
X0005000Y0010111D01*
X0005000Y0011109D02*
X0005559Y0011109D01*
X0007446Y0013156D02*
X0008120Y0012227D01*
X0007187Y0013951D01*
X0007446Y0013156D01*
X0007482Y0013106D02*
X0007644Y0013106D01*
X0008606Y0011558D02*
X0011193Y0009177D01*
X0009379Y0010495D01*
X0008606Y0011558D01*
X0008933Y0011109D02*
X0009094Y0011109D01*
X0009908Y0010111D02*
X0010179Y0010111D01*
X0011803Y0008734D02*
X0012637Y0008368D01*
X0012039Y0008562D01*
X0011803Y0008734D01*
X0022555Y0007417D02*
X0024084Y0007804D01*
X0027723Y0010181D01*
X0030393Y0013611D01*
X0031804Y0017723D01*
X0031804Y0022070D01*
X0030393Y0026181D01*
X0027723Y0029611D01*
X0024084Y0031989D01*
X0019870Y0033056D01*
X0015538Y0032697D01*
X0011557Y0030951D01*
X0008359Y0028007D01*
X0006300Y0024202D01*
X0006300Y0106142D01*
X0008359Y0102337D01*
X0011557Y0099393D01*
X0015538Y0097647D01*
X0019870Y0097288D01*
X0022400Y0097928D01*
X0022400Y0089307D01*
X0023191Y0088517D01*
X0029309Y0088517D01*
X0030100Y0089307D01*
X0030100Y0095557D01*
X0035575Y0101032D01*
X0041290Y0101032D01*
X0041935Y0101677D01*
X0041935Y0107392D01*
X0045559Y0111017D01*
X0051809Y0111017D01*
X0052600Y0111807D01*
X0052600Y0119176D01*
X0051809Y0119967D01*
X0027875Y0119967D01*
X0027723Y0120162D01*
X0024084Y0122540D01*
X0022555Y0122927D01*
X0243152Y0122927D01*
X0239904Y0121502D01*
X0236706Y0118558D01*
X0234637Y0114735D01*
X0233921Y0110447D01*
X0234637Y0106160D01*
X0236706Y0102337D01*
X0239904Y0099393D01*
X0243884Y0097647D01*
X0248216Y0097288D01*
X0252430Y0098355D01*
X0256069Y0100732D01*
X0258739Y0104163D01*
X0259606Y0106686D01*
X0259606Y0023657D01*
X0258739Y0026181D01*
X0256069Y0029611D01*
X0252430Y0031989D01*
X0248216Y0033056D01*
X0243884Y0032697D01*
X0239904Y0030951D01*
X0236706Y0028007D01*
X0234637Y0024184D01*
X0233921Y0019896D01*
X0234637Y0015609D01*
X0236706Y0011786D01*
X0239904Y0008842D01*
X0243152Y0007417D01*
X0191920Y0007417D01*
X0192304Y0007477D01*
X0192977Y0007696D01*
X0193609Y0008018D01*
X0194182Y0008434D01*
X0194682Y0008935D01*
X0195099Y0009508D01*
X0195420Y0010139D01*
X0195639Y0010813D01*
X0195750Y0011512D01*
X0195750Y0014367D01*
X0191750Y0014367D01*
X0191750Y0015367D01*
X0190750Y0015367D01*
X0190750Y0022344D01*
X0190196Y0022256D01*
X0189523Y0022037D01*
X0188891Y0021715D01*
X0188318Y0021299D01*
X0187818Y0020798D01*
X0187586Y0020480D01*
X0187586Y0021607D01*
X0186909Y0023242D01*
X0185658Y0024492D01*
X0185600Y0024517D01*
X0206837Y0024517D01*
X0209650Y0021704D01*
X0209650Y0021642D01*
X0208928Y0021342D01*
X0207774Y0020189D01*
X0207150Y0018682D01*
X0207150Y0011051D01*
X0207774Y0009544D01*
X0208928Y0008391D01*
X0210434Y0007767D01*
X0212066Y0007767D01*
X0213572Y0008391D01*
X0214726Y0009544D01*
X0215350Y0011051D01*
X0215350Y0018682D01*
X0214726Y0020189D01*
X0213572Y0021342D01*
X0212850Y0021642D01*
X0212850Y0023029D01*
X0209100Y0026779D01*
X0208863Y0027017D01*
X0209413Y0027017D01*
X0210350Y0027954D01*
X0229772Y0047376D01*
X0230495Y0047376D01*
X0231411Y0047755D01*
X0232111Y0048456D01*
X0232491Y0049371D01*
X0232491Y0050362D01*
X0232111Y0051277D01*
X0231411Y0051978D01*
X0230495Y0052357D01*
X0229505Y0052357D01*
X0228589Y0051978D01*
X0227889Y0051277D01*
X0227509Y0050362D01*
X0227509Y0049639D01*
X0208087Y0030217D01*
X0166288Y0030217D01*
X0155825Y0040679D01*
X0155825Y0041654D01*
X0155414Y0042646D01*
X0154654Y0043406D01*
X0153662Y0043817D01*
X0147588Y0043817D01*
X0146596Y0043406D01*
X0145836Y0042646D01*
X0135757Y0032567D01*
X0051717Y0032567D01*
X0050725Y0032156D01*
X0043738Y0025169D01*
X0042226Y0025169D01*
X0040592Y0024492D01*
X0039341Y0023242D01*
X0038664Y0021607D01*
X0038664Y0019838D01*
X0039341Y0018204D01*
X0040592Y0016953D01*
X0040900Y0016826D01*
X0040900Y0011051D01*
X0041524Y0009544D01*
X0042678Y0008391D01*
X0044184Y0007767D01*
X0045816Y0007767D01*
X0047322Y0008391D01*
X0048476Y0009544D01*
X0049100Y0011051D01*
X0049100Y0018682D01*
X0048476Y0020189D01*
X0047557Y0021108D01*
X0047557Y0021351D01*
X0053372Y0027167D01*
X0105239Y0027167D01*
X0105009Y0026612D01*
X0105009Y0025621D01*
X0105389Y0024706D01*
X0106089Y0024005D01*
X0107005Y0023626D01*
X0107995Y0023626D01*
X0108911Y0024005D01*
X0109422Y0024517D01*
X0136900Y0024517D01*
X0136842Y0024492D01*
X0135591Y0023242D01*
X0134914Y0021607D01*
X0134914Y0020480D01*
X0134682Y0020798D01*
X0134182Y0021299D01*
X0133609Y0021715D01*
X0132977Y0022037D01*
X0132304Y0022256D01*
X0131750Y0022344D01*
X0131750Y0015367D01*
X0130750Y0015367D01*
X0130750Y0022344D01*
X0130196Y0022256D01*
X0129523Y0022037D01*
X0128891Y0021715D01*
X0128318Y0021299D01*
X0127818Y0020798D01*
X0127401Y0020225D01*
X0127080Y0019594D01*
X0126861Y0018920D01*
X0126750Y0018221D01*
X0126750Y0015367D01*
X0130750Y0015367D01*
X0130750Y0014367D01*
X0126750Y0014367D01*
X0126750Y0011512D01*
X0126861Y0010813D01*
X0127080Y0010139D01*
X0127401Y0009508D01*
X0127818Y0008935D01*
X0128318Y0008434D01*
X0128891Y0008018D01*
X0129523Y0007696D01*
X0130196Y0007477D01*
X0130580Y0007417D01*
X0055670Y0007417D01*
X0056054Y0007477D01*
X0056727Y0007696D01*
X0057359Y0008018D01*
X0057932Y0008434D01*
X0058432Y0008935D01*
X0058849Y0009508D01*
X0059170Y0010139D01*
X0059389Y0010813D01*
X0059500Y0011512D01*
X0059500Y0014367D01*
X0055500Y0014367D01*
X0055500Y0015367D01*
X0059500Y0015367D01*
X0059500Y0016629D01*
X0060047Y0017026D01*
X0060586Y0017566D01*
X0061035Y0018183D01*
X0061381Y0018863D01*
X0061617Y0019588D01*
X0061717Y0020223D01*
X0058850Y0020223D01*
X0058849Y0020225D01*
X0058432Y0020798D01*
X0058008Y0021223D01*
X0061717Y0021223D01*
X0061617Y0021858D01*
X0061381Y0022583D01*
X0061035Y0023263D01*
X0060586Y0023880D01*
X0060047Y0024420D01*
X0059430Y0024868D01*
X0058750Y0025214D01*
X0058025Y0025450D01*
X0057390Y0025551D01*
X0057390Y0021693D01*
X0057359Y0021715D01*
X0056727Y0022037D01*
X0056390Y0022147D01*
X0056390Y0025551D01*
X0055755Y0025450D01*
X0055029Y0025214D01*
X0054350Y0024868D01*
X0053733Y0024420D01*
X0053193Y0023880D01*
X0052745Y0023263D01*
X0052398Y0022583D01*
X0052163Y0021858D01*
X0052075Y0021304D01*
X0052068Y0021299D01*
X0051568Y0020798D01*
X0051151Y0020225D01*
X0050830Y0019594D01*
X0050611Y0018920D01*
X0050500Y0018221D01*
X0050500Y0015367D01*
X0054500Y0015367D01*
X0054500Y0014367D01*
X0050500Y0014367D01*
X0050500Y0011512D01*
X0050611Y0010813D01*
X0050830Y0010139D01*
X0051151Y0009508D01*
X0051568Y0008935D01*
X0052068Y0008434D01*
X0052641Y0008018D01*
X0053273Y0007696D01*
X0053946Y0007477D01*
X0054330Y0007417D01*
X0022555Y0007417D01*
X0024558Y0008114D02*
X0043347Y0008114D01*
X0041956Y0009112D02*
X0026087Y0009112D01*
X0027615Y0010111D02*
X0041290Y0010111D01*
X0040900Y0011109D02*
X0028445Y0011109D01*
X0029222Y0012108D02*
X0040900Y0012108D01*
X0040900Y0013106D02*
X0030000Y0013106D01*
X0030562Y0014105D02*
X0040900Y0014105D01*
X0040900Y0015103D02*
X0030905Y0015103D01*
X0031248Y0016102D02*
X0040900Y0016102D01*
X0040445Y0017100D02*
X0031590Y0017100D01*
X0031804Y0018099D02*
X0039446Y0018099D01*
X0038971Y0019097D02*
X0031804Y0019097D01*
X0031804Y0020096D02*
X0038664Y0020096D01*
X0038664Y0021094D02*
X0031804Y0021094D01*
X0031796Y0022093D02*
X0038865Y0022093D01*
X0039278Y0023091D02*
X0031453Y0023091D01*
X0031111Y0024090D02*
X0040189Y0024090D01*
X0042030Y0025088D02*
X0030768Y0025088D01*
X0030425Y0026087D02*
X0044656Y0026087D01*
X0045654Y0027085D02*
X0029689Y0027085D01*
X0028912Y0028084D02*
X0046653Y0028084D01*
X0047651Y0029082D02*
X0028134Y0029082D01*
X0027004Y0030081D02*
X0048650Y0030081D01*
X0049648Y0031079D02*
X0025476Y0031079D01*
X0023731Y0032078D02*
X0050647Y0032078D01*
X0053291Y0027085D02*
X0105206Y0027085D01*
X0105009Y0026087D02*
X0052293Y0026087D01*
X0051294Y0025088D02*
X0054782Y0025088D01*
X0056390Y0025088D02*
X0057390Y0025088D01*
X0057390Y0024090D02*
X0056390Y0024090D01*
X0056390Y0023091D02*
X0057390Y0023091D01*
X0057390Y0022093D02*
X0056555Y0022093D01*
X0058136Y0021094D02*
X0098679Y0021094D01*
X0098928Y0021342D02*
X0097774Y0020189D01*
X0097150Y0018682D01*
X0097150Y0011051D01*
X0097774Y0009544D01*
X0098928Y0008391D01*
X0100434Y0007767D01*
X0102066Y0007767D01*
X0103572Y0008391D01*
X0104726Y0009544D01*
X0105350Y0011051D01*
X0105350Y0018682D01*
X0104726Y0020189D01*
X0103572Y0021342D01*
X0102066Y0021967D01*
X0100434Y0021967D01*
X0098928Y0021342D01*
X0097736Y0020096D02*
X0061697Y0020096D01*
X0061457Y0019097D02*
X0097322Y0019097D01*
X0097150Y0018099D02*
X0060974Y0018099D01*
X0060121Y0017100D02*
X0097150Y0017100D01*
X0097150Y0016102D02*
X0059500Y0016102D01*
X0059500Y0014105D02*
X0097150Y0014105D01*
X0097150Y0015103D02*
X0055500Y0015103D01*
X0054500Y0015103D02*
X0049100Y0015103D01*
X0049100Y0014105D02*
X0050500Y0014105D01*
X0050500Y0013106D02*
X0049100Y0013106D01*
X0049100Y0012108D02*
X0050500Y0012108D01*
X0050564Y0011109D02*
X0049100Y0011109D01*
X0048710Y0010111D02*
X0050844Y0010111D01*
X0051439Y0009112D02*
X0048044Y0009112D01*
X0046653Y0008114D02*
X0052510Y0008114D01*
X0057490Y0008114D02*
X0099597Y0008114D01*
X0098206Y0009112D02*
X0058561Y0009112D01*
X0059156Y0010111D02*
X0097540Y0010111D01*
X0097150Y0011109D02*
X0059436Y0011109D01*
X0059500Y0012108D02*
X0097150Y0012108D01*
X0097150Y0013106D02*
X0059500Y0013106D01*
X0050500Y0016102D02*
X0049100Y0016102D01*
X0049100Y0017100D02*
X0050500Y0017100D01*
X0050500Y0018099D02*
X0049100Y0018099D01*
X0048928Y0019097D02*
X0050668Y0019097D01*
X0051085Y0020096D02*
X0048514Y0020096D01*
X0047571Y0021094D02*
X0051864Y0021094D01*
X0052239Y0022093D02*
X0048298Y0022093D01*
X0049297Y0023091D02*
X0052657Y0023091D01*
X0053403Y0024090D02*
X0050295Y0024090D01*
X0058997Y0025088D02*
X0105230Y0025088D01*
X0106005Y0024090D02*
X0060377Y0024090D01*
X0061122Y0023091D02*
X0135528Y0023091D01*
X0135115Y0022093D02*
X0132805Y0022093D01*
X0131750Y0022093D02*
X0130750Y0022093D01*
X0130750Y0021094D02*
X0131750Y0021094D01*
X0131750Y0020096D02*
X0130750Y0020096D01*
X0130750Y0019097D02*
X0131750Y0019097D01*
X0131750Y0018099D02*
X0130750Y0018099D01*
X0130750Y0017100D02*
X0131750Y0017100D01*
X0131750Y0016102D02*
X0130750Y0016102D01*
X0130750Y0015103D02*
X0125350Y0015103D01*
X0125350Y0014105D02*
X0126750Y0014105D01*
X0126750Y0013106D02*
X0125350Y0013106D01*
X0125350Y0012108D02*
X0126750Y0012108D01*
X0126814Y0011109D02*
X0125350Y0011109D01*
X0125350Y0011051D02*
X0124726Y0009544D01*
X0123572Y0008391D01*
X0122066Y0007767D01*
X0120434Y0007767D01*
X0118928Y0008391D01*
X0117774Y0009544D01*
X0117150Y0011051D01*
X0117150Y0018682D01*
X0117774Y0020189D01*
X0118928Y0021342D01*
X0120434Y0021967D01*
X0122066Y0021967D01*
X0123572Y0021342D01*
X0124726Y0020189D01*
X0125350Y0018682D01*
X0125350Y0011051D01*
X0124960Y0010111D02*
X0127094Y0010111D01*
X0127689Y0009112D02*
X0124294Y0009112D01*
X0122903Y0008114D02*
X0128760Y0008114D01*
X0131920Y0007417D02*
X0132304Y0007477D01*
X0132977Y0007696D01*
X0133609Y0008018D01*
X0134182Y0008434D01*
X0134682Y0008935D01*
X0135099Y0009508D01*
X0135420Y0010139D01*
X0135639Y0010813D01*
X0135750Y0011512D01*
X0135750Y0014367D01*
X0131750Y0014367D01*
X0131750Y0015367D01*
X0135750Y0015367D01*
X0135750Y0018045D01*
X0136842Y0016953D01*
X0137150Y0016826D01*
X0137150Y0011051D01*
X0137774Y0009544D01*
X0138928Y0008391D01*
X0140434Y0007767D01*
X0142066Y0007767D01*
X0143572Y0008391D01*
X0144726Y0009544D01*
X0145350Y0011051D01*
X0145350Y0018682D01*
X0144726Y0020189D01*
X0143807Y0021108D01*
X0143807Y0021607D01*
X0143130Y0023242D01*
X0141879Y0024492D01*
X0141821Y0024517D01*
X0150679Y0024517D01*
X0150621Y0024492D01*
X0149370Y0023242D01*
X0148693Y0021607D01*
X0148693Y0021108D01*
X0147774Y0020189D01*
X0147150Y0018682D01*
X0147150Y0011051D01*
X0147774Y0009544D01*
X0148928Y0008391D01*
X0150434Y0007767D01*
X0152066Y0007767D01*
X0153572Y0008391D01*
X0154726Y0009544D01*
X0155350Y0011051D01*
X0155350Y0016826D01*
X0155658Y0016953D01*
X0156909Y0018204D01*
X0157586Y0019838D01*
X0157586Y0021607D01*
X0156909Y0023242D01*
X0155658Y0024492D01*
X0155600Y0024517D01*
X0166900Y0024517D01*
X0166842Y0024492D01*
X0165591Y0023242D01*
X0164914Y0021607D01*
X0164914Y0019838D01*
X0165591Y0018204D01*
X0166842Y0016953D01*
X0167150Y0016826D01*
X0167150Y0011051D01*
X0167774Y0009544D01*
X0168928Y0008391D01*
X0170434Y0007767D01*
X0172066Y0007767D01*
X0173572Y0008391D01*
X0174726Y0009544D01*
X0175350Y0011051D01*
X0175350Y0018682D01*
X0174726Y0020189D01*
X0173807Y0021108D01*
X0173807Y0021607D01*
X0173130Y0023242D01*
X0171879Y0024492D01*
X0171821Y0024517D01*
X0180679Y0024517D01*
X0180621Y0024492D01*
X0179370Y0023242D01*
X0178693Y0021607D01*
X0178693Y0021108D01*
X0177774Y0020189D01*
X0177150Y0018682D01*
X0177150Y0011051D01*
X0177774Y0009544D01*
X0178928Y0008391D01*
X0180434Y0007767D01*
X0182066Y0007767D01*
X0183572Y0008391D01*
X0184726Y0009544D01*
X0185350Y0011051D01*
X0185350Y0016826D01*
X0185658Y0016953D01*
X0186750Y0018045D01*
X0186750Y0015367D01*
X0190750Y0015367D01*
X0190750Y0014367D01*
X0186750Y0014367D01*
X0186750Y0011512D01*
X0186861Y0010813D01*
X0187080Y0010139D01*
X0187401Y0009508D01*
X0187818Y0008935D01*
X0188318Y0008434D01*
X0188891Y0008018D01*
X0189523Y0007696D01*
X0190196Y0007477D01*
X0190580Y0007417D01*
X0131920Y0007417D01*
X0133740Y0008114D02*
X0139597Y0008114D01*
X0138206Y0009112D02*
X0134811Y0009112D01*
X0135406Y0010111D02*
X0137540Y0010111D01*
X0137150Y0011109D02*
X0135686Y0011109D01*
X0135750Y0012108D02*
X0137150Y0012108D01*
X0137150Y0013106D02*
X0135750Y0013106D01*
X0135750Y0014105D02*
X0137150Y0014105D01*
X0137150Y0015103D02*
X0131750Y0015103D01*
X0126750Y0016102D02*
X0125350Y0016102D01*
X0125350Y0017100D02*
X0126750Y0017100D01*
X0126750Y0018099D02*
X0125350Y0018099D01*
X0125178Y0019097D02*
X0126918Y0019097D01*
X0127335Y0020096D02*
X0124764Y0020096D01*
X0123821Y0021094D02*
X0128114Y0021094D01*
X0129695Y0022093D02*
X0061541Y0022093D01*
X0089139Y0037206D02*
X0089839Y0036505D01*
X0090755Y0036126D01*
X0091745Y0036126D01*
X0092509Y0036443D01*
X0092509Y0035621D01*
X0092889Y0034706D01*
X0093589Y0034005D01*
X0094505Y0033626D01*
X0095495Y0033626D01*
X0096411Y0034005D01*
X0097111Y0034706D01*
X0097491Y0035621D01*
X0097491Y0036443D01*
X0098255Y0036126D01*
X0099245Y0036126D01*
X0100161Y0036505D01*
X0100861Y0037206D01*
X0101241Y0038121D01*
X0101241Y0039112D01*
X0100861Y0040027D01*
X0100350Y0040539D01*
X0100350Y0049279D01*
X0096241Y0053389D01*
X0096241Y0054112D01*
X0095861Y0055027D01*
X0095161Y0055728D01*
X0094245Y0056107D01*
X0093255Y0056107D01*
X0092339Y0055728D01*
X0091639Y0055027D01*
X0091259Y0054112D01*
X0091259Y0053370D01*
X0089991Y0054639D01*
X0089991Y0055362D01*
X0089611Y0056277D01*
X0088911Y0056978D01*
X0087995Y0057357D01*
X0087005Y0057357D01*
X0086089Y0056978D01*
X0085389Y0056277D01*
X0085009Y0055362D01*
X0085009Y0054371D01*
X0085389Y0053456D01*
X0086089Y0052755D01*
X0087005Y0052376D01*
X0087728Y0052376D01*
X0091497Y0048607D01*
X0090755Y0048607D01*
X0089839Y0048228D01*
X0089139Y0047527D01*
X0088759Y0046612D01*
X0088759Y0045621D01*
X0089139Y0044706D01*
X0089650Y0044194D01*
X0089650Y0040539D01*
X0089139Y0040027D01*
X0088759Y0039112D01*
X0088759Y0038121D01*
X0089139Y0037206D01*
X0089274Y0037071D02*
X0006300Y0037071D01*
X0006300Y0038069D02*
X0088781Y0038069D01*
X0088759Y0039068D02*
X0006300Y0039068D01*
X0006300Y0040066D02*
X0089177Y0040066D01*
X0089650Y0041065D02*
X0006300Y0041065D01*
X0006300Y0042063D02*
X0089650Y0042063D01*
X0089650Y0043062D02*
X0006300Y0043062D01*
X0006300Y0044060D02*
X0089650Y0044060D01*
X0088992Y0045059D02*
X0006300Y0045059D01*
X0006300Y0046057D02*
X0088759Y0046057D01*
X0088943Y0047056D02*
X0034461Y0047056D01*
X0034611Y0047206D02*
X0034991Y0048121D01*
X0034991Y0049112D01*
X0034611Y0050027D01*
X0034142Y0050496D01*
X0035009Y0051363D01*
X0035009Y0050621D01*
X0035389Y0049706D01*
X0036089Y0049005D01*
X0037005Y0048626D01*
X0037995Y0048626D01*
X0038911Y0049005D01*
X0039422Y0049517D01*
X0055663Y0049517D01*
X0084772Y0078626D01*
X0085495Y0078626D01*
X0086411Y0079005D01*
X0087111Y0079706D01*
X0087491Y0080621D01*
X0087491Y0081612D01*
X0087111Y0082527D01*
X0086411Y0083228D01*
X0085495Y0083607D01*
X0084753Y0083607D01*
X0089413Y0088267D01*
X0092239Y0088267D01*
X0091555Y0087583D01*
X0091161Y0086632D01*
X0091161Y0085602D01*
X0091555Y0084650D01*
X0092283Y0083922D01*
X0093235Y0083528D01*
X0094265Y0083528D01*
X0095217Y0083922D01*
X0095811Y0084517D01*
X0189337Y0084517D01*
X0199337Y0074517D01*
X0216689Y0074517D01*
X0217283Y0073922D01*
X0218235Y0073528D01*
X0219265Y0073528D01*
X0220217Y0073922D01*
X0220945Y0074650D01*
X0221339Y0075602D01*
X0221339Y0076632D01*
X0220945Y0077583D01*
X0220217Y0078311D01*
X0219265Y0078706D01*
X0218235Y0078706D01*
X0217283Y0078311D01*
X0216689Y0077717D01*
X0200663Y0077717D01*
X0190663Y0087717D01*
X0095811Y0087717D01*
X0095261Y0088267D01*
X0193087Y0088267D01*
X0198661Y0082693D01*
X0198661Y0081852D01*
X0199055Y0080900D01*
X0199783Y0080172D01*
X0200735Y0079778D01*
X0201765Y0079778D01*
X0202717Y0080172D01*
X0203445Y0080900D01*
X0203839Y0081852D01*
X0203839Y0082882D01*
X0203445Y0083833D01*
X0202717Y0084561D01*
X0201765Y0084956D01*
X0200924Y0084956D01*
X0195350Y0090529D01*
X0194413Y0091467D01*
X0112568Y0091467D01*
X0112661Y0091505D01*
X0113361Y0092206D01*
X0113741Y0093121D01*
X0113741Y0094112D01*
X0113361Y0095027D01*
X0112661Y0095728D01*
X0111745Y0096107D01*
X0111022Y0096107D01*
X0110663Y0096467D01*
X0104011Y0096467D01*
X0104561Y0097017D01*
X0190587Y0097017D01*
X0197411Y0090193D01*
X0197411Y0089352D01*
X0197805Y0088400D01*
X0198533Y0087672D01*
X0199485Y0087278D01*
X0200515Y0087278D01*
X0201467Y0087672D01*
X0202195Y0088400D01*
X0202589Y0089352D01*
X0202589Y0090382D01*
X0202195Y0091333D01*
X0201467Y0092061D01*
X0200515Y0092456D01*
X0199674Y0092456D01*
X0191913Y0100217D01*
X0104561Y0100217D01*
X0103967Y0100811D01*
X0103015Y0101206D01*
X0101985Y0101206D01*
X0101033Y0100811D01*
X0100305Y0100083D01*
X0099911Y0099132D01*
X0099911Y0098102D01*
X0100305Y0097150D01*
X0100989Y0096467D01*
X0069337Y0096467D01*
X0052103Y0079232D01*
X0051380Y0079232D01*
X0050464Y0078853D01*
X0049764Y0078152D01*
X0049384Y0077237D01*
X0049384Y0076246D01*
X0049764Y0075331D01*
X0050464Y0074630D01*
X0051380Y0074251D01*
X0052370Y0074251D01*
X0053286Y0074630D01*
X0053986Y0075331D01*
X0054366Y0076246D01*
X0054366Y0076969D01*
X0070663Y0093267D01*
X0108759Y0093267D01*
X0108759Y0093121D01*
X0109139Y0092206D01*
X0109839Y0091505D01*
X0109932Y0091467D01*
X0088087Y0091467D01*
X0087150Y0090529D01*
X0053087Y0056467D01*
X0035587Y0056467D01*
X0031837Y0052717D01*
X0030900Y0051779D01*
X0030900Y0050539D01*
X0030389Y0050027D01*
X0030009Y0049112D01*
X0030009Y0048121D01*
X0030389Y0047206D01*
X0031089Y0046505D01*
X0032005Y0046126D01*
X0032995Y0046126D01*
X0033911Y0046505D01*
X0034611Y0047206D01*
X0034963Y0048054D02*
X0089665Y0048054D01*
X0091051Y0049053D02*
X0038958Y0049053D01*
X0036042Y0049053D02*
X0034991Y0049053D01*
X0035246Y0050051D02*
X0034588Y0050051D01*
X0034696Y0051050D02*
X0035009Y0051050D01*
X0037500Y0051117D02*
X0055000Y0051117D01*
X0085000Y0081117D01*
X0087328Y0082004D02*
X0128922Y0082004D01*
X0128759Y0081612D02*
X0128759Y0080889D01*
X0123087Y0075217D01*
X0122350Y0074479D01*
X0122350Y0075583D01*
X0121802Y0076906D01*
X0120789Y0077919D01*
X0119466Y0078467D01*
X0118034Y0078467D01*
X0116711Y0077919D01*
X0115698Y0076906D01*
X0115150Y0075583D01*
X0115150Y0074151D01*
X0115698Y0072827D01*
X0116711Y0071815D01*
X0118034Y0071267D01*
X0119466Y0071267D01*
X0120789Y0071815D01*
X0121802Y0072827D01*
X0122150Y0073668D01*
X0122150Y0070529D01*
X0119905Y0068285D01*
X0119466Y0068467D01*
X0118034Y0068467D01*
X0116711Y0067919D01*
X0115698Y0066906D01*
X0115150Y0065583D01*
X0115150Y0064151D01*
X0115698Y0062827D01*
X0116711Y0061815D01*
X0118034Y0061267D01*
X0119466Y0061267D01*
X0120789Y0061815D01*
X0121802Y0062827D01*
X0122350Y0064151D01*
X0122350Y0065583D01*
X0122168Y0066022D01*
X0125350Y0069204D01*
X0125350Y0072954D01*
X0131022Y0078626D01*
X0131745Y0078626D01*
X0132661Y0079005D01*
X0133361Y0079706D01*
X0133741Y0080621D01*
X0133741Y0081612D01*
X0133361Y0082527D01*
X0132661Y0083228D01*
X0131745Y0083607D01*
X0130755Y0083607D01*
X0129839Y0083228D01*
X0129139Y0082527D01*
X0128759Y0081612D01*
X0128759Y0081005D02*
X0087491Y0081005D01*
X0087236Y0080006D02*
X0127877Y0080006D01*
X0126879Y0079008D02*
X0086413Y0079008D01*
X0084156Y0078009D02*
X0096254Y0078009D01*
X0096200Y0077974D02*
X0095643Y0077416D01*
X0095205Y0076761D01*
X0094904Y0076033D01*
X0094771Y0075367D01*
X0098250Y0075367D01*
X0098250Y0078846D01*
X0097583Y0078713D01*
X0096855Y0078411D01*
X0096200Y0077974D01*
X0095372Y0077011D02*
X0083157Y0077011D01*
X0082159Y0076012D02*
X0094900Y0076012D01*
X0098250Y0076012D02*
X0099250Y0076012D01*
X0099250Y0075367D02*
X0098250Y0075367D01*
X0098250Y0074367D01*
X0094771Y0074367D01*
X0094904Y0073700D01*
X0095205Y0072972D01*
X0095643Y0072317D01*
X0096200Y0071760D01*
X0096855Y0071322D01*
X0097583Y0071020D01*
X0098250Y0070888D01*
X0098250Y0074367D01*
X0099250Y0074367D01*
X0099250Y0075367D01*
X0099250Y0078846D01*
X0099917Y0078713D01*
X0100645Y0078411D01*
X0101300Y0077974D01*
X0101857Y0077416D01*
X0102295Y0076761D01*
X0102596Y0076033D01*
X0102729Y0075367D01*
X0099250Y0075367D01*
X0099250Y0075014D02*
X0105075Y0075014D01*
X0105075Y0075598D02*
X0105075Y0074136D01*
X0105635Y0072785D01*
X0106668Y0071751D01*
X0108019Y0071192D01*
X0109481Y0071192D01*
X0110832Y0071751D01*
X0111865Y0072785D01*
X0112425Y0074136D01*
X0112425Y0075598D01*
X0111865Y0076948D01*
X0110832Y0077982D01*
X0109481Y0078541D01*
X0108019Y0078541D01*
X0106668Y0077982D01*
X0105635Y0076948D01*
X0105075Y0075598D01*
X0105247Y0076012D02*
X0102600Y0076012D01*
X0102128Y0077011D02*
X0105697Y0077011D01*
X0106735Y0078009D02*
X0101246Y0078009D01*
X0099250Y0078009D02*
X0098250Y0078009D01*
X0098250Y0077011D02*
X0099250Y0077011D01*
X0098250Y0075014D02*
X0081160Y0075014D01*
X0080162Y0074015D02*
X0094841Y0074015D01*
X0095187Y0073017D02*
X0079163Y0073017D01*
X0078164Y0072018D02*
X0095941Y0072018D01*
X0097586Y0071020D02*
X0077166Y0071020D01*
X0076167Y0070021D02*
X0121642Y0070021D01*
X0122150Y0071020D02*
X0099914Y0071020D01*
X0099917Y0071020D02*
X0100645Y0071322D01*
X0101300Y0071760D01*
X0101857Y0072317D01*
X0102295Y0072972D01*
X0102596Y0073700D01*
X0102729Y0074367D01*
X0099250Y0074367D01*
X0099250Y0070888D01*
X0099917Y0071020D01*
X0099250Y0071020D02*
X0098250Y0071020D01*
X0098250Y0072018D02*
X0099250Y0072018D01*
X0099250Y0073017D02*
X0098250Y0073017D01*
X0098250Y0074015D02*
X0099250Y0074015D01*
X0102313Y0073017D02*
X0105539Y0073017D01*
X0105125Y0074015D02*
X0102659Y0074015D01*
X0101559Y0072018D02*
X0106401Y0072018D01*
X0108019Y0068541D02*
X0106668Y0067982D01*
X0105635Y0066948D01*
X0105075Y0065598D01*
X0105075Y0064136D01*
X0105635Y0062785D01*
X0106668Y0061751D01*
X0108019Y0061192D01*
X0109481Y0061192D01*
X0110832Y0061751D01*
X0111865Y0062785D01*
X0112425Y0064136D01*
X0112425Y0065598D01*
X0111865Y0066948D01*
X0110832Y0067982D01*
X0109481Y0068541D01*
X0108019Y0068541D01*
X0106771Y0068024D02*
X0100534Y0068024D01*
X0100789Y0067919D02*
X0099466Y0068467D01*
X0098034Y0068467D01*
X0096711Y0067919D01*
X0095698Y0066906D01*
X0095150Y0065583D01*
X0095150Y0064151D01*
X0095698Y0062827D01*
X0096711Y0061815D01*
X0098034Y0061267D01*
X0099466Y0061267D01*
X0100789Y0061815D01*
X0101802Y0062827D01*
X0102350Y0064151D01*
X0102350Y0065583D01*
X0101802Y0066906D01*
X0100789Y0067919D01*
X0101682Y0067026D02*
X0105712Y0067026D01*
X0105253Y0066027D02*
X0102166Y0066027D01*
X0102350Y0065029D02*
X0105075Y0065029D01*
X0105119Y0064030D02*
X0102300Y0064030D01*
X0101887Y0063032D02*
X0105532Y0063032D01*
X0106386Y0062033D02*
X0101008Y0062033D01*
X0096492Y0062033D02*
X0068179Y0062033D01*
X0067181Y0061035D02*
X0128905Y0061035D01*
X0127907Y0060036D02*
X0066182Y0060036D01*
X0065184Y0059038D02*
X0126908Y0059038D01*
X0126837Y0058967D02*
X0125900Y0058029D01*
X0125900Y0051779D01*
X0123087Y0048967D01*
X0113172Y0048967D01*
X0112661Y0049478D01*
X0111745Y0049857D01*
X0110755Y0049857D01*
X0109839Y0049478D01*
X0109139Y0048777D01*
X0108759Y0047862D01*
X0108759Y0046871D01*
X0109139Y0045956D01*
X0109839Y0045255D01*
X0110755Y0044876D01*
X0111745Y0044876D01*
X0112661Y0045255D01*
X0113172Y0045767D01*
X0124413Y0045767D01*
X0125350Y0046704D01*
X0129100Y0050454D01*
X0129100Y0056704D01*
X0130158Y0057762D01*
X0130389Y0057206D01*
X0131089Y0056505D01*
X0132005Y0056126D01*
X0132995Y0056126D01*
X0133911Y0056505D01*
X0134422Y0057017D01*
X0157538Y0057017D01*
X0158475Y0057954D01*
X0160397Y0059876D01*
X0161120Y0059876D01*
X0162036Y0060255D01*
X0162736Y0060956D01*
X0163116Y0061871D01*
X0163116Y0062862D01*
X0162736Y0063777D01*
X0162036Y0064478D01*
X0161120Y0064857D01*
X0160130Y0064857D01*
X0159214Y0064478D01*
X0158514Y0063777D01*
X0158134Y0062862D01*
X0158134Y0062139D01*
X0156212Y0060217D01*
X0153193Y0060217D01*
X0153286Y0060255D01*
X0153986Y0060956D01*
X0154366Y0061871D01*
X0154366Y0062862D01*
X0153986Y0063777D01*
X0153286Y0064478D01*
X0152370Y0064857D01*
X0151380Y0064857D01*
X0150464Y0064478D01*
X0149953Y0063967D01*
X0138172Y0063967D01*
X0137661Y0064478D01*
X0137105Y0064708D01*
X0138163Y0065767D01*
X0138703Y0065767D01*
X0139214Y0065255D01*
X0140130Y0064876D01*
X0141120Y0064876D01*
X0142036Y0065255D01*
X0142547Y0065767D01*
X0199328Y0065767D01*
X0199839Y0065255D01*
X0200755Y0064876D01*
X0201745Y0064876D01*
X0202661Y0065255D01*
X0203361Y0065956D01*
X0203741Y0066871D01*
X0203741Y0067862D01*
X0203361Y0068777D01*
X0202661Y0069478D01*
X0202568Y0069517D01*
X0211837Y0069517D01*
X0218759Y0062594D01*
X0218759Y0061871D01*
X0219139Y0060956D01*
X0219839Y0060255D01*
X0220755Y0059876D01*
X0221745Y0059876D01*
X0222661Y0060255D01*
X0223361Y0060956D01*
X0223741Y0061871D01*
X0223741Y0062862D01*
X0223361Y0063777D01*
X0222661Y0064478D01*
X0221745Y0064857D01*
X0221022Y0064857D01*
X0213163Y0072717D01*
X0136837Y0072717D01*
X0135900Y0071779D01*
X0131478Y0067357D01*
X0130755Y0067357D01*
X0129839Y0066978D01*
X0129139Y0066277D01*
X0128759Y0065362D01*
X0128759Y0064371D01*
X0129139Y0063456D01*
X0129839Y0062755D01*
X0130395Y0062525D01*
X0126837Y0058967D01*
X0125910Y0058039D02*
X0064185Y0058039D01*
X0063187Y0057041D02*
X0086241Y0057041D01*
X0085291Y0056042D02*
X0062188Y0056042D01*
X0061190Y0055044D02*
X0085009Y0055044D01*
X0085144Y0054045D02*
X0060191Y0054045D01*
X0059193Y0053047D02*
X0085798Y0053047D01*
X0088056Y0052048D02*
X0058194Y0052048D01*
X0057196Y0051050D02*
X0089054Y0051050D01*
X0090053Y0050051D02*
X0056197Y0050051D01*
X0054337Y0052717D02*
X0039422Y0052717D01*
X0038911Y0053228D01*
X0038818Y0053267D01*
X0054413Y0053267D01*
X0082509Y0081363D01*
X0082509Y0080889D01*
X0054337Y0052717D01*
X0054667Y0053047D02*
X0039092Y0053047D01*
X0036250Y0054867D02*
X0032500Y0051117D01*
X0032500Y0048617D01*
X0030539Y0047056D02*
X0006300Y0047056D01*
X0006300Y0048054D02*
X0030037Y0048054D01*
X0030009Y0049053D02*
X0006300Y0049053D01*
X0006300Y0050051D02*
X0030412Y0050051D01*
X0030900Y0051050D02*
X0006300Y0051050D01*
X0006300Y0052048D02*
X0031169Y0052048D01*
X0032167Y0053047D02*
X0006300Y0053047D01*
X0006300Y0054045D02*
X0033166Y0054045D01*
X0034164Y0055044D02*
X0006300Y0055044D01*
X0006300Y0056042D02*
X0035163Y0056042D01*
X0034232Y0057041D02*
X0053661Y0057041D01*
X0054660Y0058039D02*
X0034854Y0058039D01*
X0034940Y0058247D02*
X0034707Y0057684D01*
X0034369Y0057178D01*
X0033939Y0056748D01*
X0033432Y0056409D01*
X0032870Y0056176D01*
X0032273Y0056058D01*
X0031969Y0056058D01*
X0031969Y0058715D01*
X0031968Y0058715D01*
X0031968Y0056058D01*
X0031664Y0056058D01*
X0031067Y0056176D01*
X0030505Y0056409D01*
X0030000Y0056746D01*
X0029495Y0056409D01*
X0028933Y0056176D01*
X0028336Y0056058D01*
X0028032Y0056058D01*
X0028032Y0058715D01*
X0028031Y0058715D01*
X0028031Y0056058D01*
X0027727Y0056058D01*
X0027130Y0056176D01*
X0026568Y0056409D01*
X0026061Y0056748D01*
X0025631Y0057178D01*
X0025293Y0057684D01*
X0025060Y0058247D01*
X0024941Y0058844D01*
X0024941Y0059148D01*
X0027598Y0059148D01*
X0027598Y0059148D01*
X0024941Y0059148D01*
X0024941Y0059453D01*
X0025060Y0060050D01*
X0025293Y0060612D01*
X0025630Y0061117D01*
X0025293Y0061621D01*
X0025060Y0062184D01*
X0024941Y0062781D01*
X0024941Y0063085D01*
X0027598Y0063085D01*
X0027598Y0063085D01*
X0024941Y0063085D01*
X0024941Y0063390D01*
X0025060Y0063987D01*
X0025293Y0064549D01*
X0025631Y0065055D01*
X0026061Y0065486D01*
X0026568Y0065824D01*
X0027130Y0066057D01*
X0027727Y0066176D01*
X0028031Y0066176D01*
X0028031Y0063518D01*
X0028032Y0063518D01*
X0028032Y0066176D01*
X0028336Y0066176D01*
X0028933Y0066057D01*
X0029495Y0065824D01*
X0030000Y0065487D01*
X0030505Y0065824D01*
X0031067Y0066057D01*
X0031664Y0066176D01*
X0031968Y0066176D01*
X0031968Y0063518D01*
X0031969Y0063518D01*
X0031969Y0066176D01*
X0032273Y0066176D01*
X0032870Y0066057D01*
X0033432Y0065824D01*
X0033939Y0065486D01*
X0034369Y0065055D01*
X0034707Y0064549D01*
X0034940Y0063987D01*
X0035059Y0063390D01*
X0035059Y0063085D01*
X0032402Y0063085D01*
X0032402Y0063085D01*
X0035059Y0063085D01*
X0035059Y0062781D01*
X0034940Y0062184D01*
X0034707Y0061621D01*
X0034370Y0061117D01*
X0034707Y0060612D01*
X0034940Y0060050D01*
X0035059Y0059453D01*
X0035059Y0059148D01*
X0032402Y0059148D01*
X0035059Y0059148D01*
X0035059Y0058844D01*
X0034940Y0058247D01*
X0035059Y0059038D02*
X0055658Y0059038D01*
X0056657Y0060036D02*
X0034943Y0060036D01*
X0034425Y0061035D02*
X0057655Y0061035D01*
X0058654Y0062033D02*
X0034878Y0062033D01*
X0035059Y0063032D02*
X0059652Y0063032D01*
X0060651Y0064030D02*
X0034922Y0064030D01*
X0034387Y0065029D02*
X0061649Y0065029D01*
X0062648Y0066027D02*
X0032941Y0066027D01*
X0031969Y0066027D02*
X0031968Y0066027D01*
X0030996Y0066027D02*
X0029004Y0066027D01*
X0028032Y0066027D02*
X0028031Y0066027D01*
X0027059Y0066027D02*
X0006300Y0066027D01*
X0006300Y0065029D02*
X0025613Y0065029D01*
X0025078Y0064030D02*
X0006300Y0064030D01*
X0006300Y0063032D02*
X0024941Y0063032D01*
X0025122Y0062033D02*
X0006300Y0062033D01*
X0006300Y0061035D02*
X0025575Y0061035D01*
X0025057Y0060036D02*
X0006300Y0060036D01*
X0006300Y0059038D02*
X0024941Y0059038D01*
X0025146Y0058039D02*
X0006300Y0058039D01*
X0006300Y0057041D02*
X0025768Y0057041D01*
X0028031Y0057041D02*
X0028032Y0057041D01*
X0028031Y0058039D02*
X0028032Y0058039D01*
X0030000Y0059148D02*
X0030000Y0059148D01*
X0030000Y0059148D01*
X0030000Y0059148D01*
X0030000Y0059148D01*
X0031968Y0058039D02*
X0031969Y0058039D01*
X0031968Y0057041D02*
X0031969Y0057041D01*
X0032402Y0059148D02*
X0032402Y0059148D01*
X0031969Y0061117D02*
X0031968Y0061117D01*
X0031969Y0061117D01*
X0031969Y0061117D01*
X0031968Y0061117D02*
X0031968Y0061117D01*
X0030000Y0063085D02*
X0030000Y0063085D01*
X0030000Y0063085D01*
X0030000Y0063085D01*
X0030000Y0063085D01*
X0031968Y0064030D02*
X0031969Y0064030D01*
X0031968Y0065029D02*
X0031969Y0065029D01*
X0028032Y0065029D02*
X0028031Y0065029D01*
X0028031Y0064030D02*
X0028032Y0064030D01*
X0028032Y0061117D02*
X0028032Y0061117D01*
X0028031Y0061117D01*
X0028031Y0061117D01*
X0028032Y0061117D01*
X0036250Y0054867D02*
X0053750Y0054867D01*
X0088750Y0089867D01*
X0193750Y0089867D01*
X0201250Y0082367D01*
X0203277Y0084001D02*
X0259606Y0084001D01*
X0259606Y0084999D02*
X0200880Y0084999D01*
X0199882Y0085998D02*
X0259606Y0085998D01*
X0259606Y0086996D02*
X0198883Y0086996D01*
X0198211Y0087995D02*
X0197885Y0087995D01*
X0197560Y0088993D02*
X0196886Y0088993D01*
X0197411Y0089992D02*
X0195888Y0089992D01*
X0196614Y0090990D02*
X0194889Y0090990D01*
X0195615Y0091989D02*
X0113144Y0091989D01*
X0113685Y0092987D02*
X0194617Y0092987D01*
X0193618Y0093986D02*
X0113741Y0093986D01*
X0113379Y0094984D02*
X0192620Y0094984D01*
X0191621Y0095983D02*
X0112046Y0095983D01*
X0110000Y0094867D02*
X0070000Y0094867D01*
X0051875Y0076742D01*
X0053669Y0075014D02*
X0071635Y0075014D01*
X0072633Y0076012D02*
X0054269Y0076012D01*
X0054407Y0077011D02*
X0073632Y0077011D01*
X0074630Y0078009D02*
X0055406Y0078009D01*
X0056404Y0079008D02*
X0075629Y0079008D01*
X0076627Y0080006D02*
X0057403Y0080006D01*
X0058401Y0081005D02*
X0077626Y0081005D01*
X0078624Y0082004D02*
X0059400Y0082004D01*
X0060398Y0083002D02*
X0079623Y0083002D01*
X0080621Y0084001D02*
X0061397Y0084001D01*
X0062395Y0084999D02*
X0081620Y0084999D01*
X0082618Y0085998D02*
X0063394Y0085998D01*
X0064392Y0086996D02*
X0083617Y0086996D01*
X0084615Y0087995D02*
X0065391Y0087995D01*
X0066389Y0088993D02*
X0085614Y0088993D01*
X0086612Y0089992D02*
X0067388Y0089992D01*
X0068386Y0090990D02*
X0087611Y0090990D01*
X0087150Y0090529D02*
X0087150Y0090529D01*
X0089141Y0087995D02*
X0091967Y0087995D01*
X0091312Y0086996D02*
X0088142Y0086996D01*
X0087144Y0085998D02*
X0091161Y0085998D01*
X0091411Y0084999D02*
X0086145Y0084999D01*
X0085147Y0084001D02*
X0092205Y0084001D01*
X0095295Y0084001D02*
X0189853Y0084001D01*
X0190852Y0083002D02*
X0132887Y0083002D01*
X0133578Y0082004D02*
X0191850Y0082004D01*
X0192849Y0081005D02*
X0133741Y0081005D01*
X0133486Y0080006D02*
X0193847Y0080006D01*
X0194846Y0079008D02*
X0132663Y0079008D01*
X0130406Y0078009D02*
X0195844Y0078009D01*
X0196843Y0077011D02*
X0129407Y0077011D01*
X0128409Y0076012D02*
X0197841Y0076012D01*
X0198840Y0075014D02*
X0127410Y0075014D01*
X0126411Y0074015D02*
X0217190Y0074015D01*
X0220310Y0074015D02*
X0259606Y0074015D01*
X0259606Y0073017D02*
X0125413Y0073017D01*
X0125350Y0072018D02*
X0136139Y0072018D01*
X0135141Y0071020D02*
X0125350Y0071020D01*
X0125350Y0070021D02*
X0134142Y0070021D01*
X0133143Y0069023D02*
X0125169Y0069023D01*
X0124170Y0068024D02*
X0132145Y0068024D01*
X0129955Y0067026D02*
X0123172Y0067026D01*
X0122173Y0066027D02*
X0129035Y0066027D01*
X0128759Y0065029D02*
X0122350Y0065029D01*
X0122300Y0064030D02*
X0128901Y0064030D01*
X0129563Y0063032D02*
X0121887Y0063032D01*
X0121008Y0062033D02*
X0129904Y0062033D01*
X0133355Y0060958D02*
X0133908Y0061512D01*
X0134139Y0060956D01*
X0134839Y0060255D01*
X0134932Y0060217D01*
X0134422Y0060217D01*
X0133911Y0060728D01*
X0133355Y0060958D01*
X0133431Y0061035D02*
X0134106Y0061035D01*
X0136250Y0062367D02*
X0151875Y0062367D01*
X0150016Y0064030D02*
X0138109Y0064030D01*
X0137425Y0065029D02*
X0139761Y0065029D01*
X0141489Y0065029D02*
X0200386Y0065029D01*
X0202114Y0065029D02*
X0216325Y0065029D01*
X0215327Y0066027D02*
X0203391Y0066027D01*
X0203741Y0067026D02*
X0214328Y0067026D01*
X0213330Y0068024D02*
X0203673Y0068024D01*
X0203116Y0069023D02*
X0212331Y0069023D01*
X0215858Y0070021D02*
X0259606Y0070021D01*
X0259606Y0069023D02*
X0216857Y0069023D01*
X0217855Y0068024D02*
X0259606Y0068024D01*
X0259606Y0067026D02*
X0218854Y0067026D01*
X0219852Y0066027D02*
X0259606Y0066027D01*
X0259606Y0065029D02*
X0220851Y0065029D01*
X0223109Y0064030D02*
X0259606Y0064030D01*
X0259606Y0063032D02*
X0223670Y0063032D01*
X0223741Y0062033D02*
X0259606Y0062033D01*
X0259606Y0061035D02*
X0223394Y0061035D01*
X0222132Y0060036D02*
X0259606Y0060036D01*
X0259606Y0059038D02*
X0159559Y0059038D01*
X0158560Y0058039D02*
X0259606Y0058039D01*
X0259606Y0057041D02*
X0157562Y0057041D01*
X0156875Y0058617D02*
X0132500Y0058617D01*
X0130554Y0057041D02*
X0129437Y0057041D01*
X0129100Y0056042D02*
X0259606Y0056042D01*
X0259606Y0055044D02*
X0129100Y0055044D01*
X0129100Y0054045D02*
X0259606Y0054045D01*
X0259606Y0053047D02*
X0129100Y0053047D01*
X0129100Y0052048D02*
X0228759Y0052048D01*
X0227794Y0051050D02*
X0129100Y0051050D01*
X0128697Y0050051D02*
X0227509Y0050051D01*
X0226923Y0049053D02*
X0127699Y0049053D01*
X0126700Y0048054D02*
X0225925Y0048054D01*
X0224926Y0047056D02*
X0125702Y0047056D01*
X0124703Y0046057D02*
X0157428Y0046057D01*
X0157833Y0046462D02*
X0156899Y0045527D01*
X0156899Y0044206D01*
X0157833Y0043271D01*
X0159155Y0043271D01*
X0159872Y0043989D01*
X0160589Y0043271D01*
X0161911Y0043271D01*
X0162628Y0043989D01*
X0163345Y0043271D01*
X0164667Y0043271D01*
X0165601Y0044206D01*
X0165601Y0045527D01*
X0164667Y0046462D01*
X0163345Y0046462D01*
X0162628Y0045745D01*
X0161911Y0046462D01*
X0160589Y0046462D01*
X0159872Y0045745D01*
X0159155Y0046462D01*
X0157833Y0046462D01*
X0156899Y0045059D02*
X0112186Y0045059D01*
X0110314Y0045059D02*
X0100350Y0045059D01*
X0100350Y0046057D02*
X0109097Y0046057D01*
X0108759Y0047056D02*
X0100350Y0047056D01*
X0100350Y0048054D02*
X0108839Y0048054D01*
X0109414Y0049053D02*
X0100350Y0049053D01*
X0099578Y0050051D02*
X0124172Y0050051D01*
X0125170Y0051050D02*
X0098580Y0051050D01*
X0097581Y0052048D02*
X0125900Y0052048D01*
X0125900Y0053047D02*
X0096583Y0053047D01*
X0096241Y0054045D02*
X0125900Y0054045D01*
X0125900Y0055044D02*
X0095845Y0055044D01*
X0094402Y0056042D02*
X0125900Y0056042D01*
X0125900Y0057041D02*
X0088759Y0057041D01*
X0089709Y0056042D02*
X0093098Y0056042D01*
X0091655Y0055044D02*
X0089991Y0055044D01*
X0090584Y0054045D02*
X0091259Y0054045D01*
X0093750Y0053617D02*
X0098750Y0048617D01*
X0098750Y0038617D01*
X0097150Y0040539D02*
X0096639Y0040027D01*
X0096600Y0039934D01*
X0096600Y0048029D01*
X0093503Y0051126D01*
X0093978Y0051126D01*
X0097150Y0047954D01*
X0097150Y0040539D01*
X0097150Y0041065D02*
X0096600Y0041065D01*
X0096600Y0042063D02*
X0097150Y0042063D01*
X0097150Y0043062D02*
X0096600Y0043062D01*
X0096600Y0044060D02*
X0097150Y0044060D01*
X0097150Y0045059D02*
X0096600Y0045059D01*
X0096600Y0046057D02*
X0097150Y0046057D01*
X0097150Y0047056D02*
X0096600Y0047056D01*
X0096575Y0048054D02*
X0097050Y0048054D01*
X0096051Y0049053D02*
X0095577Y0049053D01*
X0095053Y0050051D02*
X0094578Y0050051D01*
X0094054Y0051050D02*
X0093580Y0051050D01*
X0095000Y0047367D02*
X0087500Y0054867D01*
X0095000Y0047367D02*
X0095000Y0036117D01*
X0097491Y0036072D02*
X0139262Y0036072D01*
X0140260Y0037071D02*
X0100726Y0037071D01*
X0101219Y0038069D02*
X0141259Y0038069D01*
X0142258Y0039068D02*
X0101241Y0039068D01*
X0100823Y0040066D02*
X0143256Y0040066D01*
X0144255Y0041065D02*
X0100350Y0041065D01*
X0100350Y0042063D02*
X0145253Y0042063D01*
X0145836Y0042646D02*
X0145836Y0042646D01*
X0146252Y0043062D02*
X0100350Y0043062D01*
X0100350Y0044060D02*
X0157045Y0044060D01*
X0154998Y0043062D02*
X0220932Y0043062D01*
X0221931Y0044060D02*
X0165455Y0044060D01*
X0165601Y0045059D02*
X0222929Y0045059D01*
X0223928Y0046057D02*
X0165071Y0046057D01*
X0162940Y0046057D02*
X0162316Y0046057D01*
X0160184Y0046057D02*
X0159560Y0046057D01*
X0155655Y0042063D02*
X0219934Y0042063D01*
X0218935Y0041065D02*
X0155825Y0041065D01*
X0156438Y0040066D02*
X0217937Y0040066D01*
X0216938Y0039068D02*
X0157437Y0039068D01*
X0158435Y0038069D02*
X0215940Y0038069D01*
X0214941Y0037071D02*
X0159434Y0037071D01*
X0160432Y0036072D02*
X0213943Y0036072D01*
X0212944Y0035073D02*
X0161431Y0035073D01*
X0162429Y0034075D02*
X0211946Y0034075D01*
X0210947Y0033076D02*
X0163428Y0033076D01*
X0164426Y0032078D02*
X0209949Y0032078D01*
X0208950Y0031079D02*
X0165425Y0031079D01*
X0162896Y0029082D02*
X0139909Y0029082D01*
X0139164Y0028337D02*
X0138543Y0027717D01*
X0164262Y0027717D01*
X0153562Y0038417D01*
X0149243Y0038417D01*
X0139164Y0028337D01*
X0138911Y0028084D02*
X0163895Y0028084D01*
X0165625Y0028617D02*
X0153125Y0041117D01*
X0153910Y0038069D02*
X0148896Y0038069D01*
X0147897Y0037071D02*
X0154908Y0037071D01*
X0155907Y0036072D02*
X0146899Y0036072D01*
X0145900Y0035073D02*
X0156905Y0035073D01*
X0157904Y0034075D02*
X0144902Y0034075D01*
X0143903Y0033076D02*
X0158902Y0033076D01*
X0159901Y0032078D02*
X0142905Y0032078D01*
X0141906Y0031079D02*
X0160899Y0031079D01*
X0161898Y0030081D02*
X0140908Y0030081D01*
X0137265Y0034075D02*
X0096480Y0034075D01*
X0097264Y0035073D02*
X0138263Y0035073D01*
X0136266Y0033076D02*
X0006300Y0033076D01*
X0006300Y0032078D02*
X0014127Y0032078D01*
X0011851Y0031079D02*
X0006300Y0031079D01*
X0006300Y0030081D02*
X0010612Y0030081D01*
X0009528Y0029082D02*
X0006300Y0029082D01*
X0006300Y0028084D02*
X0008443Y0028084D01*
X0007861Y0027085D02*
X0006300Y0027085D01*
X0006300Y0026087D02*
X0007320Y0026087D01*
X0006780Y0025088D02*
X0006300Y0025088D01*
X0006300Y0034075D02*
X0093520Y0034075D01*
X0092736Y0035073D02*
X0006300Y0035073D01*
X0006300Y0036072D02*
X0092509Y0036072D01*
X0091250Y0038617D02*
X0091250Y0046117D01*
X0092850Y0044194D02*
X0093361Y0044706D01*
X0093400Y0044799D01*
X0093400Y0039934D01*
X0093361Y0040027D01*
X0092850Y0040539D01*
X0092850Y0044194D01*
X0092850Y0044060D02*
X0093400Y0044060D01*
X0093400Y0043062D02*
X0092850Y0043062D01*
X0092850Y0042063D02*
X0093400Y0042063D01*
X0093400Y0041065D02*
X0092850Y0041065D01*
X0093323Y0040066D02*
X0093400Y0040066D01*
X0096600Y0040066D02*
X0096677Y0040066D01*
X0111250Y0047367D02*
X0123750Y0047367D01*
X0127500Y0051117D01*
X0127500Y0057367D01*
X0137500Y0067367D01*
X0140625Y0067367D01*
X0201250Y0067367D01*
X0199384Y0069023D02*
X0142491Y0069023D01*
X0142547Y0068967D02*
X0142036Y0069478D01*
X0141943Y0069517D01*
X0199932Y0069517D01*
X0199839Y0069478D01*
X0199328Y0068967D01*
X0142547Y0068967D01*
X0139307Y0069517D02*
X0139214Y0069478D01*
X0138703Y0068967D01*
X0137613Y0068967D01*
X0138163Y0069517D01*
X0139307Y0069517D01*
X0138759Y0069023D02*
X0137669Y0069023D01*
X0137500Y0071117D02*
X0212500Y0071117D01*
X0221250Y0062367D01*
X0218759Y0062033D02*
X0163116Y0062033D01*
X0163045Y0063032D02*
X0218322Y0063032D01*
X0217324Y0064030D02*
X0162484Y0064030D01*
X0160625Y0062367D02*
X0156875Y0058617D01*
X0157030Y0061035D02*
X0154019Y0061035D01*
X0154366Y0062033D02*
X0158029Y0062033D01*
X0158205Y0063032D02*
X0154295Y0063032D01*
X0153734Y0064030D02*
X0158766Y0064030D01*
X0162769Y0061035D02*
X0219106Y0061035D01*
X0220368Y0060036D02*
X0161507Y0060036D01*
X0150557Y0060217D02*
X0137568Y0060217D01*
X0137661Y0060255D01*
X0138172Y0060767D01*
X0149953Y0060767D01*
X0150464Y0060255D01*
X0150557Y0060217D01*
X0137500Y0071117D02*
X0131250Y0064867D01*
X0123750Y0069867D02*
X0118750Y0064867D01*
X0115150Y0065029D02*
X0112425Y0065029D01*
X0112381Y0064030D02*
X0115200Y0064030D01*
X0115613Y0063032D02*
X0111968Y0063032D01*
X0111114Y0062033D02*
X0116492Y0062033D01*
X0115334Y0066027D02*
X0112247Y0066027D01*
X0111788Y0067026D02*
X0115818Y0067026D01*
X0116966Y0068024D02*
X0110729Y0068024D01*
X0111099Y0072018D02*
X0116507Y0072018D01*
X0115620Y0073017D02*
X0111961Y0073017D01*
X0112375Y0074015D02*
X0115206Y0074015D01*
X0115150Y0075014D02*
X0112425Y0075014D01*
X0112253Y0076012D02*
X0115328Y0076012D01*
X0115803Y0077011D02*
X0111803Y0077011D01*
X0110765Y0078009D02*
X0116930Y0078009D01*
X0120570Y0078009D02*
X0125880Y0078009D01*
X0124882Y0077011D02*
X0121697Y0077011D01*
X0122172Y0076012D02*
X0123883Y0076012D01*
X0123087Y0075217D02*
X0123087Y0075217D01*
X0122885Y0075014D02*
X0122350Y0075014D01*
X0123750Y0073617D02*
X0123750Y0069867D01*
X0122150Y0072018D02*
X0120993Y0072018D01*
X0121880Y0073017D02*
X0122150Y0073017D01*
X0123750Y0073617D02*
X0131250Y0081117D01*
X0129613Y0083002D02*
X0086637Y0083002D01*
X0082509Y0081005D02*
X0082151Y0081005D01*
X0081627Y0080006D02*
X0081153Y0080006D01*
X0080629Y0079008D02*
X0080154Y0079008D01*
X0079630Y0078009D02*
X0079156Y0078009D01*
X0078632Y0077011D02*
X0078157Y0077011D01*
X0077633Y0076012D02*
X0077159Y0076012D01*
X0076635Y0075014D02*
X0076160Y0075014D01*
X0075636Y0074015D02*
X0075161Y0074015D01*
X0074638Y0073017D02*
X0074163Y0073017D01*
X0073639Y0072018D02*
X0073164Y0072018D01*
X0072641Y0071020D02*
X0072166Y0071020D01*
X0071642Y0070021D02*
X0071167Y0070021D01*
X0070643Y0069023D02*
X0070169Y0069023D01*
X0069645Y0068024D02*
X0069170Y0068024D01*
X0068646Y0067026D02*
X0068172Y0067026D01*
X0067648Y0066027D02*
X0067173Y0066027D01*
X0066649Y0065029D02*
X0066175Y0065029D01*
X0065651Y0064030D02*
X0065176Y0064030D01*
X0064652Y0063032D02*
X0064178Y0063032D01*
X0063654Y0062033D02*
X0063179Y0062033D01*
X0062655Y0061035D02*
X0062181Y0061035D01*
X0061657Y0060036D02*
X0061182Y0060036D01*
X0060658Y0059038D02*
X0060184Y0059038D01*
X0059660Y0058039D02*
X0059185Y0058039D01*
X0058661Y0057041D02*
X0058187Y0057041D01*
X0057663Y0056042D02*
X0057188Y0056042D01*
X0056664Y0055044D02*
X0056190Y0055044D01*
X0055666Y0054045D02*
X0055191Y0054045D01*
X0069178Y0063032D02*
X0095613Y0063032D01*
X0095200Y0064030D02*
X0070176Y0064030D01*
X0071175Y0065029D02*
X0095150Y0065029D01*
X0095334Y0066027D02*
X0072173Y0066027D01*
X0073172Y0067026D02*
X0095818Y0067026D01*
X0096966Y0068024D02*
X0074170Y0068024D01*
X0075169Y0069023D02*
X0120643Y0069023D01*
X0093750Y0086117D02*
X0190000Y0086117D01*
X0200000Y0076117D01*
X0218750Y0076117D01*
X0216981Y0078009D02*
X0200370Y0078009D01*
X0199371Y0079008D02*
X0259606Y0079008D01*
X0259606Y0080006D02*
X0202317Y0080006D01*
X0203488Y0081005D02*
X0259606Y0081005D01*
X0259606Y0082004D02*
X0203839Y0082004D01*
X0203789Y0083002D02*
X0259606Y0083002D01*
X0259606Y0078009D02*
X0220519Y0078009D01*
X0221182Y0077011D02*
X0259606Y0077011D01*
X0259606Y0076012D02*
X0221339Y0076012D01*
X0221096Y0075014D02*
X0259606Y0075014D01*
X0259606Y0072018D02*
X0213861Y0072018D01*
X0214859Y0071020D02*
X0259606Y0071020D01*
X0259606Y0087995D02*
X0201789Y0087995D01*
X0202440Y0088993D02*
X0259606Y0088993D01*
X0259606Y0089992D02*
X0202589Y0089992D01*
X0202337Y0090990D02*
X0259606Y0090990D01*
X0259606Y0091989D02*
X0201539Y0091989D01*
X0199142Y0092987D02*
X0259606Y0092987D01*
X0259606Y0093986D02*
X0198144Y0093986D01*
X0197145Y0094984D02*
X0259606Y0094984D01*
X0259606Y0095983D02*
X0196147Y0095983D01*
X0195148Y0096981D02*
X0259606Y0096981D01*
X0259606Y0097980D02*
X0250949Y0097980D01*
X0253384Y0098978D02*
X0259606Y0098978D01*
X0259606Y0099977D02*
X0254913Y0099977D01*
X0256258Y0100975D02*
X0259606Y0100975D01*
X0259606Y0101974D02*
X0257036Y0101974D01*
X0257813Y0102972D02*
X0259606Y0102972D01*
X0259606Y0103971D02*
X0258590Y0103971D01*
X0259016Y0104969D02*
X0259606Y0104969D01*
X0259606Y0105968D02*
X0259359Y0105968D01*
X0243125Y0097980D02*
X0194150Y0097980D01*
X0193151Y0098978D02*
X0240849Y0098978D01*
X0239269Y0099977D02*
X0192153Y0099977D01*
X0191250Y0098617D02*
X0200000Y0089867D01*
X0195356Y0085998D02*
X0192382Y0085998D01*
X0191383Y0086996D02*
X0194358Y0086996D01*
X0193359Y0087995D02*
X0095533Y0087995D01*
X0108815Y0092987D02*
X0070383Y0092987D01*
X0069385Y0091989D02*
X0109356Y0091989D01*
X0111250Y0093617D02*
X0110000Y0094867D01*
X0104526Y0096981D02*
X0190623Y0096981D01*
X0191250Y0098617D02*
X0102500Y0098617D01*
X0103571Y0100975D02*
X0155628Y0100975D01*
X0155971Y0100632D02*
X0157335Y0100632D01*
X0157335Y0104632D01*
X0158335Y0104632D01*
X0158335Y0105632D01*
X0162335Y0105632D01*
X0162335Y0106996D01*
X0159699Y0109632D01*
X0158335Y0109632D01*
X0158335Y0105632D01*
X0157335Y0105632D01*
X0157335Y0104632D01*
X0153335Y0104632D01*
X0153335Y0103268D01*
X0155971Y0100632D01*
X0157335Y0100975D02*
X0158335Y0100975D01*
X0158335Y0100632D02*
X0159699Y0100632D01*
X0162335Y0103268D01*
X0162335Y0104632D01*
X0158335Y0104632D01*
X0158335Y0100632D01*
X0158335Y0101974D02*
X0157335Y0101974D01*
X0157335Y0102972D02*
X0158335Y0102972D01*
X0158335Y0103971D02*
X0157335Y0103971D01*
X0157335Y0104969D02*
X0151935Y0104969D01*
X0151935Y0103971D02*
X0153335Y0103971D01*
X0153631Y0102972D02*
X0151473Y0102972D01*
X0151935Y0103434D02*
X0149533Y0101032D01*
X0146136Y0101032D01*
X0143735Y0103434D01*
X0143735Y0106831D01*
X0146136Y0109232D01*
X0149533Y0109232D01*
X0151935Y0106831D01*
X0151935Y0103434D01*
X0150474Y0101974D02*
X0154629Y0101974D01*
X0160041Y0100975D02*
X0225628Y0100975D01*
X0225971Y0100632D02*
X0227335Y0100632D01*
X0227335Y0104632D01*
X0228335Y0104632D01*
X0228335Y0105632D01*
X0232335Y0105632D01*
X0232335Y0106996D01*
X0229699Y0109632D01*
X0228335Y0109632D01*
X0228335Y0105632D01*
X0227335Y0105632D01*
X0227335Y0104632D01*
X0223335Y0104632D01*
X0223335Y0103268D01*
X0225971Y0100632D01*
X0227335Y0100975D02*
X0228335Y0100975D01*
X0228335Y0100632D02*
X0229699Y0100632D01*
X0232335Y0103268D01*
X0232335Y0104632D01*
X0228335Y0104632D01*
X0228335Y0100632D01*
X0228335Y0101974D02*
X0227335Y0101974D01*
X0227335Y0102972D02*
X0228335Y0102972D01*
X0228335Y0103971D02*
X0227335Y0103971D01*
X0227335Y0104969D02*
X0221935Y0104969D01*
X0221935Y0103971D02*
X0223335Y0103971D01*
X0223631Y0102972D02*
X0221473Y0102972D01*
X0221935Y0103434D02*
X0219533Y0101032D01*
X0216136Y0101032D01*
X0213735Y0103434D01*
X0213735Y0106831D01*
X0216136Y0109232D01*
X0219533Y0109232D01*
X0221935Y0106831D01*
X0221935Y0103434D01*
X0220474Y0101974D02*
X0224629Y0101974D01*
X0230041Y0100975D02*
X0238185Y0100975D01*
X0237100Y0101974D02*
X0231040Y0101974D01*
X0232038Y0102972D02*
X0236362Y0102972D01*
X0235821Y0103971D02*
X0232335Y0103971D01*
X0232335Y0105968D02*
X0234741Y0105968D01*
X0234502Y0106966D02*
X0232335Y0106966D01*
X0231366Y0107965D02*
X0234336Y0107965D01*
X0234169Y0108963D02*
X0230368Y0108963D01*
X0228335Y0108963D02*
X0227335Y0108963D01*
X0227335Y0109632D02*
X0225971Y0109632D01*
X0223335Y0106996D01*
X0223335Y0105632D01*
X0227335Y0105632D01*
X0227335Y0109632D01*
X0227335Y0107965D02*
X0228335Y0107965D01*
X0228335Y0106966D02*
X0227335Y0106966D01*
X0227335Y0105968D02*
X0228335Y0105968D01*
X0228335Y0104969D02*
X0235281Y0104969D01*
X0225302Y0108963D02*
X0219802Y0108963D01*
X0220800Y0107965D02*
X0224303Y0107965D01*
X0223335Y0106966D02*
X0221799Y0106966D01*
X0221935Y0105968D02*
X0223335Y0105968D01*
X0215867Y0108963D02*
X0209802Y0108963D01*
X0209533Y0109232D02*
X0206136Y0109232D01*
X0203735Y0106831D01*
X0203735Y0103434D01*
X0206136Y0101032D01*
X0209533Y0101032D01*
X0211935Y0103434D01*
X0211935Y0106831D01*
X0209533Y0109232D01*
X0210800Y0107965D02*
X0214869Y0107965D01*
X0213870Y0106966D02*
X0211799Y0106966D01*
X0211935Y0105968D02*
X0213735Y0105968D01*
X0213735Y0104969D02*
X0211935Y0104969D01*
X0211935Y0103971D02*
X0213735Y0103971D01*
X0214197Y0102972D02*
X0211473Y0102972D01*
X0210474Y0101974D02*
X0215195Y0101974D01*
X0205195Y0101974D02*
X0200474Y0101974D01*
X0199533Y0101032D02*
X0201935Y0103434D01*
X0201935Y0106831D01*
X0199533Y0109232D01*
X0196136Y0109232D01*
X0193735Y0106831D01*
X0193735Y0103434D01*
X0196136Y0101032D01*
X0199533Y0101032D01*
X0201473Y0102972D02*
X0204197Y0102972D01*
X0203735Y0103971D02*
X0201935Y0103971D01*
X0201935Y0104969D02*
X0203735Y0104969D01*
X0203735Y0105968D02*
X0201935Y0105968D01*
X0201799Y0106966D02*
X0203870Y0106966D01*
X0204869Y0107965D02*
X0200800Y0107965D01*
X0199802Y0108963D02*
X0205867Y0108963D01*
X0206136Y0111032D02*
X0209533Y0111032D01*
X0211935Y0113434D01*
X0211935Y0116831D01*
X0209533Y0119232D01*
X0206136Y0119232D01*
X0203735Y0116831D01*
X0203735Y0113434D01*
X0206136Y0111032D01*
X0205210Y0111959D02*
X0201025Y0111959D01*
X0202024Y0112957D02*
X0204211Y0112957D01*
X0203735Y0113956D02*
X0202335Y0113956D01*
X0202335Y0114632D02*
X0198335Y0114632D01*
X0198335Y0115632D01*
X0202335Y0115632D01*
X0202335Y0116996D01*
X0199699Y0119632D01*
X0198335Y0119632D01*
X0198335Y0115632D01*
X0197335Y0115632D01*
X0197335Y0114632D01*
X0198335Y0114632D01*
X0198335Y0110632D01*
X0199699Y0110632D01*
X0202335Y0113268D01*
X0202335Y0114632D01*
X0202335Y0115953D02*
X0203735Y0115953D01*
X0203735Y0114954D02*
X0198335Y0114954D01*
X0198335Y0113956D02*
X0197335Y0113956D01*
X0197335Y0114632D02*
X0197335Y0110632D01*
X0195971Y0110632D01*
X0193335Y0113268D01*
X0193335Y0114632D01*
X0197335Y0114632D01*
X0197335Y0114954D02*
X0191935Y0114954D01*
X0191935Y0113956D02*
X0193335Y0113956D01*
X0193646Y0112957D02*
X0191458Y0112957D01*
X0191935Y0113434D02*
X0189533Y0111032D01*
X0186136Y0111032D01*
X0183735Y0113434D01*
X0183735Y0116831D01*
X0186136Y0119232D01*
X0189533Y0119232D01*
X0191935Y0116831D01*
X0191935Y0113434D01*
X0190459Y0111959D02*
X0194644Y0111959D01*
X0195643Y0110960D02*
X0180027Y0110960D01*
X0179699Y0110632D02*
X0182335Y0113268D01*
X0182335Y0114632D01*
X0178335Y0114632D01*
X0178335Y0115632D01*
X0182335Y0115632D01*
X0182335Y0116996D01*
X0179699Y0119632D01*
X0178335Y0119632D01*
X0178335Y0115632D01*
X0177335Y0115632D01*
X0177335Y0114632D01*
X0178335Y0114632D01*
X0178335Y0110632D01*
X0179699Y0110632D01*
X0178335Y0110960D02*
X0177335Y0110960D01*
X0177335Y0110632D02*
X0177335Y0114632D01*
X0173335Y0114632D01*
X0173335Y0113268D01*
X0175971Y0110632D01*
X0177335Y0110632D01*
X0177335Y0111959D02*
X0178335Y0111959D01*
X0178335Y0112957D02*
X0177335Y0112957D01*
X0177335Y0113956D02*
X0178335Y0113956D01*
X0178335Y0114954D02*
X0183735Y0114954D01*
X0183735Y0113956D02*
X0182335Y0113956D01*
X0182024Y0112957D02*
X0184211Y0112957D01*
X0185210Y0111959D02*
X0181025Y0111959D01*
X0179533Y0109232D02*
X0176136Y0109232D01*
X0173735Y0106831D01*
X0173735Y0103434D01*
X0176136Y0101032D01*
X0179533Y0101032D01*
X0181935Y0103434D01*
X0181935Y0106831D01*
X0179533Y0109232D01*
X0179802Y0108963D02*
X0185867Y0108963D01*
X0186136Y0109232D02*
X0183735Y0106831D01*
X0183735Y0103434D01*
X0186136Y0101032D01*
X0189533Y0101032D01*
X0191935Y0103434D01*
X0191935Y0106831D01*
X0189533Y0109232D01*
X0186136Y0109232D01*
X0184869Y0107965D02*
X0180800Y0107965D01*
X0181799Y0106966D02*
X0183870Y0106966D01*
X0183735Y0105968D02*
X0181935Y0105968D01*
X0181935Y0104969D02*
X0183735Y0104969D01*
X0183735Y0103971D02*
X0181935Y0103971D01*
X0181473Y0102972D02*
X0184197Y0102972D01*
X0185195Y0101974D02*
X0180474Y0101974D01*
X0175195Y0101974D02*
X0170474Y0101974D01*
X0169533Y0101032D02*
X0166136Y0101032D01*
X0163735Y0103434D01*
X0163735Y0106831D01*
X0166136Y0109232D01*
X0169533Y0109232D01*
X0171935Y0106831D01*
X0171935Y0103434D01*
X0169533Y0101032D01*
X0171473Y0102972D02*
X0174197Y0102972D01*
X0173735Y0103971D02*
X0171935Y0103971D01*
X0171935Y0104969D02*
X0173735Y0104969D01*
X0173735Y0105968D02*
X0171935Y0105968D01*
X0171799Y0106966D02*
X0173870Y0106966D01*
X0174869Y0107965D02*
X0170800Y0107965D01*
X0169802Y0108963D02*
X0175867Y0108963D01*
X0175643Y0110960D02*
X0130027Y0110960D01*
X0129699Y0110632D02*
X0132335Y0113268D01*
X0132335Y0114632D01*
X0128335Y0114632D01*
X0128335Y0115632D01*
X0132335Y0115632D01*
X0132335Y0116996D01*
X0129699Y0119632D01*
X0128335Y0119632D01*
X0128335Y0115632D01*
X0127335Y0115632D01*
X0127335Y0114632D01*
X0128335Y0114632D01*
X0128335Y0110632D01*
X0129699Y0110632D01*
X0128335Y0110960D02*
X0127335Y0110960D01*
X0127335Y0110632D02*
X0127335Y0114632D01*
X0123335Y0114632D01*
X0123335Y0113268D01*
X0125971Y0110632D01*
X0127335Y0110632D01*
X0127335Y0111959D02*
X0128335Y0111959D01*
X0128335Y0112957D02*
X0127335Y0112957D01*
X0127335Y0113956D02*
X0128335Y0113956D01*
X0128335Y0114954D02*
X0133735Y0114954D01*
X0133735Y0113956D02*
X0132335Y0113956D01*
X0132024Y0112957D02*
X0134211Y0112957D01*
X0133735Y0113434D02*
X0136136Y0111032D01*
X0139533Y0111032D01*
X0141935Y0113434D01*
X0141935Y0116831D01*
X0139533Y0119232D01*
X0136136Y0119232D01*
X0133735Y0116831D01*
X0133735Y0113434D01*
X0135210Y0111959D02*
X0131025Y0111959D01*
X0129533Y0109232D02*
X0126136Y0109232D01*
X0123735Y0106831D01*
X0123735Y0103434D01*
X0126136Y0101032D01*
X0129533Y0101032D01*
X0131935Y0103434D01*
X0131935Y0106831D01*
X0129533Y0109232D01*
X0129802Y0108963D02*
X0135867Y0108963D01*
X0136136Y0109232D02*
X0133735Y0106831D01*
X0133735Y0103434D01*
X0136136Y0101032D01*
X0139533Y0101032D01*
X0141935Y0103434D01*
X0141935Y0106831D01*
X0139533Y0109232D01*
X0136136Y0109232D01*
X0134869Y0107965D02*
X0130800Y0107965D01*
X0131799Y0106966D02*
X0133870Y0106966D01*
X0133735Y0105968D02*
X0131935Y0105968D01*
X0131935Y0104969D02*
X0133735Y0104969D01*
X0133735Y0103971D02*
X0131935Y0103971D01*
X0131473Y0102972D02*
X0134197Y0102972D01*
X0135195Y0101974D02*
X0130474Y0101974D01*
X0125195Y0101974D02*
X0120474Y0101974D01*
X0119533Y0101032D02*
X0116136Y0101032D01*
X0113735Y0103434D01*
X0113735Y0106831D01*
X0116136Y0109232D01*
X0119533Y0109232D01*
X0121935Y0106831D01*
X0121935Y0103434D01*
X0119533Y0101032D01*
X0115195Y0101974D02*
X0110474Y0101974D01*
X0109533Y0101032D02*
X0111935Y0103434D01*
X0111935Y0106831D01*
X0109533Y0109232D01*
X0106136Y0109232D01*
X0103735Y0106831D01*
X0103735Y0103434D01*
X0106136Y0101032D01*
X0109533Y0101032D01*
X0111473Y0102972D02*
X0114197Y0102972D01*
X0113735Y0103971D02*
X0111935Y0103971D01*
X0111935Y0104969D02*
X0113735Y0104969D01*
X0113735Y0105968D02*
X0111935Y0105968D01*
X0111799Y0106966D02*
X0113870Y0106966D01*
X0114869Y0107965D02*
X0110800Y0107965D01*
X0109802Y0108963D02*
X0115867Y0108963D01*
X0116136Y0111032D02*
X0119533Y0111032D01*
X0121935Y0113434D01*
X0121935Y0116831D01*
X0119533Y0119232D01*
X0116136Y0119232D01*
X0113735Y0116831D01*
X0113735Y0113434D01*
X0116136Y0111032D01*
X0115210Y0111959D02*
X0110459Y0111959D01*
X0109533Y0111032D02*
X0111935Y0113434D01*
X0111935Y0116831D01*
X0109533Y0119232D01*
X0106136Y0119232D01*
X0103735Y0116831D01*
X0103735Y0113434D01*
X0106136Y0111032D01*
X0109533Y0111032D01*
X0111458Y0112957D02*
X0114211Y0112957D01*
X0113735Y0113956D02*
X0111935Y0113956D01*
X0111935Y0114954D02*
X0113735Y0114954D01*
X0113735Y0115953D02*
X0111935Y0115953D01*
X0111814Y0116951D02*
X0113855Y0116951D01*
X0114854Y0117950D02*
X0110815Y0117950D01*
X0109817Y0118948D02*
X0115852Y0118948D01*
X0119817Y0118948D02*
X0125287Y0118948D01*
X0125971Y0119632D02*
X0123335Y0116996D01*
X0123335Y0115632D01*
X0127335Y0115632D01*
X0127335Y0119632D01*
X0125971Y0119632D01*
X0127335Y0118948D02*
X0128335Y0118948D01*
X0128335Y0117950D02*
X0127335Y0117950D01*
X0127335Y0116951D02*
X0128335Y0116951D01*
X0128335Y0115953D02*
X0127335Y0115953D01*
X0127335Y0114954D02*
X0121935Y0114954D01*
X0121935Y0113956D02*
X0123335Y0113956D01*
X0123646Y0112957D02*
X0121458Y0112957D01*
X0120459Y0111959D02*
X0124644Y0111959D01*
X0125643Y0110960D02*
X0100027Y0110960D01*
X0099699Y0110632D02*
X0102335Y0113268D01*
X0102335Y0114632D01*
X0098335Y0114632D01*
X0098335Y0115632D01*
X0102335Y0115632D01*
X0102335Y0116996D01*
X0099699Y0119632D01*
X0098335Y0119632D01*
X0098335Y0115632D01*
X0097335Y0115632D01*
X0097335Y0114632D01*
X0098335Y0114632D01*
X0098335Y0110632D01*
X0099699Y0110632D01*
X0098335Y0110960D02*
X0097335Y0110960D01*
X0097335Y0110632D02*
X0097335Y0114632D01*
X0093335Y0114632D01*
X0093335Y0113268D01*
X0095971Y0110632D01*
X0097335Y0110632D01*
X0097335Y0111959D02*
X0098335Y0111959D01*
X0098335Y0112957D02*
X0097335Y0112957D01*
X0097335Y0113956D02*
X0098335Y0113956D01*
X0098335Y0114954D02*
X0103735Y0114954D01*
X0103735Y0113956D02*
X0102335Y0113956D01*
X0102024Y0112957D02*
X0104211Y0112957D01*
X0105210Y0111959D02*
X0101025Y0111959D01*
X0095643Y0110960D02*
X0060027Y0110960D01*
X0059699Y0110632D02*
X0062335Y0113268D01*
X0062335Y0114632D01*
X0058335Y0114632D01*
X0058335Y0115632D01*
X0062335Y0115632D01*
X0062335Y0116996D01*
X0059699Y0119632D01*
X0058335Y0119632D01*
X0058335Y0115632D01*
X0057335Y0115632D01*
X0057335Y0114632D01*
X0058335Y0114632D01*
X0058335Y0110632D01*
X0059699Y0110632D01*
X0058335Y0110960D02*
X0057335Y0110960D01*
X0057335Y0110632D02*
X0057335Y0114632D01*
X0053335Y0114632D01*
X0053335Y0113268D01*
X0055971Y0110632D01*
X0057335Y0110632D01*
X0057335Y0111959D02*
X0058335Y0111959D01*
X0058335Y0112957D02*
X0057335Y0112957D01*
X0057335Y0113956D02*
X0058335Y0113956D01*
X0058335Y0114954D02*
X0063735Y0114954D01*
X0063735Y0113956D02*
X0062335Y0113956D01*
X0062024Y0112957D02*
X0064211Y0112957D01*
X0063735Y0113434D02*
X0066136Y0111032D01*
X0069533Y0111032D01*
X0071935Y0113434D01*
X0071935Y0116831D01*
X0069533Y0119232D01*
X0066136Y0119232D01*
X0063735Y0116831D01*
X0063735Y0113434D01*
X0065210Y0111959D02*
X0061025Y0111959D01*
X0059533Y0109232D02*
X0056136Y0109232D01*
X0053735Y0106831D01*
X0053735Y0103434D01*
X0056136Y0101032D01*
X0059533Y0101032D01*
X0061935Y0103434D01*
X0061935Y0106831D01*
X0059533Y0109232D01*
X0059802Y0108963D02*
X0065867Y0108963D01*
X0066136Y0109232D02*
X0063735Y0106831D01*
X0063735Y0103434D01*
X0066136Y0101032D01*
X0069533Y0101032D01*
X0071935Y0103434D01*
X0071935Y0106831D01*
X0069533Y0109232D01*
X0066136Y0109232D01*
X0064869Y0107965D02*
X0060800Y0107965D01*
X0061799Y0106966D02*
X0063870Y0106966D01*
X0063735Y0105968D02*
X0061935Y0105968D01*
X0061935Y0104969D02*
X0063735Y0104969D01*
X0063735Y0103971D02*
X0061935Y0103971D01*
X0061473Y0102972D02*
X0064197Y0102972D01*
X0065195Y0101974D02*
X0060474Y0101974D01*
X0055195Y0101974D02*
X0050474Y0101974D01*
X0049533Y0101032D02*
X0046136Y0101032D01*
X0043735Y0103434D01*
X0043735Y0106831D01*
X0046136Y0109232D01*
X0049533Y0109232D01*
X0051935Y0106831D01*
X0051935Y0103434D01*
X0049533Y0101032D01*
X0045195Y0101974D02*
X0041935Y0101974D01*
X0041935Y0102972D02*
X0044197Y0102972D01*
X0043735Y0103971D02*
X0041935Y0103971D01*
X0041935Y0104969D02*
X0043735Y0104969D01*
X0043735Y0105968D02*
X0041935Y0105968D01*
X0041935Y0106966D02*
X0043870Y0106966D01*
X0044869Y0107965D02*
X0042507Y0107965D01*
X0043506Y0108963D02*
X0045867Y0108963D01*
X0044504Y0109962D02*
X0234002Y0109962D01*
X0234007Y0110960D02*
X0200027Y0110960D01*
X0198335Y0110960D02*
X0197335Y0110960D01*
X0197335Y0111959D02*
X0198335Y0111959D01*
X0198335Y0112957D02*
X0197335Y0112957D01*
X0197335Y0115632D02*
X0193335Y0115632D01*
X0193335Y0116996D01*
X0195971Y0119632D01*
X0197335Y0119632D01*
X0197335Y0115632D01*
X0197335Y0115953D02*
X0198335Y0115953D01*
X0198335Y0116951D02*
X0197335Y0116951D01*
X0197335Y0117950D02*
X0198335Y0117950D01*
X0198335Y0118948D02*
X0197335Y0118948D01*
X0195287Y0118948D02*
X0189817Y0118948D01*
X0190815Y0117950D02*
X0194288Y0117950D01*
X0193335Y0116951D02*
X0191814Y0116951D01*
X0191935Y0115953D02*
X0193335Y0115953D01*
X0200383Y0118948D02*
X0205852Y0118948D01*
X0204854Y0117950D02*
X0201381Y0117950D01*
X0202335Y0116951D02*
X0203855Y0116951D01*
X0209817Y0118948D02*
X0215852Y0118948D01*
X0216136Y0119232D02*
X0213735Y0116831D01*
X0213735Y0113434D01*
X0216136Y0111032D01*
X0219533Y0111032D01*
X0221935Y0113434D01*
X0221935Y0116831D01*
X0219533Y0119232D01*
X0216136Y0119232D01*
X0214854Y0117950D02*
X0210815Y0117950D01*
X0211814Y0116951D02*
X0213855Y0116951D01*
X0213735Y0115953D02*
X0211935Y0115953D01*
X0211935Y0114954D02*
X0213735Y0114954D01*
X0213735Y0113956D02*
X0211935Y0113956D01*
X0211458Y0112957D02*
X0214211Y0112957D01*
X0215210Y0111959D02*
X0210459Y0111959D01*
X0220459Y0111959D02*
X0225210Y0111959D01*
X0226136Y0111032D02*
X0223735Y0113434D01*
X0223735Y0116831D01*
X0226136Y0119232D01*
X0229533Y0119232D01*
X0231935Y0116831D01*
X0231935Y0113434D01*
X0229533Y0111032D01*
X0226136Y0111032D01*
X0224211Y0112957D02*
X0221458Y0112957D01*
X0221935Y0113956D02*
X0223735Y0113956D01*
X0223735Y0114954D02*
X0221935Y0114954D01*
X0221935Y0115953D02*
X0223735Y0115953D01*
X0223855Y0116951D02*
X0221814Y0116951D01*
X0220815Y0117950D02*
X0224854Y0117950D01*
X0225852Y0118948D02*
X0219817Y0118948D01*
X0229817Y0118948D02*
X0237130Y0118948D01*
X0236377Y0117950D02*
X0230815Y0117950D01*
X0231814Y0116951D02*
X0235836Y0116951D01*
X0235296Y0115953D02*
X0231935Y0115953D01*
X0231935Y0114954D02*
X0234755Y0114954D01*
X0234507Y0113956D02*
X0231935Y0113956D01*
X0231458Y0112957D02*
X0234340Y0112957D01*
X0234173Y0111959D02*
X0230459Y0111959D01*
X0238215Y0119947D02*
X0051829Y0119947D01*
X0052600Y0118948D02*
X0055287Y0118948D01*
X0055971Y0119632D02*
X0053335Y0116996D01*
X0053335Y0115632D01*
X0057335Y0115632D01*
X0057335Y0119632D01*
X0055971Y0119632D01*
X0057335Y0118948D02*
X0058335Y0118948D01*
X0058335Y0117950D02*
X0057335Y0117950D01*
X0057335Y0116951D02*
X0058335Y0116951D01*
X0058335Y0115953D02*
X0057335Y0115953D01*
X0057335Y0114954D02*
X0052600Y0114954D01*
X0052600Y0113956D02*
X0053335Y0113956D01*
X0053646Y0112957D02*
X0052600Y0112957D01*
X0052600Y0111959D02*
X0054644Y0111959D01*
X0055643Y0110960D02*
X0045503Y0110960D01*
X0049802Y0108963D02*
X0055867Y0108963D01*
X0054869Y0107965D02*
X0050800Y0107965D01*
X0051799Y0106966D02*
X0053870Y0106966D01*
X0053735Y0105968D02*
X0051935Y0105968D01*
X0051935Y0104969D02*
X0053735Y0104969D01*
X0053735Y0103971D02*
X0051935Y0103971D01*
X0051473Y0102972D02*
X0054197Y0102972D01*
X0069802Y0108963D02*
X0075302Y0108963D01*
X0075971Y0109632D02*
X0073335Y0106996D01*
X0073335Y0105632D01*
X0077335Y0105632D01*
X0077335Y0104632D01*
X0078335Y0104632D01*
X0078335Y0105632D01*
X0082335Y0105632D01*
X0082335Y0106996D01*
X0079699Y0109632D01*
X0078335Y0109632D01*
X0078335Y0105632D01*
X0077335Y0105632D01*
X0077335Y0109632D01*
X0075971Y0109632D01*
X0076136Y0111032D02*
X0079533Y0111032D01*
X0081935Y0113434D01*
X0081935Y0116831D01*
X0079533Y0119232D01*
X0076136Y0119232D01*
X0073735Y0116831D01*
X0073735Y0113434D01*
X0076136Y0111032D01*
X0075210Y0111959D02*
X0070459Y0111959D01*
X0071458Y0112957D02*
X0074211Y0112957D01*
X0073735Y0113956D02*
X0071935Y0113956D01*
X0071935Y0114954D02*
X0073735Y0114954D01*
X0073735Y0115953D02*
X0071935Y0115953D01*
X0071814Y0116951D02*
X0073855Y0116951D01*
X0074854Y0117950D02*
X0070815Y0117950D01*
X0069817Y0118948D02*
X0075852Y0118948D01*
X0079817Y0118948D02*
X0085852Y0118948D01*
X0086136Y0119232D02*
X0083735Y0116831D01*
X0083735Y0113434D01*
X0086136Y0111032D01*
X0089533Y0111032D01*
X0091935Y0113434D01*
X0091935Y0116831D01*
X0089533Y0119232D01*
X0086136Y0119232D01*
X0084854Y0117950D02*
X0080815Y0117950D01*
X0081814Y0116951D02*
X0083855Y0116951D01*
X0083735Y0115953D02*
X0081935Y0115953D01*
X0081935Y0114954D02*
X0083735Y0114954D01*
X0083735Y0113956D02*
X0081935Y0113956D01*
X0081458Y0112957D02*
X0084211Y0112957D01*
X0085210Y0111959D02*
X0080459Y0111959D01*
X0080368Y0108963D02*
X0085867Y0108963D01*
X0086136Y0109232D02*
X0083735Y0106831D01*
X0083735Y0103434D01*
X0086136Y0101032D01*
X0089533Y0101032D01*
X0091935Y0103434D01*
X0091935Y0106831D01*
X0089533Y0109232D01*
X0086136Y0109232D01*
X0084869Y0107965D02*
X0081366Y0107965D01*
X0082335Y0106966D02*
X0083870Y0106966D01*
X0083735Y0105968D02*
X0082335Y0105968D01*
X0082335Y0104632D02*
X0078335Y0104632D01*
X0078335Y0100632D01*
X0079699Y0100632D01*
X0082335Y0103268D01*
X0082335Y0104632D01*
X0082335Y0103971D02*
X0083735Y0103971D01*
X0083735Y0104969D02*
X0078335Y0104969D01*
X0078335Y0103971D02*
X0077335Y0103971D01*
X0077335Y0104632D02*
X0077335Y0100632D01*
X0075971Y0100632D01*
X0073335Y0103268D01*
X0073335Y0104632D01*
X0077335Y0104632D01*
X0077335Y0104969D02*
X0071935Y0104969D01*
X0071935Y0103971D02*
X0073335Y0103971D01*
X0073631Y0102972D02*
X0071473Y0102972D01*
X0070474Y0101974D02*
X0074629Y0101974D01*
X0075628Y0100975D02*
X0035518Y0100975D01*
X0034519Y0099977D02*
X0100261Y0099977D01*
X0099911Y0098978D02*
X0033521Y0098978D01*
X0032522Y0097980D02*
X0099962Y0097980D01*
X0100474Y0096981D02*
X0031524Y0096981D01*
X0030525Y0095983D02*
X0068853Y0095983D01*
X0067855Y0094984D02*
X0030100Y0094984D01*
X0030100Y0093986D02*
X0066856Y0093986D01*
X0065858Y0092987D02*
X0030100Y0092987D01*
X0030100Y0091989D02*
X0064859Y0091989D01*
X0063861Y0090990D02*
X0030100Y0090990D01*
X0030100Y0089992D02*
X0062862Y0089992D01*
X0061864Y0088993D02*
X0029786Y0088993D01*
X0022714Y0088993D02*
X0006300Y0088993D01*
X0006300Y0087995D02*
X0060865Y0087995D01*
X0059867Y0086996D02*
X0006300Y0086996D01*
X0006300Y0085998D02*
X0058868Y0085998D01*
X0057870Y0084999D02*
X0006300Y0084999D01*
X0006300Y0084001D02*
X0056871Y0084001D01*
X0055873Y0083002D02*
X0006300Y0083002D01*
X0006300Y0082004D02*
X0054874Y0082004D01*
X0053876Y0081005D02*
X0006300Y0081005D01*
X0006300Y0080006D02*
X0052877Y0080006D01*
X0050838Y0079008D02*
X0006300Y0079008D01*
X0006300Y0078009D02*
X0049704Y0078009D01*
X0049384Y0077011D02*
X0006300Y0077011D01*
X0006300Y0076012D02*
X0049481Y0076012D01*
X0050081Y0075014D02*
X0006300Y0075014D01*
X0006300Y0074015D02*
X0070636Y0074015D01*
X0069638Y0073017D02*
X0006300Y0073017D01*
X0006300Y0072018D02*
X0068639Y0072018D01*
X0067641Y0071020D02*
X0006300Y0071020D01*
X0006300Y0070021D02*
X0066642Y0070021D01*
X0065643Y0069023D02*
X0006300Y0069023D01*
X0006300Y0068024D02*
X0064645Y0068024D01*
X0063646Y0067026D02*
X0006300Y0067026D01*
X0006300Y0089992D02*
X0022400Y0089992D01*
X0022400Y0090990D02*
X0006300Y0090990D01*
X0006300Y0091989D02*
X0022400Y0091989D01*
X0022400Y0092987D02*
X0006300Y0092987D01*
X0006300Y0093986D02*
X0022400Y0093986D01*
X0022400Y0094984D02*
X0006300Y0094984D01*
X0006300Y0095983D02*
X0022400Y0095983D01*
X0022400Y0096981D02*
X0006300Y0096981D01*
X0006300Y0097980D02*
X0014779Y0097980D01*
X0012502Y0098978D02*
X0006300Y0098978D01*
X0006300Y0099977D02*
X0010923Y0099977D01*
X0009838Y0100975D02*
X0006300Y0100975D01*
X0006300Y0101974D02*
X0008754Y0101974D01*
X0008015Y0102972D02*
X0006300Y0102972D01*
X0006300Y0103971D02*
X0007475Y0103971D01*
X0006935Y0104969D02*
X0006300Y0104969D01*
X0006300Y0105968D02*
X0006394Y0105968D01*
X0007187Y0116392D02*
X0007446Y0117188D01*
X0008120Y0118116D01*
X0007187Y0116392D01*
X0007369Y0116951D02*
X0007490Y0116951D01*
X0007999Y0117950D02*
X0008030Y0117950D01*
X0008606Y0118786D02*
X0009379Y0119848D01*
X0011193Y0121166D01*
X0008606Y0118786D01*
X0008725Y0118948D02*
X0008783Y0118948D01*
X0009514Y0119947D02*
X0009868Y0119947D01*
X0010889Y0120945D02*
X0010953Y0120945D01*
X0011803Y0121610D02*
X0012039Y0121781D01*
X0012637Y0121976D01*
X0011803Y0121610D01*
X0012540Y0121944D02*
X0012565Y0121944D01*
X0008994Y0122942D02*
X0005000Y0122942D01*
X0005000Y0121944D02*
X0007620Y0121944D01*
X0007425Y0121802D02*
X0007425Y0121802D01*
X0005000Y0118465D01*
X0005000Y0124867D01*
X0012702Y0124867D01*
X0010785Y0124243D01*
X0010785Y0124243D01*
X0007425Y0121802D01*
X0007425Y0121802D01*
X0006802Y0120945D02*
X0005000Y0120945D01*
X0005000Y0119947D02*
X0006077Y0119947D01*
X0005351Y0118948D02*
X0005000Y0118948D01*
X0005000Y0123941D02*
X0010368Y0123941D01*
X0024996Y0121944D02*
X0240912Y0121944D01*
X0239299Y0120945D02*
X0026524Y0120945D01*
X0052600Y0117950D02*
X0054288Y0117950D01*
X0053335Y0116951D02*
X0052600Y0116951D01*
X0052600Y0115953D02*
X0053335Y0115953D01*
X0060383Y0118948D02*
X0065852Y0118948D01*
X0064854Y0117950D02*
X0061381Y0117950D01*
X0062335Y0116951D02*
X0063855Y0116951D01*
X0063735Y0115953D02*
X0062335Y0115953D01*
X0077335Y0108963D02*
X0078335Y0108963D01*
X0078335Y0107965D02*
X0077335Y0107965D01*
X0077335Y0106966D02*
X0078335Y0106966D01*
X0078335Y0105968D02*
X0077335Y0105968D01*
X0073335Y0105968D02*
X0071935Y0105968D01*
X0071799Y0106966D02*
X0073335Y0106966D01*
X0074303Y0107965D02*
X0070800Y0107965D01*
X0077335Y0102972D02*
X0078335Y0102972D01*
X0078335Y0101974D02*
X0077335Y0101974D01*
X0077335Y0100975D02*
X0078335Y0100975D01*
X0080041Y0100975D02*
X0101429Y0100975D01*
X0100474Y0101974D02*
X0105195Y0101974D01*
X0104197Y0102972D02*
X0101473Y0102972D01*
X0101935Y0103434D02*
X0099533Y0101032D01*
X0096136Y0101032D01*
X0093735Y0103434D01*
X0093735Y0106831D01*
X0096136Y0109232D01*
X0099533Y0109232D01*
X0101935Y0106831D01*
X0101935Y0103434D01*
X0101935Y0103971D02*
X0103735Y0103971D01*
X0103735Y0104969D02*
X0101935Y0104969D01*
X0101935Y0105968D02*
X0103735Y0105968D01*
X0103870Y0106966D02*
X0101799Y0106966D01*
X0100800Y0107965D02*
X0104869Y0107965D01*
X0105867Y0108963D02*
X0099802Y0108963D01*
X0095867Y0108963D02*
X0089802Y0108963D01*
X0090800Y0107965D02*
X0094869Y0107965D01*
X0093870Y0106966D02*
X0091799Y0106966D01*
X0091935Y0105968D02*
X0093735Y0105968D01*
X0093735Y0104969D02*
X0091935Y0104969D01*
X0091935Y0103971D02*
X0093735Y0103971D01*
X0094197Y0102972D02*
X0091473Y0102972D01*
X0090474Y0101974D02*
X0095195Y0101974D01*
X0085195Y0101974D02*
X0081040Y0101974D01*
X0082038Y0102972D02*
X0084197Y0102972D01*
X0090459Y0111959D02*
X0094644Y0111959D01*
X0093646Y0112957D02*
X0091458Y0112957D01*
X0091935Y0113956D02*
X0093335Y0113956D01*
X0093335Y0115632D02*
X0097335Y0115632D01*
X0097335Y0119632D01*
X0095971Y0119632D01*
X0093335Y0116996D01*
X0093335Y0115632D01*
X0093335Y0115953D02*
X0091935Y0115953D01*
X0091935Y0114954D02*
X0097335Y0114954D01*
X0097335Y0115953D02*
X0098335Y0115953D01*
X0098335Y0116951D02*
X0097335Y0116951D01*
X0097335Y0117950D02*
X0098335Y0117950D01*
X0098335Y0118948D02*
X0097335Y0118948D01*
X0095287Y0118948D02*
X0089817Y0118948D01*
X0090815Y0117950D02*
X0094288Y0117950D01*
X0093335Y0116951D02*
X0091814Y0116951D01*
X0100383Y0118948D02*
X0105852Y0118948D01*
X0104854Y0117950D02*
X0101381Y0117950D01*
X0102335Y0116951D02*
X0103855Y0116951D01*
X0103735Y0115953D02*
X0102335Y0115953D01*
X0119802Y0108963D02*
X0125867Y0108963D01*
X0124869Y0107965D02*
X0120800Y0107965D01*
X0121799Y0106966D02*
X0123870Y0106966D01*
X0123735Y0105968D02*
X0121935Y0105968D01*
X0121935Y0104969D02*
X0123735Y0104969D01*
X0123735Y0103971D02*
X0121935Y0103971D01*
X0121473Y0102972D02*
X0124197Y0102972D01*
X0139802Y0108963D02*
X0145867Y0108963D01*
X0144869Y0107965D02*
X0140800Y0107965D01*
X0141799Y0106966D02*
X0143870Y0106966D01*
X0143735Y0105968D02*
X0141935Y0105968D01*
X0141935Y0104969D02*
X0143735Y0104969D01*
X0143735Y0103971D02*
X0141935Y0103971D01*
X0141473Y0102972D02*
X0144197Y0102972D01*
X0145195Y0101974D02*
X0140474Y0101974D01*
X0151935Y0105968D02*
X0153335Y0105968D01*
X0153335Y0105632D02*
X0157335Y0105632D01*
X0157335Y0109632D01*
X0155971Y0109632D01*
X0153335Y0106996D01*
X0153335Y0105632D01*
X0153335Y0106966D02*
X0151799Y0106966D01*
X0150800Y0107965D02*
X0154303Y0107965D01*
X0155302Y0108963D02*
X0149802Y0108963D01*
X0149533Y0111032D02*
X0146136Y0111032D01*
X0143735Y0113434D01*
X0143735Y0116831D01*
X0146136Y0119232D01*
X0149533Y0119232D01*
X0151935Y0116831D01*
X0151935Y0113434D01*
X0149533Y0111032D01*
X0150459Y0111959D02*
X0155210Y0111959D01*
X0156136Y0111032D02*
X0153735Y0113434D01*
X0153735Y0116831D01*
X0156136Y0119232D01*
X0159533Y0119232D01*
X0161935Y0116831D01*
X0161935Y0113434D01*
X0159533Y0111032D01*
X0156136Y0111032D01*
X0157335Y0108963D02*
X0158335Y0108963D01*
X0158335Y0107965D02*
X0157335Y0107965D01*
X0157335Y0106966D02*
X0158335Y0106966D01*
X0158335Y0105968D02*
X0157335Y0105968D01*
X0158335Y0104969D02*
X0163735Y0104969D01*
X0163735Y0103971D02*
X0162335Y0103971D01*
X0162038Y0102972D02*
X0164197Y0102972D01*
X0165195Y0101974D02*
X0161040Y0101974D01*
X0162335Y0105968D02*
X0163735Y0105968D01*
X0163870Y0106966D02*
X0162335Y0106966D01*
X0161366Y0107965D02*
X0164869Y0107965D01*
X0165867Y0108963D02*
X0160368Y0108963D01*
X0160459Y0111959D02*
X0165210Y0111959D01*
X0166136Y0111032D02*
X0163735Y0113434D01*
X0163735Y0116831D01*
X0166136Y0119232D01*
X0169533Y0119232D01*
X0171935Y0116831D01*
X0171935Y0113434D01*
X0169533Y0111032D01*
X0166136Y0111032D01*
X0170459Y0111959D02*
X0174644Y0111959D01*
X0173646Y0112957D02*
X0171458Y0112957D01*
X0171935Y0113956D02*
X0173335Y0113956D01*
X0173335Y0115632D02*
X0177335Y0115632D01*
X0177335Y0119632D01*
X0175971Y0119632D01*
X0173335Y0116996D01*
X0173335Y0115632D01*
X0173335Y0115953D02*
X0171935Y0115953D01*
X0171935Y0114954D02*
X0177335Y0114954D01*
X0177335Y0115953D02*
X0178335Y0115953D01*
X0178335Y0116951D02*
X0177335Y0116951D01*
X0177335Y0117950D02*
X0178335Y0117950D01*
X0178335Y0118948D02*
X0177335Y0118948D01*
X0175287Y0118948D02*
X0169817Y0118948D01*
X0170815Y0117950D02*
X0174288Y0117950D01*
X0173335Y0116951D02*
X0171814Y0116951D01*
X0165852Y0118948D02*
X0159817Y0118948D01*
X0160815Y0117950D02*
X0164854Y0117950D01*
X0163855Y0116951D02*
X0161814Y0116951D01*
X0161935Y0115953D02*
X0163735Y0115953D01*
X0163735Y0114954D02*
X0161935Y0114954D01*
X0161935Y0113956D02*
X0163735Y0113956D01*
X0164211Y0112957D02*
X0161458Y0112957D01*
X0154211Y0112957D02*
X0151458Y0112957D01*
X0151935Y0113956D02*
X0153735Y0113956D01*
X0153735Y0114954D02*
X0151935Y0114954D01*
X0151935Y0115953D02*
X0153735Y0115953D01*
X0153855Y0116951D02*
X0151814Y0116951D01*
X0150815Y0117950D02*
X0154854Y0117950D01*
X0155852Y0118948D02*
X0149817Y0118948D01*
X0145852Y0118948D02*
X0139817Y0118948D01*
X0140815Y0117950D02*
X0144854Y0117950D01*
X0143855Y0116951D02*
X0141814Y0116951D01*
X0141935Y0115953D02*
X0143735Y0115953D01*
X0143735Y0114954D02*
X0141935Y0114954D01*
X0141935Y0113956D02*
X0143735Y0113956D01*
X0144211Y0112957D02*
X0141458Y0112957D01*
X0140459Y0111959D02*
X0145210Y0111959D01*
X0133735Y0115953D02*
X0132335Y0115953D01*
X0132335Y0116951D02*
X0133855Y0116951D01*
X0134854Y0117950D02*
X0131381Y0117950D01*
X0130383Y0118948D02*
X0135852Y0118948D01*
X0124288Y0117950D02*
X0120815Y0117950D01*
X0121814Y0116951D02*
X0123335Y0116951D01*
X0123335Y0115953D02*
X0121935Y0115953D01*
X0180383Y0118948D02*
X0185852Y0118948D01*
X0184854Y0117950D02*
X0181381Y0117950D01*
X0182335Y0116951D02*
X0183855Y0116951D01*
X0183735Y0115953D02*
X0182335Y0115953D01*
X0189802Y0108963D02*
X0195867Y0108963D01*
X0194869Y0107965D02*
X0190800Y0107965D01*
X0191799Y0106966D02*
X0193870Y0106966D01*
X0193735Y0105968D02*
X0191935Y0105968D01*
X0191935Y0104969D02*
X0193735Y0104969D01*
X0193735Y0103971D02*
X0191935Y0103971D01*
X0191473Y0102972D02*
X0194197Y0102972D01*
X0195195Y0101974D02*
X0190474Y0101974D01*
X0193380Y0084999D02*
X0196355Y0084999D01*
X0197353Y0084001D02*
X0194379Y0084001D01*
X0195377Y0083002D02*
X0198352Y0083002D01*
X0198661Y0082004D02*
X0196376Y0082004D01*
X0197374Y0081005D02*
X0199012Y0081005D01*
X0198373Y0080006D02*
X0200183Y0080006D01*
X0231241Y0052048D02*
X0259606Y0052048D01*
X0259606Y0051050D02*
X0232206Y0051050D01*
X0232491Y0050051D02*
X0259606Y0050051D01*
X0259606Y0049053D02*
X0232359Y0049053D01*
X0231710Y0048054D02*
X0259606Y0048054D01*
X0259606Y0047056D02*
X0229452Y0047056D01*
X0228453Y0046057D02*
X0259606Y0046057D01*
X0259606Y0045059D02*
X0227455Y0045059D01*
X0226456Y0044060D02*
X0259606Y0044060D01*
X0259606Y0043062D02*
X0225458Y0043062D01*
X0224459Y0042063D02*
X0259606Y0042063D01*
X0259606Y0041065D02*
X0223461Y0041065D01*
X0222462Y0040066D02*
X0259606Y0040066D01*
X0259606Y0039068D02*
X0221464Y0039068D01*
X0220465Y0038069D02*
X0259606Y0038069D01*
X0259606Y0037071D02*
X0219467Y0037071D01*
X0218468Y0036072D02*
X0259606Y0036072D01*
X0259606Y0035073D02*
X0217470Y0035073D01*
X0216471Y0034075D02*
X0259606Y0034075D01*
X0259606Y0033076D02*
X0215473Y0033076D01*
X0214474Y0032078D02*
X0242473Y0032078D01*
X0240197Y0031079D02*
X0213476Y0031079D01*
X0212477Y0030081D02*
X0238959Y0030081D01*
X0237874Y0029082D02*
X0211478Y0029082D01*
X0210480Y0028084D02*
X0236789Y0028084D01*
X0236207Y0027085D02*
X0209481Y0027085D01*
X0209792Y0026087D02*
X0235667Y0026087D01*
X0235126Y0025088D02*
X0210791Y0025088D01*
X0211790Y0024090D02*
X0234621Y0024090D01*
X0234454Y0023091D02*
X0212788Y0023091D01*
X0212850Y0022093D02*
X0234288Y0022093D01*
X0234121Y0021094D02*
X0223821Y0021094D01*
X0223572Y0021342D02*
X0222066Y0021967D01*
X0220434Y0021967D01*
X0218928Y0021342D01*
X0217774Y0020189D01*
X0217150Y0018682D01*
X0217150Y0011051D01*
X0217774Y0009544D01*
X0218928Y0008391D01*
X0220434Y0007767D01*
X0222066Y0007767D01*
X0223572Y0008391D01*
X0224726Y0009544D01*
X0225350Y0011051D01*
X0225350Y0018682D01*
X0224726Y0020189D01*
X0223572Y0021342D01*
X0224764Y0020096D02*
X0233955Y0020096D01*
X0234055Y0019097D02*
X0225178Y0019097D01*
X0225350Y0018099D02*
X0234221Y0018099D01*
X0234388Y0017100D02*
X0225350Y0017100D01*
X0225350Y0016102D02*
X0234554Y0016102D01*
X0234910Y0015103D02*
X0225350Y0015103D01*
X0225350Y0014105D02*
X0235451Y0014105D01*
X0235991Y0013106D02*
X0225350Y0013106D01*
X0225350Y0012108D02*
X0236531Y0012108D01*
X0237440Y0011109D02*
X0225350Y0011109D01*
X0224960Y0010111D02*
X0238525Y0010111D01*
X0239610Y0009112D02*
X0224294Y0009112D01*
X0222903Y0008114D02*
X0241563Y0008114D01*
X0253319Y0008385D02*
X0256069Y0010181D01*
X0258514Y0013322D01*
X0258460Y0013156D01*
X0256527Y0010495D01*
X0253866Y0008562D01*
X0253319Y0008385D01*
X0254433Y0009112D02*
X0254623Y0009112D01*
X0255961Y0010111D02*
X0255998Y0010111D01*
X0256792Y0011109D02*
X0256973Y0011109D01*
X0257569Y0012108D02*
X0257698Y0012108D01*
X0258346Y0013106D02*
X0258424Y0013106D01*
X0260989Y0012108D02*
X0261250Y0012108D01*
X0260922Y0011901D02*
X0261250Y0012910D01*
X0261250Y0006117D01*
X0255144Y0006117D01*
X0258481Y0008541D01*
X0258481Y0008541D01*
X0258481Y0008541D01*
X0260922Y0011901D01*
X0260922Y0011901D01*
X0261250Y0011109D02*
X0260347Y0011109D01*
X0259621Y0010111D02*
X0261250Y0010111D01*
X0261250Y0009112D02*
X0258896Y0009112D01*
X0257892Y0008114D02*
X0261250Y0008114D01*
X0261250Y0007115D02*
X0256518Y0007115D01*
X0255144Y0006117D02*
X0261250Y0006117D01*
X0259606Y0024090D02*
X0259457Y0024090D01*
X0259606Y0025088D02*
X0259114Y0025088D01*
X0258771Y0026087D02*
X0259606Y0026087D01*
X0259606Y0027085D02*
X0258035Y0027085D01*
X0257258Y0028084D02*
X0259606Y0028084D01*
X0259606Y0029082D02*
X0256481Y0029082D01*
X0255350Y0030081D02*
X0259606Y0030081D01*
X0259606Y0031079D02*
X0253822Y0031079D01*
X0252078Y0032078D02*
X0259606Y0032078D01*
X0230000Y0049867D02*
X0208750Y0028617D01*
X0165625Y0028617D01*
X0166439Y0024090D02*
X0156061Y0024090D01*
X0156972Y0023091D02*
X0165528Y0023091D01*
X0165115Y0022093D02*
X0157385Y0022093D01*
X0157586Y0021094D02*
X0164914Y0021094D01*
X0164914Y0020096D02*
X0157586Y0020096D01*
X0157279Y0019097D02*
X0165221Y0019097D01*
X0165696Y0018099D02*
X0156804Y0018099D01*
X0155805Y0017100D02*
X0166695Y0017100D01*
X0167150Y0016102D02*
X0155350Y0016102D01*
X0155350Y0015103D02*
X0167150Y0015103D01*
X0167150Y0014105D02*
X0155350Y0014105D01*
X0155350Y0013106D02*
X0167150Y0013106D01*
X0167150Y0012108D02*
X0155350Y0012108D01*
X0155350Y0011109D02*
X0167150Y0011109D01*
X0167540Y0010111D02*
X0154960Y0010111D01*
X0154294Y0009112D02*
X0168206Y0009112D01*
X0169597Y0008114D02*
X0152903Y0008114D01*
X0149597Y0008114D02*
X0142903Y0008114D01*
X0144294Y0009112D02*
X0148206Y0009112D01*
X0147540Y0010111D02*
X0144960Y0010111D01*
X0145350Y0011109D02*
X0147150Y0011109D01*
X0147150Y0012108D02*
X0145350Y0012108D01*
X0145350Y0013106D02*
X0147150Y0013106D01*
X0147150Y0014105D02*
X0145350Y0014105D01*
X0145350Y0015103D02*
X0147150Y0015103D01*
X0147150Y0016102D02*
X0145350Y0016102D01*
X0145350Y0017100D02*
X0147150Y0017100D01*
X0147150Y0018099D02*
X0145350Y0018099D01*
X0145178Y0019097D02*
X0147322Y0019097D01*
X0147736Y0020096D02*
X0144764Y0020096D01*
X0143821Y0021094D02*
X0148679Y0021094D01*
X0148894Y0022093D02*
X0143606Y0022093D01*
X0143192Y0023091D02*
X0149308Y0023091D01*
X0150218Y0024090D02*
X0142282Y0024090D01*
X0136439Y0024090D02*
X0108995Y0024090D01*
X0107500Y0026117D02*
X0207500Y0026117D01*
X0211250Y0022367D01*
X0211250Y0014867D01*
X0215350Y0015103D02*
X0217150Y0015103D01*
X0217150Y0014105D02*
X0215350Y0014105D01*
X0215350Y0013106D02*
X0217150Y0013106D01*
X0217150Y0012108D02*
X0215350Y0012108D01*
X0215350Y0011109D02*
X0217150Y0011109D01*
X0217540Y0010111D02*
X0214960Y0010111D01*
X0214294Y0009112D02*
X0218206Y0009112D01*
X0219597Y0008114D02*
X0212903Y0008114D01*
X0209597Y0008114D02*
X0202903Y0008114D01*
X0203572Y0008391D02*
X0204726Y0009544D01*
X0205350Y0011051D01*
X0205350Y0018682D01*
X0204726Y0020189D01*
X0203572Y0021342D01*
X0202066Y0021967D01*
X0200434Y0021967D01*
X0198928Y0021342D01*
X0197774Y0020189D01*
X0197150Y0018682D01*
X0197150Y0011051D01*
X0197774Y0009544D01*
X0198928Y0008391D01*
X0200434Y0007767D01*
X0202066Y0007767D01*
X0203572Y0008391D01*
X0204294Y0009112D02*
X0208206Y0009112D01*
X0207540Y0010111D02*
X0204960Y0010111D01*
X0205350Y0011109D02*
X0207150Y0011109D01*
X0207150Y0012108D02*
X0205350Y0012108D01*
X0205350Y0013106D02*
X0207150Y0013106D01*
X0207150Y0014105D02*
X0205350Y0014105D01*
X0205350Y0015103D02*
X0207150Y0015103D01*
X0207150Y0016102D02*
X0205350Y0016102D01*
X0205350Y0017100D02*
X0207150Y0017100D01*
X0207150Y0018099D02*
X0205350Y0018099D01*
X0205178Y0019097D02*
X0207322Y0019097D01*
X0207736Y0020096D02*
X0204764Y0020096D01*
X0203821Y0021094D02*
X0208679Y0021094D01*
X0209261Y0022093D02*
X0192805Y0022093D01*
X0192977Y0022037D02*
X0192304Y0022256D01*
X0191750Y0022344D01*
X0191750Y0015367D01*
X0195750Y0015367D01*
X0195750Y0018221D01*
X0195639Y0018920D01*
X0195420Y0019594D01*
X0195099Y0020225D01*
X0194682Y0020798D01*
X0194182Y0021299D01*
X0193609Y0021715D01*
X0192977Y0022037D01*
X0191750Y0022093D02*
X0190750Y0022093D01*
X0190750Y0021094D02*
X0191750Y0021094D01*
X0191750Y0020096D02*
X0190750Y0020096D01*
X0190750Y0019097D02*
X0191750Y0019097D01*
X0191750Y0018099D02*
X0190750Y0018099D01*
X0190750Y0017100D02*
X0191750Y0017100D01*
X0191750Y0016102D02*
X0190750Y0016102D01*
X0190750Y0015103D02*
X0185350Y0015103D01*
X0185350Y0014105D02*
X0186750Y0014105D01*
X0186750Y0013106D02*
X0185350Y0013106D01*
X0185350Y0012108D02*
X0186750Y0012108D01*
X0186814Y0011109D02*
X0185350Y0011109D01*
X0184960Y0010111D02*
X0187094Y0010111D01*
X0187689Y0009112D02*
X0184294Y0009112D01*
X0182903Y0008114D02*
X0188760Y0008114D01*
X0193740Y0008114D02*
X0199597Y0008114D01*
X0198206Y0009112D02*
X0194811Y0009112D01*
X0195406Y0010111D02*
X0197540Y0010111D01*
X0197150Y0011109D02*
X0195686Y0011109D01*
X0195750Y0012108D02*
X0197150Y0012108D01*
X0197150Y0013106D02*
X0195750Y0013106D01*
X0195750Y0014105D02*
X0197150Y0014105D01*
X0197150Y0015103D02*
X0191750Y0015103D01*
X0195750Y0016102D02*
X0197150Y0016102D01*
X0197150Y0017100D02*
X0195750Y0017100D01*
X0195750Y0018099D02*
X0197150Y0018099D01*
X0197322Y0019097D02*
X0195582Y0019097D01*
X0195165Y0020096D02*
X0197736Y0020096D01*
X0198679Y0021094D02*
X0194386Y0021094D01*
X0189695Y0022093D02*
X0187385Y0022093D01*
X0187586Y0021094D02*
X0188114Y0021094D01*
X0186972Y0023091D02*
X0208263Y0023091D01*
X0207264Y0024090D02*
X0186061Y0024090D01*
X0180218Y0024090D02*
X0172282Y0024090D01*
X0173192Y0023091D02*
X0179308Y0023091D01*
X0178894Y0022093D02*
X0173606Y0022093D01*
X0173821Y0021094D02*
X0178679Y0021094D01*
X0177736Y0020096D02*
X0174764Y0020096D01*
X0175178Y0019097D02*
X0177322Y0019097D01*
X0177150Y0018099D02*
X0175350Y0018099D01*
X0175350Y0017100D02*
X0177150Y0017100D01*
X0177150Y0016102D02*
X0175350Y0016102D01*
X0175350Y0015103D02*
X0177150Y0015103D01*
X0177150Y0014105D02*
X0175350Y0014105D01*
X0175350Y0013106D02*
X0177150Y0013106D01*
X0177150Y0012108D02*
X0175350Y0012108D01*
X0175350Y0011109D02*
X0177150Y0011109D01*
X0177540Y0010111D02*
X0174960Y0010111D01*
X0174294Y0009112D02*
X0178206Y0009112D01*
X0179597Y0008114D02*
X0172903Y0008114D01*
X0185350Y0016102D02*
X0186750Y0016102D01*
X0186750Y0017100D02*
X0185805Y0017100D01*
X0213821Y0021094D02*
X0218679Y0021094D01*
X0217736Y0020096D02*
X0214764Y0020096D01*
X0215178Y0019097D02*
X0217322Y0019097D01*
X0217150Y0018099D02*
X0215350Y0018099D01*
X0215350Y0017100D02*
X0217150Y0017100D01*
X0217150Y0016102D02*
X0215350Y0016102D01*
X0137150Y0016102D02*
X0135750Y0016102D01*
X0135750Y0017100D02*
X0136695Y0017100D01*
X0134914Y0021094D02*
X0134386Y0021094D01*
X0118679Y0021094D02*
X0113821Y0021094D01*
X0113572Y0021342D02*
X0112066Y0021967D01*
X0110434Y0021967D01*
X0108928Y0021342D01*
X0107774Y0020189D01*
X0107150Y0018682D01*
X0107150Y0011051D01*
X0107774Y0009544D01*
X0108928Y0008391D01*
X0110434Y0007767D01*
X0112066Y0007767D01*
X0113572Y0008391D01*
X0114726Y0009544D01*
X0115350Y0011051D01*
X0115350Y0018682D01*
X0114726Y0020189D01*
X0113572Y0021342D01*
X0114764Y0020096D02*
X0117736Y0020096D01*
X0117322Y0019097D02*
X0115178Y0019097D01*
X0115350Y0018099D02*
X0117150Y0018099D01*
X0117150Y0017100D02*
X0115350Y0017100D01*
X0115350Y0016102D02*
X0117150Y0016102D01*
X0117150Y0015103D02*
X0115350Y0015103D01*
X0115350Y0014105D02*
X0117150Y0014105D01*
X0117150Y0013106D02*
X0115350Y0013106D01*
X0115350Y0012108D02*
X0117150Y0012108D01*
X0117150Y0011109D02*
X0115350Y0011109D01*
X0114960Y0010111D02*
X0117540Y0010111D01*
X0118206Y0009112D02*
X0114294Y0009112D01*
X0112903Y0008114D02*
X0119597Y0008114D01*
X0109597Y0008114D02*
X0102903Y0008114D01*
X0104294Y0009112D02*
X0108206Y0009112D01*
X0107540Y0010111D02*
X0104960Y0010111D01*
X0105350Y0011109D02*
X0107150Y0011109D01*
X0107150Y0012108D02*
X0105350Y0012108D01*
X0105350Y0013106D02*
X0107150Y0013106D01*
X0107150Y0014105D02*
X0105350Y0014105D01*
X0105350Y0015103D02*
X0107150Y0015103D01*
X0107150Y0016102D02*
X0105350Y0016102D01*
X0105350Y0017100D02*
X0107150Y0017100D01*
X0107150Y0018099D02*
X0105350Y0018099D01*
X0105178Y0019097D02*
X0107322Y0019097D01*
X0107736Y0020096D02*
X0104764Y0020096D01*
X0103821Y0021094D02*
X0108679Y0021094D01*
X0113086Y0049053D02*
X0123173Y0049053D01*
X0256069Y0120162D02*
X0258514Y0117022D01*
X0258460Y0117188D01*
X0256527Y0119848D01*
X0253866Y0121781D01*
X0253319Y0121959D01*
X0256069Y0120162D01*
X0256237Y0119947D02*
X0256391Y0119947D01*
X0257014Y0118948D02*
X0257181Y0118948D01*
X0257791Y0117950D02*
X0257906Y0117950D01*
X0259829Y0119947D02*
X0261250Y0119947D01*
X0261250Y0120945D02*
X0259103Y0120945D01*
X0258481Y0121802D02*
X0258481Y0121802D01*
X0260922Y0118442D01*
X0260922Y0118442D01*
X0261250Y0117433D01*
X0261250Y0124867D01*
X0253203Y0124867D01*
X0255121Y0124243D01*
X0255121Y0124243D01*
X0258481Y0121802D01*
X0258481Y0121802D01*
X0258286Y0121944D02*
X0261250Y0121944D01*
X0261250Y0122942D02*
X0256912Y0122942D01*
X0255537Y0123941D02*
X0261250Y0123941D01*
X0255017Y0120945D02*
X0254871Y0120945D01*
X0253366Y0121944D02*
X0253342Y0121944D01*
X0260554Y0118948D02*
X0261250Y0118948D01*
X0261250Y0117950D02*
X0261082Y0117950D01*
D19*
X0051250Y0117783D02*
X0029262Y0117783D01*
X0029650Y0117285D02*
X0051250Y0117285D01*
X0051250Y0116786D02*
X0030038Y0116786D01*
X0030173Y0116613D02*
X0028613Y0118617D01*
X0051250Y0118617D01*
X0051250Y0112367D01*
X0045000Y0112367D01*
X0041401Y0108768D01*
X0041187Y0108982D01*
X0034483Y0108982D01*
X0033985Y0108484D01*
X0033985Y0101780D01*
X0034199Y0101566D01*
X0028750Y0096117D01*
X0028750Y0089867D01*
X0023750Y0089867D01*
X0023750Y0098525D01*
X0023983Y0098584D01*
X0027554Y0100916D01*
X0030173Y0104282D01*
X0031558Y0108315D01*
X0031558Y0112580D01*
X0030173Y0116613D01*
X0030285Y0116288D02*
X0051250Y0116288D01*
X0051250Y0115789D02*
X0030456Y0115789D01*
X0030627Y0115291D02*
X0051250Y0115291D01*
X0051250Y0114792D02*
X0030798Y0114792D01*
X0030969Y0114294D02*
X0051250Y0114294D01*
X0051250Y0113795D02*
X0031140Y0113795D01*
X0031311Y0113297D02*
X0051250Y0113297D01*
X0051250Y0112798D02*
X0031483Y0112798D01*
X0031558Y0112300D02*
X0044933Y0112300D01*
X0044434Y0111801D02*
X0031558Y0111801D01*
X0031558Y0111303D02*
X0043936Y0111303D01*
X0043437Y0110804D02*
X0031558Y0110804D01*
X0031558Y0110306D02*
X0042939Y0110306D01*
X0042440Y0109807D02*
X0031558Y0109807D01*
X0031558Y0109309D02*
X0041942Y0109309D01*
X0041443Y0108810D02*
X0041359Y0108810D01*
X0034310Y0108810D02*
X0031558Y0108810D01*
X0031556Y0108311D02*
X0033985Y0108311D01*
X0033985Y0107813D02*
X0031385Y0107813D01*
X0031214Y0107314D02*
X0033985Y0107314D01*
X0033985Y0106816D02*
X0031043Y0106816D01*
X0030872Y0106317D02*
X0033985Y0106317D01*
X0033985Y0105819D02*
X0030701Y0105819D01*
X0030529Y0105320D02*
X0033985Y0105320D01*
X0033985Y0104822D02*
X0030358Y0104822D01*
X0030187Y0104323D02*
X0033985Y0104323D01*
X0033985Y0103825D02*
X0029817Y0103825D01*
X0029429Y0103326D02*
X0033985Y0103326D01*
X0033985Y0102828D02*
X0029041Y0102828D01*
X0028653Y0102329D02*
X0033985Y0102329D01*
X0033985Y0101831D02*
X0028265Y0101831D01*
X0027877Y0101332D02*
X0033966Y0101332D01*
X0033467Y0100834D02*
X0027427Y0100834D01*
X0026664Y0100335D02*
X0032969Y0100335D01*
X0032470Y0099837D02*
X0025901Y0099837D01*
X0025138Y0099338D02*
X0031972Y0099338D01*
X0031473Y0098840D02*
X0024375Y0098840D01*
X0023750Y0098341D02*
X0030975Y0098341D01*
X0030476Y0097843D02*
X0023750Y0097843D01*
X0023750Y0097344D02*
X0029978Y0097344D01*
X0029479Y0096846D02*
X0023750Y0096846D01*
X0023750Y0096347D02*
X0028981Y0096347D01*
X0028750Y0095849D02*
X0023750Y0095849D01*
X0023750Y0095350D02*
X0028750Y0095350D01*
X0028750Y0094852D02*
X0023750Y0094852D01*
X0023750Y0094353D02*
X0028750Y0094353D01*
X0028750Y0093855D02*
X0023750Y0093855D01*
X0023750Y0093356D02*
X0028750Y0093356D01*
X0028750Y0092858D02*
X0023750Y0092858D01*
X0023750Y0092359D02*
X0028750Y0092359D01*
X0028750Y0091861D02*
X0023750Y0091861D01*
X0023750Y0091362D02*
X0028750Y0091362D01*
X0028750Y0090864D02*
X0023750Y0090864D01*
X0023750Y0090365D02*
X0028750Y0090365D01*
X0023750Y0067367D02*
X0036250Y0067367D01*
X0036250Y0056617D01*
X0035525Y0056617D01*
X0033775Y0054867D01*
X0023750Y0054867D01*
X0023750Y0067367D01*
X0023750Y0066935D02*
X0036250Y0066935D01*
X0036250Y0066437D02*
X0023750Y0066437D01*
X0023750Y0065938D02*
X0036250Y0065938D01*
X0036250Y0065440D02*
X0023750Y0065440D01*
X0023750Y0064941D02*
X0036250Y0064941D01*
X0036250Y0064442D02*
X0023750Y0064442D01*
X0023750Y0063944D02*
X0036250Y0063944D01*
X0036250Y0063445D02*
X0023750Y0063445D01*
X0023750Y0062947D02*
X0036250Y0062947D01*
X0036250Y0062448D02*
X0023750Y0062448D01*
X0023750Y0061950D02*
X0036250Y0061950D01*
X0036250Y0061451D02*
X0023750Y0061451D01*
X0023750Y0060953D02*
X0036250Y0060953D01*
X0036250Y0060454D02*
X0023750Y0060454D01*
X0023750Y0059956D02*
X0036250Y0059956D01*
X0036250Y0059457D02*
X0023750Y0059457D01*
X0023750Y0058959D02*
X0036250Y0058959D01*
X0036250Y0058460D02*
X0023750Y0058460D01*
X0023750Y0057962D02*
X0036250Y0057962D01*
X0036250Y0057463D02*
X0023750Y0057463D01*
X0023750Y0056965D02*
X0036250Y0056965D01*
X0035375Y0056466D02*
X0023750Y0056466D01*
X0023750Y0055968D02*
X0034876Y0055968D01*
X0034378Y0055469D02*
X0023750Y0055469D01*
X0023750Y0054971D02*
X0033879Y0054971D01*
X0028874Y0118282D02*
X0051250Y0118282D01*
D20*
X0026875Y0097992D03*
X0026250Y0095492D03*
X0026250Y0092992D03*
X0011250Y0087367D03*
X0011250Y0079867D03*
X0011250Y0072367D03*
X0047500Y0089867D03*
X0065625Y0077367D03*
X0051875Y0076742D03*
X0054375Y0064242D03*
X0080625Y0063617D03*
X0087500Y0054867D03*
X0093750Y0053617D03*
X0091250Y0046117D03*
X0091250Y0038617D03*
X0095000Y0036117D03*
X0098750Y0038617D03*
X0111250Y0047367D03*
X0133750Y0046117D03*
X0148125Y0041117D03*
X0150625Y0041117D03*
X0153125Y0041117D03*
X0158750Y0044867D03*
X0161250Y0044867D03*
X0163750Y0044867D03*
X0186250Y0033617D03*
X0206250Y0034242D03*
X0215000Y0026742D03*
X0230625Y0031117D03*
X0230000Y0049867D03*
X0221250Y0062367D03*
X0201250Y0067367D03*
X0170000Y0077367D03*
X0140625Y0067367D03*
X0136250Y0062367D03*
X0131250Y0064867D03*
X0132500Y0058617D03*
X0151875Y0062367D03*
X0160625Y0062367D03*
X0131250Y0081117D03*
X0118750Y0074867D03*
X0098750Y0074867D03*
X0085000Y0081117D03*
X0080625Y0089242D03*
X0111250Y0093617D03*
X0098750Y0064867D03*
X0049060Y0041687D03*
X0032500Y0048617D03*
X0037500Y0051117D03*
X0011250Y0049867D03*
X0011250Y0042367D03*
X0018750Y0036117D03*
X0035000Y0019867D03*
X0077500Y0009867D03*
X0091250Y0014867D03*
X0107500Y0026117D03*
X0161250Y0011117D03*
X0236250Y0072367D03*
X0245000Y0093617D03*
D21*
X0218750Y0076117D03*
X0201250Y0082367D03*
X0200000Y0089867D03*
X0102500Y0098617D03*
X0093750Y0086117D03*
D22*
X0148125Y0041117D02*
X0150625Y0041117D01*
X0153125Y0041117D01*
D23*
X0148125Y0041117D01*
X0136875Y0029867D01*
X0052254Y0029867D01*
X0043110Y0020723D01*
M02*
