G75*
%MOIN*%
%OFA0B0*%
%FSLAX25Y25*%
%IPPOS*%
%LPD*%
%AMOC8*
5,1,8,0,0,1.08239X$1,22.5*
%
%ADD10C,0.00600*%
%ADD11C,0.00400*%
%ADD12C,0.01000*%
%ADD13C,0.00300*%
%ADD14R,0.00060X0.00020*%
%ADD15R,0.00140X0.00020*%
%ADD16R,0.00200X0.00020*%
%ADD17R,0.00180X0.00020*%
%ADD18R,0.00240X0.00020*%
%ADD19R,0.00280X0.00020*%
%ADD20R,0.00340X0.00020*%
%ADD21R,0.00380X0.00020*%
%ADD22R,0.00440X0.00020*%
%ADD23R,0.00480X0.00020*%
%ADD24R,0.00540X0.00020*%
%ADD25R,0.00580X0.00020*%
%ADD26R,0.00640X0.00020*%
%ADD27R,0.00620X0.00020*%
%ADD28R,0.00680X0.00020*%
%ADD29R,0.00740X0.00020*%
%ADD30R,0.00720X0.00020*%
%ADD31R,0.00780X0.00020*%
%ADD32R,0.00840X0.00020*%
%ADD33R,0.00820X0.00020*%
%ADD34R,0.00880X0.00020*%
%ADD35R,0.00920X0.00020*%
%ADD36R,0.00980X0.00020*%
%ADD37R,0.01020X0.00020*%
%ADD38R,0.01080X0.00020*%
%ADD39R,0.01120X0.00020*%
%ADD40R,0.01180X0.00020*%
%ADD41R,0.01160X0.00020*%
%ADD42R,0.01220X0.00020*%
%ADD43R,0.01280X0.00020*%
%ADD44R,0.01260X0.00020*%
%ADD45R,0.01320X0.00020*%
%ADD46R,0.01380X0.00020*%
%ADD47R,0.01360X0.00020*%
%ADD48R,0.01420X0.00020*%
%ADD49R,0.00100X0.00020*%
%ADD50R,0.01460X0.00020*%
%ADD51R,0.00160X0.00020*%
%ADD52R,0.01520X0.00020*%
%ADD53R,0.00180X0.00020*%
%ADD54R,0.00200X0.00020*%
%ADD55R,0.01560X0.00020*%
%ADD56R,0.00240X0.00020*%
%ADD57R,0.00260X0.00020*%
%ADD58R,0.01620X0.00020*%
%ADD59R,0.01660X0.00020*%
%ADD60R,0.00320X0.00020*%
%ADD61R,0.01720X0.00020*%
%ADD62R,0.01700X0.00020*%
%ADD63R,0.01760X0.00020*%
%ADD64R,0.00440X0.00020*%
%ADD65R,0.00420X0.00020*%
%ADD66R,0.01820X0.00020*%
%ADD67R,0.00480X0.00020*%
%ADD68R,0.01800X0.00020*%
%ADD69R,0.01860X0.00020*%
%ADD70R,0.00520X0.00020*%
%ADD71R,0.01920X0.00020*%
%ADD72R,0.00560X0.00020*%
%ADD73R,0.01900X0.00020*%
%ADD74R,0.01960X0.00020*%
%ADD75R,0.00600X0.00020*%
%ADD76R,0.00620X0.00020*%
%ADD77R,0.02000X0.00020*%
%ADD78R,0.00660X0.00020*%
%ADD79R,0.00640X0.00020*%
%ADD80R,0.02060X0.00020*%
%ADD81R,0.00700X0.00020*%
%ADD82R,0.02880X0.00020*%
%ADD83R,0.02920X0.00020*%
%ADD84R,0.02940X0.00020*%
%ADD85R,0.02980X0.00020*%
%ADD86R,0.02960X0.00020*%
%ADD87R,0.03000X0.00020*%
%ADD88R,0.03020X0.00020*%
%ADD89R,0.03060X0.00020*%
%ADD90R,0.03080X0.00020*%
%ADD91R,0.03120X0.00020*%
%ADD92R,0.03100X0.00020*%
%ADD93R,0.03140X0.00020*%
%ADD94R,0.03180X0.00020*%
%ADD95R,0.03160X0.00020*%
%ADD96R,0.03200X0.00020*%
%ADD97R,0.03220X0.00020*%
%ADD98R,0.03260X0.00020*%
%ADD99R,0.03260X0.00020*%
%ADD100R,0.03280X0.00020*%
%ADD101R,0.03300X0.00020*%
%ADD102R,0.03280X0.00020*%
%ADD103R,0.03300X0.00020*%
%ADD104R,0.03320X0.00020*%
%ADD105R,0.03240X0.00020*%
%ADD106R,0.03240X0.00020*%
%ADD107R,0.03240X0.00020*%
%ADD108R,0.03240X0.00020*%
%ADD109R,0.03220X0.00020*%
%ADD110R,0.03220X0.00020*%
%ADD111R,0.03200X0.00020*%
%ADD112R,0.03180X0.00020*%
%ADD113R,0.03160X0.00020*%
%ADD114R,0.03140X0.00020*%
%ADD115R,0.03120X0.00020*%
%ADD116R,0.03120X0.00020*%
%ADD117R,0.03120X0.00020*%
%ADD118R,0.03100X0.00020*%
%ADD119R,0.03080X0.00020*%
%ADD120R,0.03060X0.00020*%
%ADD121R,0.03040X0.00020*%
%ADD122R,0.03040X0.00020*%
%ADD123R,0.03040X0.00020*%
%ADD124R,0.03020X0.00020*%
%ADD125R,0.03020X0.00020*%
%ADD126R,0.03000X0.00020*%
%ADD127R,0.02980X0.00020*%
%ADD128R,0.03140X0.00020*%
%ADD129R,0.03320X0.00020*%
%ADD130R,0.03340X0.00020*%
%ADD131R,0.03340X0.00020*%
%ADD132R,0.03360X0.00020*%
%ADD133R,0.03360X0.00020*%
%ADD134R,0.03380X0.00020*%
%ADD135R,0.03400X0.00020*%
%ADD136R,0.03400X0.00020*%
%ADD137R,0.03420X0.00020*%
%ADD138R,0.03420X0.00020*%
%ADD139R,0.03440X0.00020*%
%ADD140R,0.03460X0.00020*%
%ADD141R,0.03440X0.00020*%
%ADD142R,0.03460X0.00020*%
%ADD143R,0.03480X0.00020*%
%ADD144R,0.03480X0.00020*%
%ADD145R,0.03500X0.00020*%
%ADD146R,0.03520X0.00020*%
%ADD147R,0.03540X0.00020*%
%ADD148R,0.03520X0.00020*%
%ADD149R,0.03540X0.00020*%
%ADD150R,0.03560X0.00020*%
%ADD151R,0.03560X0.00020*%
%ADD152R,0.03540X0.00020*%
%ADD153R,0.03540X0.00020*%
%ADD154R,0.03520X0.00020*%
%ADD155R,0.03500X0.00020*%
%ADD156R,0.03340X0.00020*%
%ADD157R,0.03320X0.00020*%
%ADD158R,0.03220X0.00020*%
%ADD159R,0.03580X0.00020*%
%ADD160R,0.03660X0.00020*%
%ADD161R,0.03760X0.00020*%
%ADD162R,0.03740X0.00020*%
%ADD163R,0.03840X0.00020*%
%ADD164R,0.03860X0.00020*%
%ADD165R,0.03940X0.00020*%
%ADD166R,0.04040X0.00020*%
%ADD167R,0.04020X0.00020*%
%ADD168R,0.04140X0.00020*%
%ADD169R,0.04220X0.00020*%
%ADD170R,0.04320X0.00020*%
%ADD171R,0.04320X0.00020*%
%ADD172R,0.04420X0.00020*%
%ADD173R,0.04460X0.00020*%
%ADD174R,0.04480X0.00020*%
%ADD175R,0.04480X0.00020*%
%ADD176R,0.04460X0.00020*%
%ADD177R,0.04440X0.00020*%
%ADD178R,0.04440X0.00020*%
%ADD179R,0.04420X0.00020*%
%ADD180R,0.04400X0.00020*%
%ADD181R,0.04400X0.00020*%
%ADD182R,0.04380X0.00020*%
%ADD183R,0.04380X0.00020*%
%ADD184R,0.04360X0.00020*%
%ADD185R,0.04360X0.00020*%
%ADD186R,0.04340X0.00020*%
%ADD187R,0.04340X0.00020*%
%ADD188R,0.04320X0.00020*%
%ADD189R,0.04300X0.00020*%
%ADD190R,0.04300X0.00020*%
%ADD191R,0.04280X0.00020*%
%ADD192R,0.04280X0.00020*%
%ADD193R,0.04500X0.00020*%
%ADD194R,0.04260X0.00020*%
%ADD195R,0.04240X0.00020*%
%ADD196R,0.04160X0.00020*%
%ADD197R,0.04060X0.00020*%
%ADD198R,0.04080X0.00020*%
%ADD199R,0.03980X0.00020*%
%ADD200R,0.03960X0.00020*%
%ADD201R,0.03880X0.00020*%
%ADD202R,0.03780X0.00020*%
%ADD203R,0.03800X0.00020*%
%ADD204R,0.03700X0.00020*%
%ADD205R,0.03620X0.00020*%
%ADD206R,0.03600X0.00020*%
%ADD207R,0.03420X0.00020*%
%ADD208R,0.03380X0.00020*%
%ADD209R,0.03620X0.00020*%
%ADD210R,0.03680X0.00020*%
%ADD211R,0.03720X0.00020*%
%ADD212R,0.03800X0.00020*%
%ADD213R,0.03900X0.00020*%
%ADD214R,0.08260X0.00020*%
%ADD215R,0.08240X0.00020*%
%ADD216R,0.08220X0.00020*%
%ADD217R,0.08200X0.00020*%
%ADD218R,0.08180X0.00020*%
%ADD219R,0.08140X0.00020*%
%ADD220R,0.08140X0.00020*%
%ADD221R,0.08120X0.00020*%
%ADD222R,0.08100X0.00020*%
%ADD223R,0.08080X0.00020*%
%ADD224R,0.08060X0.00020*%
%ADD225R,0.08060X0.00020*%
%ADD226R,0.08020X0.00020*%
%ADD227R,0.08020X0.00020*%
%ADD228R,0.08000X0.00020*%
%ADD229R,0.07980X0.00020*%
%ADD230R,0.07960X0.00020*%
%ADD231R,0.07940X0.00020*%
%ADD232R,0.07940X0.00020*%
%ADD233R,0.07900X0.00020*%
%ADD234R,0.07900X0.00020*%
%ADD235R,0.07880X0.00020*%
%ADD236R,0.07860X0.00020*%
%ADD237R,0.07840X0.00020*%
%ADD238R,0.07820X0.00020*%
%ADD239R,0.07820X0.00020*%
%ADD240R,0.07780X0.00020*%
%ADD241R,0.07780X0.00020*%
%ADD242R,0.07760X0.00020*%
%ADD243R,0.07740X0.00020*%
%ADD244R,0.07740X0.00020*%
%ADD245R,0.07760X0.00020*%
%ADD246R,0.07840X0.00020*%
%ADD247R,0.07860X0.00020*%
%ADD248R,0.07920X0.00020*%
%ADD249R,0.08100X0.00020*%
%ADD250R,0.08160X0.00020*%
%ADD251R,0.08260X0.00020*%
%ADD252R,0.08300X0.00020*%
%ADD253R,0.08340X0.00020*%
%ADD254R,0.08360X0.00020*%
%ADD255R,0.08380X0.00020*%
%ADD256R,0.08420X0.00020*%
%ADD257R,0.08440X0.00020*%
%ADD258R,0.08460X0.00020*%
%ADD259R,0.08500X0.00020*%
%ADD260R,0.08520X0.00020*%
%ADD261R,0.08540X0.00020*%
%ADD262R,0.08580X0.00020*%
%ADD263R,0.08600X0.00020*%
%ADD264R,0.08620X0.00020*%
%ADD265R,0.08660X0.00020*%
%ADD266R,0.08700X0.00020*%
%ADD267R,0.08700X0.00020*%
%ADD268R,0.08740X0.00020*%
%ADD269R,0.08780X0.00020*%
%ADD270R,0.08800X0.00020*%
%ADD271R,0.08820X0.00020*%
%ADD272R,0.08860X0.00020*%
%ADD273R,0.08880X0.00020*%
%ADD274R,0.08900X0.00020*%
%ADD275R,0.08940X0.00020*%
%ADD276R,0.08960X0.00020*%
%ADD277R,0.08980X0.00020*%
%ADD278R,0.09020X0.00020*%
%ADD279R,0.09040X0.00020*%
%ADD280R,0.09060X0.00020*%
%ADD281R,0.09100X0.00020*%
%ADD282R,0.09140X0.00020*%
%ADD283R,0.09140X0.00020*%
%ADD284R,0.09180X0.00020*%
%ADD285R,0.09220X0.00020*%
%ADD286R,0.09240X0.00020*%
%ADD287R,0.09260X0.00020*%
%ADD288R,0.09300X0.00020*%
%ADD289R,0.09320X0.00020*%
%ADD290R,0.09340X0.00020*%
%ADD291R,0.09380X0.00020*%
%ADD292R,0.09400X0.00020*%
%ADD293R,0.09420X0.00020*%
%ADD294R,0.09460X0.00020*%
%ADD295R,0.09480X0.00020*%
%ADD296R,0.09500X0.00020*%
%ADD297R,0.09500X0.00020*%
%ADD298R,0.09480X0.00020*%
%ADD299R,0.09460X0.00020*%
%ADD300R,0.09380X0.00020*%
%ADD301R,0.09340X0.00020*%
%ADD302R,0.09220X0.00020*%
%ADD303R,0.09180X0.00020*%
%ADD304R,0.02280X0.00020*%
%ADD305R,0.04420X0.00020*%
%ADD306R,0.02260X0.00020*%
%ADD307R,0.02220X0.00020*%
%ADD308R,0.02200X0.00020*%
%ADD309R,0.02160X0.00020*%
%ADD310R,0.04220X0.00020*%
%ADD311R,0.02120X0.00020*%
%ADD312R,0.04140X0.00020*%
%ADD313R,0.02100X0.00020*%
%ADD314R,0.02060X0.00020*%
%ADD315R,0.04020X0.00020*%
%ADD316R,0.02020X0.00020*%
%ADD317R,0.03940X0.00020*%
%ADD318R,0.03820X0.00020*%
%ADD319R,0.03740X0.00020*%
%ADD320R,0.03640X0.00020*%
%ADD321R,0.01820X0.00020*%
%ADD322R,0.01780X0.00020*%
%ADD323R,0.01760X0.00020*%
%ADD324R,0.01680X0.00020*%
%ADD325R,0.01580X0.00020*%
%ADD326R,0.01560X0.00020*%
%ADD327R,0.01520X0.00020*%
%ADD328R,0.02940X0.00020*%
%ADD329R,0.01480X0.00020*%
%ADD330R,0.02860X0.00020*%
%ADD331R,0.02760X0.00020*%
%ADD332R,0.02660X0.00020*%
%ADD333R,0.01320X0.00020*%
%ADD334R,0.02560X0.00020*%
%ADD335R,0.01280X0.00020*%
%ADD336R,0.02460X0.00020*%
%ADD337R,0.01240X0.00020*%
%ADD338R,0.02380X0.00020*%
%ADD339R,0.02300X0.00020*%
%ADD340R,0.01140X0.00020*%
%ADD341R,0.02260X0.00020*%
%ADD342R,0.01080X0.00020*%
%ADD343R,0.01040X0.00020*%
%ADD344R,0.02220X0.00020*%
%ADD345R,0.01020X0.00020*%
%ADD346R,0.00940X0.00020*%
%ADD347R,0.00840X0.00020*%
%ADD348R,0.00780X0.00020*%
%ADD349R,0.02180X0.00020*%
%ADD350R,0.02180X0.00020*%
%ADD351R,0.02160X0.00020*%
%ADD352R,0.00580X0.00020*%
%ADD353R,0.00540X0.00020*%
%ADD354R,0.00500X0.00020*%
%ADD355R,0.02140X0.00020*%
%ADD356R,0.02140X0.00020*%
%ADD357R,0.00400X0.00020*%
%ADD358R,0.00340X0.00020*%
%ADD359R,0.00300X0.00020*%
%ADD360R,0.02120X0.00020*%
%ADD361R,0.02100X0.00020*%
%ADD362R,0.00100X0.00020*%
%ADD363R,0.02080X0.00020*%
%ADD364R,0.02040X0.00020*%
%ADD365R,0.02020X0.00020*%
%ADD366R,0.02020X0.00020*%
%ADD367R,0.01980X0.00020*%
%ADD368R,0.01980X0.00020*%
%ADD369R,0.01960X0.00020*%
%ADD370R,0.01940X0.00020*%
%ADD371R,0.01940X0.00020*%
%ADD372R,0.01920X0.00020*%
%ADD373R,0.01900X0.00020*%
%ADD374R,0.01880X0.00020*%
%ADD375R,0.01860X0.00020*%
%ADD376R,0.01840X0.00020*%
%ADD377R,0.01840X0.00020*%
%ADD378R,0.01800X0.00020*%
%ADD379R,0.01780X0.00020*%
%ADD380R,0.01740X0.00020*%
%ADD381R,0.01740X0.00020*%
%ADD382R,0.01700X0.00020*%
%ADD383R,0.01680X0.00020*%
%ADD384R,0.01660X0.00020*%
%ADD385R,0.01640X0.00020*%
%ADD386C,0.00200*%
%ADD387C,0.00000*%
%ADD388C,0.00500*%
%ADD389C,0.00800*%
%ADD390R,0.00984X0.00984*%
%ADD391C,0.00100*%
D10*
X0026550Y0009619D02*
X0030820Y0009619D01*
X0028685Y0007484D02*
X0028685Y0011755D01*
X0037500Y0012367D02*
X0037500Y0017367D01*
X0040000Y0019867D01*
X0045000Y0019867D01*
X0047500Y0017367D01*
X0050000Y0019867D01*
X0055000Y0019867D01*
X0057500Y0017367D01*
X0057500Y0012367D01*
X0055000Y0009867D01*
X0050000Y0009867D01*
X0047500Y0012367D01*
X0045000Y0009867D01*
X0040000Y0009867D01*
X0037500Y0012367D01*
X0047500Y0012367D02*
X0047500Y0017367D01*
X0064050Y0009619D02*
X0068320Y0009619D01*
X0070000Y0009867D02*
X0075000Y0009867D01*
X0077500Y0012367D01*
X0080000Y0009867D01*
X0085000Y0009867D01*
X0087500Y0012367D01*
X0090000Y0009867D01*
X0095000Y0009867D01*
X0097500Y0012367D01*
X0097500Y0017367D01*
X0095000Y0019867D01*
X0090000Y0019867D01*
X0087500Y0017367D01*
X0087500Y0012367D01*
X0087500Y0017367D02*
X0085000Y0019867D01*
X0080000Y0019867D01*
X0077500Y0017367D01*
X0077500Y0012367D01*
X0070000Y0009867D02*
X0067500Y0012367D01*
X0067500Y0017367D01*
X0070000Y0019867D01*
X0075000Y0019867D01*
X0077500Y0017367D01*
X0103750Y0017367D02*
X0103750Y0012367D01*
X0106250Y0009867D01*
X0111250Y0009867D01*
X0113750Y0012367D01*
X0113750Y0017367D01*
X0111250Y0019867D01*
X0106250Y0019867D01*
X0103750Y0017367D01*
X0113750Y0017367D02*
X0116250Y0019867D01*
X0121250Y0019867D01*
X0123750Y0017367D01*
X0126250Y0019867D01*
X0131250Y0019867D01*
X0133750Y0017367D01*
X0136250Y0019867D01*
X0141250Y0019867D01*
X0143750Y0017367D01*
X0146250Y0019867D01*
X0151250Y0019867D01*
X0153750Y0017367D01*
X0156250Y0019867D01*
X0161250Y0019867D01*
X0163750Y0017367D01*
X0163750Y0012367D01*
X0161250Y0009867D01*
X0156250Y0009867D01*
X0153750Y0012367D01*
X0151250Y0009867D01*
X0146250Y0009867D01*
X0143750Y0012367D01*
X0143750Y0017367D01*
X0143750Y0012367D02*
X0141250Y0009867D01*
X0136250Y0009867D01*
X0133750Y0012367D01*
X0131250Y0009867D01*
X0126250Y0009867D01*
X0123750Y0012367D01*
X0121250Y0009867D01*
X0116250Y0009867D01*
X0113750Y0012367D01*
X0123750Y0012367D02*
X0123750Y0017367D01*
X0133750Y0017367D02*
X0133750Y0012367D01*
X0153750Y0012367D02*
X0153750Y0017367D01*
X0171250Y0017367D02*
X0171250Y0012367D01*
X0173750Y0009867D01*
X0178750Y0009867D01*
X0181250Y0012367D01*
X0181250Y0017367D01*
X0178750Y0019867D01*
X0173750Y0019867D01*
X0171250Y0017367D01*
X0181250Y0017367D02*
X0183750Y0019867D01*
X0188750Y0019867D01*
X0191250Y0017367D01*
X0193750Y0019867D01*
X0198750Y0019867D01*
X0201250Y0017367D01*
X0203750Y0019867D01*
X0208750Y0019867D01*
X0211250Y0017367D01*
X0213750Y0019867D01*
X0218750Y0019867D01*
X0221250Y0017367D01*
X0223750Y0019867D01*
X0228750Y0019867D01*
X0231250Y0017367D01*
X0231250Y0012367D01*
X0228750Y0009867D01*
X0223750Y0009867D01*
X0221250Y0012367D01*
X0218750Y0009867D01*
X0213750Y0009867D01*
X0211250Y0012367D01*
X0211250Y0017367D01*
X0211250Y0012367D02*
X0208750Y0009867D01*
X0203750Y0009867D01*
X0201250Y0012367D01*
X0198750Y0009867D01*
X0193750Y0009867D01*
X0191250Y0012367D01*
X0188750Y0009867D01*
X0183750Y0009867D01*
X0181250Y0012367D01*
X0191250Y0012367D02*
X0191250Y0017367D01*
X0201250Y0017367D02*
X0201250Y0012367D01*
X0221250Y0012367D02*
X0221250Y0017367D01*
X0122549Y0056067D02*
X0096348Y0056067D01*
X0094951Y0057465D01*
X0094951Y0083666D01*
X0122549Y0083666D01*
X0122549Y0056067D01*
X0096536Y0059067D02*
X0096538Y0059142D01*
X0096544Y0059216D01*
X0096554Y0059290D01*
X0096567Y0059363D01*
X0096585Y0059436D01*
X0096606Y0059507D01*
X0096631Y0059578D01*
X0096660Y0059647D01*
X0096693Y0059714D01*
X0096729Y0059779D01*
X0096768Y0059843D01*
X0096810Y0059904D01*
X0096856Y0059963D01*
X0096905Y0060020D01*
X0096957Y0060073D01*
X0097011Y0060124D01*
X0097068Y0060173D01*
X0097128Y0060217D01*
X0097190Y0060259D01*
X0097254Y0060298D01*
X0097320Y0060333D01*
X0097387Y0060364D01*
X0097457Y0060392D01*
X0097527Y0060416D01*
X0097599Y0060437D01*
X0097672Y0060453D01*
X0097745Y0060466D01*
X0097820Y0060475D01*
X0097894Y0060480D01*
X0097969Y0060481D01*
X0098043Y0060478D01*
X0098118Y0060471D01*
X0098191Y0060460D01*
X0098265Y0060446D01*
X0098337Y0060427D01*
X0098408Y0060405D01*
X0098478Y0060379D01*
X0098547Y0060349D01*
X0098613Y0060316D01*
X0098678Y0060279D01*
X0098741Y0060239D01*
X0098802Y0060195D01*
X0098860Y0060149D01*
X0098916Y0060099D01*
X0098969Y0060047D01*
X0099020Y0059992D01*
X0099067Y0059934D01*
X0099111Y0059874D01*
X0099152Y0059811D01*
X0099190Y0059747D01*
X0099224Y0059681D01*
X0099255Y0059612D01*
X0099282Y0059543D01*
X0099305Y0059472D01*
X0099324Y0059400D01*
X0099340Y0059327D01*
X0099352Y0059253D01*
X0099360Y0059179D01*
X0099364Y0059104D01*
X0099364Y0059030D01*
X0099360Y0058955D01*
X0099352Y0058881D01*
X0099340Y0058807D01*
X0099324Y0058734D01*
X0099305Y0058662D01*
X0099282Y0058591D01*
X0099255Y0058522D01*
X0099224Y0058453D01*
X0099190Y0058387D01*
X0099152Y0058323D01*
X0099111Y0058260D01*
X0099067Y0058200D01*
X0099020Y0058142D01*
X0098969Y0058087D01*
X0098916Y0058035D01*
X0098860Y0057985D01*
X0098802Y0057939D01*
X0098741Y0057895D01*
X0098678Y0057855D01*
X0098613Y0057818D01*
X0098547Y0057785D01*
X0098478Y0057755D01*
X0098408Y0057729D01*
X0098337Y0057707D01*
X0098265Y0057688D01*
X0098191Y0057674D01*
X0098118Y0057663D01*
X0098043Y0057656D01*
X0097969Y0057653D01*
X0097894Y0057654D01*
X0097820Y0057659D01*
X0097745Y0057668D01*
X0097672Y0057681D01*
X0097599Y0057697D01*
X0097527Y0057718D01*
X0097457Y0057742D01*
X0097387Y0057770D01*
X0097320Y0057801D01*
X0097254Y0057836D01*
X0097190Y0057875D01*
X0097128Y0057917D01*
X0097068Y0057961D01*
X0097011Y0058010D01*
X0096957Y0058061D01*
X0096905Y0058114D01*
X0096856Y0058171D01*
X0096810Y0058230D01*
X0096768Y0058291D01*
X0096729Y0058355D01*
X0096693Y0058420D01*
X0096660Y0058487D01*
X0096631Y0058556D01*
X0096606Y0058627D01*
X0096585Y0058698D01*
X0096567Y0058771D01*
X0096554Y0058844D01*
X0096544Y0058918D01*
X0096538Y0058992D01*
X0096536Y0059067D01*
X0059636Y0046390D02*
X0059636Y0042119D01*
X0057461Y0041052D02*
X0057461Y0045322D01*
X0053191Y0045322D02*
X0053191Y0041052D01*
X0055326Y0038917D01*
X0057461Y0041052D01*
X0059636Y0039984D02*
X0059636Y0038917D01*
X0051016Y0038917D02*
X0046745Y0038917D01*
X0048881Y0038917D02*
X0048881Y0045322D01*
X0046745Y0043187D01*
X0042435Y0045322D02*
X0042435Y0038917D01*
X0040300Y0038917D02*
X0044570Y0038917D01*
X0040300Y0043187D02*
X0042435Y0045322D01*
X0040300Y0049417D02*
X0040300Y0055822D01*
X0042435Y0053687D01*
X0044570Y0055822D01*
X0044570Y0049417D01*
X0046745Y0049417D02*
X0046745Y0053687D01*
X0048881Y0055822D01*
X0051016Y0053687D01*
X0051016Y0049417D01*
X0053191Y0049417D02*
X0057461Y0055822D01*
X0053191Y0055822D02*
X0057461Y0049417D01*
X0051016Y0052619D02*
X0046745Y0052619D01*
X0021600Y0058517D02*
X0021600Y0063717D01*
X0015000Y0069717D02*
X0015034Y0069719D01*
X0015067Y0069725D01*
X0015099Y0069734D01*
X0015130Y0069747D01*
X0015160Y0069763D01*
X0015187Y0069782D01*
X0015212Y0069805D01*
X0015235Y0069830D01*
X0015254Y0069857D01*
X0015270Y0069887D01*
X0015283Y0069918D01*
X0015292Y0069950D01*
X0015298Y0069983D01*
X0015300Y0070017D01*
X0015298Y0070051D01*
X0015292Y0070084D01*
X0015283Y0070116D01*
X0015270Y0070147D01*
X0015254Y0070177D01*
X0015235Y0070204D01*
X0015212Y0070229D01*
X0015187Y0070252D01*
X0015160Y0070271D01*
X0015130Y0070287D01*
X0015099Y0070300D01*
X0015067Y0070309D01*
X0015034Y0070315D01*
X0015000Y0070317D01*
X0014966Y0070315D01*
X0014933Y0070309D01*
X0014901Y0070300D01*
X0014870Y0070287D01*
X0014840Y0070271D01*
X0014813Y0070252D01*
X0014788Y0070229D01*
X0014765Y0070204D01*
X0014746Y0070177D01*
X0014730Y0070147D01*
X0014717Y0070116D01*
X0014708Y0070084D01*
X0014702Y0070051D01*
X0014700Y0070017D01*
X0014702Y0069983D01*
X0014708Y0069950D01*
X0014717Y0069918D01*
X0014730Y0069887D01*
X0014746Y0069857D01*
X0014765Y0069830D01*
X0014788Y0069805D01*
X0014813Y0069782D01*
X0014840Y0069763D01*
X0014870Y0069747D01*
X0014901Y0069734D01*
X0014933Y0069725D01*
X0014966Y0069719D01*
X0015000Y0069717D01*
X0008400Y0063717D02*
X0008400Y0058517D01*
X0035335Y0100132D02*
X0040335Y0100132D01*
X0042835Y0102632D01*
X0045335Y0100132D01*
X0050335Y0100132D01*
X0052835Y0102632D01*
X0055335Y0100132D01*
X0060335Y0100132D01*
X0062835Y0102632D01*
X0065335Y0100132D01*
X0070335Y0100132D01*
X0072835Y0102632D01*
X0075335Y0100132D01*
X0080335Y0100132D01*
X0082835Y0102632D01*
X0085335Y0100132D01*
X0090335Y0100132D01*
X0092835Y0102632D01*
X0095335Y0100132D01*
X0100335Y0100132D01*
X0102835Y0102632D01*
X0105335Y0100132D01*
X0110335Y0100132D01*
X0112835Y0102632D01*
X0115335Y0100132D01*
X0120335Y0100132D01*
X0122835Y0102632D01*
X0125335Y0100132D01*
X0130335Y0100132D01*
X0132835Y0102632D01*
X0135335Y0100132D01*
X0140335Y0100132D01*
X0142835Y0102632D01*
X0145335Y0100132D01*
X0150335Y0100132D01*
X0152835Y0102632D01*
X0155335Y0100132D01*
X0160335Y0100132D01*
X0162835Y0102632D01*
X0165335Y0100132D01*
X0170335Y0100132D01*
X0172835Y0102632D01*
X0175335Y0100132D01*
X0180335Y0100132D01*
X0182835Y0102632D01*
X0185335Y0100132D01*
X0190335Y0100132D01*
X0192835Y0102632D01*
X0195335Y0100132D01*
X0200335Y0100132D01*
X0202835Y0102632D01*
X0205335Y0100132D01*
X0210335Y0100132D01*
X0212835Y0102632D01*
X0215335Y0100132D01*
X0220335Y0100132D01*
X0222835Y0102632D01*
X0225335Y0100132D01*
X0230335Y0100132D01*
X0232835Y0102632D01*
X0232835Y0117632D01*
X0230335Y0120132D01*
X0225335Y0120132D01*
X0222835Y0117632D01*
X0220335Y0120132D01*
X0215335Y0120132D01*
X0212835Y0117632D01*
X0210335Y0120132D01*
X0205335Y0120132D01*
X0202835Y0117632D01*
X0200335Y0120132D01*
X0195335Y0120132D01*
X0192835Y0117632D01*
X0190335Y0120132D01*
X0185335Y0120132D01*
X0182835Y0117632D01*
X0180335Y0120132D01*
X0175335Y0120132D01*
X0172835Y0117632D01*
X0170335Y0120132D01*
X0165335Y0120132D01*
X0162835Y0117632D01*
X0160335Y0120132D01*
X0155335Y0120132D01*
X0152835Y0117632D01*
X0150335Y0120132D01*
X0145335Y0120132D01*
X0142835Y0117632D01*
X0140335Y0120132D01*
X0135335Y0120132D01*
X0132835Y0117632D01*
X0130335Y0120132D01*
X0125335Y0120132D01*
X0122835Y0117632D01*
X0120335Y0120132D01*
X0115335Y0120132D01*
X0112835Y0117632D01*
X0110335Y0120132D01*
X0105335Y0120132D01*
X0102835Y0117632D01*
X0100335Y0120132D01*
X0095335Y0120132D01*
X0092835Y0117632D01*
X0090335Y0120132D01*
X0085335Y0120132D01*
X0082835Y0117632D01*
X0080335Y0120132D01*
X0075335Y0120132D01*
X0072835Y0117632D01*
X0070335Y0120132D01*
X0065335Y0120132D01*
X0062835Y0117632D01*
X0060335Y0120132D01*
X0055335Y0120132D01*
X0052835Y0117632D01*
X0050335Y0120132D01*
X0045335Y0120132D01*
X0042835Y0117632D01*
X0040335Y0120132D01*
X0035335Y0120132D01*
X0032835Y0117632D01*
X0032835Y0102632D01*
X0035335Y0100132D01*
X0209400Y0084217D02*
X0209400Y0081017D01*
X0211600Y0081017D01*
X0218400Y0081017D02*
X0220600Y0081017D01*
X0220600Y0084217D01*
D11*
X0247696Y0083421D02*
X0252300Y0086490D01*
X0247696Y0086490D01*
X0247696Y0083421D02*
X0252300Y0083421D01*
X0251533Y0081886D02*
X0248463Y0081886D01*
X0247696Y0081119D01*
X0247696Y0079584D01*
X0248463Y0078817D01*
X0251533Y0078817D01*
X0252300Y0079584D01*
X0252300Y0081119D01*
X0251533Y0081886D01*
X0239231Y0057034D02*
X0239231Y0056267D01*
X0240765Y0054732D01*
X0239231Y0054732D02*
X0242300Y0054732D01*
X0240765Y0053198D02*
X0240765Y0050128D01*
X0239998Y0050128D02*
X0239231Y0050896D01*
X0239231Y0052430D01*
X0239998Y0053198D01*
X0240765Y0053198D01*
X0242300Y0052430D02*
X0242300Y0050896D01*
X0241533Y0050128D01*
X0239998Y0050128D01*
X0239231Y0048594D02*
X0241533Y0048594D01*
X0242300Y0047826D01*
X0241533Y0047059D01*
X0242300Y0046292D01*
X0241533Y0045525D01*
X0239231Y0045525D01*
X0239998Y0043990D02*
X0239231Y0043223D01*
X0239231Y0041688D01*
X0239998Y0040921D01*
X0241533Y0040921D01*
X0242300Y0041688D01*
X0242300Y0043223D01*
X0241533Y0043990D01*
X0239998Y0043990D01*
X0239998Y0039386D02*
X0238463Y0039386D01*
X0237696Y0038619D01*
X0237696Y0036317D01*
X0242300Y0036317D01*
X0240765Y0036317D02*
X0240765Y0038619D01*
X0239998Y0039386D01*
X0127411Y0042357D02*
X0127411Y0034877D01*
X0110089Y0034877D02*
X0110089Y0042357D01*
D12*
X0022500Y0056117D02*
X0022500Y0057367D01*
D13*
X0141400Y0095001D02*
X0141400Y0096235D01*
X0142634Y0097470D01*
X0144473Y0096235D02*
X0143855Y0095618D01*
X0143855Y0094384D01*
X0144473Y0093767D01*
X0146324Y0093767D01*
X0147539Y0093767D02*
X0148773Y0095001D01*
X0148773Y0096235D01*
X0147539Y0097470D01*
X0146324Y0096235D02*
X0144473Y0096235D01*
X0142634Y0093767D02*
X0141400Y0095001D01*
X0149994Y0093767D02*
X0152463Y0096235D01*
X0152463Y0096853D01*
X0151846Y0097470D01*
X0150611Y0097470D01*
X0149994Y0096853D01*
X0153677Y0096853D02*
X0154294Y0097470D01*
X0155529Y0097470D01*
X0156146Y0096853D01*
X0153677Y0094384D01*
X0154294Y0093767D01*
X0155529Y0093767D01*
X0156146Y0094384D01*
X0156146Y0096853D01*
X0157360Y0096235D02*
X0158595Y0097470D01*
X0158595Y0093767D01*
X0159829Y0093767D02*
X0157360Y0093767D01*
X0153677Y0094384D02*
X0153677Y0096853D01*
X0152463Y0093767D02*
X0149994Y0093767D01*
X0161043Y0093767D02*
X0161043Y0094384D01*
X0163512Y0096853D01*
X0163512Y0097470D01*
X0161043Y0097470D01*
X0168410Y0097470D02*
X0168410Y0093767D01*
X0170878Y0093767D01*
X0172093Y0094384D02*
X0172710Y0093767D01*
X0174562Y0093767D01*
X0174562Y0096235D01*
X0175776Y0095618D02*
X0175776Y0094384D01*
X0176393Y0093767D01*
X0178245Y0093767D01*
X0179459Y0094384D02*
X0180076Y0095001D01*
X0181928Y0095001D01*
X0181928Y0095618D02*
X0181928Y0093767D01*
X0180076Y0093767D01*
X0179459Y0094384D01*
X0181311Y0096235D02*
X0181928Y0095618D01*
X0181311Y0096235D02*
X0180076Y0096235D01*
X0178245Y0096235D02*
X0176393Y0096235D01*
X0175776Y0095618D01*
X0172093Y0096235D02*
X0172093Y0094384D01*
X0186825Y0093767D02*
X0186825Y0096235D01*
X0188060Y0097470D01*
X0189294Y0096235D01*
X0189294Y0093767D01*
X0190509Y0093767D02*
X0190509Y0096235D01*
X0192360Y0096235D01*
X0192977Y0095618D01*
X0192977Y0093767D01*
X0194192Y0094384D02*
X0194809Y0095001D01*
X0196661Y0095001D01*
X0196661Y0095618D02*
X0196661Y0093767D01*
X0194809Y0093767D01*
X0194192Y0094384D01*
X0196043Y0096235D02*
X0196661Y0095618D01*
X0196043Y0096235D02*
X0194809Y0096235D01*
X0197875Y0095618D02*
X0198492Y0096235D01*
X0200344Y0096235D01*
X0201558Y0096235D02*
X0202792Y0096235D01*
X0202175Y0096853D02*
X0202175Y0094384D01*
X0202792Y0093767D01*
X0204013Y0094384D02*
X0204631Y0095001D01*
X0206482Y0095001D01*
X0206482Y0095618D02*
X0206482Y0093767D01*
X0204631Y0093767D01*
X0204013Y0094384D01*
X0205865Y0096235D02*
X0206482Y0095618D01*
X0205865Y0096235D02*
X0204631Y0096235D01*
X0207697Y0095618D02*
X0208314Y0096235D01*
X0210165Y0096235D01*
X0211380Y0096235D02*
X0211997Y0096235D01*
X0211997Y0093767D01*
X0211380Y0093767D02*
X0212614Y0093767D01*
X0213835Y0094384D02*
X0213835Y0095618D01*
X0214452Y0096235D01*
X0215687Y0096235D01*
X0216304Y0095618D01*
X0216304Y0094384D01*
X0215687Y0093767D01*
X0214452Y0093767D01*
X0213835Y0094384D01*
X0210165Y0094384D02*
X0209548Y0095001D01*
X0208314Y0095001D01*
X0207697Y0095618D01*
X0207697Y0093767D02*
X0209548Y0093767D01*
X0210165Y0094384D01*
X0211997Y0097470D02*
X0211997Y0098087D01*
X0200344Y0094384D02*
X0199726Y0095001D01*
X0198492Y0095001D01*
X0197875Y0095618D01*
X0197875Y0093767D02*
X0199726Y0093767D01*
X0200344Y0094384D01*
X0189294Y0095618D02*
X0186825Y0095618D01*
X0187575Y0053087D02*
X0187575Y0052470D01*
X0187575Y0051235D02*
X0187575Y0048767D01*
X0186958Y0048767D02*
X0188193Y0048767D01*
X0189414Y0048767D02*
X0189414Y0049384D01*
X0191882Y0051853D01*
X0191882Y0052470D01*
X0189414Y0052470D01*
X0187575Y0051235D02*
X0186958Y0051235D01*
X0185744Y0050618D02*
X0185127Y0050001D01*
X0183275Y0050001D01*
X0183275Y0048767D02*
X0183275Y0052470D01*
X0185127Y0052470D01*
X0185744Y0051853D01*
X0185744Y0050618D01*
X0189414Y0048767D02*
X0191882Y0048767D01*
X0193097Y0049384D02*
X0193097Y0050618D01*
X0193714Y0051235D01*
X0194948Y0051235D01*
X0195565Y0050618D01*
X0195565Y0050001D01*
X0193097Y0050001D01*
X0193097Y0049384D02*
X0193714Y0048767D01*
X0194948Y0048767D01*
X0196780Y0048767D02*
X0196780Y0051235D01*
X0196780Y0050001D02*
X0198014Y0051235D01*
X0198631Y0051235D01*
X0199849Y0050618D02*
X0199849Y0049384D01*
X0200466Y0048767D01*
X0201701Y0048767D01*
X0202318Y0049384D01*
X0202318Y0050618D01*
X0201701Y0051235D01*
X0200466Y0051235D01*
X0199849Y0050618D01*
X0203532Y0050001D02*
X0205384Y0050001D01*
X0206001Y0050618D01*
X0206001Y0051853D01*
X0205384Y0052470D01*
X0203532Y0052470D01*
X0203532Y0048767D01*
X0204767Y0050001D02*
X0206001Y0048767D01*
X0207215Y0049384D02*
X0207833Y0048767D01*
X0209067Y0048767D01*
X0209684Y0049384D01*
X0209684Y0050618D01*
X0209067Y0051235D01*
X0207833Y0051235D01*
X0207215Y0050618D01*
X0207215Y0049384D01*
X0210899Y0048767D02*
X0210899Y0052470D01*
X0210899Y0051235D02*
X0212750Y0051235D01*
X0213367Y0050618D01*
X0213367Y0049384D01*
X0212750Y0048767D01*
X0210899Y0048767D01*
X0214582Y0049384D02*
X0215199Y0048767D01*
X0216433Y0048767D01*
X0217050Y0049384D01*
X0217050Y0050618D01*
X0216433Y0051235D01*
X0215199Y0051235D01*
X0214582Y0050618D01*
X0214582Y0049384D01*
X0218265Y0048767D02*
X0218265Y0052470D01*
X0218265Y0050618D02*
X0220734Y0050618D01*
X0221948Y0049384D02*
X0222565Y0050001D01*
X0224417Y0050001D01*
X0224417Y0050618D02*
X0224417Y0048767D01*
X0222565Y0048767D01*
X0221948Y0049384D01*
X0220734Y0048767D02*
X0220734Y0052470D01*
X0222565Y0051235D02*
X0223800Y0051235D01*
X0224417Y0050618D01*
X0225631Y0051235D02*
X0226866Y0051235D01*
X0226248Y0051853D02*
X0226248Y0049384D01*
X0226866Y0048767D01*
X0161066Y0040553D02*
X0157930Y0037417D01*
X0157930Y0038985D02*
X0161066Y0038985D01*
X0161066Y0037417D02*
X0157930Y0040553D01*
X0159498Y0040553D02*
X0159498Y0037417D01*
D14*
X0201080Y0035617D03*
X0208280Y0035617D03*
D15*
X0208280Y0035637D03*
X0201080Y0035637D03*
X0201080Y0045077D03*
X0208280Y0045077D03*
D16*
X0208270Y0045057D03*
X0201090Y0045057D03*
X0201090Y0035657D03*
D17*
X0208280Y0035657D03*
D18*
X0208270Y0035677D03*
X0201090Y0035677D03*
X0201090Y0045037D03*
X0208270Y0045037D03*
D19*
X0206490Y0036237D03*
X0208270Y0035697D03*
X0202870Y0036237D03*
X0201090Y0035697D03*
D20*
X0201100Y0035717D03*
X0202860Y0036257D03*
X0208260Y0035717D03*
D21*
X0208260Y0035737D03*
X0206520Y0036277D03*
X0202840Y0036277D03*
X0201100Y0035737D03*
X0208260Y0044977D03*
D22*
X0208250Y0044957D03*
X0201110Y0044957D03*
X0201110Y0035757D03*
X0208250Y0035757D03*
D23*
X0208250Y0035777D03*
X0201110Y0035777D03*
X0208250Y0044937D03*
D24*
X0208240Y0035797D03*
X0201120Y0035797D03*
D25*
X0201120Y0035817D03*
X0206580Y0036357D03*
X0208240Y0035817D03*
D26*
X0201130Y0035837D03*
X0201130Y0044877D03*
X0208230Y0044877D03*
D27*
X0208240Y0035837D03*
D28*
X0208230Y0035857D03*
X0201130Y0035857D03*
X0201130Y0044857D03*
X0208230Y0044857D03*
D29*
X0208220Y0044837D03*
X0201140Y0044837D03*
X0201140Y0035877D03*
D30*
X0208230Y0035877D03*
D31*
X0208220Y0035897D03*
X0201140Y0035897D03*
D32*
X0201150Y0035917D03*
D33*
X0208220Y0035917D03*
D34*
X0208210Y0035937D03*
X0201150Y0035937D03*
X0201150Y0044777D03*
X0208210Y0044777D03*
D35*
X0208210Y0035957D03*
X0201150Y0035957D03*
D36*
X0201160Y0035977D03*
X0208200Y0035977D03*
X0208200Y0044737D03*
X0201160Y0044737D03*
D37*
X0201160Y0035997D03*
X0208200Y0035997D03*
D38*
X0208190Y0036017D03*
X0201170Y0036017D03*
D39*
X0201170Y0036037D03*
X0208190Y0036037D03*
X0208190Y0044677D03*
D40*
X0208180Y0044657D03*
X0201180Y0044657D03*
X0201180Y0036057D03*
D41*
X0208190Y0036057D03*
D42*
X0208180Y0036077D03*
X0201180Y0036077D03*
X0208180Y0044637D03*
D43*
X0201190Y0036097D03*
D44*
X0208180Y0036097D03*
D45*
X0208170Y0036117D03*
X0201190Y0036117D03*
D46*
X0201200Y0036137D03*
X0201200Y0044577D03*
X0208160Y0044577D03*
D47*
X0208170Y0036137D03*
D48*
X0208160Y0036157D03*
X0201200Y0036157D03*
X0201200Y0044557D03*
X0208160Y0044557D03*
D49*
X0206440Y0036157D03*
X0202920Y0036157D03*
D50*
X0201200Y0036177D03*
X0208160Y0036177D03*
D51*
X0206450Y0036177D03*
X0202910Y0036177D03*
D52*
X0201210Y0036197D03*
X0208150Y0036197D03*
D53*
X0202900Y0036197D03*
D54*
X0206470Y0036197D03*
D55*
X0208150Y0036217D03*
X0201210Y0036217D03*
D56*
X0202890Y0036217D03*
D57*
X0206480Y0036217D03*
D58*
X0208140Y0036237D03*
X0201220Y0036237D03*
X0201220Y0044477D03*
X0208140Y0044477D03*
D59*
X0208140Y0044457D03*
X0204680Y0046217D03*
X0201220Y0036257D03*
X0208140Y0036257D03*
D60*
X0206510Y0036257D03*
D61*
X0201230Y0036277D03*
X0201230Y0044437D03*
X0204690Y0046097D03*
X0208130Y0044437D03*
D62*
X0204680Y0046137D03*
X0204680Y0046177D03*
X0208140Y0036277D03*
D63*
X0208130Y0036297D03*
X0201230Y0036297D03*
X0204690Y0045977D03*
D64*
X0202830Y0036297D03*
D65*
X0206540Y0036297D03*
D66*
X0201240Y0036317D03*
X0204680Y0045817D03*
X0204680Y0045857D03*
D67*
X0202810Y0036317D03*
X0206550Y0036317D03*
D68*
X0208130Y0036317D03*
D69*
X0208120Y0036337D03*
X0201240Y0036337D03*
X0201240Y0044377D03*
X0204680Y0045677D03*
X0204680Y0045697D03*
X0204680Y0045737D03*
X0208120Y0044377D03*
D70*
X0206570Y0036337D03*
X0202790Y0036337D03*
D71*
X0201250Y0036357D03*
X0201250Y0044357D03*
X0208110Y0044357D03*
D72*
X0202790Y0036357D03*
D73*
X0208120Y0036357D03*
X0204680Y0045617D03*
D74*
X0204690Y0045437D03*
X0201250Y0044337D03*
X0208110Y0044337D03*
X0208110Y0036377D03*
X0201250Y0036377D03*
D75*
X0202770Y0036377D03*
X0201130Y0044897D03*
D76*
X0206600Y0036377D03*
D77*
X0208110Y0036397D03*
X0201250Y0036397D03*
X0204690Y0045337D03*
D78*
X0202760Y0036397D03*
D79*
X0206610Y0036397D03*
D80*
X0208100Y0036417D03*
X0201260Y0036417D03*
X0204680Y0045157D03*
X0204680Y0045217D03*
D81*
X0202740Y0036417D03*
X0206620Y0036417D03*
D82*
X0207710Y0036437D03*
X0201650Y0036437D03*
D83*
X0201650Y0036457D03*
X0207710Y0036457D03*
D84*
X0207720Y0036477D03*
X0201640Y0036477D03*
D85*
X0201640Y0036497D03*
X0202220Y0037937D03*
X0202240Y0037977D03*
X0202260Y0037997D03*
X0207100Y0038037D03*
X0207120Y0037997D03*
X0207120Y0037977D03*
D86*
X0207730Y0036497D03*
D87*
X0207730Y0036517D03*
X0207150Y0037917D03*
X0207130Y0037957D03*
X0207090Y0038057D03*
X0202270Y0038057D03*
X0202230Y0037957D03*
X0202210Y0037917D03*
X0201630Y0036517D03*
D88*
X0201620Y0036537D03*
X0202180Y0037877D03*
X0207180Y0037877D03*
X0207740Y0036537D03*
D89*
X0207740Y0036557D03*
X0207300Y0037657D03*
X0207260Y0037717D03*
X0202120Y0037757D03*
X0202100Y0037717D03*
X0201620Y0036557D03*
D90*
X0201610Y0036577D03*
X0202030Y0037597D03*
X0202050Y0037637D03*
X0202270Y0038177D03*
X0207290Y0037677D03*
X0207310Y0037637D03*
X0207330Y0037597D03*
X0207750Y0036577D03*
D91*
X0201610Y0036597D03*
D92*
X0202000Y0037537D03*
X0202020Y0037577D03*
X0207100Y0038177D03*
X0207340Y0037577D03*
X0207360Y0037537D03*
X0207760Y0036597D03*
D93*
X0207760Y0036617D03*
X0207440Y0037417D03*
X0201960Y0037457D03*
X0201940Y0037417D03*
X0201900Y0037357D03*
X0201600Y0036617D03*
D94*
X0201600Y0036637D03*
X0201840Y0037237D03*
X0201860Y0037277D03*
X0201880Y0039237D03*
X0201900Y0041477D03*
X0201920Y0041497D03*
X0207440Y0041497D03*
X0207100Y0038277D03*
X0207500Y0037297D03*
X0207500Y0037277D03*
D95*
X0207470Y0037337D03*
X0207450Y0037377D03*
X0207770Y0036637D03*
X0202270Y0038277D03*
X0201910Y0037377D03*
X0201890Y0037337D03*
X0201870Y0037297D03*
D96*
X0201830Y0037217D03*
X0201790Y0037157D03*
X0201590Y0036657D03*
X0202270Y0038317D03*
X0201970Y0041557D03*
X0207390Y0041557D03*
X0207510Y0039257D03*
X0207470Y0039217D03*
X0207090Y0038317D03*
X0207570Y0037157D03*
X0207770Y0036657D03*
D97*
X0207780Y0036677D03*
X0207620Y0037077D03*
X0207580Y0037137D03*
X0207440Y0039177D03*
X0207380Y0041577D03*
X0201980Y0041577D03*
X0202280Y0038337D03*
X0201780Y0037137D03*
X0201580Y0036677D03*
D98*
X0201580Y0036697D03*
X0201700Y0036977D03*
X0201700Y0036997D03*
X0202280Y0038377D03*
X0202040Y0041637D03*
X0207340Y0041637D03*
X0207100Y0038377D03*
X0207640Y0037037D03*
X0207660Y0036997D03*
X0207680Y0036977D03*
X0207780Y0036697D03*
D99*
X0207680Y0036957D03*
X0201680Y0036957D03*
X0201660Y0036917D03*
X0201580Y0036717D03*
X0201980Y0039117D03*
X0202020Y0041617D03*
X0204680Y0044457D03*
D100*
X0207310Y0041657D03*
X0207090Y0038417D03*
X0207710Y0036917D03*
X0207790Y0036717D03*
X0202270Y0038417D03*
X0202050Y0041657D03*
D101*
X0202060Y0041677D03*
X0201800Y0039277D03*
X0202280Y0038437D03*
X0201640Y0036877D03*
X0201620Y0036837D03*
X0201600Y0036797D03*
X0201580Y0036777D03*
X0201580Y0036737D03*
X0207360Y0039077D03*
X0207780Y0036777D03*
X0207300Y0041677D03*
D102*
X0207570Y0039277D03*
X0207370Y0039097D03*
X0207090Y0038397D03*
X0207690Y0036937D03*
X0207710Y0036897D03*
X0207730Y0036877D03*
X0207750Y0036837D03*
X0207790Y0036737D03*
X0202270Y0038397D03*
X0202010Y0039077D03*
X0201990Y0039097D03*
X0201670Y0036937D03*
X0201650Y0036897D03*
D103*
X0201620Y0036857D03*
X0201600Y0036817D03*
X0201580Y0036757D03*
X0202020Y0039057D03*
X0207340Y0039057D03*
X0207740Y0036857D03*
X0207760Y0036817D03*
X0207780Y0036757D03*
D104*
X0207770Y0036797D03*
X0207090Y0038437D03*
X0207330Y0039037D03*
X0207270Y0041697D03*
X0202090Y0041697D03*
X0201790Y0041437D03*
D105*
X0201850Y0041457D03*
X0202270Y0038357D03*
X0201710Y0037017D03*
X0207090Y0038357D03*
X0207390Y0039117D03*
X0207650Y0037017D03*
X0207510Y0041457D03*
X0207350Y0041617D03*
D106*
X0201730Y0037037D03*
D107*
X0201730Y0037057D03*
X0207630Y0037057D03*
D108*
X0207610Y0037097D03*
X0207410Y0039137D03*
X0207370Y0041597D03*
X0201970Y0039137D03*
X0201750Y0037077D03*
D109*
X0201760Y0037097D03*
X0201800Y0037177D03*
X0207100Y0038337D03*
X0202000Y0041597D03*
D110*
X0201860Y0039257D03*
X0201760Y0037117D03*
X0207600Y0037117D03*
D111*
X0207570Y0037177D03*
X0207550Y0037197D03*
X0207530Y0037237D03*
X0207090Y0038297D03*
X0207450Y0039197D03*
X0207490Y0039237D03*
X0207470Y0041477D03*
X0207410Y0041537D03*
X0201950Y0041537D03*
X0201910Y0039197D03*
X0201930Y0039177D03*
X0202270Y0038297D03*
X0201810Y0037197D03*
D112*
X0201840Y0037257D03*
X0201880Y0037317D03*
X0201900Y0039217D03*
X0201940Y0041517D03*
X0207420Y0041517D03*
X0207520Y0037257D03*
X0207540Y0037217D03*
D113*
X0207490Y0037317D03*
X0207470Y0037357D03*
X0207090Y0038257D03*
X0202270Y0038257D03*
D114*
X0201940Y0037437D03*
X0201920Y0037397D03*
X0207100Y0038237D03*
X0207400Y0037477D03*
X0207420Y0037437D03*
X0207440Y0037397D03*
D115*
X0207410Y0037457D03*
X0202010Y0037557D03*
D116*
X0201970Y0037497D03*
X0201970Y0037477D03*
X0202270Y0038197D03*
X0207090Y0038197D03*
X0207390Y0037497D03*
D117*
X0207370Y0037517D03*
X0207090Y0038217D03*
X0202270Y0038217D03*
X0201990Y0037517D03*
D118*
X0207320Y0037617D03*
X0207360Y0037557D03*
D119*
X0207090Y0038157D03*
X0202270Y0038157D03*
X0202070Y0037657D03*
X0202050Y0037617D03*
D120*
X0202080Y0037677D03*
X0202080Y0037697D03*
X0202280Y0038137D03*
X0207100Y0038137D03*
X0207260Y0037737D03*
X0207280Y0037697D03*
X0204680Y0044497D03*
D121*
X0202270Y0038097D03*
X0202150Y0037797D03*
X0202110Y0037737D03*
X0207090Y0038097D03*
D122*
X0207090Y0038117D03*
X0207210Y0037817D03*
X0207250Y0037757D03*
X0202270Y0038117D03*
X0202150Y0037817D03*
D123*
X0202130Y0037777D03*
X0207230Y0037777D03*
X0207230Y0037797D03*
D124*
X0207200Y0037837D03*
X0207100Y0038077D03*
X0202200Y0037897D03*
X0202160Y0037837D03*
D125*
X0202180Y0037857D03*
X0207180Y0037857D03*
D126*
X0207170Y0037897D03*
X0207150Y0037937D03*
X0202270Y0038037D03*
X0202270Y0038077D03*
D127*
X0202260Y0038017D03*
X0207100Y0038017D03*
D128*
X0202280Y0038237D03*
X0204680Y0044477D03*
D129*
X0202270Y0038457D03*
X0207090Y0038457D03*
D130*
X0207580Y0041437D03*
X0202280Y0038477D03*
X0204680Y0044437D03*
D131*
X0207100Y0038477D03*
D132*
X0207090Y0038497D03*
X0207290Y0038997D03*
X0202270Y0038497D03*
X0202070Y0038997D03*
X0202130Y0041737D03*
D133*
X0202270Y0038517D03*
X0207090Y0038517D03*
D134*
X0202280Y0038537D03*
X0202100Y0038977D03*
X0207240Y0041737D03*
D135*
X0207630Y0039297D03*
X0207270Y0038977D03*
X0207090Y0038537D03*
X0202130Y0038937D03*
X0201730Y0039297D03*
X0202170Y0041777D03*
D136*
X0202110Y0038957D03*
X0202270Y0038557D03*
X0207090Y0038557D03*
X0207250Y0038957D03*
D137*
X0207240Y0038937D03*
X0202280Y0038577D03*
D138*
X0207100Y0038577D03*
X0207200Y0041777D03*
D139*
X0207170Y0041797D03*
X0202190Y0041797D03*
X0202270Y0038597D03*
X0207090Y0038597D03*
D140*
X0202280Y0038617D03*
D141*
X0202150Y0038917D03*
X0207090Y0038617D03*
X0207210Y0038917D03*
X0204690Y0044417D03*
D142*
X0207200Y0038897D03*
X0202280Y0038637D03*
X0202160Y0038897D03*
D143*
X0202190Y0038877D03*
X0207090Y0038637D03*
D144*
X0207090Y0038657D03*
X0207690Y0039317D03*
X0207150Y0041817D03*
X0202210Y0041817D03*
X0201670Y0039317D03*
X0202270Y0038657D03*
D145*
X0202280Y0038677D03*
X0201660Y0041397D03*
X0202240Y0041837D03*
X0207120Y0041837D03*
X0207700Y0041397D03*
X0207180Y0038877D03*
D146*
X0207090Y0038697D03*
X0207090Y0038677D03*
X0202270Y0038697D03*
X0202230Y0038837D03*
D147*
X0202280Y0038717D03*
D148*
X0207090Y0038717D03*
D149*
X0202280Y0038737D03*
X0204680Y0044397D03*
D150*
X0202290Y0041877D03*
X0201610Y0039337D03*
X0202250Y0038797D03*
X0202270Y0038777D03*
X0207090Y0038737D03*
X0207110Y0038777D03*
X0207110Y0038797D03*
D151*
X0207090Y0038757D03*
X0202270Y0038757D03*
X0202250Y0038817D03*
D152*
X0207120Y0038817D03*
X0207100Y0041857D03*
X0202260Y0041857D03*
D153*
X0207140Y0038837D03*
D154*
X0202210Y0038857D03*
D155*
X0207160Y0038857D03*
D156*
X0207300Y0039017D03*
X0202060Y0039017D03*
X0202100Y0041717D03*
X0207260Y0041717D03*
D157*
X0202050Y0039037D03*
D158*
X0201940Y0039157D03*
X0207420Y0039157D03*
D159*
X0207760Y0039337D03*
X0207080Y0041877D03*
D160*
X0207820Y0039357D03*
X0202360Y0041917D03*
X0201540Y0039357D03*
D161*
X0201490Y0039377D03*
D162*
X0207880Y0039377D03*
D163*
X0201430Y0039397D03*
D164*
X0207940Y0039397D03*
D165*
X0208000Y0039417D03*
X0201360Y0039417D03*
D166*
X0201310Y0039437D03*
D167*
X0208060Y0039437D03*
D168*
X0208120Y0039457D03*
X0201240Y0039457D03*
D169*
X0201180Y0039477D03*
X0208180Y0039477D03*
D170*
X0201130Y0039497D03*
X0204690Y0044237D03*
D171*
X0208450Y0040697D03*
X0208450Y0040677D03*
X0208450Y0040637D03*
X0208450Y0040037D03*
X0208450Y0039997D03*
X0208450Y0039977D03*
X0208250Y0039497D03*
X0200910Y0039997D03*
X0200910Y0040037D03*
X0200910Y0040077D03*
X0200910Y0040637D03*
X0200910Y0040677D03*
X0200910Y0040697D03*
D172*
X0200960Y0039717D03*
X0201060Y0039517D03*
X0208300Y0039517D03*
X0208400Y0039717D03*
X0208400Y0041017D03*
D173*
X0208380Y0041077D03*
X0208380Y0041097D03*
X0208380Y0039637D03*
X0208340Y0039537D03*
X0201020Y0039537D03*
X0200980Y0039637D03*
X0200980Y0041077D03*
D174*
X0200990Y0041117D03*
X0201010Y0041157D03*
X0201010Y0039557D03*
X0208350Y0039557D03*
X0208370Y0041117D03*
X0208350Y0041157D03*
D175*
X0208370Y0041137D03*
X0208370Y0039597D03*
X0208370Y0039577D03*
X0200990Y0039577D03*
X0200990Y0039597D03*
X0200990Y0041097D03*
X0201030Y0041177D03*
D176*
X0200980Y0041057D03*
X0200980Y0039617D03*
X0208380Y0039617D03*
D177*
X0208390Y0039657D03*
X0208390Y0041057D03*
X0200970Y0041017D03*
X0200970Y0039657D03*
D178*
X0200970Y0039677D03*
X0200970Y0041037D03*
X0201050Y0041197D03*
X0208310Y0041197D03*
X0208390Y0041037D03*
X0208390Y0039677D03*
D179*
X0208400Y0039697D03*
X0208400Y0040977D03*
X0208400Y0040997D03*
X0200960Y0040997D03*
X0200960Y0040977D03*
X0200960Y0039737D03*
X0200960Y0039697D03*
D180*
X0200950Y0039777D03*
X0200950Y0040937D03*
X0208410Y0040937D03*
X0208410Y0039737D03*
D181*
X0208410Y0039757D03*
X0208410Y0040957D03*
X0200950Y0040957D03*
X0200950Y0040917D03*
X0200950Y0039757D03*
D182*
X0200940Y0039797D03*
X0200940Y0039837D03*
X0200940Y0040877D03*
X0200940Y0040897D03*
X0208420Y0040897D03*
X0208420Y0040877D03*
X0208420Y0039797D03*
X0208420Y0039777D03*
D183*
X0208420Y0039817D03*
X0208420Y0040917D03*
X0200940Y0040857D03*
X0200940Y0039817D03*
D184*
X0200930Y0039877D03*
X0200930Y0039897D03*
X0200930Y0040797D03*
X0200930Y0040837D03*
X0208430Y0040837D03*
X0208430Y0039877D03*
X0208430Y0039837D03*
D185*
X0208430Y0039857D03*
X0208430Y0040817D03*
X0208430Y0040857D03*
X0208250Y0041217D03*
X0201110Y0041217D03*
X0200930Y0040817D03*
X0200930Y0039857D03*
D186*
X0200920Y0039937D03*
X0200920Y0039977D03*
X0200920Y0040737D03*
X0200920Y0040777D03*
X0208440Y0040777D03*
X0208440Y0040797D03*
X0208440Y0040737D03*
X0208440Y0039937D03*
X0208440Y0039897D03*
D187*
X0208440Y0039917D03*
X0208440Y0039957D03*
X0208440Y0040757D03*
X0200920Y0040757D03*
X0200920Y0040717D03*
X0200920Y0039957D03*
X0200920Y0039917D03*
D188*
X0200910Y0040017D03*
X0200910Y0040057D03*
X0200910Y0040617D03*
X0200910Y0040657D03*
X0208450Y0040657D03*
X0208450Y0040717D03*
X0208450Y0040057D03*
X0208450Y0040017D03*
D189*
X0208460Y0040077D03*
X0208460Y0040097D03*
X0208460Y0040137D03*
X0208460Y0040177D03*
X0208460Y0040197D03*
X0208460Y0040497D03*
X0208460Y0040537D03*
X0208460Y0040577D03*
X0208460Y0040597D03*
X0200900Y0040597D03*
X0200900Y0040577D03*
X0200900Y0040537D03*
X0200900Y0040497D03*
X0200900Y0040477D03*
X0200900Y0040437D03*
X0200900Y0040277D03*
X0200900Y0040237D03*
X0200900Y0040197D03*
X0200900Y0040177D03*
X0200900Y0040137D03*
X0200900Y0040097D03*
D190*
X0200900Y0040117D03*
X0200900Y0040157D03*
X0200900Y0040217D03*
X0200900Y0040257D03*
X0200900Y0040417D03*
X0200900Y0040457D03*
X0200900Y0040517D03*
X0200900Y0040557D03*
X0208460Y0040557D03*
X0208460Y0040517D03*
X0208460Y0040617D03*
X0208460Y0040157D03*
X0208460Y0040117D03*
D191*
X0208470Y0040217D03*
X0208470Y0040257D03*
X0208470Y0040317D03*
X0208470Y0040357D03*
X0208470Y0040417D03*
X0208470Y0040457D03*
X0200890Y0040357D03*
X0200890Y0040317D03*
D192*
X0200890Y0040337D03*
X0200890Y0040377D03*
X0200890Y0040397D03*
X0200890Y0040297D03*
X0208470Y0040297D03*
X0208470Y0040277D03*
X0208470Y0040237D03*
X0208470Y0040337D03*
X0208470Y0040377D03*
X0208470Y0040397D03*
X0208470Y0040437D03*
X0208470Y0040477D03*
D193*
X0208340Y0041177D03*
X0201000Y0041137D03*
D194*
X0201180Y0041237D03*
D195*
X0208190Y0041237D03*
D196*
X0208130Y0041257D03*
X0201230Y0041257D03*
D197*
X0201300Y0041277D03*
D198*
X0208070Y0041277D03*
D199*
X0201360Y0041297D03*
D200*
X0208010Y0041297D03*
D201*
X0207950Y0041317D03*
X0201410Y0041317D03*
D202*
X0201480Y0041337D03*
D203*
X0207890Y0041337D03*
D204*
X0207820Y0041357D03*
X0201540Y0041357D03*
D205*
X0201600Y0041377D03*
D206*
X0207770Y0041377D03*
D207*
X0207640Y0041417D03*
X0201720Y0041417D03*
D208*
X0202140Y0041757D03*
X0207220Y0041757D03*
D209*
X0207040Y0041897D03*
X0202320Y0041897D03*
D210*
X0207010Y0041917D03*
D211*
X0206970Y0041937D03*
X0202390Y0041937D03*
D212*
X0202430Y0041957D03*
X0206930Y0041957D03*
D213*
X0206860Y0041977D03*
X0202500Y0041977D03*
D214*
X0204680Y0041997D03*
X0204680Y0043037D03*
D215*
X0204690Y0042017D03*
D216*
X0204680Y0042037D03*
X0204680Y0042997D03*
D217*
X0204690Y0042057D03*
D218*
X0204680Y0042077D03*
X0204680Y0042097D03*
X0204680Y0042977D03*
D219*
X0204680Y0042117D03*
D220*
X0204680Y0042137D03*
X0204680Y0042937D03*
D221*
X0204690Y0042157D03*
D222*
X0204680Y0042177D03*
D223*
X0204690Y0042197D03*
X0204690Y0042897D03*
D224*
X0204680Y0042217D03*
D225*
X0204680Y0042237D03*
X0204680Y0042877D03*
D226*
X0204680Y0042857D03*
X0204680Y0042257D03*
D227*
X0204680Y0042277D03*
D228*
X0204690Y0042297D03*
X0204690Y0042837D03*
D229*
X0204680Y0042817D03*
X0204680Y0042317D03*
D230*
X0204690Y0042337D03*
D231*
X0204680Y0042357D03*
D232*
X0204680Y0042377D03*
X0204680Y0042797D03*
D233*
X0204680Y0042397D03*
D234*
X0204680Y0042417D03*
X0204680Y0042757D03*
D235*
X0204690Y0042437D03*
D236*
X0204680Y0042457D03*
D237*
X0204690Y0042477D03*
D238*
X0204680Y0042497D03*
X0204680Y0042697D03*
D239*
X0204680Y0042517D03*
D240*
X0204680Y0042537D03*
X0204680Y0042677D03*
D241*
X0204680Y0042557D03*
D242*
X0204690Y0042577D03*
D243*
X0204680Y0042597D03*
X0204680Y0042637D03*
D244*
X0204680Y0042617D03*
D245*
X0204690Y0042657D03*
D246*
X0204690Y0042717D03*
D247*
X0204680Y0042737D03*
D248*
X0204690Y0042777D03*
D249*
X0204680Y0042917D03*
D250*
X0204690Y0042957D03*
D251*
X0204680Y0043017D03*
D252*
X0204680Y0043057D03*
D253*
X0204680Y0043077D03*
D254*
X0204690Y0043097D03*
D255*
X0204680Y0043117D03*
D256*
X0204680Y0043137D03*
D257*
X0204690Y0043157D03*
D258*
X0204680Y0043177D03*
D259*
X0204680Y0043197D03*
D260*
X0204690Y0043217D03*
D261*
X0204680Y0043237D03*
D262*
X0204680Y0043257D03*
D263*
X0204690Y0043277D03*
D264*
X0204680Y0043297D03*
D265*
X0204680Y0043317D03*
D266*
X0204680Y0043337D03*
D267*
X0204680Y0043357D03*
D268*
X0204680Y0043377D03*
D269*
X0204680Y0043397D03*
D270*
X0204690Y0043417D03*
D271*
X0204680Y0043437D03*
D272*
X0204680Y0043457D03*
D273*
X0204690Y0043477D03*
D274*
X0204680Y0043497D03*
D275*
X0204680Y0043517D03*
D276*
X0204690Y0043537D03*
D277*
X0204680Y0043557D03*
D278*
X0204680Y0043577D03*
D279*
X0204690Y0043597D03*
D280*
X0204680Y0043617D03*
D281*
X0204680Y0043637D03*
X0204680Y0044197D03*
D282*
X0204680Y0043657D03*
D283*
X0204680Y0043677D03*
X0204680Y0044177D03*
D284*
X0204680Y0043697D03*
D285*
X0204680Y0043717D03*
D286*
X0204690Y0043737D03*
D287*
X0204680Y0043757D03*
X0204680Y0044117D03*
D288*
X0204680Y0044097D03*
X0204680Y0043777D03*
D289*
X0204690Y0043797D03*
D290*
X0204680Y0043817D03*
D291*
X0204680Y0043837D03*
D292*
X0204690Y0043857D03*
D293*
X0204680Y0043877D03*
X0204680Y0044037D03*
D294*
X0204680Y0043897D03*
D295*
X0204690Y0043917D03*
D296*
X0204680Y0043937D03*
X0204680Y0043977D03*
D297*
X0204680Y0043957D03*
D298*
X0204690Y0043997D03*
D299*
X0204680Y0044017D03*
D300*
X0204680Y0044057D03*
D301*
X0204680Y0044077D03*
D302*
X0204680Y0044137D03*
D303*
X0204680Y0044157D03*
D304*
X0201290Y0044217D03*
D305*
X0204680Y0044217D03*
D306*
X0208080Y0044217D03*
D307*
X0204680Y0044737D03*
X0204680Y0044777D03*
X0201280Y0044237D03*
D308*
X0204690Y0044797D03*
X0208090Y0044237D03*
D309*
X0208090Y0044257D03*
X0204690Y0044917D03*
X0201270Y0044257D03*
D310*
X0204680Y0044257D03*
D311*
X0201270Y0044277D03*
D312*
X0204680Y0044277D03*
D313*
X0204680Y0045037D03*
X0204680Y0045077D03*
X0204680Y0045097D03*
X0208100Y0044277D03*
D314*
X0208100Y0044297D03*
X0204680Y0045137D03*
X0204680Y0045177D03*
X0204680Y0045197D03*
X0201260Y0044297D03*
D315*
X0204680Y0044297D03*
D316*
X0201260Y0044317D03*
X0208100Y0044317D03*
D317*
X0204680Y0044317D03*
D318*
X0204680Y0044337D03*
D319*
X0204680Y0044357D03*
D320*
X0204690Y0044377D03*
D321*
X0204680Y0045797D03*
X0204680Y0045837D03*
X0201240Y0044397D03*
X0208120Y0044397D03*
D322*
X0204680Y0045917D03*
X0204680Y0045957D03*
X0201240Y0044417D03*
D323*
X0208130Y0044417D03*
D324*
X0201230Y0044457D03*
D325*
X0201220Y0044497D03*
X0204680Y0046277D03*
D326*
X0208150Y0044497D03*
D327*
X0208150Y0044517D03*
X0201210Y0044517D03*
D328*
X0204680Y0044517D03*
D329*
X0201210Y0044537D03*
X0208150Y0044537D03*
D330*
X0204680Y0044537D03*
D331*
X0204690Y0044557D03*
D332*
X0204680Y0044577D03*
D333*
X0201190Y0044597D03*
X0208170Y0044597D03*
D334*
X0204690Y0044597D03*
D335*
X0201190Y0044617D03*
X0208170Y0044617D03*
D336*
X0204680Y0044617D03*
D337*
X0201190Y0044637D03*
D338*
X0204680Y0044637D03*
D339*
X0204680Y0044657D03*
D340*
X0201180Y0044677D03*
D341*
X0204680Y0044677D03*
X0204680Y0044697D03*
D342*
X0201170Y0044697D03*
X0208190Y0044697D03*
D343*
X0201170Y0044717D03*
D344*
X0204680Y0044717D03*
X0204680Y0044757D03*
D345*
X0208200Y0044717D03*
D346*
X0208200Y0044757D03*
X0201160Y0044757D03*
D347*
X0201150Y0044797D03*
X0208210Y0044797D03*
D348*
X0208220Y0044817D03*
X0201140Y0044817D03*
D349*
X0204680Y0044817D03*
X0204680Y0044857D03*
D350*
X0204680Y0044877D03*
X0204680Y0044837D03*
D351*
X0204690Y0044897D03*
D352*
X0208240Y0044897D03*
D353*
X0208240Y0044917D03*
X0201120Y0044917D03*
D354*
X0201120Y0044937D03*
D355*
X0204680Y0044937D03*
X0204680Y0044977D03*
X0204680Y0044997D03*
D356*
X0204680Y0044957D03*
D357*
X0201110Y0044977D03*
D358*
X0201100Y0044997D03*
X0208260Y0044997D03*
D359*
X0208260Y0045017D03*
X0201100Y0045017D03*
D360*
X0204690Y0045017D03*
D361*
X0204680Y0045057D03*
D362*
X0201080Y0045097D03*
X0208280Y0045097D03*
D363*
X0204690Y0045117D03*
D364*
X0204690Y0045237D03*
D365*
X0204680Y0045257D03*
X0204680Y0045317D03*
D366*
X0204680Y0045297D03*
X0204680Y0045277D03*
D367*
X0204680Y0045357D03*
X0204680Y0045417D03*
D368*
X0204680Y0045397D03*
X0204680Y0045377D03*
D369*
X0204690Y0045457D03*
D370*
X0204680Y0045477D03*
X0204680Y0045497D03*
X0204680Y0045537D03*
D371*
X0204680Y0045517D03*
D372*
X0204690Y0045557D03*
D373*
X0204680Y0045577D03*
X0204680Y0045597D03*
X0204680Y0045637D03*
D374*
X0204690Y0045657D03*
D375*
X0204680Y0045717D03*
D376*
X0204690Y0045757D03*
D377*
X0204690Y0045777D03*
D378*
X0204690Y0045877D03*
D379*
X0204680Y0045897D03*
X0204680Y0045937D03*
D380*
X0204680Y0045997D03*
X0204680Y0046037D03*
X0204680Y0046077D03*
D381*
X0204680Y0046057D03*
X0204680Y0046017D03*
D382*
X0204680Y0046117D03*
X0204680Y0046157D03*
D383*
X0204690Y0046197D03*
D384*
X0204680Y0046237D03*
D385*
X0204690Y0046257D03*
D386*
X0146278Y0080334D02*
X0146278Y0080701D01*
X0145911Y0081068D01*
X0144810Y0081068D01*
X0144810Y0080334D01*
X0145177Y0079967D01*
X0145911Y0079967D01*
X0146278Y0080334D01*
X0145544Y0081802D02*
X0144810Y0081068D01*
X0144068Y0081068D02*
X0142600Y0081068D01*
X0142600Y0081435D02*
X0143334Y0082169D01*
X0144068Y0081435D01*
X0144068Y0079967D01*
X0142600Y0079967D02*
X0142600Y0081435D01*
X0145544Y0081802D02*
X0146278Y0082169D01*
X0078153Y0063052D02*
X0076685Y0061584D01*
X0077052Y0061217D01*
X0077786Y0061217D01*
X0078153Y0061584D01*
X0078153Y0063052D01*
X0077786Y0063419D01*
X0077052Y0063419D01*
X0076685Y0063052D01*
X0076685Y0061584D01*
X0075943Y0061584D02*
X0075943Y0063052D01*
X0075576Y0063419D01*
X0074475Y0063419D01*
X0074475Y0061217D01*
X0075576Y0061217D01*
X0075943Y0061584D01*
X0075576Y0057169D02*
X0074475Y0057169D01*
X0074475Y0054967D01*
X0075576Y0054967D01*
X0075943Y0055334D01*
X0075943Y0056802D01*
X0075576Y0057169D01*
X0076685Y0056435D02*
X0077419Y0057169D01*
X0077419Y0054967D01*
X0076685Y0054967D02*
X0078153Y0054967D01*
D387*
X0016811Y0006117D02*
X0249094Y0006117D01*
X0249379Y0006120D01*
X0249665Y0006131D01*
X0249950Y0006148D01*
X0250234Y0006172D01*
X0250518Y0006203D01*
X0250801Y0006241D01*
X0251082Y0006286D01*
X0251363Y0006337D01*
X0251643Y0006395D01*
X0251921Y0006460D01*
X0252197Y0006532D01*
X0252471Y0006610D01*
X0252744Y0006695D01*
X0253014Y0006787D01*
X0253282Y0006885D01*
X0253548Y0006989D01*
X0253811Y0007100D01*
X0254071Y0007217D01*
X0254329Y0007340D01*
X0254583Y0007470D01*
X0254834Y0007606D01*
X0255082Y0007747D01*
X0255326Y0007895D01*
X0255567Y0008048D01*
X0255803Y0008208D01*
X0256036Y0008373D01*
X0256265Y0008543D01*
X0256490Y0008719D01*
X0256710Y0008901D01*
X0256926Y0009087D01*
X0257137Y0009279D01*
X0257344Y0009476D01*
X0257546Y0009678D01*
X0257743Y0009885D01*
X0257935Y0010096D01*
X0258121Y0010312D01*
X0258303Y0010532D01*
X0258479Y0010757D01*
X0258649Y0010986D01*
X0258814Y0011219D01*
X0258974Y0011455D01*
X0259127Y0011696D01*
X0259275Y0011940D01*
X0259416Y0012188D01*
X0259552Y0012439D01*
X0259682Y0012693D01*
X0259805Y0012951D01*
X0259922Y0013211D01*
X0260033Y0013474D01*
X0260137Y0013740D01*
X0260235Y0014008D01*
X0260327Y0014278D01*
X0260412Y0014551D01*
X0260490Y0014825D01*
X0260562Y0015101D01*
X0260627Y0015379D01*
X0260685Y0015659D01*
X0260736Y0015940D01*
X0260781Y0016221D01*
X0260819Y0016504D01*
X0260850Y0016788D01*
X0260874Y0017072D01*
X0260891Y0017357D01*
X0260902Y0017643D01*
X0260905Y0017928D01*
X0260906Y0017928D02*
X0260906Y0112416D01*
X0260905Y0112416D02*
X0260902Y0112701D01*
X0260891Y0112987D01*
X0260874Y0113272D01*
X0260850Y0113556D01*
X0260819Y0113840D01*
X0260781Y0114123D01*
X0260736Y0114404D01*
X0260685Y0114685D01*
X0260627Y0114965D01*
X0260562Y0115243D01*
X0260490Y0115519D01*
X0260412Y0115793D01*
X0260327Y0116066D01*
X0260235Y0116336D01*
X0260137Y0116604D01*
X0260033Y0116870D01*
X0259922Y0117133D01*
X0259805Y0117393D01*
X0259682Y0117651D01*
X0259552Y0117905D01*
X0259416Y0118156D01*
X0259275Y0118404D01*
X0259127Y0118648D01*
X0258974Y0118889D01*
X0258814Y0119125D01*
X0258649Y0119358D01*
X0258479Y0119587D01*
X0258303Y0119812D01*
X0258121Y0120032D01*
X0257935Y0120248D01*
X0257743Y0120459D01*
X0257546Y0120666D01*
X0257344Y0120868D01*
X0257137Y0121065D01*
X0256926Y0121257D01*
X0256710Y0121443D01*
X0256490Y0121625D01*
X0256265Y0121801D01*
X0256036Y0121971D01*
X0255803Y0122136D01*
X0255567Y0122296D01*
X0255326Y0122449D01*
X0255082Y0122597D01*
X0254834Y0122738D01*
X0254583Y0122874D01*
X0254329Y0123004D01*
X0254071Y0123127D01*
X0253811Y0123244D01*
X0253548Y0123355D01*
X0253282Y0123459D01*
X0253014Y0123557D01*
X0252744Y0123649D01*
X0252471Y0123734D01*
X0252197Y0123812D01*
X0251921Y0123884D01*
X0251643Y0123949D01*
X0251363Y0124007D01*
X0251082Y0124058D01*
X0250801Y0124103D01*
X0250518Y0124141D01*
X0250234Y0124172D01*
X0249950Y0124196D01*
X0249665Y0124213D01*
X0249379Y0124224D01*
X0249094Y0124227D01*
X0016811Y0124227D01*
X0016526Y0124224D01*
X0016240Y0124213D01*
X0015955Y0124196D01*
X0015671Y0124172D01*
X0015387Y0124141D01*
X0015104Y0124103D01*
X0014823Y0124058D01*
X0014542Y0124007D01*
X0014262Y0123949D01*
X0013984Y0123884D01*
X0013708Y0123812D01*
X0013434Y0123734D01*
X0013161Y0123649D01*
X0012891Y0123557D01*
X0012623Y0123459D01*
X0012357Y0123355D01*
X0012094Y0123244D01*
X0011834Y0123127D01*
X0011576Y0123004D01*
X0011322Y0122874D01*
X0011071Y0122738D01*
X0010823Y0122597D01*
X0010579Y0122449D01*
X0010338Y0122296D01*
X0010102Y0122136D01*
X0009869Y0121971D01*
X0009640Y0121801D01*
X0009415Y0121625D01*
X0009195Y0121443D01*
X0008979Y0121257D01*
X0008768Y0121065D01*
X0008561Y0120868D01*
X0008359Y0120666D01*
X0008162Y0120459D01*
X0007970Y0120248D01*
X0007784Y0120032D01*
X0007602Y0119812D01*
X0007426Y0119587D01*
X0007256Y0119358D01*
X0007091Y0119125D01*
X0006931Y0118889D01*
X0006778Y0118648D01*
X0006630Y0118404D01*
X0006489Y0118156D01*
X0006353Y0117905D01*
X0006223Y0117651D01*
X0006100Y0117393D01*
X0005983Y0117133D01*
X0005872Y0116870D01*
X0005768Y0116604D01*
X0005670Y0116336D01*
X0005578Y0116066D01*
X0005493Y0115793D01*
X0005415Y0115519D01*
X0005343Y0115243D01*
X0005278Y0114965D01*
X0005220Y0114685D01*
X0005169Y0114404D01*
X0005124Y0114123D01*
X0005086Y0113840D01*
X0005055Y0113556D01*
X0005031Y0113272D01*
X0005014Y0112987D01*
X0005003Y0112701D01*
X0005000Y0112416D01*
X0005000Y0017928D01*
X0005003Y0017643D01*
X0005014Y0017357D01*
X0005031Y0017072D01*
X0005055Y0016788D01*
X0005086Y0016504D01*
X0005124Y0016221D01*
X0005169Y0015940D01*
X0005220Y0015659D01*
X0005278Y0015379D01*
X0005343Y0015101D01*
X0005415Y0014825D01*
X0005493Y0014551D01*
X0005578Y0014278D01*
X0005670Y0014008D01*
X0005768Y0013740D01*
X0005872Y0013474D01*
X0005983Y0013211D01*
X0006100Y0012951D01*
X0006223Y0012693D01*
X0006353Y0012439D01*
X0006489Y0012188D01*
X0006630Y0011940D01*
X0006778Y0011696D01*
X0006931Y0011455D01*
X0007091Y0011219D01*
X0007256Y0010986D01*
X0007426Y0010757D01*
X0007602Y0010532D01*
X0007784Y0010312D01*
X0007970Y0010096D01*
X0008162Y0009885D01*
X0008359Y0009678D01*
X0008561Y0009476D01*
X0008768Y0009279D01*
X0008979Y0009087D01*
X0009195Y0008901D01*
X0009415Y0008719D01*
X0009640Y0008543D01*
X0009869Y0008373D01*
X0010102Y0008208D01*
X0010338Y0008048D01*
X0010579Y0007895D01*
X0010823Y0007747D01*
X0011071Y0007606D01*
X0011322Y0007470D01*
X0011576Y0007340D01*
X0011834Y0007217D01*
X0012094Y0007100D01*
X0012357Y0006989D01*
X0012623Y0006885D01*
X0012891Y0006787D01*
X0013161Y0006695D01*
X0013434Y0006610D01*
X0013708Y0006532D01*
X0013984Y0006460D01*
X0014262Y0006395D01*
X0014542Y0006337D01*
X0014823Y0006286D01*
X0015104Y0006241D01*
X0015387Y0006203D01*
X0015671Y0006172D01*
X0015955Y0006148D01*
X0016240Y0006131D01*
X0016526Y0006120D01*
X0016811Y0006117D01*
X0013268Y0019896D02*
X0013270Y0020044D01*
X0013276Y0020192D01*
X0013286Y0020340D01*
X0013300Y0020487D01*
X0013318Y0020634D01*
X0013339Y0020780D01*
X0013365Y0020926D01*
X0013395Y0021071D01*
X0013428Y0021215D01*
X0013466Y0021358D01*
X0013507Y0021500D01*
X0013552Y0021641D01*
X0013600Y0021781D01*
X0013653Y0021920D01*
X0013709Y0022057D01*
X0013769Y0022192D01*
X0013832Y0022326D01*
X0013899Y0022458D01*
X0013970Y0022588D01*
X0014044Y0022716D01*
X0014121Y0022842D01*
X0014202Y0022966D01*
X0014286Y0023088D01*
X0014373Y0023207D01*
X0014464Y0023324D01*
X0014558Y0023439D01*
X0014654Y0023551D01*
X0014754Y0023661D01*
X0014856Y0023767D01*
X0014962Y0023871D01*
X0015070Y0023972D01*
X0015181Y0024070D01*
X0015294Y0024166D01*
X0015410Y0024258D01*
X0015528Y0024347D01*
X0015649Y0024432D01*
X0015772Y0024515D01*
X0015897Y0024594D01*
X0016024Y0024670D01*
X0016153Y0024742D01*
X0016284Y0024811D01*
X0016417Y0024876D01*
X0016552Y0024937D01*
X0016688Y0024995D01*
X0016825Y0025050D01*
X0016964Y0025100D01*
X0017105Y0025147D01*
X0017246Y0025190D01*
X0017389Y0025230D01*
X0017533Y0025265D01*
X0017677Y0025297D01*
X0017823Y0025324D01*
X0017969Y0025348D01*
X0018116Y0025368D01*
X0018263Y0025384D01*
X0018410Y0025396D01*
X0018558Y0025404D01*
X0018706Y0025408D01*
X0018854Y0025408D01*
X0019002Y0025404D01*
X0019150Y0025396D01*
X0019297Y0025384D01*
X0019444Y0025368D01*
X0019591Y0025348D01*
X0019737Y0025324D01*
X0019883Y0025297D01*
X0020027Y0025265D01*
X0020171Y0025230D01*
X0020314Y0025190D01*
X0020455Y0025147D01*
X0020596Y0025100D01*
X0020735Y0025050D01*
X0020872Y0024995D01*
X0021008Y0024937D01*
X0021143Y0024876D01*
X0021276Y0024811D01*
X0021407Y0024742D01*
X0021536Y0024670D01*
X0021663Y0024594D01*
X0021788Y0024515D01*
X0021911Y0024432D01*
X0022032Y0024347D01*
X0022150Y0024258D01*
X0022266Y0024166D01*
X0022379Y0024070D01*
X0022490Y0023972D01*
X0022598Y0023871D01*
X0022704Y0023767D01*
X0022806Y0023661D01*
X0022906Y0023551D01*
X0023002Y0023439D01*
X0023096Y0023324D01*
X0023187Y0023207D01*
X0023274Y0023088D01*
X0023358Y0022966D01*
X0023439Y0022842D01*
X0023516Y0022716D01*
X0023590Y0022588D01*
X0023661Y0022458D01*
X0023728Y0022326D01*
X0023791Y0022192D01*
X0023851Y0022057D01*
X0023907Y0021920D01*
X0023960Y0021781D01*
X0024008Y0021641D01*
X0024053Y0021500D01*
X0024094Y0021358D01*
X0024132Y0021215D01*
X0024165Y0021071D01*
X0024195Y0020926D01*
X0024221Y0020780D01*
X0024242Y0020634D01*
X0024260Y0020487D01*
X0024274Y0020340D01*
X0024284Y0020192D01*
X0024290Y0020044D01*
X0024292Y0019896D01*
X0024290Y0019748D01*
X0024284Y0019600D01*
X0024274Y0019452D01*
X0024260Y0019305D01*
X0024242Y0019158D01*
X0024221Y0019012D01*
X0024195Y0018866D01*
X0024165Y0018721D01*
X0024132Y0018577D01*
X0024094Y0018434D01*
X0024053Y0018292D01*
X0024008Y0018151D01*
X0023960Y0018011D01*
X0023907Y0017872D01*
X0023851Y0017735D01*
X0023791Y0017600D01*
X0023728Y0017466D01*
X0023661Y0017334D01*
X0023590Y0017204D01*
X0023516Y0017076D01*
X0023439Y0016950D01*
X0023358Y0016826D01*
X0023274Y0016704D01*
X0023187Y0016585D01*
X0023096Y0016468D01*
X0023002Y0016353D01*
X0022906Y0016241D01*
X0022806Y0016131D01*
X0022704Y0016025D01*
X0022598Y0015921D01*
X0022490Y0015820D01*
X0022379Y0015722D01*
X0022266Y0015626D01*
X0022150Y0015534D01*
X0022032Y0015445D01*
X0021911Y0015360D01*
X0021788Y0015277D01*
X0021663Y0015198D01*
X0021536Y0015122D01*
X0021407Y0015050D01*
X0021276Y0014981D01*
X0021143Y0014916D01*
X0021008Y0014855D01*
X0020872Y0014797D01*
X0020735Y0014742D01*
X0020596Y0014692D01*
X0020455Y0014645D01*
X0020314Y0014602D01*
X0020171Y0014562D01*
X0020027Y0014527D01*
X0019883Y0014495D01*
X0019737Y0014468D01*
X0019591Y0014444D01*
X0019444Y0014424D01*
X0019297Y0014408D01*
X0019150Y0014396D01*
X0019002Y0014388D01*
X0018854Y0014384D01*
X0018706Y0014384D01*
X0018558Y0014388D01*
X0018410Y0014396D01*
X0018263Y0014408D01*
X0018116Y0014424D01*
X0017969Y0014444D01*
X0017823Y0014468D01*
X0017677Y0014495D01*
X0017533Y0014527D01*
X0017389Y0014562D01*
X0017246Y0014602D01*
X0017105Y0014645D01*
X0016964Y0014692D01*
X0016825Y0014742D01*
X0016688Y0014797D01*
X0016552Y0014855D01*
X0016417Y0014916D01*
X0016284Y0014981D01*
X0016153Y0015050D01*
X0016024Y0015122D01*
X0015897Y0015198D01*
X0015772Y0015277D01*
X0015649Y0015360D01*
X0015528Y0015445D01*
X0015410Y0015534D01*
X0015294Y0015626D01*
X0015181Y0015722D01*
X0015070Y0015820D01*
X0014962Y0015921D01*
X0014856Y0016025D01*
X0014754Y0016131D01*
X0014654Y0016241D01*
X0014558Y0016353D01*
X0014464Y0016468D01*
X0014373Y0016585D01*
X0014286Y0016704D01*
X0014202Y0016826D01*
X0014121Y0016950D01*
X0014044Y0017076D01*
X0013970Y0017204D01*
X0013899Y0017334D01*
X0013832Y0017466D01*
X0013769Y0017600D01*
X0013709Y0017735D01*
X0013653Y0017872D01*
X0013600Y0018011D01*
X0013552Y0018151D01*
X0013507Y0018292D01*
X0013466Y0018434D01*
X0013428Y0018577D01*
X0013395Y0018721D01*
X0013365Y0018866D01*
X0013339Y0019012D01*
X0013318Y0019158D01*
X0013300Y0019305D01*
X0013286Y0019452D01*
X0013276Y0019600D01*
X0013270Y0019748D01*
X0013268Y0019896D01*
X0013268Y0110447D02*
X0013270Y0110595D01*
X0013276Y0110743D01*
X0013286Y0110891D01*
X0013300Y0111038D01*
X0013318Y0111185D01*
X0013339Y0111331D01*
X0013365Y0111477D01*
X0013395Y0111622D01*
X0013428Y0111766D01*
X0013466Y0111909D01*
X0013507Y0112051D01*
X0013552Y0112192D01*
X0013600Y0112332D01*
X0013653Y0112471D01*
X0013709Y0112608D01*
X0013769Y0112743D01*
X0013832Y0112877D01*
X0013899Y0113009D01*
X0013970Y0113139D01*
X0014044Y0113267D01*
X0014121Y0113393D01*
X0014202Y0113517D01*
X0014286Y0113639D01*
X0014373Y0113758D01*
X0014464Y0113875D01*
X0014558Y0113990D01*
X0014654Y0114102D01*
X0014754Y0114212D01*
X0014856Y0114318D01*
X0014962Y0114422D01*
X0015070Y0114523D01*
X0015181Y0114621D01*
X0015294Y0114717D01*
X0015410Y0114809D01*
X0015528Y0114898D01*
X0015649Y0114983D01*
X0015772Y0115066D01*
X0015897Y0115145D01*
X0016024Y0115221D01*
X0016153Y0115293D01*
X0016284Y0115362D01*
X0016417Y0115427D01*
X0016552Y0115488D01*
X0016688Y0115546D01*
X0016825Y0115601D01*
X0016964Y0115651D01*
X0017105Y0115698D01*
X0017246Y0115741D01*
X0017389Y0115781D01*
X0017533Y0115816D01*
X0017677Y0115848D01*
X0017823Y0115875D01*
X0017969Y0115899D01*
X0018116Y0115919D01*
X0018263Y0115935D01*
X0018410Y0115947D01*
X0018558Y0115955D01*
X0018706Y0115959D01*
X0018854Y0115959D01*
X0019002Y0115955D01*
X0019150Y0115947D01*
X0019297Y0115935D01*
X0019444Y0115919D01*
X0019591Y0115899D01*
X0019737Y0115875D01*
X0019883Y0115848D01*
X0020027Y0115816D01*
X0020171Y0115781D01*
X0020314Y0115741D01*
X0020455Y0115698D01*
X0020596Y0115651D01*
X0020735Y0115601D01*
X0020872Y0115546D01*
X0021008Y0115488D01*
X0021143Y0115427D01*
X0021276Y0115362D01*
X0021407Y0115293D01*
X0021536Y0115221D01*
X0021663Y0115145D01*
X0021788Y0115066D01*
X0021911Y0114983D01*
X0022032Y0114898D01*
X0022150Y0114809D01*
X0022266Y0114717D01*
X0022379Y0114621D01*
X0022490Y0114523D01*
X0022598Y0114422D01*
X0022704Y0114318D01*
X0022806Y0114212D01*
X0022906Y0114102D01*
X0023002Y0113990D01*
X0023096Y0113875D01*
X0023187Y0113758D01*
X0023274Y0113639D01*
X0023358Y0113517D01*
X0023439Y0113393D01*
X0023516Y0113267D01*
X0023590Y0113139D01*
X0023661Y0113009D01*
X0023728Y0112877D01*
X0023791Y0112743D01*
X0023851Y0112608D01*
X0023907Y0112471D01*
X0023960Y0112332D01*
X0024008Y0112192D01*
X0024053Y0112051D01*
X0024094Y0111909D01*
X0024132Y0111766D01*
X0024165Y0111622D01*
X0024195Y0111477D01*
X0024221Y0111331D01*
X0024242Y0111185D01*
X0024260Y0111038D01*
X0024274Y0110891D01*
X0024284Y0110743D01*
X0024290Y0110595D01*
X0024292Y0110447D01*
X0024290Y0110299D01*
X0024284Y0110151D01*
X0024274Y0110003D01*
X0024260Y0109856D01*
X0024242Y0109709D01*
X0024221Y0109563D01*
X0024195Y0109417D01*
X0024165Y0109272D01*
X0024132Y0109128D01*
X0024094Y0108985D01*
X0024053Y0108843D01*
X0024008Y0108702D01*
X0023960Y0108562D01*
X0023907Y0108423D01*
X0023851Y0108286D01*
X0023791Y0108151D01*
X0023728Y0108017D01*
X0023661Y0107885D01*
X0023590Y0107755D01*
X0023516Y0107627D01*
X0023439Y0107501D01*
X0023358Y0107377D01*
X0023274Y0107255D01*
X0023187Y0107136D01*
X0023096Y0107019D01*
X0023002Y0106904D01*
X0022906Y0106792D01*
X0022806Y0106682D01*
X0022704Y0106576D01*
X0022598Y0106472D01*
X0022490Y0106371D01*
X0022379Y0106273D01*
X0022266Y0106177D01*
X0022150Y0106085D01*
X0022032Y0105996D01*
X0021911Y0105911D01*
X0021788Y0105828D01*
X0021663Y0105749D01*
X0021536Y0105673D01*
X0021407Y0105601D01*
X0021276Y0105532D01*
X0021143Y0105467D01*
X0021008Y0105406D01*
X0020872Y0105348D01*
X0020735Y0105293D01*
X0020596Y0105243D01*
X0020455Y0105196D01*
X0020314Y0105153D01*
X0020171Y0105113D01*
X0020027Y0105078D01*
X0019883Y0105046D01*
X0019737Y0105019D01*
X0019591Y0104995D01*
X0019444Y0104975D01*
X0019297Y0104959D01*
X0019150Y0104947D01*
X0019002Y0104939D01*
X0018854Y0104935D01*
X0018706Y0104935D01*
X0018558Y0104939D01*
X0018410Y0104947D01*
X0018263Y0104959D01*
X0018116Y0104975D01*
X0017969Y0104995D01*
X0017823Y0105019D01*
X0017677Y0105046D01*
X0017533Y0105078D01*
X0017389Y0105113D01*
X0017246Y0105153D01*
X0017105Y0105196D01*
X0016964Y0105243D01*
X0016825Y0105293D01*
X0016688Y0105348D01*
X0016552Y0105406D01*
X0016417Y0105467D01*
X0016284Y0105532D01*
X0016153Y0105601D01*
X0016024Y0105673D01*
X0015897Y0105749D01*
X0015772Y0105828D01*
X0015649Y0105911D01*
X0015528Y0105996D01*
X0015410Y0106085D01*
X0015294Y0106177D01*
X0015181Y0106273D01*
X0015070Y0106371D01*
X0014962Y0106472D01*
X0014856Y0106576D01*
X0014754Y0106682D01*
X0014654Y0106792D01*
X0014558Y0106904D01*
X0014464Y0107019D01*
X0014373Y0107136D01*
X0014286Y0107255D01*
X0014202Y0107377D01*
X0014121Y0107501D01*
X0014044Y0107627D01*
X0013970Y0107755D01*
X0013899Y0107885D01*
X0013832Y0108017D01*
X0013769Y0108151D01*
X0013709Y0108286D01*
X0013653Y0108423D01*
X0013600Y0108562D01*
X0013552Y0108702D01*
X0013507Y0108843D01*
X0013466Y0108985D01*
X0013428Y0109128D01*
X0013395Y0109272D01*
X0013365Y0109417D01*
X0013339Y0109563D01*
X0013318Y0109709D01*
X0013300Y0109856D01*
X0013286Y0110003D01*
X0013276Y0110151D01*
X0013270Y0110299D01*
X0013268Y0110447D01*
X0241614Y0110447D02*
X0241616Y0110595D01*
X0241622Y0110743D01*
X0241632Y0110891D01*
X0241646Y0111038D01*
X0241664Y0111185D01*
X0241685Y0111331D01*
X0241711Y0111477D01*
X0241741Y0111622D01*
X0241774Y0111766D01*
X0241812Y0111909D01*
X0241853Y0112051D01*
X0241898Y0112192D01*
X0241946Y0112332D01*
X0241999Y0112471D01*
X0242055Y0112608D01*
X0242115Y0112743D01*
X0242178Y0112877D01*
X0242245Y0113009D01*
X0242316Y0113139D01*
X0242390Y0113267D01*
X0242467Y0113393D01*
X0242548Y0113517D01*
X0242632Y0113639D01*
X0242719Y0113758D01*
X0242810Y0113875D01*
X0242904Y0113990D01*
X0243000Y0114102D01*
X0243100Y0114212D01*
X0243202Y0114318D01*
X0243308Y0114422D01*
X0243416Y0114523D01*
X0243527Y0114621D01*
X0243640Y0114717D01*
X0243756Y0114809D01*
X0243874Y0114898D01*
X0243995Y0114983D01*
X0244118Y0115066D01*
X0244243Y0115145D01*
X0244370Y0115221D01*
X0244499Y0115293D01*
X0244630Y0115362D01*
X0244763Y0115427D01*
X0244898Y0115488D01*
X0245034Y0115546D01*
X0245171Y0115601D01*
X0245310Y0115651D01*
X0245451Y0115698D01*
X0245592Y0115741D01*
X0245735Y0115781D01*
X0245879Y0115816D01*
X0246023Y0115848D01*
X0246169Y0115875D01*
X0246315Y0115899D01*
X0246462Y0115919D01*
X0246609Y0115935D01*
X0246756Y0115947D01*
X0246904Y0115955D01*
X0247052Y0115959D01*
X0247200Y0115959D01*
X0247348Y0115955D01*
X0247496Y0115947D01*
X0247643Y0115935D01*
X0247790Y0115919D01*
X0247937Y0115899D01*
X0248083Y0115875D01*
X0248229Y0115848D01*
X0248373Y0115816D01*
X0248517Y0115781D01*
X0248660Y0115741D01*
X0248801Y0115698D01*
X0248942Y0115651D01*
X0249081Y0115601D01*
X0249218Y0115546D01*
X0249354Y0115488D01*
X0249489Y0115427D01*
X0249622Y0115362D01*
X0249753Y0115293D01*
X0249882Y0115221D01*
X0250009Y0115145D01*
X0250134Y0115066D01*
X0250257Y0114983D01*
X0250378Y0114898D01*
X0250496Y0114809D01*
X0250612Y0114717D01*
X0250725Y0114621D01*
X0250836Y0114523D01*
X0250944Y0114422D01*
X0251050Y0114318D01*
X0251152Y0114212D01*
X0251252Y0114102D01*
X0251348Y0113990D01*
X0251442Y0113875D01*
X0251533Y0113758D01*
X0251620Y0113639D01*
X0251704Y0113517D01*
X0251785Y0113393D01*
X0251862Y0113267D01*
X0251936Y0113139D01*
X0252007Y0113009D01*
X0252074Y0112877D01*
X0252137Y0112743D01*
X0252197Y0112608D01*
X0252253Y0112471D01*
X0252306Y0112332D01*
X0252354Y0112192D01*
X0252399Y0112051D01*
X0252440Y0111909D01*
X0252478Y0111766D01*
X0252511Y0111622D01*
X0252541Y0111477D01*
X0252567Y0111331D01*
X0252588Y0111185D01*
X0252606Y0111038D01*
X0252620Y0110891D01*
X0252630Y0110743D01*
X0252636Y0110595D01*
X0252638Y0110447D01*
X0252636Y0110299D01*
X0252630Y0110151D01*
X0252620Y0110003D01*
X0252606Y0109856D01*
X0252588Y0109709D01*
X0252567Y0109563D01*
X0252541Y0109417D01*
X0252511Y0109272D01*
X0252478Y0109128D01*
X0252440Y0108985D01*
X0252399Y0108843D01*
X0252354Y0108702D01*
X0252306Y0108562D01*
X0252253Y0108423D01*
X0252197Y0108286D01*
X0252137Y0108151D01*
X0252074Y0108017D01*
X0252007Y0107885D01*
X0251936Y0107755D01*
X0251862Y0107627D01*
X0251785Y0107501D01*
X0251704Y0107377D01*
X0251620Y0107255D01*
X0251533Y0107136D01*
X0251442Y0107019D01*
X0251348Y0106904D01*
X0251252Y0106792D01*
X0251152Y0106682D01*
X0251050Y0106576D01*
X0250944Y0106472D01*
X0250836Y0106371D01*
X0250725Y0106273D01*
X0250612Y0106177D01*
X0250496Y0106085D01*
X0250378Y0105996D01*
X0250257Y0105911D01*
X0250134Y0105828D01*
X0250009Y0105749D01*
X0249882Y0105673D01*
X0249753Y0105601D01*
X0249622Y0105532D01*
X0249489Y0105467D01*
X0249354Y0105406D01*
X0249218Y0105348D01*
X0249081Y0105293D01*
X0248942Y0105243D01*
X0248801Y0105196D01*
X0248660Y0105153D01*
X0248517Y0105113D01*
X0248373Y0105078D01*
X0248229Y0105046D01*
X0248083Y0105019D01*
X0247937Y0104995D01*
X0247790Y0104975D01*
X0247643Y0104959D01*
X0247496Y0104947D01*
X0247348Y0104939D01*
X0247200Y0104935D01*
X0247052Y0104935D01*
X0246904Y0104939D01*
X0246756Y0104947D01*
X0246609Y0104959D01*
X0246462Y0104975D01*
X0246315Y0104995D01*
X0246169Y0105019D01*
X0246023Y0105046D01*
X0245879Y0105078D01*
X0245735Y0105113D01*
X0245592Y0105153D01*
X0245451Y0105196D01*
X0245310Y0105243D01*
X0245171Y0105293D01*
X0245034Y0105348D01*
X0244898Y0105406D01*
X0244763Y0105467D01*
X0244630Y0105532D01*
X0244499Y0105601D01*
X0244370Y0105673D01*
X0244243Y0105749D01*
X0244118Y0105828D01*
X0243995Y0105911D01*
X0243874Y0105996D01*
X0243756Y0106085D01*
X0243640Y0106177D01*
X0243527Y0106273D01*
X0243416Y0106371D01*
X0243308Y0106472D01*
X0243202Y0106576D01*
X0243100Y0106682D01*
X0243000Y0106792D01*
X0242904Y0106904D01*
X0242810Y0107019D01*
X0242719Y0107136D01*
X0242632Y0107255D01*
X0242548Y0107377D01*
X0242467Y0107501D01*
X0242390Y0107627D01*
X0242316Y0107755D01*
X0242245Y0107885D01*
X0242178Y0108017D01*
X0242115Y0108151D01*
X0242055Y0108286D01*
X0241999Y0108423D01*
X0241946Y0108562D01*
X0241898Y0108702D01*
X0241853Y0108843D01*
X0241812Y0108985D01*
X0241774Y0109128D01*
X0241741Y0109272D01*
X0241711Y0109417D01*
X0241685Y0109563D01*
X0241664Y0109709D01*
X0241646Y0109856D01*
X0241632Y0110003D01*
X0241622Y0110151D01*
X0241616Y0110299D01*
X0241614Y0110447D01*
X0241614Y0019896D02*
X0241616Y0020044D01*
X0241622Y0020192D01*
X0241632Y0020340D01*
X0241646Y0020487D01*
X0241664Y0020634D01*
X0241685Y0020780D01*
X0241711Y0020926D01*
X0241741Y0021071D01*
X0241774Y0021215D01*
X0241812Y0021358D01*
X0241853Y0021500D01*
X0241898Y0021641D01*
X0241946Y0021781D01*
X0241999Y0021920D01*
X0242055Y0022057D01*
X0242115Y0022192D01*
X0242178Y0022326D01*
X0242245Y0022458D01*
X0242316Y0022588D01*
X0242390Y0022716D01*
X0242467Y0022842D01*
X0242548Y0022966D01*
X0242632Y0023088D01*
X0242719Y0023207D01*
X0242810Y0023324D01*
X0242904Y0023439D01*
X0243000Y0023551D01*
X0243100Y0023661D01*
X0243202Y0023767D01*
X0243308Y0023871D01*
X0243416Y0023972D01*
X0243527Y0024070D01*
X0243640Y0024166D01*
X0243756Y0024258D01*
X0243874Y0024347D01*
X0243995Y0024432D01*
X0244118Y0024515D01*
X0244243Y0024594D01*
X0244370Y0024670D01*
X0244499Y0024742D01*
X0244630Y0024811D01*
X0244763Y0024876D01*
X0244898Y0024937D01*
X0245034Y0024995D01*
X0245171Y0025050D01*
X0245310Y0025100D01*
X0245451Y0025147D01*
X0245592Y0025190D01*
X0245735Y0025230D01*
X0245879Y0025265D01*
X0246023Y0025297D01*
X0246169Y0025324D01*
X0246315Y0025348D01*
X0246462Y0025368D01*
X0246609Y0025384D01*
X0246756Y0025396D01*
X0246904Y0025404D01*
X0247052Y0025408D01*
X0247200Y0025408D01*
X0247348Y0025404D01*
X0247496Y0025396D01*
X0247643Y0025384D01*
X0247790Y0025368D01*
X0247937Y0025348D01*
X0248083Y0025324D01*
X0248229Y0025297D01*
X0248373Y0025265D01*
X0248517Y0025230D01*
X0248660Y0025190D01*
X0248801Y0025147D01*
X0248942Y0025100D01*
X0249081Y0025050D01*
X0249218Y0024995D01*
X0249354Y0024937D01*
X0249489Y0024876D01*
X0249622Y0024811D01*
X0249753Y0024742D01*
X0249882Y0024670D01*
X0250009Y0024594D01*
X0250134Y0024515D01*
X0250257Y0024432D01*
X0250378Y0024347D01*
X0250496Y0024258D01*
X0250612Y0024166D01*
X0250725Y0024070D01*
X0250836Y0023972D01*
X0250944Y0023871D01*
X0251050Y0023767D01*
X0251152Y0023661D01*
X0251252Y0023551D01*
X0251348Y0023439D01*
X0251442Y0023324D01*
X0251533Y0023207D01*
X0251620Y0023088D01*
X0251704Y0022966D01*
X0251785Y0022842D01*
X0251862Y0022716D01*
X0251936Y0022588D01*
X0252007Y0022458D01*
X0252074Y0022326D01*
X0252137Y0022192D01*
X0252197Y0022057D01*
X0252253Y0021920D01*
X0252306Y0021781D01*
X0252354Y0021641D01*
X0252399Y0021500D01*
X0252440Y0021358D01*
X0252478Y0021215D01*
X0252511Y0021071D01*
X0252541Y0020926D01*
X0252567Y0020780D01*
X0252588Y0020634D01*
X0252606Y0020487D01*
X0252620Y0020340D01*
X0252630Y0020192D01*
X0252636Y0020044D01*
X0252638Y0019896D01*
X0252636Y0019748D01*
X0252630Y0019600D01*
X0252620Y0019452D01*
X0252606Y0019305D01*
X0252588Y0019158D01*
X0252567Y0019012D01*
X0252541Y0018866D01*
X0252511Y0018721D01*
X0252478Y0018577D01*
X0252440Y0018434D01*
X0252399Y0018292D01*
X0252354Y0018151D01*
X0252306Y0018011D01*
X0252253Y0017872D01*
X0252197Y0017735D01*
X0252137Y0017600D01*
X0252074Y0017466D01*
X0252007Y0017334D01*
X0251936Y0017204D01*
X0251862Y0017076D01*
X0251785Y0016950D01*
X0251704Y0016826D01*
X0251620Y0016704D01*
X0251533Y0016585D01*
X0251442Y0016468D01*
X0251348Y0016353D01*
X0251252Y0016241D01*
X0251152Y0016131D01*
X0251050Y0016025D01*
X0250944Y0015921D01*
X0250836Y0015820D01*
X0250725Y0015722D01*
X0250612Y0015626D01*
X0250496Y0015534D01*
X0250378Y0015445D01*
X0250257Y0015360D01*
X0250134Y0015277D01*
X0250009Y0015198D01*
X0249882Y0015122D01*
X0249753Y0015050D01*
X0249622Y0014981D01*
X0249489Y0014916D01*
X0249354Y0014855D01*
X0249218Y0014797D01*
X0249081Y0014742D01*
X0248942Y0014692D01*
X0248801Y0014645D01*
X0248660Y0014602D01*
X0248517Y0014562D01*
X0248373Y0014527D01*
X0248229Y0014495D01*
X0248083Y0014468D01*
X0247937Y0014444D01*
X0247790Y0014424D01*
X0247643Y0014408D01*
X0247496Y0014396D01*
X0247348Y0014388D01*
X0247200Y0014384D01*
X0247052Y0014384D01*
X0246904Y0014388D01*
X0246756Y0014396D01*
X0246609Y0014408D01*
X0246462Y0014424D01*
X0246315Y0014444D01*
X0246169Y0014468D01*
X0246023Y0014495D01*
X0245879Y0014527D01*
X0245735Y0014562D01*
X0245592Y0014602D01*
X0245451Y0014645D01*
X0245310Y0014692D01*
X0245171Y0014742D01*
X0245034Y0014797D01*
X0244898Y0014855D01*
X0244763Y0014916D01*
X0244630Y0014981D01*
X0244499Y0015050D01*
X0244370Y0015122D01*
X0244243Y0015198D01*
X0244118Y0015277D01*
X0243995Y0015360D01*
X0243874Y0015445D01*
X0243756Y0015534D01*
X0243640Y0015626D01*
X0243527Y0015722D01*
X0243416Y0015820D01*
X0243308Y0015921D01*
X0243202Y0016025D01*
X0243100Y0016131D01*
X0243000Y0016241D01*
X0242904Y0016353D01*
X0242810Y0016468D01*
X0242719Y0016585D01*
X0242632Y0016704D01*
X0242548Y0016826D01*
X0242467Y0016950D01*
X0242390Y0017076D01*
X0242316Y0017204D01*
X0242245Y0017334D01*
X0242178Y0017466D01*
X0242115Y0017600D01*
X0242055Y0017735D01*
X0241999Y0017872D01*
X0241946Y0018011D01*
X0241898Y0018151D01*
X0241853Y0018292D01*
X0241812Y0018434D01*
X0241774Y0018577D01*
X0241741Y0018721D01*
X0241711Y0018866D01*
X0241685Y0019012D01*
X0241664Y0019158D01*
X0241646Y0019305D01*
X0241632Y0019452D01*
X0241622Y0019600D01*
X0241616Y0019748D01*
X0241614Y0019896D01*
D388*
X0245344Y0038243D02*
X0257156Y0038243D01*
X0257156Y0053991D01*
X0245344Y0053991D01*
X0245344Y0038243D01*
X0039087Y0093882D02*
X0036085Y0093882D01*
X0037586Y0093882D02*
X0037586Y0098386D01*
X0036085Y0096885D01*
D389*
X0035807Y0067022D02*
X0035807Y0065142D01*
X0024193Y0065142D02*
X0024193Y0067022D01*
X0024193Y0057140D02*
X0024193Y0055260D01*
X0035807Y0055260D02*
X0035807Y0057140D01*
D390*
X0256250Y0082859D03*
D391*
X0167266Y0052201D02*
X0167266Y0051201D01*
X0165766Y0051201D01*
X0165766Y0052201D01*
X0167266Y0052201D01*
X0167266Y0052121D02*
X0165766Y0052121D01*
X0165766Y0052023D02*
X0167266Y0052023D01*
X0167266Y0051924D02*
X0165766Y0051924D01*
X0165766Y0051826D02*
X0167266Y0051826D01*
X0167266Y0051727D02*
X0165766Y0051727D01*
X0165766Y0051629D02*
X0167266Y0051629D01*
X0167266Y0051530D02*
X0165766Y0051530D01*
X0165766Y0051432D02*
X0167266Y0051432D01*
X0167266Y0051333D02*
X0165766Y0051333D01*
X0165766Y0051235D02*
X0167266Y0051235D01*
M02*
