G75*
%MOIN*%
%OFA0B0*%
%FSLAX25Y25*%
%IPPOS*%
%LPD*%
%AMOC8*
5,1,8,0,0,1.08239X$1,22.5*
%
%ADD10C,0.00000*%
%ADD11R,0.06000X0.06000*%
%ADD12OC8,0.06000*%
%ADD13C,0.03181*%
%ADD14C,0.06693*%
%ADD15C,0.06000*%
%ADD16C,0.05000*%
%ADD17C,0.05150*%
%ADD18C,0.02800*%
%ADD19C,0.01000*%
%ADD20C,0.00500*%
%ADD21C,0.02381*%
%ADD22C,0.02578*%
%ADD23C,0.03200*%
D10*
X0016811Y0006117D02*
X0249094Y0006117D01*
X0249379Y0006120D01*
X0249665Y0006131D01*
X0249950Y0006148D01*
X0250234Y0006172D01*
X0250518Y0006203D01*
X0250801Y0006241D01*
X0251082Y0006286D01*
X0251363Y0006337D01*
X0251643Y0006395D01*
X0251921Y0006460D01*
X0252197Y0006532D01*
X0252471Y0006610D01*
X0252744Y0006695D01*
X0253014Y0006787D01*
X0253282Y0006885D01*
X0253548Y0006989D01*
X0253811Y0007100D01*
X0254071Y0007217D01*
X0254329Y0007340D01*
X0254583Y0007470D01*
X0254834Y0007606D01*
X0255082Y0007747D01*
X0255326Y0007895D01*
X0255567Y0008048D01*
X0255803Y0008208D01*
X0256036Y0008373D01*
X0256265Y0008543D01*
X0256490Y0008719D01*
X0256710Y0008901D01*
X0256926Y0009087D01*
X0257137Y0009279D01*
X0257344Y0009476D01*
X0257546Y0009678D01*
X0257743Y0009885D01*
X0257935Y0010096D01*
X0258121Y0010312D01*
X0258303Y0010532D01*
X0258479Y0010757D01*
X0258649Y0010986D01*
X0258814Y0011219D01*
X0258974Y0011455D01*
X0259127Y0011696D01*
X0259275Y0011940D01*
X0259416Y0012188D01*
X0259552Y0012439D01*
X0259682Y0012693D01*
X0259805Y0012951D01*
X0259922Y0013211D01*
X0260033Y0013474D01*
X0260137Y0013740D01*
X0260235Y0014008D01*
X0260327Y0014278D01*
X0260412Y0014551D01*
X0260490Y0014825D01*
X0260562Y0015101D01*
X0260627Y0015379D01*
X0260685Y0015659D01*
X0260736Y0015940D01*
X0260781Y0016221D01*
X0260819Y0016504D01*
X0260850Y0016788D01*
X0260874Y0017072D01*
X0260891Y0017357D01*
X0260902Y0017643D01*
X0260905Y0017928D01*
X0260906Y0017928D02*
X0260906Y0112416D01*
X0260905Y0112416D02*
X0260902Y0112701D01*
X0260891Y0112987D01*
X0260874Y0113272D01*
X0260850Y0113556D01*
X0260819Y0113840D01*
X0260781Y0114123D01*
X0260736Y0114404D01*
X0260685Y0114685D01*
X0260627Y0114965D01*
X0260562Y0115243D01*
X0260490Y0115519D01*
X0260412Y0115793D01*
X0260327Y0116066D01*
X0260235Y0116336D01*
X0260137Y0116604D01*
X0260033Y0116870D01*
X0259922Y0117133D01*
X0259805Y0117393D01*
X0259682Y0117651D01*
X0259552Y0117905D01*
X0259416Y0118156D01*
X0259275Y0118404D01*
X0259127Y0118648D01*
X0258974Y0118889D01*
X0258814Y0119125D01*
X0258649Y0119358D01*
X0258479Y0119587D01*
X0258303Y0119812D01*
X0258121Y0120032D01*
X0257935Y0120248D01*
X0257743Y0120459D01*
X0257546Y0120666D01*
X0257344Y0120868D01*
X0257137Y0121065D01*
X0256926Y0121257D01*
X0256710Y0121443D01*
X0256490Y0121625D01*
X0256265Y0121801D01*
X0256036Y0121971D01*
X0255803Y0122136D01*
X0255567Y0122296D01*
X0255326Y0122449D01*
X0255082Y0122597D01*
X0254834Y0122738D01*
X0254583Y0122874D01*
X0254329Y0123004D01*
X0254071Y0123127D01*
X0253811Y0123244D01*
X0253548Y0123355D01*
X0253282Y0123459D01*
X0253014Y0123557D01*
X0252744Y0123649D01*
X0252471Y0123734D01*
X0252197Y0123812D01*
X0251921Y0123884D01*
X0251643Y0123949D01*
X0251363Y0124007D01*
X0251082Y0124058D01*
X0250801Y0124103D01*
X0250518Y0124141D01*
X0250234Y0124172D01*
X0249950Y0124196D01*
X0249665Y0124213D01*
X0249379Y0124224D01*
X0249094Y0124227D01*
X0016811Y0124227D01*
X0016526Y0124224D01*
X0016240Y0124213D01*
X0015955Y0124196D01*
X0015671Y0124172D01*
X0015387Y0124141D01*
X0015104Y0124103D01*
X0014823Y0124058D01*
X0014542Y0124007D01*
X0014262Y0123949D01*
X0013984Y0123884D01*
X0013708Y0123812D01*
X0013434Y0123734D01*
X0013161Y0123649D01*
X0012891Y0123557D01*
X0012623Y0123459D01*
X0012357Y0123355D01*
X0012094Y0123244D01*
X0011834Y0123127D01*
X0011576Y0123004D01*
X0011322Y0122874D01*
X0011071Y0122738D01*
X0010823Y0122597D01*
X0010579Y0122449D01*
X0010338Y0122296D01*
X0010102Y0122136D01*
X0009869Y0121971D01*
X0009640Y0121801D01*
X0009415Y0121625D01*
X0009195Y0121443D01*
X0008979Y0121257D01*
X0008768Y0121065D01*
X0008561Y0120868D01*
X0008359Y0120666D01*
X0008162Y0120459D01*
X0007970Y0120248D01*
X0007784Y0120032D01*
X0007602Y0119812D01*
X0007426Y0119587D01*
X0007256Y0119358D01*
X0007091Y0119125D01*
X0006931Y0118889D01*
X0006778Y0118648D01*
X0006630Y0118404D01*
X0006489Y0118156D01*
X0006353Y0117905D01*
X0006223Y0117651D01*
X0006100Y0117393D01*
X0005983Y0117133D01*
X0005872Y0116870D01*
X0005768Y0116604D01*
X0005670Y0116336D01*
X0005578Y0116066D01*
X0005493Y0115793D01*
X0005415Y0115519D01*
X0005343Y0115243D01*
X0005278Y0114965D01*
X0005220Y0114685D01*
X0005169Y0114404D01*
X0005124Y0114123D01*
X0005086Y0113840D01*
X0005055Y0113556D01*
X0005031Y0113272D01*
X0005014Y0112987D01*
X0005003Y0112701D01*
X0005000Y0112416D01*
X0005000Y0017928D01*
X0005003Y0017643D01*
X0005014Y0017357D01*
X0005031Y0017072D01*
X0005055Y0016788D01*
X0005086Y0016504D01*
X0005124Y0016221D01*
X0005169Y0015940D01*
X0005220Y0015659D01*
X0005278Y0015379D01*
X0005343Y0015101D01*
X0005415Y0014825D01*
X0005493Y0014551D01*
X0005578Y0014278D01*
X0005670Y0014008D01*
X0005768Y0013740D01*
X0005872Y0013474D01*
X0005983Y0013211D01*
X0006100Y0012951D01*
X0006223Y0012693D01*
X0006353Y0012439D01*
X0006489Y0012188D01*
X0006630Y0011940D01*
X0006778Y0011696D01*
X0006931Y0011455D01*
X0007091Y0011219D01*
X0007256Y0010986D01*
X0007426Y0010757D01*
X0007602Y0010532D01*
X0007784Y0010312D01*
X0007970Y0010096D01*
X0008162Y0009885D01*
X0008359Y0009678D01*
X0008561Y0009476D01*
X0008768Y0009279D01*
X0008979Y0009087D01*
X0009195Y0008901D01*
X0009415Y0008719D01*
X0009640Y0008543D01*
X0009869Y0008373D01*
X0010102Y0008208D01*
X0010338Y0008048D01*
X0010579Y0007895D01*
X0010823Y0007747D01*
X0011071Y0007606D01*
X0011322Y0007470D01*
X0011576Y0007340D01*
X0011834Y0007217D01*
X0012094Y0007100D01*
X0012357Y0006989D01*
X0012623Y0006885D01*
X0012891Y0006787D01*
X0013161Y0006695D01*
X0013434Y0006610D01*
X0013708Y0006532D01*
X0013984Y0006460D01*
X0014262Y0006395D01*
X0014542Y0006337D01*
X0014823Y0006286D01*
X0015104Y0006241D01*
X0015387Y0006203D01*
X0015671Y0006172D01*
X0015955Y0006148D01*
X0016240Y0006131D01*
X0016526Y0006120D01*
X0016811Y0006117D01*
X0013268Y0019896D02*
X0013270Y0020044D01*
X0013276Y0020192D01*
X0013286Y0020340D01*
X0013300Y0020487D01*
X0013318Y0020634D01*
X0013339Y0020780D01*
X0013365Y0020926D01*
X0013395Y0021071D01*
X0013428Y0021215D01*
X0013466Y0021358D01*
X0013507Y0021500D01*
X0013552Y0021641D01*
X0013600Y0021781D01*
X0013653Y0021920D01*
X0013709Y0022057D01*
X0013769Y0022192D01*
X0013832Y0022326D01*
X0013899Y0022458D01*
X0013970Y0022588D01*
X0014044Y0022716D01*
X0014121Y0022842D01*
X0014202Y0022966D01*
X0014286Y0023088D01*
X0014373Y0023207D01*
X0014464Y0023324D01*
X0014558Y0023439D01*
X0014654Y0023551D01*
X0014754Y0023661D01*
X0014856Y0023767D01*
X0014962Y0023871D01*
X0015070Y0023972D01*
X0015181Y0024070D01*
X0015294Y0024166D01*
X0015410Y0024258D01*
X0015528Y0024347D01*
X0015649Y0024432D01*
X0015772Y0024515D01*
X0015897Y0024594D01*
X0016024Y0024670D01*
X0016153Y0024742D01*
X0016284Y0024811D01*
X0016417Y0024876D01*
X0016552Y0024937D01*
X0016688Y0024995D01*
X0016825Y0025050D01*
X0016964Y0025100D01*
X0017105Y0025147D01*
X0017246Y0025190D01*
X0017389Y0025230D01*
X0017533Y0025265D01*
X0017677Y0025297D01*
X0017823Y0025324D01*
X0017969Y0025348D01*
X0018116Y0025368D01*
X0018263Y0025384D01*
X0018410Y0025396D01*
X0018558Y0025404D01*
X0018706Y0025408D01*
X0018854Y0025408D01*
X0019002Y0025404D01*
X0019150Y0025396D01*
X0019297Y0025384D01*
X0019444Y0025368D01*
X0019591Y0025348D01*
X0019737Y0025324D01*
X0019883Y0025297D01*
X0020027Y0025265D01*
X0020171Y0025230D01*
X0020314Y0025190D01*
X0020455Y0025147D01*
X0020596Y0025100D01*
X0020735Y0025050D01*
X0020872Y0024995D01*
X0021008Y0024937D01*
X0021143Y0024876D01*
X0021276Y0024811D01*
X0021407Y0024742D01*
X0021536Y0024670D01*
X0021663Y0024594D01*
X0021788Y0024515D01*
X0021911Y0024432D01*
X0022032Y0024347D01*
X0022150Y0024258D01*
X0022266Y0024166D01*
X0022379Y0024070D01*
X0022490Y0023972D01*
X0022598Y0023871D01*
X0022704Y0023767D01*
X0022806Y0023661D01*
X0022906Y0023551D01*
X0023002Y0023439D01*
X0023096Y0023324D01*
X0023187Y0023207D01*
X0023274Y0023088D01*
X0023358Y0022966D01*
X0023439Y0022842D01*
X0023516Y0022716D01*
X0023590Y0022588D01*
X0023661Y0022458D01*
X0023728Y0022326D01*
X0023791Y0022192D01*
X0023851Y0022057D01*
X0023907Y0021920D01*
X0023960Y0021781D01*
X0024008Y0021641D01*
X0024053Y0021500D01*
X0024094Y0021358D01*
X0024132Y0021215D01*
X0024165Y0021071D01*
X0024195Y0020926D01*
X0024221Y0020780D01*
X0024242Y0020634D01*
X0024260Y0020487D01*
X0024274Y0020340D01*
X0024284Y0020192D01*
X0024290Y0020044D01*
X0024292Y0019896D01*
X0024290Y0019748D01*
X0024284Y0019600D01*
X0024274Y0019452D01*
X0024260Y0019305D01*
X0024242Y0019158D01*
X0024221Y0019012D01*
X0024195Y0018866D01*
X0024165Y0018721D01*
X0024132Y0018577D01*
X0024094Y0018434D01*
X0024053Y0018292D01*
X0024008Y0018151D01*
X0023960Y0018011D01*
X0023907Y0017872D01*
X0023851Y0017735D01*
X0023791Y0017600D01*
X0023728Y0017466D01*
X0023661Y0017334D01*
X0023590Y0017204D01*
X0023516Y0017076D01*
X0023439Y0016950D01*
X0023358Y0016826D01*
X0023274Y0016704D01*
X0023187Y0016585D01*
X0023096Y0016468D01*
X0023002Y0016353D01*
X0022906Y0016241D01*
X0022806Y0016131D01*
X0022704Y0016025D01*
X0022598Y0015921D01*
X0022490Y0015820D01*
X0022379Y0015722D01*
X0022266Y0015626D01*
X0022150Y0015534D01*
X0022032Y0015445D01*
X0021911Y0015360D01*
X0021788Y0015277D01*
X0021663Y0015198D01*
X0021536Y0015122D01*
X0021407Y0015050D01*
X0021276Y0014981D01*
X0021143Y0014916D01*
X0021008Y0014855D01*
X0020872Y0014797D01*
X0020735Y0014742D01*
X0020596Y0014692D01*
X0020455Y0014645D01*
X0020314Y0014602D01*
X0020171Y0014562D01*
X0020027Y0014527D01*
X0019883Y0014495D01*
X0019737Y0014468D01*
X0019591Y0014444D01*
X0019444Y0014424D01*
X0019297Y0014408D01*
X0019150Y0014396D01*
X0019002Y0014388D01*
X0018854Y0014384D01*
X0018706Y0014384D01*
X0018558Y0014388D01*
X0018410Y0014396D01*
X0018263Y0014408D01*
X0018116Y0014424D01*
X0017969Y0014444D01*
X0017823Y0014468D01*
X0017677Y0014495D01*
X0017533Y0014527D01*
X0017389Y0014562D01*
X0017246Y0014602D01*
X0017105Y0014645D01*
X0016964Y0014692D01*
X0016825Y0014742D01*
X0016688Y0014797D01*
X0016552Y0014855D01*
X0016417Y0014916D01*
X0016284Y0014981D01*
X0016153Y0015050D01*
X0016024Y0015122D01*
X0015897Y0015198D01*
X0015772Y0015277D01*
X0015649Y0015360D01*
X0015528Y0015445D01*
X0015410Y0015534D01*
X0015294Y0015626D01*
X0015181Y0015722D01*
X0015070Y0015820D01*
X0014962Y0015921D01*
X0014856Y0016025D01*
X0014754Y0016131D01*
X0014654Y0016241D01*
X0014558Y0016353D01*
X0014464Y0016468D01*
X0014373Y0016585D01*
X0014286Y0016704D01*
X0014202Y0016826D01*
X0014121Y0016950D01*
X0014044Y0017076D01*
X0013970Y0017204D01*
X0013899Y0017334D01*
X0013832Y0017466D01*
X0013769Y0017600D01*
X0013709Y0017735D01*
X0013653Y0017872D01*
X0013600Y0018011D01*
X0013552Y0018151D01*
X0013507Y0018292D01*
X0013466Y0018434D01*
X0013428Y0018577D01*
X0013395Y0018721D01*
X0013365Y0018866D01*
X0013339Y0019012D01*
X0013318Y0019158D01*
X0013300Y0019305D01*
X0013286Y0019452D01*
X0013276Y0019600D01*
X0013270Y0019748D01*
X0013268Y0019896D01*
X0013268Y0110447D02*
X0013270Y0110595D01*
X0013276Y0110743D01*
X0013286Y0110891D01*
X0013300Y0111038D01*
X0013318Y0111185D01*
X0013339Y0111331D01*
X0013365Y0111477D01*
X0013395Y0111622D01*
X0013428Y0111766D01*
X0013466Y0111909D01*
X0013507Y0112051D01*
X0013552Y0112192D01*
X0013600Y0112332D01*
X0013653Y0112471D01*
X0013709Y0112608D01*
X0013769Y0112743D01*
X0013832Y0112877D01*
X0013899Y0113009D01*
X0013970Y0113139D01*
X0014044Y0113267D01*
X0014121Y0113393D01*
X0014202Y0113517D01*
X0014286Y0113639D01*
X0014373Y0113758D01*
X0014464Y0113875D01*
X0014558Y0113990D01*
X0014654Y0114102D01*
X0014754Y0114212D01*
X0014856Y0114318D01*
X0014962Y0114422D01*
X0015070Y0114523D01*
X0015181Y0114621D01*
X0015294Y0114717D01*
X0015410Y0114809D01*
X0015528Y0114898D01*
X0015649Y0114983D01*
X0015772Y0115066D01*
X0015897Y0115145D01*
X0016024Y0115221D01*
X0016153Y0115293D01*
X0016284Y0115362D01*
X0016417Y0115427D01*
X0016552Y0115488D01*
X0016688Y0115546D01*
X0016825Y0115601D01*
X0016964Y0115651D01*
X0017105Y0115698D01*
X0017246Y0115741D01*
X0017389Y0115781D01*
X0017533Y0115816D01*
X0017677Y0115848D01*
X0017823Y0115875D01*
X0017969Y0115899D01*
X0018116Y0115919D01*
X0018263Y0115935D01*
X0018410Y0115947D01*
X0018558Y0115955D01*
X0018706Y0115959D01*
X0018854Y0115959D01*
X0019002Y0115955D01*
X0019150Y0115947D01*
X0019297Y0115935D01*
X0019444Y0115919D01*
X0019591Y0115899D01*
X0019737Y0115875D01*
X0019883Y0115848D01*
X0020027Y0115816D01*
X0020171Y0115781D01*
X0020314Y0115741D01*
X0020455Y0115698D01*
X0020596Y0115651D01*
X0020735Y0115601D01*
X0020872Y0115546D01*
X0021008Y0115488D01*
X0021143Y0115427D01*
X0021276Y0115362D01*
X0021407Y0115293D01*
X0021536Y0115221D01*
X0021663Y0115145D01*
X0021788Y0115066D01*
X0021911Y0114983D01*
X0022032Y0114898D01*
X0022150Y0114809D01*
X0022266Y0114717D01*
X0022379Y0114621D01*
X0022490Y0114523D01*
X0022598Y0114422D01*
X0022704Y0114318D01*
X0022806Y0114212D01*
X0022906Y0114102D01*
X0023002Y0113990D01*
X0023096Y0113875D01*
X0023187Y0113758D01*
X0023274Y0113639D01*
X0023358Y0113517D01*
X0023439Y0113393D01*
X0023516Y0113267D01*
X0023590Y0113139D01*
X0023661Y0113009D01*
X0023728Y0112877D01*
X0023791Y0112743D01*
X0023851Y0112608D01*
X0023907Y0112471D01*
X0023960Y0112332D01*
X0024008Y0112192D01*
X0024053Y0112051D01*
X0024094Y0111909D01*
X0024132Y0111766D01*
X0024165Y0111622D01*
X0024195Y0111477D01*
X0024221Y0111331D01*
X0024242Y0111185D01*
X0024260Y0111038D01*
X0024274Y0110891D01*
X0024284Y0110743D01*
X0024290Y0110595D01*
X0024292Y0110447D01*
X0024290Y0110299D01*
X0024284Y0110151D01*
X0024274Y0110003D01*
X0024260Y0109856D01*
X0024242Y0109709D01*
X0024221Y0109563D01*
X0024195Y0109417D01*
X0024165Y0109272D01*
X0024132Y0109128D01*
X0024094Y0108985D01*
X0024053Y0108843D01*
X0024008Y0108702D01*
X0023960Y0108562D01*
X0023907Y0108423D01*
X0023851Y0108286D01*
X0023791Y0108151D01*
X0023728Y0108017D01*
X0023661Y0107885D01*
X0023590Y0107755D01*
X0023516Y0107627D01*
X0023439Y0107501D01*
X0023358Y0107377D01*
X0023274Y0107255D01*
X0023187Y0107136D01*
X0023096Y0107019D01*
X0023002Y0106904D01*
X0022906Y0106792D01*
X0022806Y0106682D01*
X0022704Y0106576D01*
X0022598Y0106472D01*
X0022490Y0106371D01*
X0022379Y0106273D01*
X0022266Y0106177D01*
X0022150Y0106085D01*
X0022032Y0105996D01*
X0021911Y0105911D01*
X0021788Y0105828D01*
X0021663Y0105749D01*
X0021536Y0105673D01*
X0021407Y0105601D01*
X0021276Y0105532D01*
X0021143Y0105467D01*
X0021008Y0105406D01*
X0020872Y0105348D01*
X0020735Y0105293D01*
X0020596Y0105243D01*
X0020455Y0105196D01*
X0020314Y0105153D01*
X0020171Y0105113D01*
X0020027Y0105078D01*
X0019883Y0105046D01*
X0019737Y0105019D01*
X0019591Y0104995D01*
X0019444Y0104975D01*
X0019297Y0104959D01*
X0019150Y0104947D01*
X0019002Y0104939D01*
X0018854Y0104935D01*
X0018706Y0104935D01*
X0018558Y0104939D01*
X0018410Y0104947D01*
X0018263Y0104959D01*
X0018116Y0104975D01*
X0017969Y0104995D01*
X0017823Y0105019D01*
X0017677Y0105046D01*
X0017533Y0105078D01*
X0017389Y0105113D01*
X0017246Y0105153D01*
X0017105Y0105196D01*
X0016964Y0105243D01*
X0016825Y0105293D01*
X0016688Y0105348D01*
X0016552Y0105406D01*
X0016417Y0105467D01*
X0016284Y0105532D01*
X0016153Y0105601D01*
X0016024Y0105673D01*
X0015897Y0105749D01*
X0015772Y0105828D01*
X0015649Y0105911D01*
X0015528Y0105996D01*
X0015410Y0106085D01*
X0015294Y0106177D01*
X0015181Y0106273D01*
X0015070Y0106371D01*
X0014962Y0106472D01*
X0014856Y0106576D01*
X0014754Y0106682D01*
X0014654Y0106792D01*
X0014558Y0106904D01*
X0014464Y0107019D01*
X0014373Y0107136D01*
X0014286Y0107255D01*
X0014202Y0107377D01*
X0014121Y0107501D01*
X0014044Y0107627D01*
X0013970Y0107755D01*
X0013899Y0107885D01*
X0013832Y0108017D01*
X0013769Y0108151D01*
X0013709Y0108286D01*
X0013653Y0108423D01*
X0013600Y0108562D01*
X0013552Y0108702D01*
X0013507Y0108843D01*
X0013466Y0108985D01*
X0013428Y0109128D01*
X0013395Y0109272D01*
X0013365Y0109417D01*
X0013339Y0109563D01*
X0013318Y0109709D01*
X0013300Y0109856D01*
X0013286Y0110003D01*
X0013276Y0110151D01*
X0013270Y0110299D01*
X0013268Y0110447D01*
X0241614Y0110447D02*
X0241616Y0110595D01*
X0241622Y0110743D01*
X0241632Y0110891D01*
X0241646Y0111038D01*
X0241664Y0111185D01*
X0241685Y0111331D01*
X0241711Y0111477D01*
X0241741Y0111622D01*
X0241774Y0111766D01*
X0241812Y0111909D01*
X0241853Y0112051D01*
X0241898Y0112192D01*
X0241946Y0112332D01*
X0241999Y0112471D01*
X0242055Y0112608D01*
X0242115Y0112743D01*
X0242178Y0112877D01*
X0242245Y0113009D01*
X0242316Y0113139D01*
X0242390Y0113267D01*
X0242467Y0113393D01*
X0242548Y0113517D01*
X0242632Y0113639D01*
X0242719Y0113758D01*
X0242810Y0113875D01*
X0242904Y0113990D01*
X0243000Y0114102D01*
X0243100Y0114212D01*
X0243202Y0114318D01*
X0243308Y0114422D01*
X0243416Y0114523D01*
X0243527Y0114621D01*
X0243640Y0114717D01*
X0243756Y0114809D01*
X0243874Y0114898D01*
X0243995Y0114983D01*
X0244118Y0115066D01*
X0244243Y0115145D01*
X0244370Y0115221D01*
X0244499Y0115293D01*
X0244630Y0115362D01*
X0244763Y0115427D01*
X0244898Y0115488D01*
X0245034Y0115546D01*
X0245171Y0115601D01*
X0245310Y0115651D01*
X0245451Y0115698D01*
X0245592Y0115741D01*
X0245735Y0115781D01*
X0245879Y0115816D01*
X0246023Y0115848D01*
X0246169Y0115875D01*
X0246315Y0115899D01*
X0246462Y0115919D01*
X0246609Y0115935D01*
X0246756Y0115947D01*
X0246904Y0115955D01*
X0247052Y0115959D01*
X0247200Y0115959D01*
X0247348Y0115955D01*
X0247496Y0115947D01*
X0247643Y0115935D01*
X0247790Y0115919D01*
X0247937Y0115899D01*
X0248083Y0115875D01*
X0248229Y0115848D01*
X0248373Y0115816D01*
X0248517Y0115781D01*
X0248660Y0115741D01*
X0248801Y0115698D01*
X0248942Y0115651D01*
X0249081Y0115601D01*
X0249218Y0115546D01*
X0249354Y0115488D01*
X0249489Y0115427D01*
X0249622Y0115362D01*
X0249753Y0115293D01*
X0249882Y0115221D01*
X0250009Y0115145D01*
X0250134Y0115066D01*
X0250257Y0114983D01*
X0250378Y0114898D01*
X0250496Y0114809D01*
X0250612Y0114717D01*
X0250725Y0114621D01*
X0250836Y0114523D01*
X0250944Y0114422D01*
X0251050Y0114318D01*
X0251152Y0114212D01*
X0251252Y0114102D01*
X0251348Y0113990D01*
X0251442Y0113875D01*
X0251533Y0113758D01*
X0251620Y0113639D01*
X0251704Y0113517D01*
X0251785Y0113393D01*
X0251862Y0113267D01*
X0251936Y0113139D01*
X0252007Y0113009D01*
X0252074Y0112877D01*
X0252137Y0112743D01*
X0252197Y0112608D01*
X0252253Y0112471D01*
X0252306Y0112332D01*
X0252354Y0112192D01*
X0252399Y0112051D01*
X0252440Y0111909D01*
X0252478Y0111766D01*
X0252511Y0111622D01*
X0252541Y0111477D01*
X0252567Y0111331D01*
X0252588Y0111185D01*
X0252606Y0111038D01*
X0252620Y0110891D01*
X0252630Y0110743D01*
X0252636Y0110595D01*
X0252638Y0110447D01*
X0252636Y0110299D01*
X0252630Y0110151D01*
X0252620Y0110003D01*
X0252606Y0109856D01*
X0252588Y0109709D01*
X0252567Y0109563D01*
X0252541Y0109417D01*
X0252511Y0109272D01*
X0252478Y0109128D01*
X0252440Y0108985D01*
X0252399Y0108843D01*
X0252354Y0108702D01*
X0252306Y0108562D01*
X0252253Y0108423D01*
X0252197Y0108286D01*
X0252137Y0108151D01*
X0252074Y0108017D01*
X0252007Y0107885D01*
X0251936Y0107755D01*
X0251862Y0107627D01*
X0251785Y0107501D01*
X0251704Y0107377D01*
X0251620Y0107255D01*
X0251533Y0107136D01*
X0251442Y0107019D01*
X0251348Y0106904D01*
X0251252Y0106792D01*
X0251152Y0106682D01*
X0251050Y0106576D01*
X0250944Y0106472D01*
X0250836Y0106371D01*
X0250725Y0106273D01*
X0250612Y0106177D01*
X0250496Y0106085D01*
X0250378Y0105996D01*
X0250257Y0105911D01*
X0250134Y0105828D01*
X0250009Y0105749D01*
X0249882Y0105673D01*
X0249753Y0105601D01*
X0249622Y0105532D01*
X0249489Y0105467D01*
X0249354Y0105406D01*
X0249218Y0105348D01*
X0249081Y0105293D01*
X0248942Y0105243D01*
X0248801Y0105196D01*
X0248660Y0105153D01*
X0248517Y0105113D01*
X0248373Y0105078D01*
X0248229Y0105046D01*
X0248083Y0105019D01*
X0247937Y0104995D01*
X0247790Y0104975D01*
X0247643Y0104959D01*
X0247496Y0104947D01*
X0247348Y0104939D01*
X0247200Y0104935D01*
X0247052Y0104935D01*
X0246904Y0104939D01*
X0246756Y0104947D01*
X0246609Y0104959D01*
X0246462Y0104975D01*
X0246315Y0104995D01*
X0246169Y0105019D01*
X0246023Y0105046D01*
X0245879Y0105078D01*
X0245735Y0105113D01*
X0245592Y0105153D01*
X0245451Y0105196D01*
X0245310Y0105243D01*
X0245171Y0105293D01*
X0245034Y0105348D01*
X0244898Y0105406D01*
X0244763Y0105467D01*
X0244630Y0105532D01*
X0244499Y0105601D01*
X0244370Y0105673D01*
X0244243Y0105749D01*
X0244118Y0105828D01*
X0243995Y0105911D01*
X0243874Y0105996D01*
X0243756Y0106085D01*
X0243640Y0106177D01*
X0243527Y0106273D01*
X0243416Y0106371D01*
X0243308Y0106472D01*
X0243202Y0106576D01*
X0243100Y0106682D01*
X0243000Y0106792D01*
X0242904Y0106904D01*
X0242810Y0107019D01*
X0242719Y0107136D01*
X0242632Y0107255D01*
X0242548Y0107377D01*
X0242467Y0107501D01*
X0242390Y0107627D01*
X0242316Y0107755D01*
X0242245Y0107885D01*
X0242178Y0108017D01*
X0242115Y0108151D01*
X0242055Y0108286D01*
X0241999Y0108423D01*
X0241946Y0108562D01*
X0241898Y0108702D01*
X0241853Y0108843D01*
X0241812Y0108985D01*
X0241774Y0109128D01*
X0241741Y0109272D01*
X0241711Y0109417D01*
X0241685Y0109563D01*
X0241664Y0109709D01*
X0241646Y0109856D01*
X0241632Y0110003D01*
X0241622Y0110151D01*
X0241616Y0110299D01*
X0241614Y0110447D01*
X0241614Y0019896D02*
X0241616Y0020044D01*
X0241622Y0020192D01*
X0241632Y0020340D01*
X0241646Y0020487D01*
X0241664Y0020634D01*
X0241685Y0020780D01*
X0241711Y0020926D01*
X0241741Y0021071D01*
X0241774Y0021215D01*
X0241812Y0021358D01*
X0241853Y0021500D01*
X0241898Y0021641D01*
X0241946Y0021781D01*
X0241999Y0021920D01*
X0242055Y0022057D01*
X0242115Y0022192D01*
X0242178Y0022326D01*
X0242245Y0022458D01*
X0242316Y0022588D01*
X0242390Y0022716D01*
X0242467Y0022842D01*
X0242548Y0022966D01*
X0242632Y0023088D01*
X0242719Y0023207D01*
X0242810Y0023324D01*
X0242904Y0023439D01*
X0243000Y0023551D01*
X0243100Y0023661D01*
X0243202Y0023767D01*
X0243308Y0023871D01*
X0243416Y0023972D01*
X0243527Y0024070D01*
X0243640Y0024166D01*
X0243756Y0024258D01*
X0243874Y0024347D01*
X0243995Y0024432D01*
X0244118Y0024515D01*
X0244243Y0024594D01*
X0244370Y0024670D01*
X0244499Y0024742D01*
X0244630Y0024811D01*
X0244763Y0024876D01*
X0244898Y0024937D01*
X0245034Y0024995D01*
X0245171Y0025050D01*
X0245310Y0025100D01*
X0245451Y0025147D01*
X0245592Y0025190D01*
X0245735Y0025230D01*
X0245879Y0025265D01*
X0246023Y0025297D01*
X0246169Y0025324D01*
X0246315Y0025348D01*
X0246462Y0025368D01*
X0246609Y0025384D01*
X0246756Y0025396D01*
X0246904Y0025404D01*
X0247052Y0025408D01*
X0247200Y0025408D01*
X0247348Y0025404D01*
X0247496Y0025396D01*
X0247643Y0025384D01*
X0247790Y0025368D01*
X0247937Y0025348D01*
X0248083Y0025324D01*
X0248229Y0025297D01*
X0248373Y0025265D01*
X0248517Y0025230D01*
X0248660Y0025190D01*
X0248801Y0025147D01*
X0248942Y0025100D01*
X0249081Y0025050D01*
X0249218Y0024995D01*
X0249354Y0024937D01*
X0249489Y0024876D01*
X0249622Y0024811D01*
X0249753Y0024742D01*
X0249882Y0024670D01*
X0250009Y0024594D01*
X0250134Y0024515D01*
X0250257Y0024432D01*
X0250378Y0024347D01*
X0250496Y0024258D01*
X0250612Y0024166D01*
X0250725Y0024070D01*
X0250836Y0023972D01*
X0250944Y0023871D01*
X0251050Y0023767D01*
X0251152Y0023661D01*
X0251252Y0023551D01*
X0251348Y0023439D01*
X0251442Y0023324D01*
X0251533Y0023207D01*
X0251620Y0023088D01*
X0251704Y0022966D01*
X0251785Y0022842D01*
X0251862Y0022716D01*
X0251936Y0022588D01*
X0252007Y0022458D01*
X0252074Y0022326D01*
X0252137Y0022192D01*
X0252197Y0022057D01*
X0252253Y0021920D01*
X0252306Y0021781D01*
X0252354Y0021641D01*
X0252399Y0021500D01*
X0252440Y0021358D01*
X0252478Y0021215D01*
X0252511Y0021071D01*
X0252541Y0020926D01*
X0252567Y0020780D01*
X0252588Y0020634D01*
X0252606Y0020487D01*
X0252620Y0020340D01*
X0252630Y0020192D01*
X0252636Y0020044D01*
X0252638Y0019896D01*
X0252636Y0019748D01*
X0252630Y0019600D01*
X0252620Y0019452D01*
X0252606Y0019305D01*
X0252588Y0019158D01*
X0252567Y0019012D01*
X0252541Y0018866D01*
X0252511Y0018721D01*
X0252478Y0018577D01*
X0252440Y0018434D01*
X0252399Y0018292D01*
X0252354Y0018151D01*
X0252306Y0018011D01*
X0252253Y0017872D01*
X0252197Y0017735D01*
X0252137Y0017600D01*
X0252074Y0017466D01*
X0252007Y0017334D01*
X0251936Y0017204D01*
X0251862Y0017076D01*
X0251785Y0016950D01*
X0251704Y0016826D01*
X0251620Y0016704D01*
X0251533Y0016585D01*
X0251442Y0016468D01*
X0251348Y0016353D01*
X0251252Y0016241D01*
X0251152Y0016131D01*
X0251050Y0016025D01*
X0250944Y0015921D01*
X0250836Y0015820D01*
X0250725Y0015722D01*
X0250612Y0015626D01*
X0250496Y0015534D01*
X0250378Y0015445D01*
X0250257Y0015360D01*
X0250134Y0015277D01*
X0250009Y0015198D01*
X0249882Y0015122D01*
X0249753Y0015050D01*
X0249622Y0014981D01*
X0249489Y0014916D01*
X0249354Y0014855D01*
X0249218Y0014797D01*
X0249081Y0014742D01*
X0248942Y0014692D01*
X0248801Y0014645D01*
X0248660Y0014602D01*
X0248517Y0014562D01*
X0248373Y0014527D01*
X0248229Y0014495D01*
X0248083Y0014468D01*
X0247937Y0014444D01*
X0247790Y0014424D01*
X0247643Y0014408D01*
X0247496Y0014396D01*
X0247348Y0014388D01*
X0247200Y0014384D01*
X0247052Y0014384D01*
X0246904Y0014388D01*
X0246756Y0014396D01*
X0246609Y0014408D01*
X0246462Y0014424D01*
X0246315Y0014444D01*
X0246169Y0014468D01*
X0246023Y0014495D01*
X0245879Y0014527D01*
X0245735Y0014562D01*
X0245592Y0014602D01*
X0245451Y0014645D01*
X0245310Y0014692D01*
X0245171Y0014742D01*
X0245034Y0014797D01*
X0244898Y0014855D01*
X0244763Y0014916D01*
X0244630Y0014981D01*
X0244499Y0015050D01*
X0244370Y0015122D01*
X0244243Y0015198D01*
X0244118Y0015277D01*
X0243995Y0015360D01*
X0243874Y0015445D01*
X0243756Y0015534D01*
X0243640Y0015626D01*
X0243527Y0015722D01*
X0243416Y0015820D01*
X0243308Y0015921D01*
X0243202Y0016025D01*
X0243100Y0016131D01*
X0243000Y0016241D01*
X0242904Y0016353D01*
X0242810Y0016468D01*
X0242719Y0016585D01*
X0242632Y0016704D01*
X0242548Y0016826D01*
X0242467Y0016950D01*
X0242390Y0017076D01*
X0242316Y0017204D01*
X0242245Y0017334D01*
X0242178Y0017466D01*
X0242115Y0017600D01*
X0242055Y0017735D01*
X0241999Y0017872D01*
X0241946Y0018011D01*
X0241898Y0018151D01*
X0241853Y0018292D01*
X0241812Y0018434D01*
X0241774Y0018577D01*
X0241741Y0018721D01*
X0241711Y0018866D01*
X0241685Y0019012D01*
X0241664Y0019158D01*
X0241646Y0019305D01*
X0241632Y0019452D01*
X0241622Y0019600D01*
X0241616Y0019748D01*
X0241614Y0019896D01*
D11*
X0037835Y0105132D03*
D12*
X0047835Y0105132D03*
X0057835Y0105132D03*
X0067835Y0105132D03*
X0077835Y0105132D03*
X0087835Y0105132D03*
X0097835Y0105132D03*
X0107835Y0105132D03*
X0117835Y0105132D03*
X0127835Y0105132D03*
X0137835Y0105132D03*
X0147835Y0105132D03*
X0157835Y0105132D03*
X0167835Y0105132D03*
X0177835Y0105132D03*
X0187835Y0105132D03*
X0197835Y0105132D03*
X0207835Y0105132D03*
X0217835Y0105132D03*
X0227835Y0105132D03*
X0227835Y0115132D03*
X0217835Y0115132D03*
X0207835Y0115132D03*
X0197835Y0115132D03*
X0187835Y0115132D03*
X0177835Y0115132D03*
X0167835Y0115132D03*
X0157835Y0115132D03*
X0147835Y0115132D03*
X0137835Y0115132D03*
X0127835Y0115132D03*
X0117835Y0115132D03*
X0107835Y0115132D03*
X0097835Y0115132D03*
X0087835Y0115132D03*
X0077835Y0115132D03*
X0067835Y0115132D03*
X0057835Y0115132D03*
X0047835Y0115132D03*
X0037835Y0115132D03*
D13*
X0031969Y0063085D03*
X0030000Y0061117D03*
X0028031Y0063085D03*
X0028031Y0059148D03*
X0031969Y0059148D03*
X0165000Y0044867D03*
X0167500Y0044867D03*
X0170000Y0044867D03*
D14*
X0174390Y0020723D03*
X0188169Y0020723D03*
X0160610Y0020723D03*
X0146831Y0020723D03*
X0054390Y0020723D03*
X0040610Y0020723D03*
D15*
X0042500Y0017867D02*
X0042500Y0011867D01*
X0052500Y0011867D02*
X0052500Y0017867D01*
X0072500Y0017867D02*
X0072500Y0011867D01*
X0082500Y0011867D02*
X0082500Y0017867D01*
X0092500Y0017867D02*
X0092500Y0011867D01*
X0108750Y0011867D02*
X0108750Y0017867D01*
X0118750Y0017867D02*
X0118750Y0011867D01*
X0128750Y0011867D02*
X0128750Y0017867D01*
X0138750Y0017867D02*
X0138750Y0011867D01*
X0148750Y0011867D02*
X0148750Y0017867D01*
X0158750Y0017867D02*
X0158750Y0011867D01*
X0176250Y0011867D02*
X0176250Y0017867D01*
X0186250Y0017867D02*
X0186250Y0011867D01*
X0196250Y0011867D02*
X0196250Y0017867D01*
X0206250Y0017867D02*
X0206250Y0011867D01*
X0216250Y0011867D02*
X0216250Y0017867D01*
X0226250Y0017867D02*
X0226250Y0011867D01*
D16*
X0118750Y0064867D03*
X0118750Y0074867D03*
X0098750Y0074867D03*
X0098750Y0064867D03*
D17*
X0108750Y0064867D03*
X0108750Y0074867D03*
D18*
X0165000Y0044867D02*
X0170000Y0044867D01*
D19*
X0010421Y0006117D02*
X0005000Y0006117D01*
X0010421Y0006117D01*
X0007281Y0008398D01*
X0007281Y0008398D01*
X0005000Y0011538D01*
X0005000Y0006117D01*
X0005000Y0007115D02*
X0009047Y0007115D01*
X0007673Y0008114D02*
X0005000Y0008114D01*
X0005000Y0009112D02*
X0006763Y0009112D01*
X0006037Y0010111D02*
X0005000Y0010111D01*
X0005000Y0011109D02*
X0005312Y0011109D01*
X0009344Y0010879D02*
X0009934Y0010336D01*
X0009520Y0010637D01*
X0009344Y0010879D01*
X0023345Y0007617D02*
X0024084Y0007804D01*
X0027723Y0010181D01*
X0030393Y0013611D01*
X0031804Y0017723D01*
X0031804Y0022070D01*
X0030393Y0026181D01*
X0027723Y0029611D01*
X0024084Y0031989D01*
X0019870Y0033056D01*
X0015538Y0032697D01*
X0011557Y0030951D01*
X0008359Y0028007D01*
X0006500Y0024571D01*
X0006500Y0105772D01*
X0008359Y0102337D01*
X0011557Y0099393D01*
X0015538Y0097647D01*
X0019870Y0097288D01*
X0022650Y0097992D01*
X0022650Y0089307D01*
X0023441Y0088517D01*
X0029309Y0088517D01*
X0030100Y0089307D01*
X0030100Y0093267D01*
X0108959Y0093267D01*
X0108959Y0092668D01*
X0110161Y0091467D01*
X0088087Y0091467D01*
X0087150Y0090529D01*
X0053087Y0056467D01*
X0035587Y0056467D01*
X0031837Y0052717D01*
X0030900Y0051779D01*
X0030900Y0050256D01*
X0030209Y0049565D01*
X0030209Y0047668D01*
X0031551Y0046326D01*
X0033449Y0046326D01*
X0034791Y0047668D01*
X0034791Y0049565D01*
X0034100Y0050256D01*
X0034100Y0050454D01*
X0035209Y0051563D01*
X0035209Y0050168D01*
X0036551Y0048826D01*
X0038449Y0048826D01*
X0039139Y0049517D01*
X0055663Y0049517D01*
X0056600Y0050454D01*
X0084972Y0078826D01*
X0085720Y0078826D01*
X0085336Y0078442D01*
X0085336Y0077466D01*
X0070900Y0063029D01*
X0070900Y0049145D01*
X0070111Y0048356D01*
X0070111Y0046377D01*
X0071510Y0044978D01*
X0073490Y0044978D01*
X0074889Y0046377D01*
X0074889Y0048356D01*
X0074100Y0049145D01*
X0074100Y0061704D01*
X0087599Y0075203D01*
X0088576Y0075203D01*
X0089917Y0076545D01*
X0089917Y0078442D01*
X0088576Y0079784D01*
X0086907Y0079784D01*
X0087291Y0080168D01*
X0087291Y0082065D01*
X0085949Y0083407D01*
X0084553Y0083407D01*
X0089413Y0088267D01*
X0092661Y0088267D01*
X0091459Y0087065D01*
X0091459Y0085168D01*
X0092801Y0083826D01*
X0094699Y0083826D01*
X0095389Y0084517D01*
X0112661Y0084517D01*
X0111459Y0083315D01*
X0111459Y0081418D01*
X0112801Y0080076D01*
X0114699Y0080076D01*
X0115389Y0080767D01*
X0127709Y0080767D01*
X0127709Y0079839D01*
X0123087Y0075217D01*
X0122350Y0074479D01*
X0122350Y0075583D01*
X0121802Y0076906D01*
X0120789Y0077919D01*
X0119466Y0078467D01*
X0118034Y0078467D01*
X0116711Y0077919D01*
X0115698Y0076906D01*
X0115150Y0075583D01*
X0115150Y0074151D01*
X0115698Y0072827D01*
X0116711Y0071815D01*
X0118034Y0071267D01*
X0119466Y0071267D01*
X0120789Y0071815D01*
X0121802Y0072827D01*
X0122150Y0073668D01*
X0122150Y0070529D01*
X0119905Y0068285D01*
X0119466Y0068467D01*
X0118034Y0068467D01*
X0116711Y0067919D01*
X0115698Y0066906D01*
X0115150Y0065583D01*
X0115150Y0064151D01*
X0115698Y0062827D01*
X0116711Y0061815D01*
X0118034Y0061267D01*
X0119466Y0061267D01*
X0120789Y0061815D01*
X0121802Y0062827D01*
X0122350Y0064151D01*
X0122350Y0065583D01*
X0122168Y0066022D01*
X0125350Y0069204D01*
X0125350Y0072954D01*
X0129972Y0077576D01*
X0130949Y0077576D01*
X0132291Y0078918D01*
X0132291Y0080767D01*
X0136459Y0080767D01*
X0136459Y0080168D01*
X0137801Y0078826D01*
X0139699Y0078826D01*
X0141041Y0080168D01*
X0141041Y0082065D01*
X0139699Y0083407D01*
X0138722Y0083407D01*
X0138163Y0083967D01*
X0115389Y0083967D01*
X0114839Y0084517D01*
X0172462Y0084517D01*
X0177611Y0079368D01*
X0177611Y0078252D01*
X0179010Y0076853D01*
X0180990Y0076853D01*
X0182389Y0078252D01*
X0182389Y0080231D01*
X0180990Y0081631D01*
X0179874Y0081631D01*
X0174725Y0086779D01*
X0173788Y0087717D01*
X0095389Y0087717D01*
X0094839Y0088267D01*
X0174962Y0088267D01*
X0187611Y0075618D01*
X0187611Y0074502D01*
X0189010Y0073103D01*
X0190990Y0073103D01*
X0192389Y0074502D01*
X0192389Y0076481D01*
X0190990Y0077881D01*
X0189874Y0077881D01*
X0176288Y0091467D01*
X0112339Y0091467D01*
X0113541Y0092668D01*
X0113541Y0094565D01*
X0112199Y0095907D01*
X0111222Y0095907D01*
X0110663Y0096467D01*
X0103589Y0096467D01*
X0104139Y0097017D01*
X0196212Y0097017D01*
X0205209Y0088019D01*
X0205209Y0087043D01*
X0206551Y0085701D01*
X0208449Y0085701D01*
X0209791Y0087043D01*
X0209791Y0088940D01*
X0208449Y0090282D01*
X0207472Y0090282D01*
X0197538Y0100217D01*
X0104139Y0100217D01*
X0103449Y0100907D01*
X0101551Y0100907D01*
X0100209Y0099565D01*
X0100209Y0097668D01*
X0101411Y0096467D01*
X0031009Y0096467D01*
X0035575Y0101032D01*
X0041290Y0101032D01*
X0041935Y0101677D01*
X0041935Y0107392D01*
X0045559Y0111017D01*
X0051809Y0111017D01*
X0052600Y0111807D01*
X0052600Y0119176D01*
X0051809Y0119967D01*
X0027875Y0119967D01*
X0027723Y0120162D01*
X0024084Y0122540D01*
X0023345Y0122727D01*
X0242696Y0122727D01*
X0239904Y0121502D01*
X0236706Y0118558D01*
X0234637Y0114735D01*
X0233921Y0110447D01*
X0234637Y0106160D01*
X0236706Y0102337D01*
X0239904Y0099393D01*
X0243884Y0097647D01*
X0248216Y0097288D01*
X0252430Y0098355D01*
X0256069Y0100732D01*
X0258739Y0104163D01*
X0259406Y0106104D01*
X0259406Y0024240D01*
X0258739Y0026181D01*
X0256069Y0029611D01*
X0252430Y0031989D01*
X0248216Y0033056D01*
X0243884Y0032697D01*
X0239904Y0030951D01*
X0236706Y0028007D01*
X0234637Y0024184D01*
X0233921Y0019896D01*
X0234637Y0015609D01*
X0236706Y0011786D01*
X0239904Y0008842D01*
X0242696Y0007617D01*
X0197732Y0007617D01*
X0197977Y0007696D01*
X0198609Y0008018D01*
X0199182Y0008434D01*
X0199682Y0008935D01*
X0200099Y0009508D01*
X0200420Y0010139D01*
X0200639Y0010813D01*
X0200750Y0011512D01*
X0200750Y0014367D01*
X0196750Y0014367D01*
X0196750Y0015367D01*
X0195750Y0015367D01*
X0195750Y0022344D01*
X0195196Y0022256D01*
X0194523Y0022037D01*
X0193891Y0021715D01*
X0193318Y0021299D01*
X0192818Y0020798D01*
X0192616Y0020520D01*
X0192616Y0021607D01*
X0191939Y0023242D01*
X0190688Y0024492D01*
X0190630Y0024517D01*
X0211837Y0024517D01*
X0214650Y0021704D01*
X0214650Y0021642D01*
X0213928Y0021342D01*
X0212774Y0020189D01*
X0212150Y0018682D01*
X0212150Y0011051D01*
X0212774Y0009544D01*
X0213928Y0008391D01*
X0215434Y0007767D01*
X0217066Y0007767D01*
X0218572Y0008391D01*
X0219726Y0009544D01*
X0220350Y0011051D01*
X0220350Y0018682D01*
X0219726Y0020189D01*
X0218572Y0021342D01*
X0217850Y0021642D01*
X0217850Y0023029D01*
X0214100Y0026779D01*
X0213163Y0027717D01*
X0149793Y0027717D01*
X0151529Y0029453D01*
X0154093Y0032017D01*
X0214413Y0032017D01*
X0215350Y0032954D01*
X0219972Y0037576D01*
X0220949Y0037576D01*
X0222291Y0038918D01*
X0222291Y0040815D01*
X0220949Y0042157D01*
X0219051Y0042157D01*
X0217709Y0040815D01*
X0217709Y0039839D01*
X0213087Y0035217D01*
X0154093Y0035217D01*
X0153404Y0035906D01*
X0152412Y0036317D01*
X0151338Y0036317D01*
X0150346Y0035906D01*
X0147711Y0033271D01*
X0147007Y0032567D01*
X0048842Y0032567D01*
X0047850Y0032156D01*
X0041971Y0026277D01*
X0041211Y0025517D01*
X0041067Y0025169D01*
X0039726Y0025169D01*
X0038092Y0024492D01*
X0036841Y0023242D01*
X0036164Y0021607D01*
X0036164Y0019838D01*
X0036841Y0018204D01*
X0038092Y0016953D01*
X0038400Y0016826D01*
X0038400Y0011051D01*
X0039024Y0009544D01*
X0040178Y0008391D01*
X0041684Y0007767D01*
X0043316Y0007767D01*
X0044822Y0008391D01*
X0045976Y0009544D01*
X0046600Y0011051D01*
X0046600Y0018682D01*
X0046200Y0019648D01*
X0046200Y0022869D01*
X0050497Y0027167D01*
X0107811Y0027167D01*
X0107709Y0027065D01*
X0107709Y0025168D01*
X0109051Y0023826D01*
X0110949Y0023826D01*
X0111639Y0024517D01*
X0144370Y0024517D01*
X0144312Y0024492D01*
X0143061Y0023242D01*
X0142384Y0021607D01*
X0142384Y0020520D01*
X0142182Y0020798D01*
X0141682Y0021299D01*
X0141109Y0021715D01*
X0140477Y0022037D01*
X0139804Y0022256D01*
X0139250Y0022344D01*
X0139250Y0015367D01*
X0138250Y0015367D01*
X0138250Y0022344D01*
X0137696Y0022256D01*
X0137023Y0022037D01*
X0136391Y0021715D01*
X0135818Y0021299D01*
X0135318Y0020798D01*
X0134901Y0020225D01*
X0134580Y0019594D01*
X0134361Y0018920D01*
X0134250Y0018221D01*
X0134250Y0015367D01*
X0138250Y0015367D01*
X0138250Y0014367D01*
X0134250Y0014367D01*
X0134250Y0011512D01*
X0134361Y0010813D01*
X0134580Y0010139D01*
X0134901Y0009508D01*
X0135318Y0008935D01*
X0135818Y0008434D01*
X0136391Y0008018D01*
X0137023Y0007696D01*
X0137268Y0007617D01*
X0093982Y0007617D01*
X0094227Y0007696D01*
X0094859Y0008018D01*
X0095432Y0008434D01*
X0095932Y0008935D01*
X0096349Y0009508D01*
X0096670Y0010139D01*
X0096889Y0010813D01*
X0097000Y0011512D01*
X0097000Y0014367D01*
X0093000Y0014367D01*
X0093000Y0015367D01*
X0092000Y0015367D01*
X0092000Y0022344D01*
X0091446Y0022256D01*
X0090773Y0022037D01*
X0090141Y0021715D01*
X0089568Y0021299D01*
X0089068Y0020798D01*
X0088651Y0020225D01*
X0088330Y0019594D01*
X0088111Y0018920D01*
X0088000Y0018221D01*
X0088000Y0015367D01*
X0092000Y0015367D01*
X0092000Y0014367D01*
X0088000Y0014367D01*
X0088000Y0011512D01*
X0088111Y0010813D01*
X0088330Y0010139D01*
X0088651Y0009508D01*
X0089068Y0008935D01*
X0089568Y0008434D01*
X0090141Y0008018D01*
X0090773Y0007696D01*
X0091018Y0007617D01*
X0053982Y0007617D01*
X0054227Y0007696D01*
X0054859Y0008018D01*
X0055432Y0008434D01*
X0055932Y0008935D01*
X0056349Y0009508D01*
X0056670Y0010139D01*
X0056889Y0010813D01*
X0057000Y0011512D01*
X0057000Y0014367D01*
X0053000Y0014367D01*
X0053000Y0015367D01*
X0057000Y0015367D01*
X0057000Y0016629D01*
X0057547Y0017026D01*
X0058086Y0017566D01*
X0058535Y0018183D01*
X0058881Y0018863D01*
X0059117Y0019588D01*
X0059217Y0020223D01*
X0056350Y0020223D01*
X0056349Y0020225D01*
X0055932Y0020798D01*
X0055508Y0021223D01*
X0059217Y0021223D01*
X0059117Y0021858D01*
X0058881Y0022583D01*
X0058535Y0023263D01*
X0058086Y0023880D01*
X0057547Y0024420D01*
X0056930Y0024868D01*
X0056250Y0025214D01*
X0055525Y0025450D01*
X0054890Y0025551D01*
X0054890Y0021693D01*
X0054859Y0021715D01*
X0054227Y0022037D01*
X0053890Y0022147D01*
X0053890Y0025551D01*
X0053255Y0025450D01*
X0052529Y0025214D01*
X0051850Y0024868D01*
X0051233Y0024420D01*
X0050693Y0023880D01*
X0050245Y0023263D01*
X0049898Y0022583D01*
X0049663Y0021858D01*
X0049575Y0021304D01*
X0049568Y0021299D01*
X0049068Y0020798D01*
X0048651Y0020225D01*
X0048330Y0019594D01*
X0048111Y0018920D01*
X0048000Y0018221D01*
X0048000Y0015367D01*
X0052000Y0015367D01*
X0052000Y0014367D01*
X0048000Y0014367D01*
X0048000Y0011512D01*
X0048111Y0010813D01*
X0048330Y0010139D01*
X0048651Y0009508D01*
X0049068Y0008935D01*
X0049568Y0008434D01*
X0050141Y0008018D01*
X0050773Y0007696D01*
X0051018Y0007617D01*
X0023345Y0007617D01*
X0024558Y0008114D02*
X0040847Y0008114D01*
X0039456Y0009112D02*
X0026087Y0009112D01*
X0027615Y0010111D02*
X0038790Y0010111D01*
X0038400Y0011109D02*
X0028445Y0011109D01*
X0029222Y0012108D02*
X0038400Y0012108D01*
X0038400Y0013106D02*
X0030000Y0013106D01*
X0030562Y0014105D02*
X0038400Y0014105D01*
X0038400Y0015103D02*
X0030905Y0015103D01*
X0031248Y0016102D02*
X0038400Y0016102D01*
X0037945Y0017100D02*
X0031590Y0017100D01*
X0031804Y0018099D02*
X0036946Y0018099D01*
X0036471Y0019097D02*
X0031804Y0019097D01*
X0031804Y0020096D02*
X0036164Y0020096D01*
X0036164Y0021094D02*
X0031804Y0021094D01*
X0031796Y0022093D02*
X0036365Y0022093D01*
X0036778Y0023091D02*
X0031453Y0023091D01*
X0031111Y0024090D02*
X0037689Y0024090D01*
X0039530Y0025088D02*
X0030768Y0025088D01*
X0030425Y0026087D02*
X0041781Y0026087D01*
X0042779Y0027085D02*
X0029689Y0027085D01*
X0028912Y0028084D02*
X0043778Y0028084D01*
X0044776Y0029082D02*
X0028134Y0029082D01*
X0027004Y0030081D02*
X0045775Y0030081D01*
X0046773Y0031079D02*
X0025476Y0031079D01*
X0023731Y0032078D02*
X0047772Y0032078D01*
X0050416Y0027085D02*
X0107729Y0027085D01*
X0107709Y0026087D02*
X0049418Y0026087D01*
X0048419Y0025088D02*
X0052282Y0025088D01*
X0053890Y0025088D02*
X0054890Y0025088D01*
X0054890Y0024090D02*
X0053890Y0024090D01*
X0053890Y0023091D02*
X0054890Y0023091D01*
X0054890Y0022093D02*
X0054055Y0022093D01*
X0055636Y0021094D02*
X0069929Y0021094D01*
X0070178Y0021342D02*
X0069024Y0020189D01*
X0068400Y0018682D01*
X0068400Y0011051D01*
X0069024Y0009544D01*
X0070178Y0008391D01*
X0071684Y0007767D01*
X0073316Y0007767D01*
X0074822Y0008391D01*
X0075976Y0009544D01*
X0076600Y0011051D01*
X0076600Y0018682D01*
X0075976Y0020189D01*
X0074822Y0021342D01*
X0073316Y0021967D01*
X0071684Y0021967D01*
X0070178Y0021342D01*
X0068986Y0020096D02*
X0059197Y0020096D01*
X0058957Y0019097D02*
X0068572Y0019097D01*
X0068400Y0018099D02*
X0058474Y0018099D01*
X0057621Y0017100D02*
X0068400Y0017100D01*
X0068400Y0016102D02*
X0057000Y0016102D01*
X0057000Y0014105D02*
X0068400Y0014105D01*
X0068400Y0015103D02*
X0053000Y0015103D01*
X0052000Y0015103D02*
X0046600Y0015103D01*
X0046600Y0014105D02*
X0048000Y0014105D01*
X0048000Y0013106D02*
X0046600Y0013106D01*
X0046600Y0012108D02*
X0048000Y0012108D01*
X0048064Y0011109D02*
X0046600Y0011109D01*
X0046210Y0010111D02*
X0048344Y0010111D01*
X0048939Y0009112D02*
X0045544Y0009112D01*
X0044153Y0008114D02*
X0050010Y0008114D01*
X0054990Y0008114D02*
X0070847Y0008114D01*
X0069456Y0009112D02*
X0056061Y0009112D01*
X0056656Y0010111D02*
X0068790Y0010111D01*
X0068400Y0011109D02*
X0056936Y0011109D01*
X0057000Y0012108D02*
X0068400Y0012108D01*
X0068400Y0013106D02*
X0057000Y0013106D01*
X0048000Y0016102D02*
X0046600Y0016102D01*
X0046600Y0017100D02*
X0048000Y0017100D01*
X0048000Y0018099D02*
X0046600Y0018099D01*
X0046428Y0019097D02*
X0048168Y0019097D01*
X0048585Y0020096D02*
X0046200Y0020096D01*
X0046200Y0021094D02*
X0049364Y0021094D01*
X0049739Y0022093D02*
X0046200Y0022093D01*
X0046422Y0023091D02*
X0050157Y0023091D01*
X0050903Y0024090D02*
X0047421Y0024090D01*
X0056497Y0025088D02*
X0107789Y0025088D01*
X0108787Y0024090D02*
X0057877Y0024090D01*
X0058622Y0023091D02*
X0142999Y0023091D01*
X0142585Y0022093D02*
X0140305Y0022093D01*
X0139250Y0022093D02*
X0138250Y0022093D01*
X0138250Y0021094D02*
X0139250Y0021094D01*
X0139250Y0020096D02*
X0138250Y0020096D01*
X0138250Y0019097D02*
X0139250Y0019097D01*
X0139250Y0018099D02*
X0138250Y0018099D01*
X0138250Y0017100D02*
X0139250Y0017100D01*
X0139250Y0016102D02*
X0138250Y0016102D01*
X0138250Y0015103D02*
X0132850Y0015103D01*
X0132850Y0014105D02*
X0134250Y0014105D01*
X0134250Y0013106D02*
X0132850Y0013106D01*
X0132850Y0012108D02*
X0134250Y0012108D01*
X0134314Y0011109D02*
X0132850Y0011109D01*
X0132850Y0011051D02*
X0132226Y0009544D01*
X0131072Y0008391D01*
X0129566Y0007767D01*
X0127934Y0007767D01*
X0126428Y0008391D01*
X0125274Y0009544D01*
X0124650Y0011051D01*
X0124650Y0018682D01*
X0125274Y0020189D01*
X0126428Y0021342D01*
X0127934Y0021967D01*
X0129566Y0021967D01*
X0131072Y0021342D01*
X0132226Y0020189D01*
X0132850Y0018682D01*
X0132850Y0011051D01*
X0132460Y0010111D02*
X0134594Y0010111D01*
X0135189Y0009112D02*
X0131794Y0009112D01*
X0130403Y0008114D02*
X0136260Y0008114D01*
X0140232Y0007617D02*
X0140477Y0007696D01*
X0141109Y0008018D01*
X0141682Y0008434D01*
X0142182Y0008935D01*
X0142599Y0009508D01*
X0142920Y0010139D01*
X0143139Y0010813D01*
X0143250Y0011512D01*
X0143250Y0014367D01*
X0139250Y0014367D01*
X0139250Y0015367D01*
X0143250Y0015367D01*
X0143250Y0018015D01*
X0144312Y0016953D01*
X0144650Y0016813D01*
X0144650Y0011051D01*
X0145274Y0009544D01*
X0146428Y0008391D01*
X0147934Y0007767D01*
X0149566Y0007767D01*
X0151072Y0008391D01*
X0152226Y0009544D01*
X0152850Y0011051D01*
X0152850Y0018682D01*
X0152226Y0020189D01*
X0151277Y0021138D01*
X0151277Y0021607D01*
X0150600Y0023242D01*
X0149349Y0024492D01*
X0149291Y0024517D01*
X0158150Y0024517D01*
X0158092Y0024492D01*
X0156841Y0023242D01*
X0156164Y0021607D01*
X0156164Y0021079D01*
X0155274Y0020189D01*
X0154650Y0018682D01*
X0154650Y0011051D01*
X0155274Y0009544D01*
X0156428Y0008391D01*
X0157934Y0007767D01*
X0159566Y0007767D01*
X0161072Y0008391D01*
X0162226Y0009544D01*
X0162850Y0011051D01*
X0162850Y0016838D01*
X0163129Y0016953D01*
X0164380Y0018204D01*
X0165057Y0019838D01*
X0165057Y0021607D01*
X0164380Y0023242D01*
X0163129Y0024492D01*
X0163071Y0024517D01*
X0171929Y0024517D01*
X0171871Y0024492D01*
X0170620Y0023242D01*
X0169943Y0021607D01*
X0169943Y0019838D01*
X0170620Y0018204D01*
X0171871Y0016953D01*
X0172150Y0016838D01*
X0172150Y0011051D01*
X0172774Y0009544D01*
X0173928Y0008391D01*
X0175434Y0007767D01*
X0177066Y0007767D01*
X0178572Y0008391D01*
X0179726Y0009544D01*
X0180350Y0011051D01*
X0180350Y0018682D01*
X0179726Y0020189D01*
X0178836Y0021079D01*
X0178836Y0021607D01*
X0178159Y0023242D01*
X0176908Y0024492D01*
X0176850Y0024517D01*
X0185709Y0024517D01*
X0185651Y0024492D01*
X0184400Y0023242D01*
X0183723Y0021607D01*
X0183723Y0021138D01*
X0182774Y0020189D01*
X0182150Y0018682D01*
X0182150Y0011051D01*
X0182774Y0009544D01*
X0183928Y0008391D01*
X0185434Y0007767D01*
X0187066Y0007767D01*
X0188572Y0008391D01*
X0189726Y0009544D01*
X0190350Y0011051D01*
X0190350Y0016813D01*
X0190688Y0016953D01*
X0191750Y0018015D01*
X0191750Y0015367D01*
X0195750Y0015367D01*
X0195750Y0014367D01*
X0191750Y0014367D01*
X0191750Y0011512D01*
X0191861Y0010813D01*
X0192080Y0010139D01*
X0192401Y0009508D01*
X0192818Y0008935D01*
X0193318Y0008434D01*
X0193891Y0008018D01*
X0194523Y0007696D01*
X0194768Y0007617D01*
X0140232Y0007617D01*
X0141240Y0008114D02*
X0147097Y0008114D01*
X0145706Y0009112D02*
X0142311Y0009112D01*
X0142906Y0010111D02*
X0145040Y0010111D01*
X0144650Y0011109D02*
X0143186Y0011109D01*
X0143250Y0012108D02*
X0144650Y0012108D01*
X0144650Y0013106D02*
X0143250Y0013106D01*
X0143250Y0014105D02*
X0144650Y0014105D01*
X0144650Y0015103D02*
X0139250Y0015103D01*
X0134250Y0016102D02*
X0132850Y0016102D01*
X0132850Y0017100D02*
X0134250Y0017100D01*
X0134250Y0018099D02*
X0132850Y0018099D01*
X0132678Y0019097D02*
X0134418Y0019097D01*
X0134835Y0020096D02*
X0132264Y0020096D01*
X0131321Y0021094D02*
X0135614Y0021094D01*
X0137195Y0022093D02*
X0094055Y0022093D01*
X0094227Y0022037D02*
X0093554Y0022256D01*
X0093000Y0022344D01*
X0093000Y0015367D01*
X0097000Y0015367D01*
X0097000Y0018221D01*
X0096889Y0018920D01*
X0096670Y0019594D01*
X0096349Y0020225D01*
X0095932Y0020798D01*
X0095432Y0021299D01*
X0094859Y0021715D01*
X0094227Y0022037D01*
X0093000Y0022093D02*
X0092000Y0022093D01*
X0092000Y0021094D02*
X0093000Y0021094D01*
X0093000Y0020096D02*
X0092000Y0020096D01*
X0092000Y0019097D02*
X0093000Y0019097D01*
X0093000Y0018099D02*
X0092000Y0018099D01*
X0092000Y0017100D02*
X0093000Y0017100D01*
X0093000Y0016102D02*
X0092000Y0016102D01*
X0092000Y0015103D02*
X0086600Y0015103D01*
X0086600Y0014105D02*
X0088000Y0014105D01*
X0088000Y0013106D02*
X0086600Y0013106D01*
X0086600Y0012108D02*
X0088000Y0012108D01*
X0088064Y0011109D02*
X0086600Y0011109D01*
X0086600Y0011051D02*
X0086600Y0018682D01*
X0085976Y0020189D01*
X0084822Y0021342D01*
X0083316Y0021967D01*
X0081684Y0021967D01*
X0080178Y0021342D01*
X0079024Y0020189D01*
X0078400Y0018682D01*
X0078400Y0011051D01*
X0079024Y0009544D01*
X0080178Y0008391D01*
X0081684Y0007767D01*
X0083316Y0007767D01*
X0084822Y0008391D01*
X0085976Y0009544D01*
X0086600Y0011051D01*
X0086210Y0010111D02*
X0088344Y0010111D01*
X0088939Y0009112D02*
X0085544Y0009112D01*
X0084153Y0008114D02*
X0090010Y0008114D01*
X0094990Y0008114D02*
X0107097Y0008114D01*
X0106428Y0008391D02*
X0107934Y0007767D01*
X0109566Y0007767D01*
X0111072Y0008391D01*
X0112226Y0009544D01*
X0112850Y0011051D01*
X0112850Y0018682D01*
X0112226Y0020189D01*
X0111072Y0021342D01*
X0109566Y0021967D01*
X0107934Y0021967D01*
X0106428Y0021342D01*
X0105274Y0020189D01*
X0104650Y0018682D01*
X0104650Y0011051D01*
X0105274Y0009544D01*
X0106428Y0008391D01*
X0105706Y0009112D02*
X0096061Y0009112D01*
X0096656Y0010111D02*
X0105040Y0010111D01*
X0104650Y0011109D02*
X0096936Y0011109D01*
X0097000Y0012108D02*
X0104650Y0012108D01*
X0104650Y0013106D02*
X0097000Y0013106D01*
X0097000Y0014105D02*
X0104650Y0014105D01*
X0104650Y0015103D02*
X0093000Y0015103D01*
X0097000Y0016102D02*
X0104650Y0016102D01*
X0104650Y0017100D02*
X0097000Y0017100D01*
X0097000Y0018099D02*
X0104650Y0018099D01*
X0104822Y0019097D02*
X0096832Y0019097D01*
X0096415Y0020096D02*
X0105236Y0020096D01*
X0106179Y0021094D02*
X0095636Y0021094D01*
X0090945Y0022093D02*
X0059041Y0022093D01*
X0075071Y0021094D02*
X0079929Y0021094D01*
X0078986Y0020096D02*
X0076014Y0020096D01*
X0076428Y0019097D02*
X0078572Y0019097D01*
X0078400Y0018099D02*
X0076600Y0018099D01*
X0076600Y0017100D02*
X0078400Y0017100D01*
X0078400Y0016102D02*
X0076600Y0016102D01*
X0076600Y0015103D02*
X0078400Y0015103D01*
X0078400Y0014105D02*
X0076600Y0014105D01*
X0076600Y0013106D02*
X0078400Y0013106D01*
X0078400Y0012108D02*
X0076600Y0012108D01*
X0076600Y0011109D02*
X0078400Y0011109D01*
X0078790Y0010111D02*
X0076210Y0010111D01*
X0075544Y0009112D02*
X0079456Y0009112D01*
X0080847Y0008114D02*
X0074153Y0008114D01*
X0086600Y0016102D02*
X0088000Y0016102D01*
X0088000Y0017100D02*
X0086600Y0017100D01*
X0086600Y0018099D02*
X0088000Y0018099D01*
X0088168Y0019097D02*
X0086428Y0019097D01*
X0086014Y0020096D02*
X0088585Y0020096D01*
X0089364Y0021094D02*
X0085071Y0021094D01*
X0110000Y0026117D02*
X0212500Y0026117D01*
X0216250Y0022367D01*
X0216250Y0014867D01*
X0220350Y0015103D02*
X0222150Y0015103D01*
X0222150Y0014105D02*
X0220350Y0014105D01*
X0220350Y0013106D02*
X0222150Y0013106D01*
X0222150Y0012108D02*
X0220350Y0012108D01*
X0220350Y0011109D02*
X0222150Y0011109D01*
X0222150Y0011051D02*
X0222774Y0009544D01*
X0223928Y0008391D01*
X0225434Y0007767D01*
X0227066Y0007767D01*
X0228572Y0008391D01*
X0229726Y0009544D01*
X0230350Y0011051D01*
X0230350Y0018682D01*
X0229726Y0020189D01*
X0228572Y0021342D01*
X0227066Y0021967D01*
X0225434Y0021967D01*
X0223928Y0021342D01*
X0222774Y0020189D01*
X0222150Y0018682D01*
X0222150Y0011051D01*
X0222540Y0010111D02*
X0219960Y0010111D01*
X0219294Y0009112D02*
X0223206Y0009112D01*
X0224597Y0008114D02*
X0217903Y0008114D01*
X0214597Y0008114D02*
X0207903Y0008114D01*
X0208572Y0008391D02*
X0209726Y0009544D01*
X0210350Y0011051D01*
X0210350Y0018682D01*
X0209726Y0020189D01*
X0208572Y0021342D01*
X0207066Y0021967D01*
X0205434Y0021967D01*
X0203928Y0021342D01*
X0202774Y0020189D01*
X0202150Y0018682D01*
X0202150Y0011051D01*
X0202774Y0009544D01*
X0203928Y0008391D01*
X0205434Y0007767D01*
X0207066Y0007767D01*
X0208572Y0008391D01*
X0209294Y0009112D02*
X0213206Y0009112D01*
X0212540Y0010111D02*
X0209960Y0010111D01*
X0210350Y0011109D02*
X0212150Y0011109D01*
X0212150Y0012108D02*
X0210350Y0012108D01*
X0210350Y0013106D02*
X0212150Y0013106D01*
X0212150Y0014105D02*
X0210350Y0014105D01*
X0210350Y0015103D02*
X0212150Y0015103D01*
X0212150Y0016102D02*
X0210350Y0016102D01*
X0210350Y0017100D02*
X0212150Y0017100D01*
X0212150Y0018099D02*
X0210350Y0018099D01*
X0210178Y0019097D02*
X0212322Y0019097D01*
X0212736Y0020096D02*
X0209764Y0020096D01*
X0208821Y0021094D02*
X0213679Y0021094D01*
X0214261Y0022093D02*
X0197805Y0022093D01*
X0197977Y0022037D02*
X0197304Y0022256D01*
X0196750Y0022344D01*
X0196750Y0015367D01*
X0200750Y0015367D01*
X0200750Y0018221D01*
X0200639Y0018920D01*
X0200420Y0019594D01*
X0200099Y0020225D01*
X0199682Y0020798D01*
X0199182Y0021299D01*
X0198609Y0021715D01*
X0197977Y0022037D01*
X0196750Y0022093D02*
X0195750Y0022093D01*
X0195750Y0021094D02*
X0196750Y0021094D01*
X0196750Y0020096D02*
X0195750Y0020096D01*
X0195750Y0019097D02*
X0196750Y0019097D01*
X0196750Y0018099D02*
X0195750Y0018099D01*
X0195750Y0017100D02*
X0196750Y0017100D01*
X0196750Y0016102D02*
X0195750Y0016102D01*
X0195750Y0015103D02*
X0190350Y0015103D01*
X0190350Y0014105D02*
X0191750Y0014105D01*
X0191750Y0013106D02*
X0190350Y0013106D01*
X0190350Y0012108D02*
X0191750Y0012108D01*
X0191814Y0011109D02*
X0190350Y0011109D01*
X0189960Y0010111D02*
X0192094Y0010111D01*
X0192689Y0009112D02*
X0189294Y0009112D01*
X0187903Y0008114D02*
X0193760Y0008114D01*
X0198740Y0008114D02*
X0204597Y0008114D01*
X0203206Y0009112D02*
X0199811Y0009112D01*
X0200406Y0010111D02*
X0202540Y0010111D01*
X0202150Y0011109D02*
X0200686Y0011109D01*
X0200750Y0012108D02*
X0202150Y0012108D01*
X0202150Y0013106D02*
X0200750Y0013106D01*
X0200750Y0014105D02*
X0202150Y0014105D01*
X0202150Y0015103D02*
X0196750Y0015103D01*
X0200750Y0016102D02*
X0202150Y0016102D01*
X0202150Y0017100D02*
X0200750Y0017100D01*
X0200750Y0018099D02*
X0202150Y0018099D01*
X0202322Y0019097D02*
X0200582Y0019097D01*
X0200165Y0020096D02*
X0202736Y0020096D01*
X0203679Y0021094D02*
X0199386Y0021094D01*
X0194695Y0022093D02*
X0192415Y0022093D01*
X0192616Y0021094D02*
X0193114Y0021094D01*
X0192001Y0023091D02*
X0213263Y0023091D01*
X0212264Y0024090D02*
X0191091Y0024090D01*
X0185248Y0024090D02*
X0177311Y0024090D01*
X0178222Y0023091D02*
X0184338Y0023091D01*
X0183924Y0022093D02*
X0178635Y0022093D01*
X0178836Y0021094D02*
X0183679Y0021094D01*
X0182736Y0020096D02*
X0179764Y0020096D01*
X0180178Y0019097D02*
X0182322Y0019097D01*
X0182150Y0018099D02*
X0180350Y0018099D01*
X0180350Y0017100D02*
X0182150Y0017100D01*
X0182150Y0016102D02*
X0180350Y0016102D01*
X0180350Y0015103D02*
X0182150Y0015103D01*
X0182150Y0014105D02*
X0180350Y0014105D01*
X0180350Y0013106D02*
X0182150Y0013106D01*
X0182150Y0012108D02*
X0180350Y0012108D01*
X0180350Y0011109D02*
X0182150Y0011109D01*
X0182540Y0010111D02*
X0179960Y0010111D01*
X0179294Y0009112D02*
X0183206Y0009112D01*
X0184597Y0008114D02*
X0177903Y0008114D01*
X0174597Y0008114D02*
X0160403Y0008114D01*
X0161794Y0009112D02*
X0173206Y0009112D01*
X0172540Y0010111D02*
X0162460Y0010111D01*
X0162850Y0011109D02*
X0172150Y0011109D01*
X0172150Y0012108D02*
X0162850Y0012108D01*
X0162850Y0013106D02*
X0172150Y0013106D01*
X0172150Y0014105D02*
X0162850Y0014105D01*
X0162850Y0015103D02*
X0172150Y0015103D01*
X0172150Y0016102D02*
X0162850Y0016102D01*
X0163276Y0017100D02*
X0171724Y0017100D01*
X0170726Y0018099D02*
X0164274Y0018099D01*
X0164750Y0019097D02*
X0170250Y0019097D01*
X0169943Y0020096D02*
X0165057Y0020096D01*
X0165057Y0021094D02*
X0169943Y0021094D01*
X0170144Y0022093D02*
X0164856Y0022093D01*
X0164442Y0023091D02*
X0170558Y0023091D01*
X0171468Y0024090D02*
X0163532Y0024090D01*
X0157689Y0024090D02*
X0149752Y0024090D01*
X0150662Y0023091D02*
X0156778Y0023091D01*
X0156365Y0022093D02*
X0151076Y0022093D01*
X0151321Y0021094D02*
X0156164Y0021094D01*
X0155236Y0020096D02*
X0152264Y0020096D01*
X0152678Y0019097D02*
X0154822Y0019097D01*
X0154650Y0018099D02*
X0152850Y0018099D01*
X0152850Y0017100D02*
X0154650Y0017100D01*
X0154650Y0016102D02*
X0152850Y0016102D01*
X0152850Y0015103D02*
X0154650Y0015103D01*
X0154650Y0014105D02*
X0152850Y0014105D01*
X0152850Y0013106D02*
X0154650Y0013106D01*
X0154650Y0012108D02*
X0152850Y0012108D01*
X0152850Y0011109D02*
X0154650Y0011109D01*
X0155040Y0010111D02*
X0152460Y0010111D01*
X0151794Y0009112D02*
X0155706Y0009112D01*
X0157097Y0008114D02*
X0150403Y0008114D01*
X0144650Y0016102D02*
X0143250Y0016102D01*
X0143250Y0017100D02*
X0144165Y0017100D01*
X0142384Y0021094D02*
X0141886Y0021094D01*
X0143909Y0024090D02*
X0111213Y0024090D01*
X0116428Y0021342D02*
X0117934Y0021967D01*
X0119566Y0021967D01*
X0121072Y0021342D01*
X0122226Y0020189D01*
X0122850Y0018682D01*
X0122850Y0011051D01*
X0122226Y0009544D01*
X0121072Y0008391D01*
X0119566Y0007767D01*
X0117934Y0007767D01*
X0116428Y0008391D01*
X0115274Y0009544D01*
X0114650Y0011051D01*
X0114650Y0018682D01*
X0115274Y0020189D01*
X0116428Y0021342D01*
X0116179Y0021094D02*
X0111321Y0021094D01*
X0112264Y0020096D02*
X0115236Y0020096D01*
X0114822Y0019097D02*
X0112678Y0019097D01*
X0112850Y0018099D02*
X0114650Y0018099D01*
X0114650Y0017100D02*
X0112850Y0017100D01*
X0112850Y0016102D02*
X0114650Y0016102D01*
X0114650Y0015103D02*
X0112850Y0015103D01*
X0112850Y0014105D02*
X0114650Y0014105D01*
X0114650Y0013106D02*
X0112850Y0013106D01*
X0112850Y0012108D02*
X0114650Y0012108D01*
X0114650Y0011109D02*
X0112850Y0011109D01*
X0112460Y0010111D02*
X0115040Y0010111D01*
X0115706Y0009112D02*
X0111794Y0009112D01*
X0110403Y0008114D02*
X0117097Y0008114D01*
X0120403Y0008114D02*
X0127097Y0008114D01*
X0125706Y0009112D02*
X0121794Y0009112D01*
X0122460Y0010111D02*
X0125040Y0010111D01*
X0124650Y0011109D02*
X0122850Y0011109D01*
X0122850Y0012108D02*
X0124650Y0012108D01*
X0124650Y0013106D02*
X0122850Y0013106D01*
X0122850Y0014105D02*
X0124650Y0014105D01*
X0124650Y0015103D02*
X0122850Y0015103D01*
X0122850Y0016102D02*
X0124650Y0016102D01*
X0124650Y0017100D02*
X0122850Y0017100D01*
X0122850Y0018099D02*
X0124650Y0018099D01*
X0124822Y0019097D02*
X0122678Y0019097D01*
X0122264Y0020096D02*
X0125236Y0020096D01*
X0126179Y0021094D02*
X0121321Y0021094D01*
X0147516Y0033076D02*
X0006500Y0033076D01*
X0006500Y0032078D02*
X0014127Y0032078D01*
X0011851Y0031079D02*
X0006500Y0031079D01*
X0006500Y0030081D02*
X0010612Y0030081D01*
X0009528Y0029082D02*
X0006500Y0029082D01*
X0006500Y0028084D02*
X0008443Y0028084D01*
X0007861Y0027085D02*
X0006500Y0027085D01*
X0006500Y0026087D02*
X0007320Y0026087D01*
X0006780Y0025088D02*
X0006500Y0025088D01*
X0006500Y0034075D02*
X0148515Y0034075D01*
X0149513Y0035073D02*
X0006500Y0035073D01*
X0006500Y0036072D02*
X0150747Y0036072D01*
X0153003Y0036072D02*
X0213943Y0036072D01*
X0214941Y0037071D02*
X0006500Y0037071D01*
X0006500Y0038069D02*
X0215940Y0038069D01*
X0216938Y0039068D02*
X0006500Y0039068D01*
X0006500Y0040066D02*
X0217709Y0040066D01*
X0217959Y0041065D02*
X0099437Y0041065D01*
X0099074Y0040701D02*
X0100416Y0042043D01*
X0100416Y0043940D01*
X0099725Y0044631D01*
X0099725Y0049904D01*
X0096041Y0053589D01*
X0096041Y0054565D01*
X0094699Y0055907D01*
X0092801Y0055907D01*
X0091459Y0054565D01*
X0091459Y0053795D01*
X0089791Y0055464D01*
X0089791Y0056440D01*
X0088449Y0057782D01*
X0086551Y0057782D01*
X0085209Y0056440D01*
X0085209Y0054543D01*
X0086551Y0053201D01*
X0087528Y0053201D01*
X0089197Y0051532D01*
X0088426Y0051532D01*
X0087084Y0050190D01*
X0087084Y0048293D01*
X0087775Y0047602D01*
X0087775Y0044631D01*
X0087084Y0043940D01*
X0087084Y0042043D01*
X0088426Y0040701D01*
X0090324Y0040701D01*
X0091562Y0041940D01*
X0092801Y0040701D01*
X0094699Y0040701D01*
X0095937Y0041940D01*
X0097176Y0040701D01*
X0099074Y0040701D01*
X0100416Y0042063D02*
X0218957Y0042063D01*
X0221043Y0042063D02*
X0259406Y0042063D01*
X0259406Y0041065D02*
X0222041Y0041065D01*
X0222291Y0040066D02*
X0259406Y0040066D01*
X0259406Y0039068D02*
X0222291Y0039068D01*
X0221442Y0038069D02*
X0259406Y0038069D01*
X0259406Y0037071D02*
X0219467Y0037071D01*
X0218468Y0036072D02*
X0259406Y0036072D01*
X0259406Y0035073D02*
X0217470Y0035073D01*
X0216471Y0034075D02*
X0259406Y0034075D01*
X0259406Y0033076D02*
X0215473Y0033076D01*
X0214474Y0032078D02*
X0242473Y0032078D01*
X0240197Y0031079D02*
X0153156Y0031079D01*
X0152158Y0030081D02*
X0238959Y0030081D01*
X0237874Y0029082D02*
X0151159Y0029082D01*
X0150161Y0028084D02*
X0236789Y0028084D01*
X0236207Y0027085D02*
X0213794Y0027085D01*
X0214792Y0026087D02*
X0235667Y0026087D01*
X0235126Y0025088D02*
X0215791Y0025088D01*
X0216790Y0024090D02*
X0234621Y0024090D01*
X0234454Y0023091D02*
X0217788Y0023091D01*
X0217850Y0022093D02*
X0234288Y0022093D01*
X0234121Y0021094D02*
X0228821Y0021094D01*
X0229764Y0020096D02*
X0233955Y0020096D01*
X0234055Y0019097D02*
X0230178Y0019097D01*
X0230350Y0018099D02*
X0234221Y0018099D01*
X0234388Y0017100D02*
X0230350Y0017100D01*
X0230350Y0016102D02*
X0234554Y0016102D01*
X0234910Y0015103D02*
X0230350Y0015103D01*
X0230350Y0014105D02*
X0235451Y0014105D01*
X0235991Y0013106D02*
X0230350Y0013106D01*
X0230350Y0012108D02*
X0236531Y0012108D01*
X0237440Y0011109D02*
X0230350Y0011109D01*
X0229960Y0010111D02*
X0238525Y0010111D01*
X0239610Y0009112D02*
X0229294Y0009112D01*
X0227903Y0008114D02*
X0241563Y0008114D01*
X0255484Y0006117D02*
X0261250Y0006117D01*
X0261250Y0012263D01*
X0261103Y0011809D01*
X0261103Y0011809D01*
X0258624Y0008398D01*
X0258624Y0008398D01*
X0255484Y0006117D01*
X0261250Y0006117D01*
X0261250Y0007115D02*
X0256858Y0007115D01*
X0258233Y0008114D02*
X0261250Y0008114D01*
X0261250Y0009112D02*
X0259143Y0009112D01*
X0258624Y0008398D02*
X0258624Y0008398D01*
X0259868Y0010111D02*
X0261250Y0010111D01*
X0261250Y0011109D02*
X0260594Y0011109D01*
X0261199Y0012108D02*
X0261250Y0012108D01*
X0259406Y0025088D02*
X0259114Y0025088D01*
X0259406Y0026087D02*
X0258771Y0026087D01*
X0259406Y0027085D02*
X0258035Y0027085D01*
X0257258Y0028084D02*
X0259406Y0028084D01*
X0259406Y0029082D02*
X0256481Y0029082D01*
X0255350Y0030081D02*
X0259406Y0030081D01*
X0259406Y0031079D02*
X0253822Y0031079D01*
X0252078Y0032078D02*
X0259406Y0032078D01*
X0259406Y0043062D02*
X0100416Y0043062D01*
X0100296Y0044060D02*
X0108817Y0044060D01*
X0109051Y0043826D02*
X0110949Y0043826D01*
X0111639Y0044517D01*
X0123163Y0044517D01*
X0124100Y0045454D01*
X0129100Y0050454D01*
X0129100Y0057329D01*
X0130209Y0058438D01*
X0130209Y0057668D01*
X0131551Y0056326D01*
X0133449Y0056326D01*
X0134139Y0057017D01*
X0168788Y0057017D01*
X0169347Y0057576D01*
X0170324Y0057576D01*
X0171666Y0058918D01*
X0171666Y0060815D01*
X0170324Y0062157D01*
X0168426Y0062157D01*
X0167084Y0060815D01*
X0167084Y0060217D01*
X0160464Y0060217D01*
X0161041Y0060793D01*
X0161041Y0062690D01*
X0159699Y0064032D01*
X0157801Y0064032D01*
X0157111Y0063342D01*
X0139139Y0063342D01*
X0138449Y0064032D01*
X0136666Y0064032D01*
X0136666Y0064894D01*
X0137538Y0065767D01*
X0204611Y0065767D01*
X0205301Y0065076D01*
X0207199Y0065076D01*
X0208400Y0066277D01*
X0208400Y0056506D01*
X0207709Y0055815D01*
X0207709Y0053918D01*
X0209051Y0052576D01*
X0210949Y0052576D01*
X0212291Y0053918D01*
X0212291Y0055815D01*
X0211600Y0056506D01*
X0211600Y0069904D01*
X0210663Y0070842D01*
X0208788Y0072717D01*
X0135587Y0072717D01*
X0134650Y0071779D01*
X0130028Y0067157D01*
X0129051Y0067157D01*
X0127709Y0065815D01*
X0127709Y0063918D01*
X0129051Y0062576D01*
X0129822Y0062576D01*
X0126837Y0059592D01*
X0125900Y0058654D01*
X0125900Y0051779D01*
X0121837Y0047717D01*
X0111639Y0047717D01*
X0110949Y0048407D01*
X0109051Y0048407D01*
X0107709Y0047065D01*
X0107709Y0045168D01*
X0109051Y0043826D01*
X0107819Y0045059D02*
X0099725Y0045059D01*
X0099725Y0046057D02*
X0107709Y0046057D01*
X0107709Y0047056D02*
X0099725Y0047056D01*
X0099725Y0048054D02*
X0108698Y0048054D01*
X0111302Y0048054D02*
X0122175Y0048054D01*
X0123173Y0049053D02*
X0099725Y0049053D01*
X0099578Y0050051D02*
X0124172Y0050051D01*
X0125170Y0051050D02*
X0098580Y0051050D01*
X0097581Y0052048D02*
X0125900Y0052048D01*
X0125900Y0053047D02*
X0096583Y0053047D01*
X0096041Y0054045D02*
X0125900Y0054045D01*
X0125900Y0055044D02*
X0095562Y0055044D01*
X0093750Y0053617D02*
X0098125Y0049242D01*
X0098125Y0042992D01*
X0096525Y0044631D02*
X0095937Y0044043D01*
X0095350Y0044631D01*
X0095350Y0049754D01*
X0096525Y0048579D01*
X0096525Y0044631D01*
X0096525Y0045059D02*
X0095350Y0045059D01*
X0095350Y0046057D02*
X0096525Y0046057D01*
X0096525Y0047056D02*
X0095350Y0047056D01*
X0095350Y0048054D02*
X0096525Y0048054D01*
X0096051Y0049053D02*
X0095350Y0049053D01*
X0093750Y0049242D02*
X0087500Y0055492D01*
X0085707Y0054045D02*
X0074100Y0054045D01*
X0074100Y0053047D02*
X0087682Y0053047D01*
X0088681Y0052048D02*
X0074100Y0052048D01*
X0074100Y0051050D02*
X0087944Y0051050D01*
X0087084Y0050051D02*
X0074100Y0050051D01*
X0074193Y0049053D02*
X0087084Y0049053D01*
X0087323Y0048054D02*
X0074889Y0048054D01*
X0074889Y0047056D02*
X0087775Y0047056D01*
X0087775Y0046057D02*
X0074569Y0046057D01*
X0073570Y0045059D02*
X0087775Y0045059D01*
X0087204Y0044060D02*
X0006500Y0044060D01*
X0006500Y0043062D02*
X0087084Y0043062D01*
X0087084Y0042063D02*
X0006500Y0042063D01*
X0006500Y0041065D02*
X0088063Y0041065D01*
X0090687Y0041065D02*
X0092438Y0041065D01*
X0095062Y0041065D02*
X0096813Y0041065D01*
X0095954Y0044060D02*
X0095921Y0044060D01*
X0093750Y0042992D02*
X0093750Y0049242D01*
X0092150Y0048579D02*
X0091666Y0049063D01*
X0091666Y0048293D01*
X0090975Y0047602D01*
X0090975Y0044631D01*
X0091562Y0044043D01*
X0092150Y0044631D01*
X0092150Y0048579D01*
X0092150Y0048054D02*
X0091427Y0048054D01*
X0091666Y0049053D02*
X0091676Y0049053D01*
X0092150Y0047056D02*
X0090975Y0047056D01*
X0090975Y0046057D02*
X0092150Y0046057D01*
X0092150Y0045059D02*
X0090975Y0045059D01*
X0091546Y0044060D02*
X0091579Y0044060D01*
X0089375Y0042992D02*
X0089375Y0049242D01*
X0091209Y0054045D02*
X0091459Y0054045D01*
X0091938Y0055044D02*
X0090211Y0055044D01*
X0089791Y0056042D02*
X0125900Y0056042D01*
X0125900Y0057041D02*
X0089190Y0057041D01*
X0085810Y0057041D02*
X0074100Y0057041D01*
X0074100Y0058039D02*
X0125900Y0058039D01*
X0126283Y0059038D02*
X0074100Y0059038D01*
X0074100Y0060036D02*
X0127282Y0060036D01*
X0128280Y0061035D02*
X0074100Y0061035D01*
X0074429Y0062033D02*
X0096492Y0062033D01*
X0096711Y0061815D02*
X0095698Y0062827D01*
X0095150Y0064151D01*
X0095150Y0065583D01*
X0095698Y0066906D01*
X0096711Y0067919D01*
X0098034Y0068467D01*
X0099466Y0068467D01*
X0100789Y0067919D01*
X0101802Y0066906D01*
X0102350Y0065583D01*
X0102350Y0064151D01*
X0101802Y0062827D01*
X0100789Y0061815D01*
X0099466Y0061267D01*
X0098034Y0061267D01*
X0096711Y0061815D01*
X0095613Y0063032D02*
X0075428Y0063032D01*
X0076426Y0064030D02*
X0095200Y0064030D01*
X0095150Y0065029D02*
X0077425Y0065029D01*
X0078423Y0066027D02*
X0095334Y0066027D01*
X0095818Y0067026D02*
X0079422Y0067026D01*
X0080420Y0068024D02*
X0096966Y0068024D01*
X0100534Y0068024D02*
X0106771Y0068024D01*
X0106668Y0067982D02*
X0105635Y0066948D01*
X0105075Y0065598D01*
X0105075Y0064136D01*
X0105635Y0062785D01*
X0106668Y0061751D01*
X0108019Y0061192D01*
X0109481Y0061192D01*
X0110832Y0061751D01*
X0111865Y0062785D01*
X0112425Y0064136D01*
X0112425Y0065598D01*
X0111865Y0066948D01*
X0110832Y0067982D01*
X0109481Y0068541D01*
X0108019Y0068541D01*
X0106668Y0067982D01*
X0105712Y0067026D02*
X0101682Y0067026D01*
X0102166Y0066027D02*
X0105253Y0066027D01*
X0105075Y0065029D02*
X0102350Y0065029D01*
X0102300Y0064030D02*
X0105119Y0064030D01*
X0105532Y0063032D02*
X0101887Y0063032D01*
X0101008Y0062033D02*
X0106386Y0062033D01*
X0111114Y0062033D02*
X0116492Y0062033D01*
X0115613Y0063032D02*
X0111968Y0063032D01*
X0112381Y0064030D02*
X0115200Y0064030D01*
X0115150Y0065029D02*
X0112425Y0065029D01*
X0112247Y0066027D02*
X0115334Y0066027D01*
X0115818Y0067026D02*
X0111788Y0067026D01*
X0110729Y0068024D02*
X0116966Y0068024D01*
X0120643Y0069023D02*
X0081419Y0069023D01*
X0082417Y0070021D02*
X0121642Y0070021D01*
X0122150Y0071020D02*
X0099914Y0071020D01*
X0099917Y0071020D02*
X0100645Y0071322D01*
X0101300Y0071760D01*
X0101857Y0072317D01*
X0102295Y0072972D01*
X0102596Y0073700D01*
X0102729Y0074367D01*
X0099250Y0074367D01*
X0099250Y0075367D01*
X0098250Y0075367D01*
X0098250Y0078846D01*
X0097583Y0078713D01*
X0096855Y0078411D01*
X0096200Y0077974D01*
X0095643Y0077416D01*
X0095205Y0076761D01*
X0094904Y0076033D01*
X0094771Y0075367D01*
X0098250Y0075367D01*
X0098250Y0074367D01*
X0094771Y0074367D01*
X0094904Y0073700D01*
X0095205Y0072972D01*
X0095643Y0072317D01*
X0096200Y0071760D01*
X0096855Y0071322D01*
X0097583Y0071020D01*
X0098250Y0070888D01*
X0098250Y0074367D01*
X0099250Y0074367D01*
X0099250Y0070888D01*
X0099917Y0071020D01*
X0099250Y0071020D02*
X0098250Y0071020D01*
X0097586Y0071020D02*
X0083416Y0071020D01*
X0084414Y0072018D02*
X0095941Y0072018D01*
X0095187Y0073017D02*
X0085413Y0073017D01*
X0086412Y0074015D02*
X0094841Y0074015D01*
X0098250Y0074015D02*
X0099250Y0074015D01*
X0099250Y0073017D02*
X0098250Y0073017D01*
X0098250Y0072018D02*
X0099250Y0072018D01*
X0101559Y0072018D02*
X0106401Y0072018D01*
X0106668Y0071751D02*
X0108019Y0071192D01*
X0109481Y0071192D01*
X0110832Y0071751D01*
X0111865Y0072785D01*
X0112425Y0074136D01*
X0112425Y0075598D01*
X0111865Y0076948D01*
X0110832Y0077982D01*
X0109481Y0078541D01*
X0108019Y0078541D01*
X0106668Y0077982D01*
X0105635Y0076948D01*
X0105075Y0075598D01*
X0105075Y0074136D01*
X0105635Y0072785D01*
X0106668Y0071751D01*
X0105539Y0073017D02*
X0102313Y0073017D01*
X0102659Y0074015D02*
X0105125Y0074015D01*
X0105075Y0075014D02*
X0099250Y0075014D01*
X0099250Y0075367D02*
X0102729Y0075367D01*
X0102596Y0076033D01*
X0102295Y0076761D01*
X0101857Y0077416D01*
X0101300Y0077974D01*
X0100645Y0078411D01*
X0099917Y0078713D01*
X0099250Y0078846D01*
X0099250Y0075367D01*
X0099250Y0076012D02*
X0098250Y0076012D01*
X0098250Y0075014D02*
X0087410Y0075014D01*
X0089385Y0076012D02*
X0094900Y0076012D01*
X0095372Y0077011D02*
X0089917Y0077011D01*
X0089917Y0078009D02*
X0096254Y0078009D01*
X0098250Y0078009D02*
X0099250Y0078009D01*
X0099250Y0077011D02*
X0098250Y0077011D01*
X0101246Y0078009D02*
X0106735Y0078009D01*
X0105697Y0077011D02*
X0102128Y0077011D01*
X0102600Y0076012D02*
X0105247Y0076012D01*
X0110765Y0078009D02*
X0116930Y0078009D01*
X0115803Y0077011D02*
X0111803Y0077011D01*
X0112253Y0076012D02*
X0115328Y0076012D01*
X0115150Y0075014D02*
X0112425Y0075014D01*
X0112375Y0074015D02*
X0115206Y0074015D01*
X0115620Y0073017D02*
X0111961Y0073017D01*
X0111099Y0072018D02*
X0116507Y0072018D01*
X0120993Y0072018D02*
X0122150Y0072018D01*
X0122150Y0073017D02*
X0121880Y0073017D01*
X0123750Y0073617D02*
X0123750Y0069867D01*
X0118750Y0064867D01*
X0122350Y0065029D02*
X0127709Y0065029D01*
X0127709Y0064030D02*
X0122300Y0064030D01*
X0121887Y0063032D02*
X0128596Y0063032D01*
X0129279Y0062033D02*
X0121008Y0062033D01*
X0122173Y0066027D02*
X0127921Y0066027D01*
X0128920Y0067026D02*
X0123172Y0067026D01*
X0124170Y0068024D02*
X0130895Y0068024D01*
X0131893Y0069023D02*
X0125169Y0069023D01*
X0125350Y0070021D02*
X0132892Y0070021D01*
X0133891Y0071020D02*
X0125350Y0071020D01*
X0125350Y0072018D02*
X0134889Y0072018D01*
X0136250Y0071117D02*
X0208125Y0071117D01*
X0210000Y0069242D01*
X0210000Y0054867D01*
X0212291Y0055044D02*
X0259406Y0055044D01*
X0259406Y0056042D02*
X0212064Y0056042D01*
X0211600Y0057041D02*
X0259406Y0057041D01*
X0259406Y0058039D02*
X0211600Y0058039D01*
X0211600Y0059038D02*
X0259406Y0059038D01*
X0259406Y0060036D02*
X0211600Y0060036D01*
X0211600Y0061035D02*
X0259406Y0061035D01*
X0259406Y0062033D02*
X0211600Y0062033D01*
X0211600Y0063032D02*
X0259406Y0063032D01*
X0259406Y0064030D02*
X0211600Y0064030D01*
X0211600Y0065029D02*
X0259406Y0065029D01*
X0259406Y0066027D02*
X0211600Y0066027D01*
X0211600Y0067026D02*
X0259406Y0067026D01*
X0259406Y0068024D02*
X0211600Y0068024D01*
X0211600Y0069023D02*
X0259406Y0069023D01*
X0259406Y0070021D02*
X0211483Y0070021D01*
X0210484Y0071020D02*
X0259406Y0071020D01*
X0259406Y0072018D02*
X0209486Y0072018D01*
X0207462Y0069517D02*
X0208400Y0068579D01*
X0208400Y0068456D01*
X0207339Y0069517D01*
X0207462Y0069517D01*
X0207833Y0069023D02*
X0207956Y0069023D01*
X0206250Y0067367D02*
X0136875Y0067367D01*
X0134375Y0064867D01*
X0127500Y0057992D01*
X0127500Y0051117D01*
X0122500Y0046117D01*
X0110000Y0046117D01*
X0111183Y0044060D02*
X0259406Y0044060D01*
X0259406Y0045059D02*
X0123705Y0045059D01*
X0124703Y0046057D02*
X0259406Y0046057D01*
X0259406Y0047056D02*
X0125702Y0047056D01*
X0126700Y0048054D02*
X0259406Y0048054D01*
X0259406Y0049053D02*
X0127699Y0049053D01*
X0128697Y0050051D02*
X0259406Y0050051D01*
X0259406Y0051050D02*
X0129100Y0051050D01*
X0129100Y0052048D02*
X0259406Y0052048D01*
X0259406Y0053047D02*
X0211419Y0053047D01*
X0212291Y0054045D02*
X0259406Y0054045D01*
X0259406Y0073017D02*
X0125413Y0073017D01*
X0126412Y0074015D02*
X0188098Y0074015D01*
X0187611Y0075014D02*
X0127410Y0075014D01*
X0128409Y0076012D02*
X0187216Y0076012D01*
X0186218Y0077011D02*
X0181148Y0077011D01*
X0182146Y0078009D02*
X0185219Y0078009D01*
X0184221Y0079008D02*
X0182389Y0079008D01*
X0182389Y0080006D02*
X0183222Y0080006D01*
X0182224Y0081005D02*
X0181615Y0081005D01*
X0181225Y0082004D02*
X0179501Y0082004D01*
X0180227Y0083002D02*
X0178502Y0083002D01*
X0179228Y0084001D02*
X0177504Y0084001D01*
X0178230Y0084999D02*
X0176505Y0084999D01*
X0177231Y0085998D02*
X0175507Y0085998D01*
X0176233Y0086996D02*
X0174508Y0086996D01*
X0175234Y0087995D02*
X0095111Y0087995D01*
X0093750Y0086117D02*
X0173125Y0086117D01*
X0180000Y0079242D01*
X0177611Y0079008D02*
X0139881Y0079008D01*
X0140879Y0080006D02*
X0176972Y0080006D01*
X0175974Y0081005D02*
X0141041Y0081005D01*
X0141041Y0082004D02*
X0174975Y0082004D01*
X0173977Y0083002D02*
X0140104Y0083002D01*
X0138750Y0081117D02*
X0137500Y0082367D01*
X0113750Y0082367D01*
X0115355Y0084001D02*
X0172978Y0084001D01*
X0179760Y0087995D02*
X0205209Y0087995D01*
X0205256Y0086996D02*
X0180758Y0086996D01*
X0181757Y0085998D02*
X0206255Y0085998D01*
X0207500Y0087992D02*
X0196875Y0098617D01*
X0102500Y0098617D01*
X0100209Y0098978D02*
X0033521Y0098978D01*
X0034519Y0099977D02*
X0100621Y0099977D01*
X0099533Y0101032D02*
X0101935Y0103434D01*
X0101935Y0106831D01*
X0099533Y0109232D01*
X0096136Y0109232D01*
X0093735Y0106831D01*
X0093735Y0103434D01*
X0096136Y0101032D01*
X0099533Y0101032D01*
X0100474Y0101974D02*
X0105195Y0101974D01*
X0106136Y0101032D02*
X0103735Y0103434D01*
X0103735Y0106831D01*
X0106136Y0109232D01*
X0109533Y0109232D01*
X0111935Y0106831D01*
X0111935Y0103434D01*
X0109533Y0101032D01*
X0106136Y0101032D01*
X0104197Y0102972D02*
X0101473Y0102972D01*
X0101935Y0103971D02*
X0103735Y0103971D01*
X0103735Y0104969D02*
X0101935Y0104969D01*
X0101935Y0105968D02*
X0103735Y0105968D01*
X0103870Y0106966D02*
X0101799Y0106966D01*
X0100800Y0107965D02*
X0104869Y0107965D01*
X0105867Y0108963D02*
X0099802Y0108963D01*
X0099699Y0110632D02*
X0102335Y0113268D01*
X0102335Y0114632D01*
X0098335Y0114632D01*
X0098335Y0115632D01*
X0102335Y0115632D01*
X0102335Y0116996D01*
X0099699Y0119632D01*
X0098335Y0119632D01*
X0098335Y0115632D01*
X0097335Y0115632D01*
X0097335Y0114632D01*
X0098335Y0114632D01*
X0098335Y0110632D01*
X0099699Y0110632D01*
X0100027Y0110960D02*
X0125643Y0110960D01*
X0125971Y0110632D02*
X0127335Y0110632D01*
X0127335Y0114632D01*
X0128335Y0114632D01*
X0128335Y0115632D01*
X0132335Y0115632D01*
X0132335Y0116996D01*
X0129699Y0119632D01*
X0128335Y0119632D01*
X0128335Y0115632D01*
X0127335Y0115632D01*
X0127335Y0114632D01*
X0123335Y0114632D01*
X0123335Y0113268D01*
X0125971Y0110632D01*
X0127335Y0110960D02*
X0128335Y0110960D01*
X0128335Y0110632D02*
X0129699Y0110632D01*
X0132335Y0113268D01*
X0132335Y0114632D01*
X0128335Y0114632D01*
X0128335Y0110632D01*
X0128335Y0111959D02*
X0127335Y0111959D01*
X0127335Y0112957D02*
X0128335Y0112957D01*
X0128335Y0113956D02*
X0127335Y0113956D01*
X0127335Y0114954D02*
X0121935Y0114954D01*
X0121935Y0113956D02*
X0123335Y0113956D01*
X0123646Y0112957D02*
X0121458Y0112957D01*
X0121935Y0113434D02*
X0119533Y0111032D01*
X0116136Y0111032D01*
X0113735Y0113434D01*
X0113735Y0116831D01*
X0116136Y0119232D01*
X0119533Y0119232D01*
X0121935Y0116831D01*
X0121935Y0113434D01*
X0120459Y0111959D02*
X0124644Y0111959D01*
X0126136Y0109232D02*
X0123735Y0106831D01*
X0123735Y0103434D01*
X0126136Y0101032D01*
X0129533Y0101032D01*
X0131935Y0103434D01*
X0131935Y0106831D01*
X0129533Y0109232D01*
X0126136Y0109232D01*
X0125867Y0108963D02*
X0119802Y0108963D01*
X0119533Y0109232D02*
X0116136Y0109232D01*
X0113735Y0106831D01*
X0113735Y0103434D01*
X0116136Y0101032D01*
X0119533Y0101032D01*
X0121935Y0103434D01*
X0121935Y0106831D01*
X0119533Y0109232D01*
X0120800Y0107965D02*
X0124869Y0107965D01*
X0123870Y0106966D02*
X0121799Y0106966D01*
X0121935Y0105968D02*
X0123735Y0105968D01*
X0123735Y0104969D02*
X0121935Y0104969D01*
X0121935Y0103971D02*
X0123735Y0103971D01*
X0124197Y0102972D02*
X0121473Y0102972D01*
X0120474Y0101974D02*
X0125195Y0101974D01*
X0130474Y0101974D02*
X0135195Y0101974D01*
X0136136Y0101032D02*
X0133735Y0103434D01*
X0133735Y0106831D01*
X0136136Y0109232D01*
X0139533Y0109232D01*
X0141935Y0106831D01*
X0141935Y0103434D01*
X0139533Y0101032D01*
X0136136Y0101032D01*
X0134197Y0102972D02*
X0131473Y0102972D01*
X0131935Y0103971D02*
X0133735Y0103971D01*
X0133735Y0104969D02*
X0131935Y0104969D01*
X0131935Y0105968D02*
X0133735Y0105968D01*
X0133870Y0106966D02*
X0131799Y0106966D01*
X0130800Y0107965D02*
X0134869Y0107965D01*
X0135867Y0108963D02*
X0129802Y0108963D01*
X0130027Y0110960D02*
X0175643Y0110960D01*
X0175971Y0110632D02*
X0177335Y0110632D01*
X0177335Y0114632D01*
X0178335Y0114632D01*
X0178335Y0115632D01*
X0182335Y0115632D01*
X0182335Y0116996D01*
X0179699Y0119632D01*
X0178335Y0119632D01*
X0178335Y0115632D01*
X0177335Y0115632D01*
X0177335Y0114632D01*
X0173335Y0114632D01*
X0173335Y0113268D01*
X0175971Y0110632D01*
X0177335Y0110960D02*
X0178335Y0110960D01*
X0178335Y0110632D02*
X0179699Y0110632D01*
X0182335Y0113268D01*
X0182335Y0114632D01*
X0178335Y0114632D01*
X0178335Y0110632D01*
X0178335Y0111959D02*
X0177335Y0111959D01*
X0177335Y0112957D02*
X0178335Y0112957D01*
X0178335Y0113956D02*
X0177335Y0113956D01*
X0177335Y0114954D02*
X0171935Y0114954D01*
X0171935Y0113956D02*
X0173335Y0113956D01*
X0173646Y0112957D02*
X0171458Y0112957D01*
X0171935Y0113434D02*
X0169533Y0111032D01*
X0166136Y0111032D01*
X0163735Y0113434D01*
X0163735Y0116831D01*
X0166136Y0119232D01*
X0169533Y0119232D01*
X0171935Y0116831D01*
X0171935Y0113434D01*
X0170459Y0111959D02*
X0174644Y0111959D01*
X0176136Y0109232D02*
X0173735Y0106831D01*
X0173735Y0103434D01*
X0176136Y0101032D01*
X0179533Y0101032D01*
X0181935Y0103434D01*
X0181935Y0106831D01*
X0179533Y0109232D01*
X0176136Y0109232D01*
X0175867Y0108963D02*
X0169802Y0108963D01*
X0169533Y0109232D02*
X0166136Y0109232D01*
X0163735Y0106831D01*
X0163735Y0103434D01*
X0166136Y0101032D01*
X0169533Y0101032D01*
X0171935Y0103434D01*
X0171935Y0106831D01*
X0169533Y0109232D01*
X0170800Y0107965D02*
X0174869Y0107965D01*
X0173870Y0106966D02*
X0171799Y0106966D01*
X0171935Y0105968D02*
X0173735Y0105968D01*
X0173735Y0104969D02*
X0171935Y0104969D01*
X0171935Y0103971D02*
X0173735Y0103971D01*
X0174197Y0102972D02*
X0171473Y0102972D01*
X0170474Y0101974D02*
X0175195Y0101974D01*
X0180474Y0101974D02*
X0185195Y0101974D01*
X0186136Y0101032D02*
X0183735Y0103434D01*
X0183735Y0106831D01*
X0186136Y0109232D01*
X0189533Y0109232D01*
X0191935Y0106831D01*
X0191935Y0103434D01*
X0189533Y0101032D01*
X0186136Y0101032D01*
X0184197Y0102972D02*
X0181473Y0102972D01*
X0181935Y0103971D02*
X0183735Y0103971D01*
X0183735Y0104969D02*
X0181935Y0104969D01*
X0181935Y0105968D02*
X0183735Y0105968D01*
X0183870Y0106966D02*
X0181799Y0106966D01*
X0180800Y0107965D02*
X0184869Y0107965D01*
X0185867Y0108963D02*
X0179802Y0108963D01*
X0180027Y0110960D02*
X0195643Y0110960D01*
X0195971Y0110632D02*
X0197335Y0110632D01*
X0197335Y0114632D01*
X0198335Y0114632D01*
X0198335Y0115632D01*
X0202335Y0115632D01*
X0202335Y0116996D01*
X0199699Y0119632D01*
X0198335Y0119632D01*
X0198335Y0115632D01*
X0197335Y0115632D01*
X0197335Y0114632D01*
X0193335Y0114632D01*
X0193335Y0113268D01*
X0195971Y0110632D01*
X0197335Y0110960D02*
X0198335Y0110960D01*
X0198335Y0110632D02*
X0199699Y0110632D01*
X0202335Y0113268D01*
X0202335Y0114632D01*
X0198335Y0114632D01*
X0198335Y0110632D01*
X0198335Y0111959D02*
X0197335Y0111959D01*
X0197335Y0112957D02*
X0198335Y0112957D01*
X0198335Y0113956D02*
X0197335Y0113956D01*
X0197335Y0114954D02*
X0191935Y0114954D01*
X0191935Y0113956D02*
X0193335Y0113956D01*
X0193646Y0112957D02*
X0191458Y0112957D01*
X0191935Y0113434D02*
X0189533Y0111032D01*
X0186136Y0111032D01*
X0183735Y0113434D01*
X0183735Y0116831D01*
X0186136Y0119232D01*
X0189533Y0119232D01*
X0191935Y0116831D01*
X0191935Y0113434D01*
X0190459Y0111959D02*
X0194644Y0111959D01*
X0196136Y0109232D02*
X0193735Y0106831D01*
X0193735Y0103434D01*
X0196136Y0101032D01*
X0199533Y0101032D01*
X0201935Y0103434D01*
X0201935Y0106831D01*
X0199533Y0109232D01*
X0196136Y0109232D01*
X0195867Y0108963D02*
X0189802Y0108963D01*
X0190800Y0107965D02*
X0194869Y0107965D01*
X0193870Y0106966D02*
X0191799Y0106966D01*
X0191935Y0105968D02*
X0193735Y0105968D01*
X0193735Y0104969D02*
X0191935Y0104969D01*
X0191935Y0103971D02*
X0193735Y0103971D01*
X0194197Y0102972D02*
X0191473Y0102972D01*
X0190474Y0101974D02*
X0195195Y0101974D01*
X0197778Y0099977D02*
X0239269Y0099977D01*
X0238185Y0100975D02*
X0230041Y0100975D01*
X0229699Y0100632D02*
X0232335Y0103268D01*
X0232335Y0104632D01*
X0228335Y0104632D01*
X0228335Y0105632D01*
X0232335Y0105632D01*
X0232335Y0106996D01*
X0229699Y0109632D01*
X0228335Y0109632D01*
X0228335Y0105632D01*
X0227335Y0105632D01*
X0227335Y0104632D01*
X0228335Y0104632D01*
X0228335Y0100632D01*
X0229699Y0100632D01*
X0228335Y0100975D02*
X0227335Y0100975D01*
X0227335Y0100632D02*
X0227335Y0104632D01*
X0223335Y0104632D01*
X0223335Y0103268D01*
X0225971Y0100632D01*
X0227335Y0100632D01*
X0227335Y0101974D02*
X0228335Y0101974D01*
X0228335Y0102972D02*
X0227335Y0102972D01*
X0227335Y0103971D02*
X0228335Y0103971D01*
X0228335Y0104969D02*
X0235281Y0104969D01*
X0235821Y0103971D02*
X0232335Y0103971D01*
X0232038Y0102972D02*
X0236362Y0102972D01*
X0237100Y0101974D02*
X0231040Y0101974D01*
X0225628Y0100975D02*
X0160041Y0100975D01*
X0159699Y0100632D02*
X0162335Y0103268D01*
X0162335Y0104632D01*
X0158335Y0104632D01*
X0158335Y0105632D01*
X0162335Y0105632D01*
X0162335Y0106996D01*
X0159699Y0109632D01*
X0158335Y0109632D01*
X0158335Y0105632D01*
X0157335Y0105632D01*
X0157335Y0104632D01*
X0158335Y0104632D01*
X0158335Y0100632D01*
X0159699Y0100632D01*
X0158335Y0100975D02*
X0157335Y0100975D01*
X0157335Y0100632D02*
X0157335Y0104632D01*
X0153335Y0104632D01*
X0153335Y0103268D01*
X0155971Y0100632D01*
X0157335Y0100632D01*
X0157335Y0101974D02*
X0158335Y0101974D01*
X0158335Y0102972D02*
X0157335Y0102972D01*
X0157335Y0103971D02*
X0158335Y0103971D01*
X0158335Y0104969D02*
X0163735Y0104969D01*
X0163735Y0103971D02*
X0162335Y0103971D01*
X0162038Y0102972D02*
X0164197Y0102972D01*
X0165195Y0101974D02*
X0161040Y0101974D01*
X0155628Y0100975D02*
X0080041Y0100975D01*
X0079699Y0100632D02*
X0082335Y0103268D01*
X0082335Y0104632D01*
X0078335Y0104632D01*
X0078335Y0105632D01*
X0082335Y0105632D01*
X0082335Y0106996D01*
X0079699Y0109632D01*
X0078335Y0109632D01*
X0078335Y0105632D01*
X0077335Y0105632D01*
X0077335Y0104632D01*
X0078335Y0104632D01*
X0078335Y0100632D01*
X0079699Y0100632D01*
X0078335Y0100975D02*
X0077335Y0100975D01*
X0077335Y0100632D02*
X0077335Y0104632D01*
X0073335Y0104632D01*
X0073335Y0103268D01*
X0075971Y0100632D01*
X0077335Y0100632D01*
X0077335Y0101974D02*
X0078335Y0101974D01*
X0078335Y0102972D02*
X0077335Y0102972D01*
X0077335Y0103971D02*
X0078335Y0103971D01*
X0078335Y0104969D02*
X0083735Y0104969D01*
X0083735Y0103971D02*
X0082335Y0103971D01*
X0082038Y0102972D02*
X0084197Y0102972D01*
X0083735Y0103434D02*
X0086136Y0101032D01*
X0089533Y0101032D01*
X0091935Y0103434D01*
X0091935Y0106831D01*
X0089533Y0109232D01*
X0086136Y0109232D01*
X0083735Y0106831D01*
X0083735Y0103434D01*
X0085195Y0101974D02*
X0081040Y0101974D01*
X0075628Y0100975D02*
X0035518Y0100975D01*
X0032522Y0097980D02*
X0100209Y0097980D01*
X0100896Y0096981D02*
X0031524Y0096981D01*
X0027500Y0094867D02*
X0110000Y0094867D01*
X0111250Y0093617D01*
X0113122Y0094984D02*
X0198245Y0094984D01*
X0199243Y0093986D02*
X0113541Y0093986D01*
X0113541Y0092987D02*
X0200242Y0092987D01*
X0201240Y0091989D02*
X0112861Y0091989D01*
X0109639Y0091989D02*
X0030100Y0091989D01*
X0030100Y0092987D02*
X0108959Y0092987D01*
X0111147Y0095983D02*
X0197246Y0095983D01*
X0196248Y0096981D02*
X0104104Y0096981D01*
X0110474Y0101974D02*
X0115195Y0101974D01*
X0114197Y0102972D02*
X0111473Y0102972D01*
X0111935Y0103971D02*
X0113735Y0103971D01*
X0113735Y0104969D02*
X0111935Y0104969D01*
X0111935Y0105968D02*
X0113735Y0105968D01*
X0113870Y0106966D02*
X0111799Y0106966D01*
X0110800Y0107965D02*
X0114869Y0107965D01*
X0115867Y0108963D02*
X0109802Y0108963D01*
X0109533Y0111032D02*
X0106136Y0111032D01*
X0103735Y0113434D01*
X0103735Y0116831D01*
X0106136Y0119232D01*
X0109533Y0119232D01*
X0111935Y0116831D01*
X0111935Y0113434D01*
X0109533Y0111032D01*
X0110459Y0111959D02*
X0115210Y0111959D01*
X0114211Y0112957D02*
X0111458Y0112957D01*
X0111935Y0113956D02*
X0113735Y0113956D01*
X0113735Y0114954D02*
X0111935Y0114954D01*
X0111935Y0115953D02*
X0113735Y0115953D01*
X0113855Y0116951D02*
X0111814Y0116951D01*
X0110815Y0117950D02*
X0114854Y0117950D01*
X0115852Y0118948D02*
X0109817Y0118948D01*
X0105852Y0118948D02*
X0100383Y0118948D01*
X0101381Y0117950D02*
X0104854Y0117950D01*
X0103855Y0116951D02*
X0102335Y0116951D01*
X0102335Y0115953D02*
X0103735Y0115953D01*
X0103735Y0114954D02*
X0098335Y0114954D01*
X0098335Y0113956D02*
X0097335Y0113956D01*
X0097335Y0114632D02*
X0097335Y0110632D01*
X0095971Y0110632D01*
X0093335Y0113268D01*
X0093335Y0114632D01*
X0097335Y0114632D01*
X0097335Y0114954D02*
X0091935Y0114954D01*
X0091935Y0113956D02*
X0093335Y0113956D01*
X0093646Y0112957D02*
X0091458Y0112957D01*
X0091935Y0113434D02*
X0089533Y0111032D01*
X0086136Y0111032D01*
X0083735Y0113434D01*
X0083735Y0116831D01*
X0086136Y0119232D01*
X0089533Y0119232D01*
X0091935Y0116831D01*
X0091935Y0113434D01*
X0090459Y0111959D02*
X0094644Y0111959D01*
X0095643Y0110960D02*
X0060027Y0110960D01*
X0059699Y0110632D02*
X0062335Y0113268D01*
X0062335Y0114632D01*
X0058335Y0114632D01*
X0058335Y0115632D01*
X0062335Y0115632D01*
X0062335Y0116996D01*
X0059699Y0119632D01*
X0058335Y0119632D01*
X0058335Y0115632D01*
X0057335Y0115632D01*
X0057335Y0114632D01*
X0058335Y0114632D01*
X0058335Y0110632D01*
X0059699Y0110632D01*
X0058335Y0110960D02*
X0057335Y0110960D01*
X0057335Y0110632D02*
X0057335Y0114632D01*
X0053335Y0114632D01*
X0053335Y0113268D01*
X0055971Y0110632D01*
X0057335Y0110632D01*
X0057335Y0111959D02*
X0058335Y0111959D01*
X0058335Y0112957D02*
X0057335Y0112957D01*
X0057335Y0113956D02*
X0058335Y0113956D01*
X0058335Y0114954D02*
X0063735Y0114954D01*
X0063735Y0113956D02*
X0062335Y0113956D01*
X0062024Y0112957D02*
X0064211Y0112957D01*
X0063735Y0113434D02*
X0066136Y0111032D01*
X0069533Y0111032D01*
X0071935Y0113434D01*
X0071935Y0116831D01*
X0069533Y0119232D01*
X0066136Y0119232D01*
X0063735Y0116831D01*
X0063735Y0113434D01*
X0065210Y0111959D02*
X0061025Y0111959D01*
X0059533Y0109232D02*
X0056136Y0109232D01*
X0053735Y0106831D01*
X0053735Y0103434D01*
X0056136Y0101032D01*
X0059533Y0101032D01*
X0061935Y0103434D01*
X0061935Y0106831D01*
X0059533Y0109232D01*
X0059802Y0108963D02*
X0065867Y0108963D01*
X0066136Y0109232D02*
X0063735Y0106831D01*
X0063735Y0103434D01*
X0066136Y0101032D01*
X0069533Y0101032D01*
X0071935Y0103434D01*
X0071935Y0106831D01*
X0069533Y0109232D01*
X0066136Y0109232D01*
X0064869Y0107965D02*
X0060800Y0107965D01*
X0061799Y0106966D02*
X0063870Y0106966D01*
X0063735Y0105968D02*
X0061935Y0105968D01*
X0061935Y0104969D02*
X0063735Y0104969D01*
X0063735Y0103971D02*
X0061935Y0103971D01*
X0061473Y0102972D02*
X0064197Y0102972D01*
X0065195Y0101974D02*
X0060474Y0101974D01*
X0055195Y0101974D02*
X0050474Y0101974D01*
X0049533Y0101032D02*
X0051935Y0103434D01*
X0051935Y0106831D01*
X0049533Y0109232D01*
X0046136Y0109232D01*
X0043735Y0106831D01*
X0043735Y0103434D01*
X0046136Y0101032D01*
X0049533Y0101032D01*
X0045195Y0101974D02*
X0041935Y0101974D01*
X0041935Y0102972D02*
X0044197Y0102972D01*
X0043735Y0103971D02*
X0041935Y0103971D01*
X0041935Y0104969D02*
X0043735Y0104969D01*
X0043735Y0105968D02*
X0041935Y0105968D01*
X0041935Y0106966D02*
X0043870Y0106966D01*
X0044869Y0107965D02*
X0042507Y0107965D01*
X0043506Y0108963D02*
X0045867Y0108963D01*
X0044504Y0109962D02*
X0234002Y0109962D01*
X0234007Y0110960D02*
X0200027Y0110960D01*
X0201025Y0111959D02*
X0205210Y0111959D01*
X0206136Y0111032D02*
X0203735Y0113434D01*
X0203735Y0116831D01*
X0206136Y0119232D01*
X0209533Y0119232D01*
X0211935Y0116831D01*
X0211935Y0113434D01*
X0209533Y0111032D01*
X0206136Y0111032D01*
X0206136Y0109232D02*
X0203735Y0106831D01*
X0203735Y0103434D01*
X0206136Y0101032D01*
X0209533Y0101032D01*
X0211935Y0103434D01*
X0211935Y0106831D01*
X0209533Y0109232D01*
X0206136Y0109232D01*
X0205867Y0108963D02*
X0199802Y0108963D01*
X0200800Y0107965D02*
X0204869Y0107965D01*
X0203870Y0106966D02*
X0201799Y0106966D01*
X0201935Y0105968D02*
X0203735Y0105968D01*
X0203735Y0104969D02*
X0201935Y0104969D01*
X0201935Y0103971D02*
X0203735Y0103971D01*
X0204197Y0102972D02*
X0201473Y0102972D01*
X0200474Y0101974D02*
X0205195Y0101974D01*
X0210474Y0101974D02*
X0215195Y0101974D01*
X0216136Y0101032D02*
X0213735Y0103434D01*
X0213735Y0106831D01*
X0216136Y0109232D01*
X0219533Y0109232D01*
X0221935Y0106831D01*
X0221935Y0103434D01*
X0219533Y0101032D01*
X0216136Y0101032D01*
X0220474Y0101974D02*
X0224629Y0101974D01*
X0223631Y0102972D02*
X0221473Y0102972D01*
X0221935Y0103971D02*
X0223335Y0103971D01*
X0223335Y0105632D02*
X0227335Y0105632D01*
X0227335Y0109632D01*
X0225971Y0109632D01*
X0223335Y0106996D01*
X0223335Y0105632D01*
X0223335Y0105968D02*
X0221935Y0105968D01*
X0221935Y0104969D02*
X0227335Y0104969D01*
X0227335Y0105968D02*
X0228335Y0105968D01*
X0228335Y0106966D02*
X0227335Y0106966D01*
X0227335Y0107965D02*
X0228335Y0107965D01*
X0228335Y0108963D02*
X0227335Y0108963D01*
X0225302Y0108963D02*
X0219802Y0108963D01*
X0220800Y0107965D02*
X0224303Y0107965D01*
X0223335Y0106966D02*
X0221799Y0106966D01*
X0215867Y0108963D02*
X0209802Y0108963D01*
X0210800Y0107965D02*
X0214869Y0107965D01*
X0213870Y0106966D02*
X0211799Y0106966D01*
X0211935Y0105968D02*
X0213735Y0105968D01*
X0213735Y0104969D02*
X0211935Y0104969D01*
X0211935Y0103971D02*
X0213735Y0103971D01*
X0214197Y0102972D02*
X0211473Y0102972D01*
X0200773Y0096981D02*
X0259406Y0096981D01*
X0259406Y0095983D02*
X0201772Y0095983D01*
X0202770Y0094984D02*
X0259406Y0094984D01*
X0259406Y0093986D02*
X0203769Y0093986D01*
X0204767Y0092987D02*
X0259406Y0092987D01*
X0259406Y0091989D02*
X0205766Y0091989D01*
X0206764Y0090990D02*
X0259406Y0090990D01*
X0259406Y0089992D02*
X0208739Y0089992D01*
X0209738Y0088993D02*
X0259406Y0088993D01*
X0259406Y0087995D02*
X0209791Y0087995D01*
X0209744Y0086996D02*
X0259406Y0086996D01*
X0259406Y0085998D02*
X0208745Y0085998D01*
X0204236Y0088993D02*
X0178761Y0088993D01*
X0177763Y0089992D02*
X0203237Y0089992D01*
X0202239Y0090990D02*
X0176764Y0090990D01*
X0175625Y0089867D02*
X0190000Y0075492D01*
X0191859Y0077011D02*
X0259406Y0077011D01*
X0259406Y0078009D02*
X0189745Y0078009D01*
X0188746Y0079008D02*
X0259406Y0079008D01*
X0259406Y0080006D02*
X0187748Y0080006D01*
X0186749Y0081005D02*
X0259406Y0081005D01*
X0259406Y0082004D02*
X0185751Y0082004D01*
X0184752Y0083002D02*
X0259406Y0083002D01*
X0259406Y0084001D02*
X0183754Y0084001D01*
X0182755Y0084999D02*
X0259406Y0084999D01*
X0259406Y0076012D02*
X0192389Y0076012D01*
X0192389Y0075014D02*
X0259406Y0075014D01*
X0259406Y0074015D02*
X0191902Y0074015D01*
X0178852Y0077011D02*
X0129407Y0077011D01*
X0131382Y0078009D02*
X0177854Y0078009D01*
X0175625Y0089867D02*
X0088750Y0089867D01*
X0053750Y0054867D01*
X0036250Y0054867D01*
X0032500Y0051117D01*
X0032500Y0048617D01*
X0034178Y0047056D02*
X0070111Y0047056D01*
X0070111Y0048054D02*
X0034791Y0048054D01*
X0034791Y0049053D02*
X0036325Y0049053D01*
X0035326Y0050051D02*
X0034305Y0050051D01*
X0034696Y0051050D02*
X0035209Y0051050D01*
X0037500Y0051117D02*
X0055000Y0051117D01*
X0085000Y0081117D01*
X0082709Y0081089D02*
X0082709Y0081563D01*
X0054413Y0053267D01*
X0038589Y0053267D01*
X0039139Y0052717D01*
X0054337Y0052717D01*
X0082709Y0081089D01*
X0082626Y0081005D02*
X0082151Y0081005D01*
X0081627Y0080006D02*
X0081153Y0080006D01*
X0080629Y0079008D02*
X0080154Y0079008D01*
X0079630Y0078009D02*
X0079156Y0078009D01*
X0078632Y0077011D02*
X0078157Y0077011D01*
X0077633Y0076012D02*
X0077159Y0076012D01*
X0076635Y0075014D02*
X0076160Y0075014D01*
X0075636Y0074015D02*
X0075161Y0074015D01*
X0074638Y0073017D02*
X0074163Y0073017D01*
X0073639Y0072018D02*
X0073164Y0072018D01*
X0072641Y0071020D02*
X0072166Y0071020D01*
X0071642Y0070021D02*
X0071167Y0070021D01*
X0070643Y0069023D02*
X0070169Y0069023D01*
X0069645Y0068024D02*
X0069170Y0068024D01*
X0068646Y0067026D02*
X0068172Y0067026D01*
X0067648Y0066027D02*
X0067173Y0066027D01*
X0066649Y0065029D02*
X0066175Y0065029D01*
X0065651Y0064030D02*
X0065176Y0064030D01*
X0064652Y0063032D02*
X0064178Y0063032D01*
X0063654Y0062033D02*
X0063179Y0062033D01*
X0062655Y0061035D02*
X0062181Y0061035D01*
X0061657Y0060036D02*
X0061182Y0060036D01*
X0060658Y0059038D02*
X0060184Y0059038D01*
X0059660Y0058039D02*
X0059185Y0058039D01*
X0058661Y0057041D02*
X0058187Y0057041D01*
X0057663Y0056042D02*
X0057188Y0056042D01*
X0056664Y0055044D02*
X0056190Y0055044D01*
X0055666Y0054045D02*
X0055191Y0054045D01*
X0054667Y0053047D02*
X0038809Y0053047D01*
X0034164Y0055044D02*
X0006500Y0055044D01*
X0006500Y0056042D02*
X0035163Y0056042D01*
X0034232Y0057041D02*
X0053661Y0057041D01*
X0054660Y0058039D02*
X0034854Y0058039D01*
X0034940Y0058247D02*
X0034707Y0057684D01*
X0034369Y0057178D01*
X0033939Y0056748D01*
X0033432Y0056409D01*
X0032870Y0056176D01*
X0032273Y0056058D01*
X0031969Y0056058D01*
X0031969Y0058715D01*
X0031968Y0058715D01*
X0031968Y0056058D01*
X0031664Y0056058D01*
X0031067Y0056176D01*
X0030505Y0056409D01*
X0030000Y0056746D01*
X0029495Y0056409D01*
X0028933Y0056176D01*
X0028336Y0056058D01*
X0028032Y0056058D01*
X0028032Y0058715D01*
X0028031Y0058715D01*
X0028031Y0056058D01*
X0027727Y0056058D01*
X0027130Y0056176D01*
X0026568Y0056409D01*
X0026061Y0056748D01*
X0025631Y0057178D01*
X0025293Y0057684D01*
X0025060Y0058247D01*
X0024941Y0058844D01*
X0024941Y0059148D01*
X0027598Y0059148D01*
X0027598Y0059148D01*
X0024941Y0059148D01*
X0024941Y0059453D01*
X0025060Y0060050D01*
X0025293Y0060612D01*
X0025630Y0061117D01*
X0025293Y0061621D01*
X0025060Y0062184D01*
X0024941Y0062781D01*
X0024941Y0063085D01*
X0027598Y0063085D01*
X0027598Y0063085D01*
X0024941Y0063085D01*
X0024941Y0063390D01*
X0025060Y0063987D01*
X0025293Y0064549D01*
X0025631Y0065055D01*
X0026061Y0065486D01*
X0026568Y0065824D01*
X0027130Y0066057D01*
X0027727Y0066176D01*
X0028031Y0066176D01*
X0028031Y0063518D01*
X0028032Y0063518D01*
X0028032Y0066176D01*
X0028336Y0066176D01*
X0028933Y0066057D01*
X0029495Y0065824D01*
X0030000Y0065487D01*
X0030505Y0065824D01*
X0031067Y0066057D01*
X0031664Y0066176D01*
X0031968Y0066176D01*
X0031968Y0063518D01*
X0031969Y0063518D01*
X0031969Y0066176D01*
X0032273Y0066176D01*
X0032870Y0066057D01*
X0033432Y0065824D01*
X0033939Y0065486D01*
X0034369Y0065055D01*
X0034707Y0064549D01*
X0034940Y0063987D01*
X0035059Y0063390D01*
X0035059Y0063085D01*
X0032402Y0063085D01*
X0032402Y0063085D01*
X0035059Y0063085D01*
X0035059Y0062781D01*
X0034940Y0062184D01*
X0034707Y0061621D01*
X0034370Y0061117D01*
X0034707Y0060612D01*
X0034940Y0060050D01*
X0035059Y0059453D01*
X0035059Y0059148D01*
X0032402Y0059148D01*
X0035059Y0059148D01*
X0035059Y0058844D01*
X0034940Y0058247D01*
X0035059Y0059038D02*
X0055658Y0059038D01*
X0056657Y0060036D02*
X0034943Y0060036D01*
X0034425Y0061035D02*
X0057655Y0061035D01*
X0058654Y0062033D02*
X0034878Y0062033D01*
X0035059Y0063032D02*
X0059652Y0063032D01*
X0060651Y0064030D02*
X0034922Y0064030D01*
X0034387Y0065029D02*
X0061649Y0065029D01*
X0062648Y0066027D02*
X0032941Y0066027D01*
X0031969Y0066027D02*
X0031968Y0066027D01*
X0030996Y0066027D02*
X0029004Y0066027D01*
X0028032Y0066027D02*
X0028031Y0066027D01*
X0027059Y0066027D02*
X0006500Y0066027D01*
X0006500Y0065029D02*
X0025613Y0065029D01*
X0025078Y0064030D02*
X0006500Y0064030D01*
X0006500Y0063032D02*
X0024941Y0063032D01*
X0025122Y0062033D02*
X0006500Y0062033D01*
X0006500Y0061035D02*
X0025575Y0061035D01*
X0025057Y0060036D02*
X0006500Y0060036D01*
X0006500Y0059038D02*
X0024941Y0059038D01*
X0025146Y0058039D02*
X0006500Y0058039D01*
X0006500Y0057041D02*
X0025768Y0057041D01*
X0028031Y0057041D02*
X0028032Y0057041D01*
X0028031Y0058039D02*
X0028032Y0058039D01*
X0030000Y0059148D02*
X0030000Y0059148D01*
X0030000Y0059148D01*
X0030000Y0059148D01*
X0030000Y0059148D01*
X0031968Y0058039D02*
X0031969Y0058039D01*
X0031968Y0057041D02*
X0031969Y0057041D01*
X0032402Y0059148D02*
X0032402Y0059148D01*
X0031969Y0061117D02*
X0031968Y0061117D01*
X0031969Y0061117D01*
X0031969Y0061117D01*
X0031968Y0061117D02*
X0031968Y0061117D01*
X0030000Y0063085D02*
X0030000Y0063085D01*
X0030000Y0063085D01*
X0030000Y0063085D01*
X0030000Y0063085D01*
X0031968Y0064030D02*
X0031969Y0064030D01*
X0031968Y0065029D02*
X0031969Y0065029D01*
X0028032Y0065029D02*
X0028031Y0065029D01*
X0028031Y0064030D02*
X0028032Y0064030D01*
X0028032Y0061117D02*
X0028032Y0061117D01*
X0028031Y0061117D01*
X0028031Y0061117D01*
X0028032Y0061117D01*
X0033166Y0054045D02*
X0006500Y0054045D01*
X0006500Y0053047D02*
X0032167Y0053047D01*
X0031169Y0052048D02*
X0006500Y0052048D01*
X0006500Y0051050D02*
X0030900Y0051050D01*
X0030695Y0050051D02*
X0006500Y0050051D01*
X0006500Y0049053D02*
X0030209Y0049053D01*
X0030209Y0048054D02*
X0006500Y0048054D01*
X0006500Y0047056D02*
X0030822Y0047056D01*
X0038675Y0049053D02*
X0070807Y0049053D01*
X0070900Y0050051D02*
X0056197Y0050051D01*
X0057196Y0051050D02*
X0070900Y0051050D01*
X0070900Y0052048D02*
X0058194Y0052048D01*
X0059193Y0053047D02*
X0070900Y0053047D01*
X0070900Y0054045D02*
X0060191Y0054045D01*
X0061190Y0055044D02*
X0070900Y0055044D01*
X0070900Y0056042D02*
X0062188Y0056042D01*
X0063187Y0057041D02*
X0070900Y0057041D01*
X0070900Y0058039D02*
X0064185Y0058039D01*
X0065184Y0059038D02*
X0070900Y0059038D01*
X0070900Y0060036D02*
X0066182Y0060036D01*
X0067181Y0061035D02*
X0070900Y0061035D01*
X0070900Y0062033D02*
X0068179Y0062033D01*
X0069178Y0063032D02*
X0070902Y0063032D01*
X0070176Y0064030D02*
X0071901Y0064030D01*
X0071175Y0065029D02*
X0072899Y0065029D01*
X0072173Y0066027D02*
X0073898Y0066027D01*
X0073172Y0067026D02*
X0074896Y0067026D01*
X0074170Y0068024D02*
X0075895Y0068024D01*
X0075169Y0069023D02*
X0076893Y0069023D01*
X0076167Y0070021D02*
X0077892Y0070021D01*
X0077166Y0071020D02*
X0078891Y0071020D01*
X0078164Y0072018D02*
X0079889Y0072018D01*
X0079163Y0073017D02*
X0080888Y0073017D01*
X0080162Y0074015D02*
X0081886Y0074015D01*
X0081160Y0075014D02*
X0082885Y0075014D01*
X0082159Y0076012D02*
X0083883Y0076012D01*
X0083157Y0077011D02*
X0084882Y0077011D01*
X0085336Y0078009D02*
X0084156Y0078009D01*
X0087627Y0077493D02*
X0072500Y0062367D01*
X0072500Y0047367D01*
X0070431Y0046057D02*
X0006500Y0046057D01*
X0006500Y0045059D02*
X0071430Y0045059D01*
X0074100Y0055044D02*
X0085209Y0055044D01*
X0085209Y0056042D02*
X0074100Y0056042D01*
X0063646Y0067026D02*
X0006500Y0067026D01*
X0006500Y0068024D02*
X0064645Y0068024D01*
X0065643Y0069023D02*
X0006500Y0069023D01*
X0006500Y0070021D02*
X0066642Y0070021D01*
X0067641Y0071020D02*
X0006500Y0071020D01*
X0006500Y0072018D02*
X0068639Y0072018D01*
X0069638Y0073017D02*
X0006500Y0073017D01*
X0006500Y0074015D02*
X0070636Y0074015D01*
X0071635Y0075014D02*
X0006500Y0075014D01*
X0006500Y0076012D02*
X0072633Y0076012D01*
X0073632Y0077011D02*
X0006500Y0077011D01*
X0006500Y0078009D02*
X0074630Y0078009D01*
X0075629Y0079008D02*
X0006500Y0079008D01*
X0006500Y0080006D02*
X0076627Y0080006D01*
X0077626Y0081005D02*
X0006500Y0081005D01*
X0006500Y0082004D02*
X0078624Y0082004D01*
X0079623Y0083002D02*
X0006500Y0083002D01*
X0006500Y0084001D02*
X0080621Y0084001D01*
X0081620Y0084999D02*
X0006500Y0084999D01*
X0006500Y0085998D02*
X0082618Y0085998D01*
X0083617Y0086996D02*
X0006500Y0086996D01*
X0006500Y0087995D02*
X0084615Y0087995D01*
X0085614Y0088993D02*
X0029786Y0088993D01*
X0030100Y0089992D02*
X0086612Y0089992D01*
X0087611Y0090990D02*
X0030100Y0090990D01*
X0028125Y0093617D02*
X0026250Y0095492D01*
X0027500Y0094867D02*
X0027500Y0093617D01*
X0028125Y0093617D01*
X0022650Y0093986D02*
X0006500Y0093986D01*
X0006500Y0094984D02*
X0022650Y0094984D01*
X0022650Y0095983D02*
X0006500Y0095983D01*
X0006500Y0096981D02*
X0022650Y0096981D01*
X0022650Y0097980D02*
X0022602Y0097980D01*
X0014779Y0097980D02*
X0006500Y0097980D01*
X0006500Y0098978D02*
X0012502Y0098978D01*
X0010923Y0099977D02*
X0006500Y0099977D01*
X0006500Y0100975D02*
X0009838Y0100975D01*
X0008754Y0101974D02*
X0006500Y0101974D01*
X0006500Y0102972D02*
X0008015Y0102972D01*
X0007475Y0103971D02*
X0006500Y0103971D01*
X0006500Y0104969D02*
X0006935Y0104969D01*
X0006500Y0092987D02*
X0022650Y0092987D01*
X0022650Y0091989D02*
X0006500Y0091989D01*
X0006500Y0090990D02*
X0022650Y0090990D01*
X0022650Y0089992D02*
X0006500Y0089992D01*
X0006500Y0088993D02*
X0022964Y0088993D01*
X0051473Y0102972D02*
X0054197Y0102972D01*
X0053735Y0103971D02*
X0051935Y0103971D01*
X0051935Y0104969D02*
X0053735Y0104969D01*
X0053735Y0105968D02*
X0051935Y0105968D01*
X0051799Y0106966D02*
X0053870Y0106966D01*
X0054869Y0107965D02*
X0050800Y0107965D01*
X0049802Y0108963D02*
X0055867Y0108963D01*
X0055643Y0110960D02*
X0045503Y0110960D01*
X0052600Y0111959D02*
X0054644Y0111959D01*
X0053646Y0112957D02*
X0052600Y0112957D01*
X0052600Y0113956D02*
X0053335Y0113956D01*
X0052600Y0114954D02*
X0057335Y0114954D01*
X0057335Y0115632D02*
X0053335Y0115632D01*
X0053335Y0116996D01*
X0055971Y0119632D01*
X0057335Y0119632D01*
X0057335Y0115632D01*
X0057335Y0115953D02*
X0058335Y0115953D01*
X0058335Y0116951D02*
X0057335Y0116951D01*
X0057335Y0117950D02*
X0058335Y0117950D01*
X0058335Y0118948D02*
X0057335Y0118948D01*
X0055287Y0118948D02*
X0052600Y0118948D01*
X0052600Y0117950D02*
X0054288Y0117950D01*
X0053335Y0116951D02*
X0052600Y0116951D01*
X0052600Y0115953D02*
X0053335Y0115953D01*
X0051829Y0119947D02*
X0238215Y0119947D01*
X0239299Y0120945D02*
X0026524Y0120945D01*
X0024996Y0121944D02*
X0240912Y0121944D01*
X0237130Y0118948D02*
X0229817Y0118948D01*
X0229533Y0119232D02*
X0226136Y0119232D01*
X0223735Y0116831D01*
X0223735Y0113434D01*
X0226136Y0111032D01*
X0229533Y0111032D01*
X0231935Y0113434D01*
X0231935Y0116831D01*
X0229533Y0119232D01*
X0230815Y0117950D02*
X0236377Y0117950D01*
X0235836Y0116951D02*
X0231814Y0116951D01*
X0231935Y0115953D02*
X0235296Y0115953D01*
X0234755Y0114954D02*
X0231935Y0114954D01*
X0231935Y0113956D02*
X0234507Y0113956D01*
X0234340Y0112957D02*
X0231458Y0112957D01*
X0230459Y0111959D02*
X0234173Y0111959D01*
X0234169Y0108963D02*
X0230368Y0108963D01*
X0231366Y0107965D02*
X0234336Y0107965D01*
X0234502Y0106966D02*
X0232335Y0106966D01*
X0232335Y0105968D02*
X0234741Y0105968D01*
X0240849Y0098978D02*
X0198776Y0098978D01*
X0199775Y0097980D02*
X0243125Y0097980D01*
X0250949Y0097980D02*
X0259406Y0097980D01*
X0259406Y0098978D02*
X0253384Y0098978D01*
X0254913Y0099977D02*
X0259406Y0099977D01*
X0259406Y0100975D02*
X0256258Y0100975D01*
X0257036Y0101974D02*
X0259406Y0101974D01*
X0259406Y0102972D02*
X0257813Y0102972D01*
X0258590Y0103971D02*
X0259406Y0103971D01*
X0259406Y0104969D02*
X0259016Y0104969D01*
X0259359Y0105968D02*
X0259406Y0105968D01*
X0261250Y0118080D02*
X0261103Y0118534D01*
X0258624Y0121945D01*
X0255213Y0124424D01*
X0253850Y0124867D01*
X0261250Y0124867D01*
X0261250Y0118080D01*
X0261103Y0118534D02*
X0261103Y0118534D01*
X0261250Y0118948D02*
X0260802Y0118948D01*
X0261250Y0119947D02*
X0260076Y0119947D01*
X0259351Y0120945D02*
X0261250Y0120945D01*
X0261250Y0121944D02*
X0258625Y0121944D01*
X0258624Y0121945D02*
X0258624Y0121945D01*
X0258624Y0121945D01*
X0257252Y0122942D02*
X0261250Y0122942D01*
X0261250Y0123941D02*
X0255878Y0123941D01*
X0255213Y0124424D02*
X0255213Y0124424D01*
X0225852Y0118948D02*
X0219817Y0118948D01*
X0219533Y0119232D02*
X0216136Y0119232D01*
X0213735Y0116831D01*
X0213735Y0113434D01*
X0216136Y0111032D01*
X0219533Y0111032D01*
X0221935Y0113434D01*
X0221935Y0116831D01*
X0219533Y0119232D01*
X0220815Y0117950D02*
X0224854Y0117950D01*
X0223855Y0116951D02*
X0221814Y0116951D01*
X0221935Y0115953D02*
X0223735Y0115953D01*
X0223735Y0114954D02*
X0221935Y0114954D01*
X0221935Y0113956D02*
X0223735Y0113956D01*
X0224211Y0112957D02*
X0221458Y0112957D01*
X0220459Y0111959D02*
X0225210Y0111959D01*
X0215210Y0111959D02*
X0210459Y0111959D01*
X0211458Y0112957D02*
X0214211Y0112957D01*
X0213735Y0113956D02*
X0211935Y0113956D01*
X0211935Y0114954D02*
X0213735Y0114954D01*
X0213735Y0115953D02*
X0211935Y0115953D01*
X0211814Y0116951D02*
X0213855Y0116951D01*
X0214854Y0117950D02*
X0210815Y0117950D01*
X0209817Y0118948D02*
X0215852Y0118948D01*
X0205852Y0118948D02*
X0200383Y0118948D01*
X0201381Y0117950D02*
X0204854Y0117950D01*
X0203855Y0116951D02*
X0202335Y0116951D01*
X0202335Y0115953D02*
X0203735Y0115953D01*
X0203735Y0114954D02*
X0198335Y0114954D01*
X0198335Y0115953D02*
X0197335Y0115953D01*
X0197335Y0115632D02*
X0197335Y0119632D01*
X0195971Y0119632D01*
X0193335Y0116996D01*
X0193335Y0115632D01*
X0197335Y0115632D01*
X0197335Y0116951D02*
X0198335Y0116951D01*
X0198335Y0117950D02*
X0197335Y0117950D01*
X0197335Y0118948D02*
X0198335Y0118948D01*
X0195287Y0118948D02*
X0189817Y0118948D01*
X0190815Y0117950D02*
X0194288Y0117950D01*
X0193335Y0116951D02*
X0191814Y0116951D01*
X0191935Y0115953D02*
X0193335Y0115953D01*
X0185852Y0118948D02*
X0180383Y0118948D01*
X0181381Y0117950D02*
X0184854Y0117950D01*
X0183855Y0116951D02*
X0182335Y0116951D01*
X0182335Y0115953D02*
X0183735Y0115953D01*
X0183735Y0114954D02*
X0178335Y0114954D01*
X0178335Y0115953D02*
X0177335Y0115953D01*
X0177335Y0115632D02*
X0177335Y0119632D01*
X0175971Y0119632D01*
X0173335Y0116996D01*
X0173335Y0115632D01*
X0177335Y0115632D01*
X0177335Y0116951D02*
X0178335Y0116951D01*
X0178335Y0117950D02*
X0177335Y0117950D01*
X0177335Y0118948D02*
X0178335Y0118948D01*
X0175287Y0118948D02*
X0169817Y0118948D01*
X0170815Y0117950D02*
X0174288Y0117950D01*
X0173335Y0116951D02*
X0171814Y0116951D01*
X0171935Y0115953D02*
X0173335Y0115953D01*
X0165852Y0118948D02*
X0159817Y0118948D01*
X0159533Y0119232D02*
X0156136Y0119232D01*
X0153735Y0116831D01*
X0153735Y0113434D01*
X0156136Y0111032D01*
X0159533Y0111032D01*
X0161935Y0113434D01*
X0161935Y0116831D01*
X0159533Y0119232D01*
X0160815Y0117950D02*
X0164854Y0117950D01*
X0163855Y0116951D02*
X0161814Y0116951D01*
X0161935Y0115953D02*
X0163735Y0115953D01*
X0163735Y0114954D02*
X0161935Y0114954D01*
X0161935Y0113956D02*
X0163735Y0113956D01*
X0164211Y0112957D02*
X0161458Y0112957D01*
X0160459Y0111959D02*
X0165210Y0111959D01*
X0165867Y0108963D02*
X0160368Y0108963D01*
X0161366Y0107965D02*
X0164869Y0107965D01*
X0163870Y0106966D02*
X0162335Y0106966D01*
X0162335Y0105968D02*
X0163735Y0105968D01*
X0158335Y0105968D02*
X0157335Y0105968D01*
X0157335Y0105632D02*
X0157335Y0109632D01*
X0155971Y0109632D01*
X0153335Y0106996D01*
X0153335Y0105632D01*
X0157335Y0105632D01*
X0157335Y0104969D02*
X0151935Y0104969D01*
X0151935Y0103971D02*
X0153335Y0103971D01*
X0153631Y0102972D02*
X0151473Y0102972D01*
X0151935Y0103434D02*
X0149533Y0101032D01*
X0146136Y0101032D01*
X0143735Y0103434D01*
X0143735Y0106831D01*
X0146136Y0109232D01*
X0149533Y0109232D01*
X0151935Y0106831D01*
X0151935Y0103434D01*
X0150474Y0101974D02*
X0154629Y0101974D01*
X0153335Y0105968D02*
X0151935Y0105968D01*
X0151799Y0106966D02*
X0153335Y0106966D01*
X0154303Y0107965D02*
X0150800Y0107965D01*
X0149802Y0108963D02*
X0155302Y0108963D01*
X0157335Y0108963D02*
X0158335Y0108963D01*
X0158335Y0107965D02*
X0157335Y0107965D01*
X0157335Y0106966D02*
X0158335Y0106966D01*
X0155210Y0111959D02*
X0150459Y0111959D01*
X0149533Y0111032D02*
X0151935Y0113434D01*
X0151935Y0116831D01*
X0149533Y0119232D01*
X0146136Y0119232D01*
X0143735Y0116831D01*
X0143735Y0113434D01*
X0146136Y0111032D01*
X0149533Y0111032D01*
X0145867Y0108963D02*
X0139802Y0108963D01*
X0140800Y0107965D02*
X0144869Y0107965D01*
X0143870Y0106966D02*
X0141799Y0106966D01*
X0141935Y0105968D02*
X0143735Y0105968D01*
X0143735Y0104969D02*
X0141935Y0104969D01*
X0141935Y0103971D02*
X0143735Y0103971D01*
X0144197Y0102972D02*
X0141473Y0102972D01*
X0140474Y0101974D02*
X0145195Y0101974D01*
X0139533Y0111032D02*
X0136136Y0111032D01*
X0133735Y0113434D01*
X0133735Y0116831D01*
X0136136Y0119232D01*
X0139533Y0119232D01*
X0141935Y0116831D01*
X0141935Y0113434D01*
X0139533Y0111032D01*
X0140459Y0111959D02*
X0145210Y0111959D01*
X0144211Y0112957D02*
X0141458Y0112957D01*
X0141935Y0113956D02*
X0143735Y0113956D01*
X0143735Y0114954D02*
X0141935Y0114954D01*
X0141935Y0115953D02*
X0143735Y0115953D01*
X0143855Y0116951D02*
X0141814Y0116951D01*
X0140815Y0117950D02*
X0144854Y0117950D01*
X0145852Y0118948D02*
X0139817Y0118948D01*
X0135852Y0118948D02*
X0130383Y0118948D01*
X0131381Y0117950D02*
X0134854Y0117950D01*
X0133855Y0116951D02*
X0132335Y0116951D01*
X0132335Y0115953D02*
X0133735Y0115953D01*
X0133735Y0114954D02*
X0128335Y0114954D01*
X0128335Y0115953D02*
X0127335Y0115953D01*
X0127335Y0115632D02*
X0127335Y0119632D01*
X0125971Y0119632D01*
X0123335Y0116996D01*
X0123335Y0115632D01*
X0127335Y0115632D01*
X0127335Y0116951D02*
X0128335Y0116951D01*
X0128335Y0117950D02*
X0127335Y0117950D01*
X0127335Y0118948D02*
X0128335Y0118948D01*
X0125287Y0118948D02*
X0119817Y0118948D01*
X0120815Y0117950D02*
X0124288Y0117950D01*
X0123335Y0116951D02*
X0121814Y0116951D01*
X0121935Y0115953D02*
X0123335Y0115953D01*
X0131025Y0111959D02*
X0135210Y0111959D01*
X0134211Y0112957D02*
X0132024Y0112957D01*
X0132335Y0113956D02*
X0133735Y0113956D01*
X0149817Y0118948D02*
X0155852Y0118948D01*
X0154854Y0117950D02*
X0150815Y0117950D01*
X0151814Y0116951D02*
X0153855Y0116951D01*
X0153735Y0115953D02*
X0151935Y0115953D01*
X0151935Y0114954D02*
X0153735Y0114954D01*
X0153735Y0113956D02*
X0151935Y0113956D01*
X0151458Y0112957D02*
X0154211Y0112957D01*
X0181025Y0111959D02*
X0185210Y0111959D01*
X0184211Y0112957D02*
X0182024Y0112957D01*
X0182335Y0113956D02*
X0183735Y0113956D01*
X0202024Y0112957D02*
X0204211Y0112957D01*
X0203735Y0113956D02*
X0202335Y0113956D01*
X0136621Y0080006D02*
X0132291Y0080006D01*
X0132291Y0079008D02*
X0137619Y0079008D01*
X0130000Y0079867D02*
X0123750Y0073617D01*
X0122885Y0075014D02*
X0122350Y0075014D01*
X0122172Y0076012D02*
X0123883Y0076012D01*
X0124882Y0077011D02*
X0121697Y0077011D01*
X0120570Y0078009D02*
X0125880Y0078009D01*
X0126879Y0079008D02*
X0089352Y0079008D01*
X0087129Y0080006D02*
X0127709Y0080006D01*
X0111872Y0081005D02*
X0087291Y0081005D01*
X0087291Y0082004D02*
X0111459Y0082004D01*
X0111459Y0083002D02*
X0086354Y0083002D01*
X0085147Y0084001D02*
X0092627Y0084001D01*
X0091628Y0084999D02*
X0086145Y0084999D01*
X0087144Y0085998D02*
X0091459Y0085998D01*
X0091459Y0086996D02*
X0088142Y0086996D01*
X0089141Y0087995D02*
X0092389Y0087995D01*
X0094873Y0084001D02*
X0112145Y0084001D01*
X0130000Y0064867D02*
X0136250Y0071117D01*
X0136913Y0069517D02*
X0205161Y0069517D01*
X0204611Y0068967D01*
X0136363Y0068967D01*
X0136913Y0069517D01*
X0136419Y0069023D02*
X0204667Y0069023D01*
X0208150Y0066027D02*
X0208400Y0066027D01*
X0208400Y0065029D02*
X0136800Y0065029D01*
X0138451Y0064030D02*
X0157799Y0064030D01*
X0159701Y0064030D02*
X0208400Y0064030D01*
X0208400Y0063032D02*
X0160699Y0063032D01*
X0161041Y0062033D02*
X0168302Y0062033D01*
X0167304Y0061035D02*
X0161041Y0061035D01*
X0158750Y0061742D02*
X0137500Y0061742D01*
X0135786Y0060217D02*
X0134139Y0060217D01*
X0133449Y0060907D01*
X0132678Y0060907D01*
X0134347Y0062576D01*
X0135209Y0062576D01*
X0135209Y0060793D01*
X0135786Y0060217D01*
X0135209Y0061035D02*
X0132806Y0061035D01*
X0133804Y0062033D02*
X0135209Y0062033D01*
X0132500Y0058617D02*
X0168125Y0058617D01*
X0169375Y0059867D01*
X0171666Y0060036D02*
X0208400Y0060036D01*
X0208400Y0059038D02*
X0171666Y0059038D01*
X0170787Y0058039D02*
X0208400Y0058039D01*
X0208400Y0057041D02*
X0168812Y0057041D01*
X0171446Y0061035D02*
X0208400Y0061035D01*
X0208400Y0062033D02*
X0170448Y0062033D01*
X0207709Y0055044D02*
X0129100Y0055044D01*
X0129100Y0056042D02*
X0207936Y0056042D01*
X0207709Y0054045D02*
X0129100Y0054045D01*
X0129100Y0053047D02*
X0208581Y0053047D01*
X0220000Y0039867D02*
X0213750Y0033617D01*
X0151875Y0033617D01*
X0190350Y0016102D02*
X0191750Y0016102D01*
X0191750Y0017100D02*
X0190835Y0017100D01*
X0218821Y0021094D02*
X0223679Y0021094D01*
X0222736Y0020096D02*
X0219764Y0020096D01*
X0220178Y0019097D02*
X0222322Y0019097D01*
X0222150Y0018099D02*
X0220350Y0018099D01*
X0220350Y0017100D02*
X0222150Y0017100D01*
X0222150Y0016102D02*
X0220350Y0016102D01*
X0130837Y0057041D02*
X0129100Y0057041D01*
X0129810Y0058039D02*
X0130209Y0058039D01*
X0095195Y0101974D02*
X0090474Y0101974D01*
X0091473Y0102972D02*
X0094197Y0102972D01*
X0093735Y0103971D02*
X0091935Y0103971D01*
X0091935Y0104969D02*
X0093735Y0104969D01*
X0093735Y0105968D02*
X0091935Y0105968D01*
X0091799Y0106966D02*
X0093870Y0106966D01*
X0094869Y0107965D02*
X0090800Y0107965D01*
X0089802Y0108963D02*
X0095867Y0108963D01*
X0097335Y0110960D02*
X0098335Y0110960D01*
X0098335Y0111959D02*
X0097335Y0111959D01*
X0097335Y0112957D02*
X0098335Y0112957D01*
X0101025Y0111959D02*
X0105210Y0111959D01*
X0104211Y0112957D02*
X0102024Y0112957D01*
X0102335Y0113956D02*
X0103735Y0113956D01*
X0098335Y0115953D02*
X0097335Y0115953D01*
X0097335Y0115632D02*
X0097335Y0119632D01*
X0095971Y0119632D01*
X0093335Y0116996D01*
X0093335Y0115632D01*
X0097335Y0115632D01*
X0097335Y0116951D02*
X0098335Y0116951D01*
X0098335Y0117950D02*
X0097335Y0117950D01*
X0097335Y0118948D02*
X0098335Y0118948D01*
X0095287Y0118948D02*
X0089817Y0118948D01*
X0090815Y0117950D02*
X0094288Y0117950D01*
X0093335Y0116951D02*
X0091814Y0116951D01*
X0091935Y0115953D02*
X0093335Y0115953D01*
X0085852Y0118948D02*
X0079817Y0118948D01*
X0079533Y0119232D02*
X0076136Y0119232D01*
X0073735Y0116831D01*
X0073735Y0113434D01*
X0076136Y0111032D01*
X0079533Y0111032D01*
X0081935Y0113434D01*
X0081935Y0116831D01*
X0079533Y0119232D01*
X0080815Y0117950D02*
X0084854Y0117950D01*
X0083855Y0116951D02*
X0081814Y0116951D01*
X0081935Y0115953D02*
X0083735Y0115953D01*
X0083735Y0114954D02*
X0081935Y0114954D01*
X0081935Y0113956D02*
X0083735Y0113956D01*
X0084211Y0112957D02*
X0081458Y0112957D01*
X0080459Y0111959D02*
X0085210Y0111959D01*
X0085867Y0108963D02*
X0080368Y0108963D01*
X0081366Y0107965D02*
X0084869Y0107965D01*
X0083870Y0106966D02*
X0082335Y0106966D01*
X0082335Y0105968D02*
X0083735Y0105968D01*
X0078335Y0105968D02*
X0077335Y0105968D01*
X0077335Y0105632D02*
X0077335Y0109632D01*
X0075971Y0109632D01*
X0073335Y0106996D01*
X0073335Y0105632D01*
X0077335Y0105632D01*
X0077335Y0104969D02*
X0071935Y0104969D01*
X0071935Y0103971D02*
X0073335Y0103971D01*
X0073631Y0102972D02*
X0071473Y0102972D01*
X0070474Y0101974D02*
X0074629Y0101974D01*
X0073335Y0105968D02*
X0071935Y0105968D01*
X0071799Y0106966D02*
X0073335Y0106966D01*
X0074303Y0107965D02*
X0070800Y0107965D01*
X0069802Y0108963D02*
X0075302Y0108963D01*
X0077335Y0108963D02*
X0078335Y0108963D01*
X0078335Y0107965D02*
X0077335Y0107965D01*
X0077335Y0106966D02*
X0078335Y0106966D01*
X0075210Y0111959D02*
X0070459Y0111959D01*
X0071458Y0112957D02*
X0074211Y0112957D01*
X0073735Y0113956D02*
X0071935Y0113956D01*
X0071935Y0114954D02*
X0073735Y0114954D01*
X0073735Y0115953D02*
X0071935Y0115953D01*
X0071814Y0116951D02*
X0073855Y0116951D01*
X0074854Y0117950D02*
X0070815Y0117950D01*
X0069817Y0118948D02*
X0075852Y0118948D01*
X0065852Y0118948D02*
X0060383Y0118948D01*
X0061381Y0117950D02*
X0064854Y0117950D01*
X0063855Y0116951D02*
X0062335Y0116951D01*
X0062335Y0115953D02*
X0063735Y0115953D01*
X0012055Y0124867D02*
X0010693Y0124424D01*
X0007281Y0121945D01*
X0005000Y0118805D01*
X0005000Y0124867D01*
X0012055Y0124867D01*
X0010693Y0124424D02*
X0010693Y0124424D01*
X0010028Y0123941D02*
X0005000Y0123941D01*
X0005000Y0122942D02*
X0008654Y0122942D01*
X0007281Y0121945D02*
X0007281Y0121945D01*
X0007281Y0121945D01*
X0007280Y0121944D02*
X0005000Y0121944D01*
X0005000Y0120945D02*
X0006555Y0120945D01*
X0005829Y0119947D02*
X0005000Y0119947D01*
X0005000Y0118948D02*
X0005104Y0118948D01*
X0009344Y0119464D02*
X0009520Y0119707D01*
X0009934Y0120008D01*
X0009344Y0119464D01*
X0009850Y0119947D02*
X0009868Y0119947D01*
D20*
X0028613Y0118617D02*
X0051250Y0118617D01*
X0051250Y0112367D01*
X0045000Y0112367D01*
X0041401Y0108768D01*
X0041187Y0108982D01*
X0034483Y0108982D01*
X0033985Y0108484D01*
X0033985Y0101780D01*
X0034199Y0101566D01*
X0028750Y0096117D01*
X0028750Y0089867D01*
X0024000Y0089867D01*
X0024000Y0098595D01*
X0027554Y0100916D01*
X0030173Y0104282D01*
X0031558Y0108315D01*
X0031558Y0112580D01*
X0030173Y0116613D01*
X0028613Y0118617D01*
X0028874Y0118282D02*
X0051250Y0118282D01*
X0051250Y0117783D02*
X0029262Y0117783D01*
X0029650Y0117285D02*
X0051250Y0117285D01*
X0051250Y0116786D02*
X0030038Y0116786D01*
X0030285Y0116288D02*
X0051250Y0116288D01*
X0051250Y0115789D02*
X0030456Y0115789D01*
X0030627Y0115291D02*
X0051250Y0115291D01*
X0051250Y0114792D02*
X0030798Y0114792D01*
X0030969Y0114294D02*
X0051250Y0114294D01*
X0051250Y0113795D02*
X0031140Y0113795D01*
X0031311Y0113297D02*
X0051250Y0113297D01*
X0051250Y0112798D02*
X0031483Y0112798D01*
X0031558Y0112300D02*
X0044933Y0112300D01*
X0044434Y0111801D02*
X0031558Y0111801D01*
X0031558Y0111303D02*
X0043936Y0111303D01*
X0043437Y0110804D02*
X0031558Y0110804D01*
X0031558Y0110306D02*
X0042939Y0110306D01*
X0042440Y0109807D02*
X0031558Y0109807D01*
X0031558Y0109309D02*
X0041942Y0109309D01*
X0041443Y0108810D02*
X0041359Y0108810D01*
X0034310Y0108810D02*
X0031558Y0108810D01*
X0031556Y0108311D02*
X0033985Y0108311D01*
X0033985Y0107813D02*
X0031385Y0107813D01*
X0031214Y0107314D02*
X0033985Y0107314D01*
X0033985Y0106816D02*
X0031043Y0106816D01*
X0030872Y0106317D02*
X0033985Y0106317D01*
X0033985Y0105819D02*
X0030701Y0105819D01*
X0030529Y0105320D02*
X0033985Y0105320D01*
X0033985Y0104822D02*
X0030358Y0104822D01*
X0030187Y0104323D02*
X0033985Y0104323D01*
X0033985Y0103825D02*
X0029817Y0103825D01*
X0029429Y0103326D02*
X0033985Y0103326D01*
X0033985Y0102828D02*
X0029041Y0102828D01*
X0028653Y0102329D02*
X0033985Y0102329D01*
X0033985Y0101831D02*
X0028265Y0101831D01*
X0027877Y0101332D02*
X0033966Y0101332D01*
X0033467Y0100834D02*
X0027427Y0100834D01*
X0026664Y0100335D02*
X0032969Y0100335D01*
X0032470Y0099837D02*
X0025901Y0099837D01*
X0025138Y0099338D02*
X0031972Y0099338D01*
X0031473Y0098840D02*
X0024375Y0098840D01*
X0024000Y0098341D02*
X0030975Y0098341D01*
X0030476Y0097843D02*
X0024000Y0097843D01*
X0024000Y0097344D02*
X0029978Y0097344D01*
X0029479Y0096846D02*
X0024000Y0096846D01*
X0024000Y0096347D02*
X0028981Y0096347D01*
X0028750Y0095849D02*
X0024000Y0095849D01*
X0024000Y0095350D02*
X0028750Y0095350D01*
X0028750Y0094852D02*
X0024000Y0094852D01*
X0024000Y0094353D02*
X0028750Y0094353D01*
X0028750Y0093855D02*
X0024000Y0093855D01*
X0024000Y0093356D02*
X0028750Y0093356D01*
X0028750Y0092858D02*
X0024000Y0092858D01*
X0024000Y0092359D02*
X0028750Y0092359D01*
X0028750Y0091861D02*
X0024000Y0091861D01*
X0024000Y0091362D02*
X0028750Y0091362D01*
X0028750Y0090864D02*
X0024000Y0090864D01*
X0024000Y0090365D02*
X0028750Y0090365D01*
X0023750Y0067367D02*
X0036250Y0067367D01*
X0036250Y0056617D01*
X0035525Y0056617D01*
X0033775Y0054867D01*
X0023750Y0054867D01*
X0023750Y0067367D01*
X0023750Y0066935D02*
X0036250Y0066935D01*
X0036250Y0066437D02*
X0023750Y0066437D01*
X0023750Y0065938D02*
X0036250Y0065938D01*
X0036250Y0065440D02*
X0023750Y0065440D01*
X0023750Y0064941D02*
X0036250Y0064941D01*
X0036250Y0064442D02*
X0023750Y0064442D01*
X0023750Y0063944D02*
X0036250Y0063944D01*
X0036250Y0063445D02*
X0023750Y0063445D01*
X0023750Y0062947D02*
X0036250Y0062947D01*
X0036250Y0062448D02*
X0023750Y0062448D01*
X0023750Y0061950D02*
X0036250Y0061950D01*
X0036250Y0061451D02*
X0023750Y0061451D01*
X0023750Y0060953D02*
X0036250Y0060953D01*
X0036250Y0060454D02*
X0023750Y0060454D01*
X0023750Y0059956D02*
X0036250Y0059956D01*
X0036250Y0059457D02*
X0023750Y0059457D01*
X0023750Y0058959D02*
X0036250Y0058959D01*
X0036250Y0058460D02*
X0023750Y0058460D01*
X0023750Y0057962D02*
X0036250Y0057962D01*
X0036250Y0057463D02*
X0023750Y0057463D01*
X0023750Y0056965D02*
X0036250Y0056965D01*
X0035375Y0056466D02*
X0023750Y0056466D01*
X0023750Y0055968D02*
X0034876Y0055968D01*
X0034378Y0055469D02*
X0023750Y0055469D01*
X0023750Y0054971D02*
X0033879Y0054971D01*
D21*
X0037500Y0051117D03*
X0032500Y0048617D03*
X0011250Y0049867D03*
X0011250Y0042367D03*
X0019375Y0035492D03*
X0046250Y0035367D03*
X0066875Y0041117D03*
X0084375Y0051742D03*
X0089375Y0049242D03*
X0093750Y0053617D03*
X0087500Y0055492D03*
X0103750Y0059867D03*
X0098750Y0064867D03*
X0098750Y0074867D03*
X0087627Y0077493D03*
X0085000Y0081117D03*
X0093750Y0086117D03*
X0080625Y0089242D03*
X0065625Y0078617D03*
X0047500Y0089867D03*
X0027125Y0097992D03*
X0026250Y0095492D03*
X0026250Y0092992D03*
X0011250Y0087367D03*
X0011250Y0079867D03*
X0011250Y0072367D03*
X0054375Y0064242D03*
X0089375Y0042992D03*
X0093750Y0042992D03*
X0098125Y0042992D03*
X0110000Y0046117D03*
X0105000Y0034867D03*
X0110000Y0026117D03*
X0101250Y0008617D03*
X0077500Y0008617D03*
X0034375Y0014242D03*
X0133750Y0046117D03*
X0132500Y0058617D03*
X0137500Y0061742D03*
X0134375Y0064867D03*
X0130000Y0064867D03*
X0118750Y0074867D03*
X0130000Y0079867D03*
X0138750Y0081117D03*
X0113750Y0082367D03*
X0111250Y0093617D03*
X0102500Y0098617D03*
X0129375Y0093617D03*
X0166875Y0079867D03*
X0184375Y0089242D03*
X0207500Y0087992D03*
X0231250Y0094242D03*
X0245000Y0093617D03*
X0206250Y0067367D03*
X0183125Y0061117D03*
X0169375Y0059867D03*
X0158750Y0061742D03*
X0187500Y0040492D03*
X0194375Y0029867D03*
X0218750Y0027992D03*
X0230625Y0031117D03*
X0220000Y0039867D03*
X0215000Y0045492D03*
X0210000Y0054867D03*
X0231875Y0049242D03*
X0256875Y0064242D03*
X0151875Y0033617D03*
X0150000Y0031742D03*
X0148125Y0029867D03*
X0167500Y0011117D03*
D22*
X0072500Y0047367D03*
X0180000Y0079242D03*
X0190000Y0075492D03*
D23*
X0151875Y0033617D02*
X0150000Y0031742D01*
X0148125Y0029867D01*
X0049379Y0029867D01*
X0043500Y0023988D01*
X0043500Y0016617D01*
X0042500Y0015617D01*
X0042500Y0014867D01*
M02*
