G75*
%MOIN*%
%OFA0B0*%
%FSLAX25Y25*%
%IPPOS*%
%LPD*%
%AMOC8*
5,1,8,0,0,1.08239X$1,22.5*
%
%ADD10C,0.00000*%
%ADD11C,0.11824*%
%ADD12R,0.06800X0.06800*%
%ADD13OC8,0.06800*%
%ADD14C,0.01391*%
%ADD15C,0.07493*%
%ADD16C,0.06800*%
%ADD17C,0.05800*%
%ADD18C,0.05950*%
%ADD19C,0.03581*%
%ADD20C,0.03778*%
D10*
X0016811Y0006117D02*
X0249094Y0006117D01*
X0249379Y0006120D01*
X0249665Y0006131D01*
X0249950Y0006148D01*
X0250234Y0006172D01*
X0250518Y0006203D01*
X0250801Y0006241D01*
X0251082Y0006286D01*
X0251363Y0006337D01*
X0251643Y0006395D01*
X0251921Y0006460D01*
X0252197Y0006532D01*
X0252471Y0006610D01*
X0252744Y0006695D01*
X0253014Y0006787D01*
X0253282Y0006885D01*
X0253548Y0006989D01*
X0253811Y0007100D01*
X0254071Y0007217D01*
X0254329Y0007340D01*
X0254583Y0007470D01*
X0254834Y0007606D01*
X0255082Y0007747D01*
X0255326Y0007895D01*
X0255567Y0008048D01*
X0255803Y0008208D01*
X0256036Y0008373D01*
X0256265Y0008543D01*
X0256490Y0008719D01*
X0256710Y0008901D01*
X0256926Y0009087D01*
X0257137Y0009279D01*
X0257344Y0009476D01*
X0257546Y0009678D01*
X0257743Y0009885D01*
X0257935Y0010096D01*
X0258121Y0010312D01*
X0258303Y0010532D01*
X0258479Y0010757D01*
X0258649Y0010986D01*
X0258814Y0011219D01*
X0258974Y0011455D01*
X0259127Y0011696D01*
X0259275Y0011940D01*
X0259416Y0012188D01*
X0259552Y0012439D01*
X0259682Y0012693D01*
X0259805Y0012951D01*
X0259922Y0013211D01*
X0260033Y0013474D01*
X0260137Y0013740D01*
X0260235Y0014008D01*
X0260327Y0014278D01*
X0260412Y0014551D01*
X0260490Y0014825D01*
X0260562Y0015101D01*
X0260627Y0015379D01*
X0260685Y0015659D01*
X0260736Y0015940D01*
X0260781Y0016221D01*
X0260819Y0016504D01*
X0260850Y0016788D01*
X0260874Y0017072D01*
X0260891Y0017357D01*
X0260902Y0017643D01*
X0260905Y0017928D01*
X0260906Y0017928D02*
X0260906Y0112416D01*
X0260905Y0112416D02*
X0260902Y0112701D01*
X0260891Y0112987D01*
X0260874Y0113272D01*
X0260850Y0113556D01*
X0260819Y0113840D01*
X0260781Y0114123D01*
X0260736Y0114404D01*
X0260685Y0114685D01*
X0260627Y0114965D01*
X0260562Y0115243D01*
X0260490Y0115519D01*
X0260412Y0115793D01*
X0260327Y0116066D01*
X0260235Y0116336D01*
X0260137Y0116604D01*
X0260033Y0116870D01*
X0259922Y0117133D01*
X0259805Y0117393D01*
X0259682Y0117651D01*
X0259552Y0117905D01*
X0259416Y0118156D01*
X0259275Y0118404D01*
X0259127Y0118648D01*
X0258974Y0118889D01*
X0258814Y0119125D01*
X0258649Y0119358D01*
X0258479Y0119587D01*
X0258303Y0119812D01*
X0258121Y0120032D01*
X0257935Y0120248D01*
X0257743Y0120459D01*
X0257546Y0120666D01*
X0257344Y0120868D01*
X0257137Y0121065D01*
X0256926Y0121257D01*
X0256710Y0121443D01*
X0256490Y0121625D01*
X0256265Y0121801D01*
X0256036Y0121971D01*
X0255803Y0122136D01*
X0255567Y0122296D01*
X0255326Y0122449D01*
X0255082Y0122597D01*
X0254834Y0122738D01*
X0254583Y0122874D01*
X0254329Y0123004D01*
X0254071Y0123127D01*
X0253811Y0123244D01*
X0253548Y0123355D01*
X0253282Y0123459D01*
X0253014Y0123557D01*
X0252744Y0123649D01*
X0252471Y0123734D01*
X0252197Y0123812D01*
X0251921Y0123884D01*
X0251643Y0123949D01*
X0251363Y0124007D01*
X0251082Y0124058D01*
X0250801Y0124103D01*
X0250518Y0124141D01*
X0250234Y0124172D01*
X0249950Y0124196D01*
X0249665Y0124213D01*
X0249379Y0124224D01*
X0249094Y0124227D01*
X0016811Y0124227D01*
X0016526Y0124224D01*
X0016240Y0124213D01*
X0015955Y0124196D01*
X0015671Y0124172D01*
X0015387Y0124141D01*
X0015104Y0124103D01*
X0014823Y0124058D01*
X0014542Y0124007D01*
X0014262Y0123949D01*
X0013984Y0123884D01*
X0013708Y0123812D01*
X0013434Y0123734D01*
X0013161Y0123649D01*
X0012891Y0123557D01*
X0012623Y0123459D01*
X0012357Y0123355D01*
X0012094Y0123244D01*
X0011834Y0123127D01*
X0011576Y0123004D01*
X0011322Y0122874D01*
X0011071Y0122738D01*
X0010823Y0122597D01*
X0010579Y0122449D01*
X0010338Y0122296D01*
X0010102Y0122136D01*
X0009869Y0121971D01*
X0009640Y0121801D01*
X0009415Y0121625D01*
X0009195Y0121443D01*
X0008979Y0121257D01*
X0008768Y0121065D01*
X0008561Y0120868D01*
X0008359Y0120666D01*
X0008162Y0120459D01*
X0007970Y0120248D01*
X0007784Y0120032D01*
X0007602Y0119812D01*
X0007426Y0119587D01*
X0007256Y0119358D01*
X0007091Y0119125D01*
X0006931Y0118889D01*
X0006778Y0118648D01*
X0006630Y0118404D01*
X0006489Y0118156D01*
X0006353Y0117905D01*
X0006223Y0117651D01*
X0006100Y0117393D01*
X0005983Y0117133D01*
X0005872Y0116870D01*
X0005768Y0116604D01*
X0005670Y0116336D01*
X0005578Y0116066D01*
X0005493Y0115793D01*
X0005415Y0115519D01*
X0005343Y0115243D01*
X0005278Y0114965D01*
X0005220Y0114685D01*
X0005169Y0114404D01*
X0005124Y0114123D01*
X0005086Y0113840D01*
X0005055Y0113556D01*
X0005031Y0113272D01*
X0005014Y0112987D01*
X0005003Y0112701D01*
X0005000Y0112416D01*
X0005000Y0017928D01*
X0005003Y0017643D01*
X0005014Y0017357D01*
X0005031Y0017072D01*
X0005055Y0016788D01*
X0005086Y0016504D01*
X0005124Y0016221D01*
X0005169Y0015940D01*
X0005220Y0015659D01*
X0005278Y0015379D01*
X0005343Y0015101D01*
X0005415Y0014825D01*
X0005493Y0014551D01*
X0005578Y0014278D01*
X0005670Y0014008D01*
X0005768Y0013740D01*
X0005872Y0013474D01*
X0005983Y0013211D01*
X0006100Y0012951D01*
X0006223Y0012693D01*
X0006353Y0012439D01*
X0006489Y0012188D01*
X0006630Y0011940D01*
X0006778Y0011696D01*
X0006931Y0011455D01*
X0007091Y0011219D01*
X0007256Y0010986D01*
X0007426Y0010757D01*
X0007602Y0010532D01*
X0007784Y0010312D01*
X0007970Y0010096D01*
X0008162Y0009885D01*
X0008359Y0009678D01*
X0008561Y0009476D01*
X0008768Y0009279D01*
X0008979Y0009087D01*
X0009195Y0008901D01*
X0009415Y0008719D01*
X0009640Y0008543D01*
X0009869Y0008373D01*
X0010102Y0008208D01*
X0010338Y0008048D01*
X0010579Y0007895D01*
X0010823Y0007747D01*
X0011071Y0007606D01*
X0011322Y0007470D01*
X0011576Y0007340D01*
X0011834Y0007217D01*
X0012094Y0007100D01*
X0012357Y0006989D01*
X0012623Y0006885D01*
X0012891Y0006787D01*
X0013161Y0006695D01*
X0013434Y0006610D01*
X0013708Y0006532D01*
X0013984Y0006460D01*
X0014262Y0006395D01*
X0014542Y0006337D01*
X0014823Y0006286D01*
X0015104Y0006241D01*
X0015387Y0006203D01*
X0015671Y0006172D01*
X0015955Y0006148D01*
X0016240Y0006131D01*
X0016526Y0006120D01*
X0016811Y0006117D01*
X0013268Y0019896D02*
X0013270Y0020044D01*
X0013276Y0020192D01*
X0013286Y0020340D01*
X0013300Y0020487D01*
X0013318Y0020634D01*
X0013339Y0020780D01*
X0013365Y0020926D01*
X0013395Y0021071D01*
X0013428Y0021215D01*
X0013466Y0021358D01*
X0013507Y0021500D01*
X0013552Y0021641D01*
X0013600Y0021781D01*
X0013653Y0021920D01*
X0013709Y0022057D01*
X0013769Y0022192D01*
X0013832Y0022326D01*
X0013899Y0022458D01*
X0013970Y0022588D01*
X0014044Y0022716D01*
X0014121Y0022842D01*
X0014202Y0022966D01*
X0014286Y0023088D01*
X0014373Y0023207D01*
X0014464Y0023324D01*
X0014558Y0023439D01*
X0014654Y0023551D01*
X0014754Y0023661D01*
X0014856Y0023767D01*
X0014962Y0023871D01*
X0015070Y0023972D01*
X0015181Y0024070D01*
X0015294Y0024166D01*
X0015410Y0024258D01*
X0015528Y0024347D01*
X0015649Y0024432D01*
X0015772Y0024515D01*
X0015897Y0024594D01*
X0016024Y0024670D01*
X0016153Y0024742D01*
X0016284Y0024811D01*
X0016417Y0024876D01*
X0016552Y0024937D01*
X0016688Y0024995D01*
X0016825Y0025050D01*
X0016964Y0025100D01*
X0017105Y0025147D01*
X0017246Y0025190D01*
X0017389Y0025230D01*
X0017533Y0025265D01*
X0017677Y0025297D01*
X0017823Y0025324D01*
X0017969Y0025348D01*
X0018116Y0025368D01*
X0018263Y0025384D01*
X0018410Y0025396D01*
X0018558Y0025404D01*
X0018706Y0025408D01*
X0018854Y0025408D01*
X0019002Y0025404D01*
X0019150Y0025396D01*
X0019297Y0025384D01*
X0019444Y0025368D01*
X0019591Y0025348D01*
X0019737Y0025324D01*
X0019883Y0025297D01*
X0020027Y0025265D01*
X0020171Y0025230D01*
X0020314Y0025190D01*
X0020455Y0025147D01*
X0020596Y0025100D01*
X0020735Y0025050D01*
X0020872Y0024995D01*
X0021008Y0024937D01*
X0021143Y0024876D01*
X0021276Y0024811D01*
X0021407Y0024742D01*
X0021536Y0024670D01*
X0021663Y0024594D01*
X0021788Y0024515D01*
X0021911Y0024432D01*
X0022032Y0024347D01*
X0022150Y0024258D01*
X0022266Y0024166D01*
X0022379Y0024070D01*
X0022490Y0023972D01*
X0022598Y0023871D01*
X0022704Y0023767D01*
X0022806Y0023661D01*
X0022906Y0023551D01*
X0023002Y0023439D01*
X0023096Y0023324D01*
X0023187Y0023207D01*
X0023274Y0023088D01*
X0023358Y0022966D01*
X0023439Y0022842D01*
X0023516Y0022716D01*
X0023590Y0022588D01*
X0023661Y0022458D01*
X0023728Y0022326D01*
X0023791Y0022192D01*
X0023851Y0022057D01*
X0023907Y0021920D01*
X0023960Y0021781D01*
X0024008Y0021641D01*
X0024053Y0021500D01*
X0024094Y0021358D01*
X0024132Y0021215D01*
X0024165Y0021071D01*
X0024195Y0020926D01*
X0024221Y0020780D01*
X0024242Y0020634D01*
X0024260Y0020487D01*
X0024274Y0020340D01*
X0024284Y0020192D01*
X0024290Y0020044D01*
X0024292Y0019896D01*
X0024290Y0019748D01*
X0024284Y0019600D01*
X0024274Y0019452D01*
X0024260Y0019305D01*
X0024242Y0019158D01*
X0024221Y0019012D01*
X0024195Y0018866D01*
X0024165Y0018721D01*
X0024132Y0018577D01*
X0024094Y0018434D01*
X0024053Y0018292D01*
X0024008Y0018151D01*
X0023960Y0018011D01*
X0023907Y0017872D01*
X0023851Y0017735D01*
X0023791Y0017600D01*
X0023728Y0017466D01*
X0023661Y0017334D01*
X0023590Y0017204D01*
X0023516Y0017076D01*
X0023439Y0016950D01*
X0023358Y0016826D01*
X0023274Y0016704D01*
X0023187Y0016585D01*
X0023096Y0016468D01*
X0023002Y0016353D01*
X0022906Y0016241D01*
X0022806Y0016131D01*
X0022704Y0016025D01*
X0022598Y0015921D01*
X0022490Y0015820D01*
X0022379Y0015722D01*
X0022266Y0015626D01*
X0022150Y0015534D01*
X0022032Y0015445D01*
X0021911Y0015360D01*
X0021788Y0015277D01*
X0021663Y0015198D01*
X0021536Y0015122D01*
X0021407Y0015050D01*
X0021276Y0014981D01*
X0021143Y0014916D01*
X0021008Y0014855D01*
X0020872Y0014797D01*
X0020735Y0014742D01*
X0020596Y0014692D01*
X0020455Y0014645D01*
X0020314Y0014602D01*
X0020171Y0014562D01*
X0020027Y0014527D01*
X0019883Y0014495D01*
X0019737Y0014468D01*
X0019591Y0014444D01*
X0019444Y0014424D01*
X0019297Y0014408D01*
X0019150Y0014396D01*
X0019002Y0014388D01*
X0018854Y0014384D01*
X0018706Y0014384D01*
X0018558Y0014388D01*
X0018410Y0014396D01*
X0018263Y0014408D01*
X0018116Y0014424D01*
X0017969Y0014444D01*
X0017823Y0014468D01*
X0017677Y0014495D01*
X0017533Y0014527D01*
X0017389Y0014562D01*
X0017246Y0014602D01*
X0017105Y0014645D01*
X0016964Y0014692D01*
X0016825Y0014742D01*
X0016688Y0014797D01*
X0016552Y0014855D01*
X0016417Y0014916D01*
X0016284Y0014981D01*
X0016153Y0015050D01*
X0016024Y0015122D01*
X0015897Y0015198D01*
X0015772Y0015277D01*
X0015649Y0015360D01*
X0015528Y0015445D01*
X0015410Y0015534D01*
X0015294Y0015626D01*
X0015181Y0015722D01*
X0015070Y0015820D01*
X0014962Y0015921D01*
X0014856Y0016025D01*
X0014754Y0016131D01*
X0014654Y0016241D01*
X0014558Y0016353D01*
X0014464Y0016468D01*
X0014373Y0016585D01*
X0014286Y0016704D01*
X0014202Y0016826D01*
X0014121Y0016950D01*
X0014044Y0017076D01*
X0013970Y0017204D01*
X0013899Y0017334D01*
X0013832Y0017466D01*
X0013769Y0017600D01*
X0013709Y0017735D01*
X0013653Y0017872D01*
X0013600Y0018011D01*
X0013552Y0018151D01*
X0013507Y0018292D01*
X0013466Y0018434D01*
X0013428Y0018577D01*
X0013395Y0018721D01*
X0013365Y0018866D01*
X0013339Y0019012D01*
X0013318Y0019158D01*
X0013300Y0019305D01*
X0013286Y0019452D01*
X0013276Y0019600D01*
X0013270Y0019748D01*
X0013268Y0019896D01*
X0158199Y0044867D02*
X0158201Y0044901D01*
X0158207Y0044935D01*
X0158217Y0044968D01*
X0158230Y0044999D01*
X0158248Y0045029D01*
X0158268Y0045057D01*
X0158292Y0045082D01*
X0158318Y0045104D01*
X0158346Y0045122D01*
X0158377Y0045138D01*
X0158409Y0045150D01*
X0158443Y0045158D01*
X0158477Y0045162D01*
X0158511Y0045162D01*
X0158545Y0045158D01*
X0158579Y0045150D01*
X0158611Y0045138D01*
X0158641Y0045122D01*
X0158670Y0045104D01*
X0158696Y0045082D01*
X0158720Y0045057D01*
X0158740Y0045029D01*
X0158758Y0044999D01*
X0158771Y0044968D01*
X0158781Y0044935D01*
X0158787Y0044901D01*
X0158789Y0044867D01*
X0158787Y0044833D01*
X0158781Y0044799D01*
X0158771Y0044766D01*
X0158758Y0044735D01*
X0158740Y0044705D01*
X0158720Y0044677D01*
X0158696Y0044652D01*
X0158670Y0044630D01*
X0158642Y0044612D01*
X0158611Y0044596D01*
X0158579Y0044584D01*
X0158545Y0044576D01*
X0158511Y0044572D01*
X0158477Y0044572D01*
X0158443Y0044576D01*
X0158409Y0044584D01*
X0158377Y0044596D01*
X0158346Y0044612D01*
X0158318Y0044630D01*
X0158292Y0044652D01*
X0158268Y0044677D01*
X0158248Y0044705D01*
X0158230Y0044735D01*
X0158217Y0044766D01*
X0158207Y0044799D01*
X0158201Y0044833D01*
X0158199Y0044867D01*
X0160955Y0044867D02*
X0160957Y0044901D01*
X0160963Y0044935D01*
X0160973Y0044968D01*
X0160986Y0044999D01*
X0161004Y0045029D01*
X0161024Y0045057D01*
X0161048Y0045082D01*
X0161074Y0045104D01*
X0161102Y0045122D01*
X0161133Y0045138D01*
X0161165Y0045150D01*
X0161199Y0045158D01*
X0161233Y0045162D01*
X0161267Y0045162D01*
X0161301Y0045158D01*
X0161335Y0045150D01*
X0161367Y0045138D01*
X0161397Y0045122D01*
X0161426Y0045104D01*
X0161452Y0045082D01*
X0161476Y0045057D01*
X0161496Y0045029D01*
X0161514Y0044999D01*
X0161527Y0044968D01*
X0161537Y0044935D01*
X0161543Y0044901D01*
X0161545Y0044867D01*
X0161543Y0044833D01*
X0161537Y0044799D01*
X0161527Y0044766D01*
X0161514Y0044735D01*
X0161496Y0044705D01*
X0161476Y0044677D01*
X0161452Y0044652D01*
X0161426Y0044630D01*
X0161398Y0044612D01*
X0161367Y0044596D01*
X0161335Y0044584D01*
X0161301Y0044576D01*
X0161267Y0044572D01*
X0161233Y0044572D01*
X0161199Y0044576D01*
X0161165Y0044584D01*
X0161133Y0044596D01*
X0161102Y0044612D01*
X0161074Y0044630D01*
X0161048Y0044652D01*
X0161024Y0044677D01*
X0161004Y0044705D01*
X0160986Y0044735D01*
X0160973Y0044766D01*
X0160963Y0044799D01*
X0160957Y0044833D01*
X0160955Y0044867D01*
X0163711Y0044867D02*
X0163713Y0044901D01*
X0163719Y0044935D01*
X0163729Y0044968D01*
X0163742Y0044999D01*
X0163760Y0045029D01*
X0163780Y0045057D01*
X0163804Y0045082D01*
X0163830Y0045104D01*
X0163858Y0045122D01*
X0163889Y0045138D01*
X0163921Y0045150D01*
X0163955Y0045158D01*
X0163989Y0045162D01*
X0164023Y0045162D01*
X0164057Y0045158D01*
X0164091Y0045150D01*
X0164123Y0045138D01*
X0164153Y0045122D01*
X0164182Y0045104D01*
X0164208Y0045082D01*
X0164232Y0045057D01*
X0164252Y0045029D01*
X0164270Y0044999D01*
X0164283Y0044968D01*
X0164293Y0044935D01*
X0164299Y0044901D01*
X0164301Y0044867D01*
X0164299Y0044833D01*
X0164293Y0044799D01*
X0164283Y0044766D01*
X0164270Y0044735D01*
X0164252Y0044705D01*
X0164232Y0044677D01*
X0164208Y0044652D01*
X0164182Y0044630D01*
X0164154Y0044612D01*
X0164123Y0044596D01*
X0164091Y0044584D01*
X0164057Y0044576D01*
X0164023Y0044572D01*
X0163989Y0044572D01*
X0163955Y0044576D01*
X0163921Y0044584D01*
X0163889Y0044596D01*
X0163858Y0044612D01*
X0163830Y0044630D01*
X0163804Y0044652D01*
X0163780Y0044677D01*
X0163760Y0044705D01*
X0163742Y0044735D01*
X0163729Y0044766D01*
X0163719Y0044799D01*
X0163713Y0044833D01*
X0163711Y0044867D01*
X0241614Y0019896D02*
X0241616Y0020044D01*
X0241622Y0020192D01*
X0241632Y0020340D01*
X0241646Y0020487D01*
X0241664Y0020634D01*
X0241685Y0020780D01*
X0241711Y0020926D01*
X0241741Y0021071D01*
X0241774Y0021215D01*
X0241812Y0021358D01*
X0241853Y0021500D01*
X0241898Y0021641D01*
X0241946Y0021781D01*
X0241999Y0021920D01*
X0242055Y0022057D01*
X0242115Y0022192D01*
X0242178Y0022326D01*
X0242245Y0022458D01*
X0242316Y0022588D01*
X0242390Y0022716D01*
X0242467Y0022842D01*
X0242548Y0022966D01*
X0242632Y0023088D01*
X0242719Y0023207D01*
X0242810Y0023324D01*
X0242904Y0023439D01*
X0243000Y0023551D01*
X0243100Y0023661D01*
X0243202Y0023767D01*
X0243308Y0023871D01*
X0243416Y0023972D01*
X0243527Y0024070D01*
X0243640Y0024166D01*
X0243756Y0024258D01*
X0243874Y0024347D01*
X0243995Y0024432D01*
X0244118Y0024515D01*
X0244243Y0024594D01*
X0244370Y0024670D01*
X0244499Y0024742D01*
X0244630Y0024811D01*
X0244763Y0024876D01*
X0244898Y0024937D01*
X0245034Y0024995D01*
X0245171Y0025050D01*
X0245310Y0025100D01*
X0245451Y0025147D01*
X0245592Y0025190D01*
X0245735Y0025230D01*
X0245879Y0025265D01*
X0246023Y0025297D01*
X0246169Y0025324D01*
X0246315Y0025348D01*
X0246462Y0025368D01*
X0246609Y0025384D01*
X0246756Y0025396D01*
X0246904Y0025404D01*
X0247052Y0025408D01*
X0247200Y0025408D01*
X0247348Y0025404D01*
X0247496Y0025396D01*
X0247643Y0025384D01*
X0247790Y0025368D01*
X0247937Y0025348D01*
X0248083Y0025324D01*
X0248229Y0025297D01*
X0248373Y0025265D01*
X0248517Y0025230D01*
X0248660Y0025190D01*
X0248801Y0025147D01*
X0248942Y0025100D01*
X0249081Y0025050D01*
X0249218Y0024995D01*
X0249354Y0024937D01*
X0249489Y0024876D01*
X0249622Y0024811D01*
X0249753Y0024742D01*
X0249882Y0024670D01*
X0250009Y0024594D01*
X0250134Y0024515D01*
X0250257Y0024432D01*
X0250378Y0024347D01*
X0250496Y0024258D01*
X0250612Y0024166D01*
X0250725Y0024070D01*
X0250836Y0023972D01*
X0250944Y0023871D01*
X0251050Y0023767D01*
X0251152Y0023661D01*
X0251252Y0023551D01*
X0251348Y0023439D01*
X0251442Y0023324D01*
X0251533Y0023207D01*
X0251620Y0023088D01*
X0251704Y0022966D01*
X0251785Y0022842D01*
X0251862Y0022716D01*
X0251936Y0022588D01*
X0252007Y0022458D01*
X0252074Y0022326D01*
X0252137Y0022192D01*
X0252197Y0022057D01*
X0252253Y0021920D01*
X0252306Y0021781D01*
X0252354Y0021641D01*
X0252399Y0021500D01*
X0252440Y0021358D01*
X0252478Y0021215D01*
X0252511Y0021071D01*
X0252541Y0020926D01*
X0252567Y0020780D01*
X0252588Y0020634D01*
X0252606Y0020487D01*
X0252620Y0020340D01*
X0252630Y0020192D01*
X0252636Y0020044D01*
X0252638Y0019896D01*
X0252636Y0019748D01*
X0252630Y0019600D01*
X0252620Y0019452D01*
X0252606Y0019305D01*
X0252588Y0019158D01*
X0252567Y0019012D01*
X0252541Y0018866D01*
X0252511Y0018721D01*
X0252478Y0018577D01*
X0252440Y0018434D01*
X0252399Y0018292D01*
X0252354Y0018151D01*
X0252306Y0018011D01*
X0252253Y0017872D01*
X0252197Y0017735D01*
X0252137Y0017600D01*
X0252074Y0017466D01*
X0252007Y0017334D01*
X0251936Y0017204D01*
X0251862Y0017076D01*
X0251785Y0016950D01*
X0251704Y0016826D01*
X0251620Y0016704D01*
X0251533Y0016585D01*
X0251442Y0016468D01*
X0251348Y0016353D01*
X0251252Y0016241D01*
X0251152Y0016131D01*
X0251050Y0016025D01*
X0250944Y0015921D01*
X0250836Y0015820D01*
X0250725Y0015722D01*
X0250612Y0015626D01*
X0250496Y0015534D01*
X0250378Y0015445D01*
X0250257Y0015360D01*
X0250134Y0015277D01*
X0250009Y0015198D01*
X0249882Y0015122D01*
X0249753Y0015050D01*
X0249622Y0014981D01*
X0249489Y0014916D01*
X0249354Y0014855D01*
X0249218Y0014797D01*
X0249081Y0014742D01*
X0248942Y0014692D01*
X0248801Y0014645D01*
X0248660Y0014602D01*
X0248517Y0014562D01*
X0248373Y0014527D01*
X0248229Y0014495D01*
X0248083Y0014468D01*
X0247937Y0014444D01*
X0247790Y0014424D01*
X0247643Y0014408D01*
X0247496Y0014396D01*
X0247348Y0014388D01*
X0247200Y0014384D01*
X0247052Y0014384D01*
X0246904Y0014388D01*
X0246756Y0014396D01*
X0246609Y0014408D01*
X0246462Y0014424D01*
X0246315Y0014444D01*
X0246169Y0014468D01*
X0246023Y0014495D01*
X0245879Y0014527D01*
X0245735Y0014562D01*
X0245592Y0014602D01*
X0245451Y0014645D01*
X0245310Y0014692D01*
X0245171Y0014742D01*
X0245034Y0014797D01*
X0244898Y0014855D01*
X0244763Y0014916D01*
X0244630Y0014981D01*
X0244499Y0015050D01*
X0244370Y0015122D01*
X0244243Y0015198D01*
X0244118Y0015277D01*
X0243995Y0015360D01*
X0243874Y0015445D01*
X0243756Y0015534D01*
X0243640Y0015626D01*
X0243527Y0015722D01*
X0243416Y0015820D01*
X0243308Y0015921D01*
X0243202Y0016025D01*
X0243100Y0016131D01*
X0243000Y0016241D01*
X0242904Y0016353D01*
X0242810Y0016468D01*
X0242719Y0016585D01*
X0242632Y0016704D01*
X0242548Y0016826D01*
X0242467Y0016950D01*
X0242390Y0017076D01*
X0242316Y0017204D01*
X0242245Y0017334D01*
X0242178Y0017466D01*
X0242115Y0017600D01*
X0242055Y0017735D01*
X0241999Y0017872D01*
X0241946Y0018011D01*
X0241898Y0018151D01*
X0241853Y0018292D01*
X0241812Y0018434D01*
X0241774Y0018577D01*
X0241741Y0018721D01*
X0241711Y0018866D01*
X0241685Y0019012D01*
X0241664Y0019158D01*
X0241646Y0019305D01*
X0241632Y0019452D01*
X0241622Y0019600D01*
X0241616Y0019748D01*
X0241614Y0019896D01*
X0241614Y0110447D02*
X0241616Y0110595D01*
X0241622Y0110743D01*
X0241632Y0110891D01*
X0241646Y0111038D01*
X0241664Y0111185D01*
X0241685Y0111331D01*
X0241711Y0111477D01*
X0241741Y0111622D01*
X0241774Y0111766D01*
X0241812Y0111909D01*
X0241853Y0112051D01*
X0241898Y0112192D01*
X0241946Y0112332D01*
X0241999Y0112471D01*
X0242055Y0112608D01*
X0242115Y0112743D01*
X0242178Y0112877D01*
X0242245Y0113009D01*
X0242316Y0113139D01*
X0242390Y0113267D01*
X0242467Y0113393D01*
X0242548Y0113517D01*
X0242632Y0113639D01*
X0242719Y0113758D01*
X0242810Y0113875D01*
X0242904Y0113990D01*
X0243000Y0114102D01*
X0243100Y0114212D01*
X0243202Y0114318D01*
X0243308Y0114422D01*
X0243416Y0114523D01*
X0243527Y0114621D01*
X0243640Y0114717D01*
X0243756Y0114809D01*
X0243874Y0114898D01*
X0243995Y0114983D01*
X0244118Y0115066D01*
X0244243Y0115145D01*
X0244370Y0115221D01*
X0244499Y0115293D01*
X0244630Y0115362D01*
X0244763Y0115427D01*
X0244898Y0115488D01*
X0245034Y0115546D01*
X0245171Y0115601D01*
X0245310Y0115651D01*
X0245451Y0115698D01*
X0245592Y0115741D01*
X0245735Y0115781D01*
X0245879Y0115816D01*
X0246023Y0115848D01*
X0246169Y0115875D01*
X0246315Y0115899D01*
X0246462Y0115919D01*
X0246609Y0115935D01*
X0246756Y0115947D01*
X0246904Y0115955D01*
X0247052Y0115959D01*
X0247200Y0115959D01*
X0247348Y0115955D01*
X0247496Y0115947D01*
X0247643Y0115935D01*
X0247790Y0115919D01*
X0247937Y0115899D01*
X0248083Y0115875D01*
X0248229Y0115848D01*
X0248373Y0115816D01*
X0248517Y0115781D01*
X0248660Y0115741D01*
X0248801Y0115698D01*
X0248942Y0115651D01*
X0249081Y0115601D01*
X0249218Y0115546D01*
X0249354Y0115488D01*
X0249489Y0115427D01*
X0249622Y0115362D01*
X0249753Y0115293D01*
X0249882Y0115221D01*
X0250009Y0115145D01*
X0250134Y0115066D01*
X0250257Y0114983D01*
X0250378Y0114898D01*
X0250496Y0114809D01*
X0250612Y0114717D01*
X0250725Y0114621D01*
X0250836Y0114523D01*
X0250944Y0114422D01*
X0251050Y0114318D01*
X0251152Y0114212D01*
X0251252Y0114102D01*
X0251348Y0113990D01*
X0251442Y0113875D01*
X0251533Y0113758D01*
X0251620Y0113639D01*
X0251704Y0113517D01*
X0251785Y0113393D01*
X0251862Y0113267D01*
X0251936Y0113139D01*
X0252007Y0113009D01*
X0252074Y0112877D01*
X0252137Y0112743D01*
X0252197Y0112608D01*
X0252253Y0112471D01*
X0252306Y0112332D01*
X0252354Y0112192D01*
X0252399Y0112051D01*
X0252440Y0111909D01*
X0252478Y0111766D01*
X0252511Y0111622D01*
X0252541Y0111477D01*
X0252567Y0111331D01*
X0252588Y0111185D01*
X0252606Y0111038D01*
X0252620Y0110891D01*
X0252630Y0110743D01*
X0252636Y0110595D01*
X0252638Y0110447D01*
X0252636Y0110299D01*
X0252630Y0110151D01*
X0252620Y0110003D01*
X0252606Y0109856D01*
X0252588Y0109709D01*
X0252567Y0109563D01*
X0252541Y0109417D01*
X0252511Y0109272D01*
X0252478Y0109128D01*
X0252440Y0108985D01*
X0252399Y0108843D01*
X0252354Y0108702D01*
X0252306Y0108562D01*
X0252253Y0108423D01*
X0252197Y0108286D01*
X0252137Y0108151D01*
X0252074Y0108017D01*
X0252007Y0107885D01*
X0251936Y0107755D01*
X0251862Y0107627D01*
X0251785Y0107501D01*
X0251704Y0107377D01*
X0251620Y0107255D01*
X0251533Y0107136D01*
X0251442Y0107019D01*
X0251348Y0106904D01*
X0251252Y0106792D01*
X0251152Y0106682D01*
X0251050Y0106576D01*
X0250944Y0106472D01*
X0250836Y0106371D01*
X0250725Y0106273D01*
X0250612Y0106177D01*
X0250496Y0106085D01*
X0250378Y0105996D01*
X0250257Y0105911D01*
X0250134Y0105828D01*
X0250009Y0105749D01*
X0249882Y0105673D01*
X0249753Y0105601D01*
X0249622Y0105532D01*
X0249489Y0105467D01*
X0249354Y0105406D01*
X0249218Y0105348D01*
X0249081Y0105293D01*
X0248942Y0105243D01*
X0248801Y0105196D01*
X0248660Y0105153D01*
X0248517Y0105113D01*
X0248373Y0105078D01*
X0248229Y0105046D01*
X0248083Y0105019D01*
X0247937Y0104995D01*
X0247790Y0104975D01*
X0247643Y0104959D01*
X0247496Y0104947D01*
X0247348Y0104939D01*
X0247200Y0104935D01*
X0247052Y0104935D01*
X0246904Y0104939D01*
X0246756Y0104947D01*
X0246609Y0104959D01*
X0246462Y0104975D01*
X0246315Y0104995D01*
X0246169Y0105019D01*
X0246023Y0105046D01*
X0245879Y0105078D01*
X0245735Y0105113D01*
X0245592Y0105153D01*
X0245451Y0105196D01*
X0245310Y0105243D01*
X0245171Y0105293D01*
X0245034Y0105348D01*
X0244898Y0105406D01*
X0244763Y0105467D01*
X0244630Y0105532D01*
X0244499Y0105601D01*
X0244370Y0105673D01*
X0244243Y0105749D01*
X0244118Y0105828D01*
X0243995Y0105911D01*
X0243874Y0105996D01*
X0243756Y0106085D01*
X0243640Y0106177D01*
X0243527Y0106273D01*
X0243416Y0106371D01*
X0243308Y0106472D01*
X0243202Y0106576D01*
X0243100Y0106682D01*
X0243000Y0106792D01*
X0242904Y0106904D01*
X0242810Y0107019D01*
X0242719Y0107136D01*
X0242632Y0107255D01*
X0242548Y0107377D01*
X0242467Y0107501D01*
X0242390Y0107627D01*
X0242316Y0107755D01*
X0242245Y0107885D01*
X0242178Y0108017D01*
X0242115Y0108151D01*
X0242055Y0108286D01*
X0241999Y0108423D01*
X0241946Y0108562D01*
X0241898Y0108702D01*
X0241853Y0108843D01*
X0241812Y0108985D01*
X0241774Y0109128D01*
X0241741Y0109272D01*
X0241711Y0109417D01*
X0241685Y0109563D01*
X0241664Y0109709D01*
X0241646Y0109856D01*
X0241632Y0110003D01*
X0241622Y0110151D01*
X0241616Y0110299D01*
X0241614Y0110447D01*
X0013268Y0110447D02*
X0013270Y0110595D01*
X0013276Y0110743D01*
X0013286Y0110891D01*
X0013300Y0111038D01*
X0013318Y0111185D01*
X0013339Y0111331D01*
X0013365Y0111477D01*
X0013395Y0111622D01*
X0013428Y0111766D01*
X0013466Y0111909D01*
X0013507Y0112051D01*
X0013552Y0112192D01*
X0013600Y0112332D01*
X0013653Y0112471D01*
X0013709Y0112608D01*
X0013769Y0112743D01*
X0013832Y0112877D01*
X0013899Y0113009D01*
X0013970Y0113139D01*
X0014044Y0113267D01*
X0014121Y0113393D01*
X0014202Y0113517D01*
X0014286Y0113639D01*
X0014373Y0113758D01*
X0014464Y0113875D01*
X0014558Y0113990D01*
X0014654Y0114102D01*
X0014754Y0114212D01*
X0014856Y0114318D01*
X0014962Y0114422D01*
X0015070Y0114523D01*
X0015181Y0114621D01*
X0015294Y0114717D01*
X0015410Y0114809D01*
X0015528Y0114898D01*
X0015649Y0114983D01*
X0015772Y0115066D01*
X0015897Y0115145D01*
X0016024Y0115221D01*
X0016153Y0115293D01*
X0016284Y0115362D01*
X0016417Y0115427D01*
X0016552Y0115488D01*
X0016688Y0115546D01*
X0016825Y0115601D01*
X0016964Y0115651D01*
X0017105Y0115698D01*
X0017246Y0115741D01*
X0017389Y0115781D01*
X0017533Y0115816D01*
X0017677Y0115848D01*
X0017823Y0115875D01*
X0017969Y0115899D01*
X0018116Y0115919D01*
X0018263Y0115935D01*
X0018410Y0115947D01*
X0018558Y0115955D01*
X0018706Y0115959D01*
X0018854Y0115959D01*
X0019002Y0115955D01*
X0019150Y0115947D01*
X0019297Y0115935D01*
X0019444Y0115919D01*
X0019591Y0115899D01*
X0019737Y0115875D01*
X0019883Y0115848D01*
X0020027Y0115816D01*
X0020171Y0115781D01*
X0020314Y0115741D01*
X0020455Y0115698D01*
X0020596Y0115651D01*
X0020735Y0115601D01*
X0020872Y0115546D01*
X0021008Y0115488D01*
X0021143Y0115427D01*
X0021276Y0115362D01*
X0021407Y0115293D01*
X0021536Y0115221D01*
X0021663Y0115145D01*
X0021788Y0115066D01*
X0021911Y0114983D01*
X0022032Y0114898D01*
X0022150Y0114809D01*
X0022266Y0114717D01*
X0022379Y0114621D01*
X0022490Y0114523D01*
X0022598Y0114422D01*
X0022704Y0114318D01*
X0022806Y0114212D01*
X0022906Y0114102D01*
X0023002Y0113990D01*
X0023096Y0113875D01*
X0023187Y0113758D01*
X0023274Y0113639D01*
X0023358Y0113517D01*
X0023439Y0113393D01*
X0023516Y0113267D01*
X0023590Y0113139D01*
X0023661Y0113009D01*
X0023728Y0112877D01*
X0023791Y0112743D01*
X0023851Y0112608D01*
X0023907Y0112471D01*
X0023960Y0112332D01*
X0024008Y0112192D01*
X0024053Y0112051D01*
X0024094Y0111909D01*
X0024132Y0111766D01*
X0024165Y0111622D01*
X0024195Y0111477D01*
X0024221Y0111331D01*
X0024242Y0111185D01*
X0024260Y0111038D01*
X0024274Y0110891D01*
X0024284Y0110743D01*
X0024290Y0110595D01*
X0024292Y0110447D01*
X0024290Y0110299D01*
X0024284Y0110151D01*
X0024274Y0110003D01*
X0024260Y0109856D01*
X0024242Y0109709D01*
X0024221Y0109563D01*
X0024195Y0109417D01*
X0024165Y0109272D01*
X0024132Y0109128D01*
X0024094Y0108985D01*
X0024053Y0108843D01*
X0024008Y0108702D01*
X0023960Y0108562D01*
X0023907Y0108423D01*
X0023851Y0108286D01*
X0023791Y0108151D01*
X0023728Y0108017D01*
X0023661Y0107885D01*
X0023590Y0107755D01*
X0023516Y0107627D01*
X0023439Y0107501D01*
X0023358Y0107377D01*
X0023274Y0107255D01*
X0023187Y0107136D01*
X0023096Y0107019D01*
X0023002Y0106904D01*
X0022906Y0106792D01*
X0022806Y0106682D01*
X0022704Y0106576D01*
X0022598Y0106472D01*
X0022490Y0106371D01*
X0022379Y0106273D01*
X0022266Y0106177D01*
X0022150Y0106085D01*
X0022032Y0105996D01*
X0021911Y0105911D01*
X0021788Y0105828D01*
X0021663Y0105749D01*
X0021536Y0105673D01*
X0021407Y0105601D01*
X0021276Y0105532D01*
X0021143Y0105467D01*
X0021008Y0105406D01*
X0020872Y0105348D01*
X0020735Y0105293D01*
X0020596Y0105243D01*
X0020455Y0105196D01*
X0020314Y0105153D01*
X0020171Y0105113D01*
X0020027Y0105078D01*
X0019883Y0105046D01*
X0019737Y0105019D01*
X0019591Y0104995D01*
X0019444Y0104975D01*
X0019297Y0104959D01*
X0019150Y0104947D01*
X0019002Y0104939D01*
X0018854Y0104935D01*
X0018706Y0104935D01*
X0018558Y0104939D01*
X0018410Y0104947D01*
X0018263Y0104959D01*
X0018116Y0104975D01*
X0017969Y0104995D01*
X0017823Y0105019D01*
X0017677Y0105046D01*
X0017533Y0105078D01*
X0017389Y0105113D01*
X0017246Y0105153D01*
X0017105Y0105196D01*
X0016964Y0105243D01*
X0016825Y0105293D01*
X0016688Y0105348D01*
X0016552Y0105406D01*
X0016417Y0105467D01*
X0016284Y0105532D01*
X0016153Y0105601D01*
X0016024Y0105673D01*
X0015897Y0105749D01*
X0015772Y0105828D01*
X0015649Y0105911D01*
X0015528Y0105996D01*
X0015410Y0106085D01*
X0015294Y0106177D01*
X0015181Y0106273D01*
X0015070Y0106371D01*
X0014962Y0106472D01*
X0014856Y0106576D01*
X0014754Y0106682D01*
X0014654Y0106792D01*
X0014558Y0106904D01*
X0014464Y0107019D01*
X0014373Y0107136D01*
X0014286Y0107255D01*
X0014202Y0107377D01*
X0014121Y0107501D01*
X0014044Y0107627D01*
X0013970Y0107755D01*
X0013899Y0107885D01*
X0013832Y0108017D01*
X0013769Y0108151D01*
X0013709Y0108286D01*
X0013653Y0108423D01*
X0013600Y0108562D01*
X0013552Y0108702D01*
X0013507Y0108843D01*
X0013466Y0108985D01*
X0013428Y0109128D01*
X0013395Y0109272D01*
X0013365Y0109417D01*
X0013339Y0109563D01*
X0013318Y0109709D01*
X0013300Y0109856D01*
X0013286Y0110003D01*
X0013276Y0110151D01*
X0013270Y0110299D01*
X0013268Y0110447D01*
D11*
X0018780Y0110447D03*
X0018780Y0019896D03*
X0247126Y0019896D03*
X0247126Y0110447D03*
D12*
X0037835Y0105132D03*
D13*
X0047835Y0105132D03*
X0057835Y0105132D03*
X0067835Y0105132D03*
X0077835Y0105132D03*
X0087835Y0105132D03*
X0097835Y0105132D03*
X0107835Y0105132D03*
X0117835Y0105132D03*
X0127835Y0105132D03*
X0137835Y0105132D03*
X0147835Y0105132D03*
X0157835Y0105132D03*
X0167835Y0105132D03*
X0177835Y0105132D03*
X0187835Y0105132D03*
X0197835Y0105132D03*
X0207835Y0105132D03*
X0217835Y0105132D03*
X0227835Y0105132D03*
X0227835Y0115132D03*
X0217835Y0115132D03*
X0207835Y0115132D03*
X0197835Y0115132D03*
X0187835Y0115132D03*
X0177835Y0115132D03*
X0167835Y0115132D03*
X0157835Y0115132D03*
X0147835Y0115132D03*
X0137835Y0115132D03*
X0127835Y0115132D03*
X0117835Y0115132D03*
X0107835Y0115132D03*
X0097835Y0115132D03*
X0087835Y0115132D03*
X0077835Y0115132D03*
X0067835Y0115132D03*
X0057835Y0115132D03*
X0047835Y0115132D03*
X0037835Y0115132D03*
D14*
X0158494Y0044867D03*
X0161250Y0044867D03*
X0164006Y0044867D03*
D15*
X0169360Y0020723D03*
X0183140Y0020723D03*
X0153140Y0020723D03*
X0139360Y0020723D03*
X0056890Y0020723D03*
X0043110Y0020723D03*
D16*
X0045000Y0017867D02*
X0045000Y0011867D01*
X0055000Y0011867D02*
X0055000Y0017867D01*
X0101250Y0017867D02*
X0101250Y0011867D01*
X0111250Y0011867D02*
X0111250Y0017867D01*
X0121250Y0017867D02*
X0121250Y0011867D01*
X0131250Y0011867D02*
X0131250Y0017867D01*
X0141250Y0017867D02*
X0141250Y0011867D01*
X0151250Y0011867D02*
X0151250Y0017867D01*
X0171250Y0017867D02*
X0171250Y0011867D01*
X0181250Y0011867D02*
X0181250Y0017867D01*
X0191250Y0017867D02*
X0191250Y0011867D01*
X0201250Y0011867D02*
X0201250Y0017867D01*
X0211250Y0017867D02*
X0211250Y0011867D01*
X0221250Y0011867D02*
X0221250Y0017867D01*
D17*
X0118750Y0064867D03*
X0098750Y0064867D03*
X0098750Y0074867D03*
X0118750Y0074867D03*
D18*
X0108750Y0074867D03*
X0108750Y0064867D03*
D19*
X0098750Y0064867D03*
X0080625Y0063617D03*
X0087500Y0054867D03*
X0093750Y0053617D03*
X0091250Y0046117D03*
X0091250Y0038617D03*
X0095000Y0036117D03*
X0098750Y0038617D03*
X0111250Y0047367D03*
X0133750Y0046117D03*
X0148125Y0041117D03*
X0150625Y0041117D03*
X0153125Y0041117D03*
X0158750Y0044867D03*
X0161250Y0044867D03*
X0163750Y0044867D03*
X0186250Y0033617D03*
X0206250Y0034242D03*
X0215000Y0026742D03*
X0230625Y0031117D03*
X0230000Y0049867D03*
X0221250Y0062367D03*
X0201250Y0067367D03*
X0170000Y0077367D03*
X0140625Y0067367D03*
X0136250Y0062367D03*
X0131250Y0064867D03*
X0132500Y0058617D03*
X0151875Y0062367D03*
X0160625Y0062367D03*
X0131250Y0081117D03*
X0118750Y0074867D03*
X0098750Y0074867D03*
X0085000Y0081117D03*
X0080625Y0089242D03*
X0065625Y0077367D03*
X0051875Y0076742D03*
X0054375Y0064242D03*
X0037500Y0051117D03*
X0032500Y0048617D03*
X0049060Y0041687D03*
X0018750Y0036117D03*
X0011250Y0042367D03*
X0011250Y0049867D03*
X0011250Y0072367D03*
X0011250Y0079867D03*
X0011250Y0087367D03*
X0026250Y0092992D03*
X0026250Y0095492D03*
X0026875Y0097992D03*
X0047500Y0089867D03*
X0111250Y0093617D03*
X0236250Y0072367D03*
X0245000Y0093617D03*
X0107500Y0026117D03*
X0091250Y0014867D03*
X0077500Y0009867D03*
X0035000Y0019867D03*
X0161250Y0011117D03*
D20*
X0218750Y0076117D03*
X0201250Y0082367D03*
X0200000Y0089867D03*
X0102500Y0098617D03*
X0093750Y0086117D03*
M02*
