%
M48
M72
T01C0.01181
T02C0.01378
T03C0.03150
T04C0.04000
T05C0.04331
T06C0.11024
%
T01
X34375Y14242
X46250Y35367
X66875Y41117
X84375Y51742
X89375Y49242
X93750Y53617
X87500Y55492
X103750Y59867
X98750Y64867
X98750Y74867
X87627Y77493
X85000Y81117
X93750Y86117
X80625Y89242
X65625Y78617
X47500Y89867
X27125Y97992
X26250Y95492
X26250Y92992
X11250Y87367
X11250Y79867
X11250Y72367
X28031Y63085
X30000Y61117
X31969Y63085
X31969Y59148
X28031Y59148
X37500Y51117
X32500Y48617
X11250Y49867
X11250Y42367
X19375Y35492
X54375Y64242
X89375Y42992
X93750Y42992
X98125Y42992
X110000Y46117
X105000Y34867
X110000Y26117
X101250Y8617
X77500Y8617
X148125Y29867
X150000Y31742
X151875Y33617
X165000Y44867
X167500Y44867
X170000Y44867
X187500Y40492
X194375Y29867
X218750Y27992
X230625Y31117
X220000Y39867
X215000Y45492
X210000Y54867
X231875Y49242
X256875Y64242
X206250Y67367
X183125Y61117
X169375Y59867
X158750Y61742
X137500Y61742
X132500Y58617
X134375Y64867
X130000Y64867
X118750Y74867
X130000Y79867
X138750Y81117
X113750Y82367
X111250Y93617
X102500Y98617
X129375Y93617
X166875Y79867
X184375Y89242
X207500Y87992
X231250Y94242
X245000Y93617
X133750Y46117
X167500Y11117
T02
X72500Y47367
X180000Y79242
X190000Y75492
T03
X108750Y64867
X108750Y74867
T04
X227835Y115132
X217835Y115132
X207835Y115132
X197835Y115132
X187835Y115132
X177835Y115132
X167835Y115132
X157835Y115132
X147835Y115132
X137835Y115132
X127835Y115132
X117835Y115132
X107835Y115132
X97835Y115132
X87835Y115132
X77835Y115132
X67835Y115132
X57835Y115132
X47835Y115132
X37835Y115132
X37835Y105132
X47835Y105132
X57835Y105132
X67835Y105132
X77835Y105132
X87835Y105132
X97835Y105132
X107835Y105132
X117835Y105132
X127835Y105132
X137835Y105132
X147835Y105132
X157835Y105132
X167835Y105132
X177835Y105132
X187835Y105132
X197835Y105132
X207835Y105132
X217835Y105132
X227835Y105132
X226250Y14867
X216250Y14867
X206250Y14867
X196250Y14867
X186250Y14867
X176250Y14867
X158750Y14867
X148750Y14867
X138750Y14867
X128750Y14867
X118750Y14867
X108750Y14867
X92500Y14867
X82500Y14867
X72500Y14867
X52500Y14867
X42500Y14867
T05
X188169Y20723
X174390Y20723
X160610Y20723
X146831Y20723
X54390Y20723
X40610Y20723
T06
X247126Y19896
X247126Y110447
X18780Y110447
X18780Y19896
M30
