%
M48
M72
T01C0.00591
T02C0.01181
T03C0.01378
T04C0.03150
T05C0.04000
T06C0.04331
T07C0.11024
%
T01
X164006Y44867
X161250Y44867
X158494Y44867
T02
X230625Y31117
X215000Y26742
X206250Y34242
X186250Y33617
X163750Y44867
X161250Y44867
X158750Y44867
X153125Y41117
X150625Y41117
X148125Y41117
X133750Y46117
X111250Y47367
X93750Y53617
X87500Y54867
X91250Y46117
X91250Y38617
X95000Y36117
X98750Y38617
X107500Y26117
X91250Y14867
X77500Y9867
X35000Y19867
X18750Y36117
X11250Y42367
X11250Y49867
X28031Y59148
X30000Y61117
X28031Y63085
X31969Y63085
X31969Y59148
X37500Y51117
X32500Y48617
X49060Y41687
X54375Y64242
X80625Y63617
X98750Y64867
X98750Y74867
X85000Y81117
X80625Y89242
X65625Y77367
X51875Y76742
X47500Y89867
X26250Y92992
X26250Y95492
X26875Y97992
X11250Y87367
X11250Y79867
X11250Y72367
X111250Y93617
X131250Y81117
X118750Y74867
X131250Y64867
X136250Y62367
X132500Y58617
X140625Y67367
X151875Y62367
X160625Y62367
X170000Y77367
X201250Y67367
X221250Y62367
X236250Y72367
X245000Y93617
X230000Y49867
X161250Y11117
T03
X218750Y76117
X201250Y82367
X200000Y89867
X102500Y98617
X93750Y86117
T04
X108750Y64867
X108750Y74867
T05
X37835Y115132
X47835Y115132
X57835Y115132
X67835Y115132
X77835Y115132
X87835Y115132
X97835Y115132
X107835Y115132
X117835Y115132
X127835Y115132
X137835Y115132
X147835Y115132
X157835Y115132
X167835Y115132
X177835Y115132
X187835Y115132
X197835Y115132
X207835Y115132
X217835Y115132
X227835Y115132
X227835Y105132
X217835Y105132
X207835Y105132
X197835Y105132
X187835Y105132
X177835Y105132
X167835Y105132
X157835Y105132
X147835Y105132
X137835Y105132
X127835Y105132
X117835Y105132
X107835Y105132
X97835Y105132
X87835Y105132
X77835Y105132
X67835Y105132
X57835Y105132
X47835Y105132
X37835Y105132
X45000Y14867
X55000Y14867
X101250Y14867
X111250Y14867
X121250Y14867
X131250Y14867
X141250Y14867
X151250Y14867
X171250Y14867
X181250Y14867
X191250Y14867
X201250Y14867
X211250Y14867
X221250Y14867
T06
X183140Y20723
X169360Y20723
X153140Y20723
X139360Y20723
X56890Y20723
X43110Y20723
T07
X247126Y19896
X18780Y19896
X18780Y110447
X247126Y110447
M30
