G75*
%MOIN*%
%OFA0B0*%
%FSLAX25Y25*%
%IPPOS*%
%LPD*%
%AMOC8*
5,1,8,0,0,1.08239X$1,22.5*
%
%ADD10C,0.00000*%
%ADD11C,0.11424*%
%ADD12R,0.06400X0.06400*%
%ADD13OC8,0.06400*%
%ADD14C,0.01380*%
%ADD15R,0.02953X0.01181*%
%ADD16R,0.02953X0.01280*%
%ADD17R,0.09547X0.07087*%
%ADD18R,0.01378X0.02992*%
%ADD19R,0.11000X0.03550*%
%ADD20R,0.02600X0.05400*%
%ADD21R,0.05400X0.02600*%
%ADD22C,0.07093*%
%ADD23R,0.04652X0.04534*%
%ADD24R,0.03150X0.01969*%
%ADD25R,0.01575X0.06299*%
%ADD26R,0.04534X0.04652*%
%ADD27R,0.05518X0.06699*%
%ADD28C,0.06400*%
%ADD29R,0.04731X0.04337*%
%ADD30R,0.03550X0.03550*%
%ADD31C,0.05550*%
%ADD32R,0.06699X0.05518*%
%ADD33R,0.04337X0.05912*%
%ADD34R,0.03400X0.06400*%
%ADD35R,0.01502X0.02369*%
%ADD36R,0.01502X0.02369*%
%ADD37R,0.08274X0.03943*%
%ADD38C,0.00100*%
%ADD39C,0.00600*%
D10*
X0016811Y0006117D02*
X0249094Y0006117D01*
X0249379Y0006120D01*
X0249665Y0006131D01*
X0249950Y0006148D01*
X0250234Y0006172D01*
X0250518Y0006203D01*
X0250801Y0006241D01*
X0251082Y0006286D01*
X0251363Y0006337D01*
X0251643Y0006395D01*
X0251921Y0006460D01*
X0252197Y0006532D01*
X0252471Y0006610D01*
X0252744Y0006695D01*
X0253014Y0006787D01*
X0253282Y0006885D01*
X0253548Y0006989D01*
X0253811Y0007100D01*
X0254071Y0007217D01*
X0254329Y0007340D01*
X0254583Y0007470D01*
X0254834Y0007606D01*
X0255082Y0007747D01*
X0255326Y0007895D01*
X0255567Y0008048D01*
X0255803Y0008208D01*
X0256036Y0008373D01*
X0256265Y0008543D01*
X0256490Y0008719D01*
X0256710Y0008901D01*
X0256926Y0009087D01*
X0257137Y0009279D01*
X0257344Y0009476D01*
X0257546Y0009678D01*
X0257743Y0009885D01*
X0257935Y0010096D01*
X0258121Y0010312D01*
X0258303Y0010532D01*
X0258479Y0010757D01*
X0258649Y0010986D01*
X0258814Y0011219D01*
X0258974Y0011455D01*
X0259127Y0011696D01*
X0259275Y0011940D01*
X0259416Y0012188D01*
X0259552Y0012439D01*
X0259682Y0012693D01*
X0259805Y0012951D01*
X0259922Y0013211D01*
X0260033Y0013474D01*
X0260137Y0013740D01*
X0260235Y0014008D01*
X0260327Y0014278D01*
X0260412Y0014551D01*
X0260490Y0014825D01*
X0260562Y0015101D01*
X0260627Y0015379D01*
X0260685Y0015659D01*
X0260736Y0015940D01*
X0260781Y0016221D01*
X0260819Y0016504D01*
X0260850Y0016788D01*
X0260874Y0017072D01*
X0260891Y0017357D01*
X0260902Y0017643D01*
X0260905Y0017928D01*
X0260906Y0017928D02*
X0260906Y0112416D01*
X0260905Y0112416D02*
X0260902Y0112701D01*
X0260891Y0112987D01*
X0260874Y0113272D01*
X0260850Y0113556D01*
X0260819Y0113840D01*
X0260781Y0114123D01*
X0260736Y0114404D01*
X0260685Y0114685D01*
X0260627Y0114965D01*
X0260562Y0115243D01*
X0260490Y0115519D01*
X0260412Y0115793D01*
X0260327Y0116066D01*
X0260235Y0116336D01*
X0260137Y0116604D01*
X0260033Y0116870D01*
X0259922Y0117133D01*
X0259805Y0117393D01*
X0259682Y0117651D01*
X0259552Y0117905D01*
X0259416Y0118156D01*
X0259275Y0118404D01*
X0259127Y0118648D01*
X0258974Y0118889D01*
X0258814Y0119125D01*
X0258649Y0119358D01*
X0258479Y0119587D01*
X0258303Y0119812D01*
X0258121Y0120032D01*
X0257935Y0120248D01*
X0257743Y0120459D01*
X0257546Y0120666D01*
X0257344Y0120868D01*
X0257137Y0121065D01*
X0256926Y0121257D01*
X0256710Y0121443D01*
X0256490Y0121625D01*
X0256265Y0121801D01*
X0256036Y0121971D01*
X0255803Y0122136D01*
X0255567Y0122296D01*
X0255326Y0122449D01*
X0255082Y0122597D01*
X0254834Y0122738D01*
X0254583Y0122874D01*
X0254329Y0123004D01*
X0254071Y0123127D01*
X0253811Y0123244D01*
X0253548Y0123355D01*
X0253282Y0123459D01*
X0253014Y0123557D01*
X0252744Y0123649D01*
X0252471Y0123734D01*
X0252197Y0123812D01*
X0251921Y0123884D01*
X0251643Y0123949D01*
X0251363Y0124007D01*
X0251082Y0124058D01*
X0250801Y0124103D01*
X0250518Y0124141D01*
X0250234Y0124172D01*
X0249950Y0124196D01*
X0249665Y0124213D01*
X0249379Y0124224D01*
X0249094Y0124227D01*
X0016811Y0124227D01*
X0016526Y0124224D01*
X0016240Y0124213D01*
X0015955Y0124196D01*
X0015671Y0124172D01*
X0015387Y0124141D01*
X0015104Y0124103D01*
X0014823Y0124058D01*
X0014542Y0124007D01*
X0014262Y0123949D01*
X0013984Y0123884D01*
X0013708Y0123812D01*
X0013434Y0123734D01*
X0013161Y0123649D01*
X0012891Y0123557D01*
X0012623Y0123459D01*
X0012357Y0123355D01*
X0012094Y0123244D01*
X0011834Y0123127D01*
X0011576Y0123004D01*
X0011322Y0122874D01*
X0011071Y0122738D01*
X0010823Y0122597D01*
X0010579Y0122449D01*
X0010338Y0122296D01*
X0010102Y0122136D01*
X0009869Y0121971D01*
X0009640Y0121801D01*
X0009415Y0121625D01*
X0009195Y0121443D01*
X0008979Y0121257D01*
X0008768Y0121065D01*
X0008561Y0120868D01*
X0008359Y0120666D01*
X0008162Y0120459D01*
X0007970Y0120248D01*
X0007784Y0120032D01*
X0007602Y0119812D01*
X0007426Y0119587D01*
X0007256Y0119358D01*
X0007091Y0119125D01*
X0006931Y0118889D01*
X0006778Y0118648D01*
X0006630Y0118404D01*
X0006489Y0118156D01*
X0006353Y0117905D01*
X0006223Y0117651D01*
X0006100Y0117393D01*
X0005983Y0117133D01*
X0005872Y0116870D01*
X0005768Y0116604D01*
X0005670Y0116336D01*
X0005578Y0116066D01*
X0005493Y0115793D01*
X0005415Y0115519D01*
X0005343Y0115243D01*
X0005278Y0114965D01*
X0005220Y0114685D01*
X0005169Y0114404D01*
X0005124Y0114123D01*
X0005086Y0113840D01*
X0005055Y0113556D01*
X0005031Y0113272D01*
X0005014Y0112987D01*
X0005003Y0112701D01*
X0005000Y0112416D01*
X0005000Y0017928D01*
X0005003Y0017643D01*
X0005014Y0017357D01*
X0005031Y0017072D01*
X0005055Y0016788D01*
X0005086Y0016504D01*
X0005124Y0016221D01*
X0005169Y0015940D01*
X0005220Y0015659D01*
X0005278Y0015379D01*
X0005343Y0015101D01*
X0005415Y0014825D01*
X0005493Y0014551D01*
X0005578Y0014278D01*
X0005670Y0014008D01*
X0005768Y0013740D01*
X0005872Y0013474D01*
X0005983Y0013211D01*
X0006100Y0012951D01*
X0006223Y0012693D01*
X0006353Y0012439D01*
X0006489Y0012188D01*
X0006630Y0011940D01*
X0006778Y0011696D01*
X0006931Y0011455D01*
X0007091Y0011219D01*
X0007256Y0010986D01*
X0007426Y0010757D01*
X0007602Y0010532D01*
X0007784Y0010312D01*
X0007970Y0010096D01*
X0008162Y0009885D01*
X0008359Y0009678D01*
X0008561Y0009476D01*
X0008768Y0009279D01*
X0008979Y0009087D01*
X0009195Y0008901D01*
X0009415Y0008719D01*
X0009640Y0008543D01*
X0009869Y0008373D01*
X0010102Y0008208D01*
X0010338Y0008048D01*
X0010579Y0007895D01*
X0010823Y0007747D01*
X0011071Y0007606D01*
X0011322Y0007470D01*
X0011576Y0007340D01*
X0011834Y0007217D01*
X0012094Y0007100D01*
X0012357Y0006989D01*
X0012623Y0006885D01*
X0012891Y0006787D01*
X0013161Y0006695D01*
X0013434Y0006610D01*
X0013708Y0006532D01*
X0013984Y0006460D01*
X0014262Y0006395D01*
X0014542Y0006337D01*
X0014823Y0006286D01*
X0015104Y0006241D01*
X0015387Y0006203D01*
X0015671Y0006172D01*
X0015955Y0006148D01*
X0016240Y0006131D01*
X0016526Y0006120D01*
X0016811Y0006117D01*
X0013268Y0019896D02*
X0013270Y0020044D01*
X0013276Y0020192D01*
X0013286Y0020340D01*
X0013300Y0020487D01*
X0013318Y0020634D01*
X0013339Y0020780D01*
X0013365Y0020926D01*
X0013395Y0021071D01*
X0013428Y0021215D01*
X0013466Y0021358D01*
X0013507Y0021500D01*
X0013552Y0021641D01*
X0013600Y0021781D01*
X0013653Y0021920D01*
X0013709Y0022057D01*
X0013769Y0022192D01*
X0013832Y0022326D01*
X0013899Y0022458D01*
X0013970Y0022588D01*
X0014044Y0022716D01*
X0014121Y0022842D01*
X0014202Y0022966D01*
X0014286Y0023088D01*
X0014373Y0023207D01*
X0014464Y0023324D01*
X0014558Y0023439D01*
X0014654Y0023551D01*
X0014754Y0023661D01*
X0014856Y0023767D01*
X0014962Y0023871D01*
X0015070Y0023972D01*
X0015181Y0024070D01*
X0015294Y0024166D01*
X0015410Y0024258D01*
X0015528Y0024347D01*
X0015649Y0024432D01*
X0015772Y0024515D01*
X0015897Y0024594D01*
X0016024Y0024670D01*
X0016153Y0024742D01*
X0016284Y0024811D01*
X0016417Y0024876D01*
X0016552Y0024937D01*
X0016688Y0024995D01*
X0016825Y0025050D01*
X0016964Y0025100D01*
X0017105Y0025147D01*
X0017246Y0025190D01*
X0017389Y0025230D01*
X0017533Y0025265D01*
X0017677Y0025297D01*
X0017823Y0025324D01*
X0017969Y0025348D01*
X0018116Y0025368D01*
X0018263Y0025384D01*
X0018410Y0025396D01*
X0018558Y0025404D01*
X0018706Y0025408D01*
X0018854Y0025408D01*
X0019002Y0025404D01*
X0019150Y0025396D01*
X0019297Y0025384D01*
X0019444Y0025368D01*
X0019591Y0025348D01*
X0019737Y0025324D01*
X0019883Y0025297D01*
X0020027Y0025265D01*
X0020171Y0025230D01*
X0020314Y0025190D01*
X0020455Y0025147D01*
X0020596Y0025100D01*
X0020735Y0025050D01*
X0020872Y0024995D01*
X0021008Y0024937D01*
X0021143Y0024876D01*
X0021276Y0024811D01*
X0021407Y0024742D01*
X0021536Y0024670D01*
X0021663Y0024594D01*
X0021788Y0024515D01*
X0021911Y0024432D01*
X0022032Y0024347D01*
X0022150Y0024258D01*
X0022266Y0024166D01*
X0022379Y0024070D01*
X0022490Y0023972D01*
X0022598Y0023871D01*
X0022704Y0023767D01*
X0022806Y0023661D01*
X0022906Y0023551D01*
X0023002Y0023439D01*
X0023096Y0023324D01*
X0023187Y0023207D01*
X0023274Y0023088D01*
X0023358Y0022966D01*
X0023439Y0022842D01*
X0023516Y0022716D01*
X0023590Y0022588D01*
X0023661Y0022458D01*
X0023728Y0022326D01*
X0023791Y0022192D01*
X0023851Y0022057D01*
X0023907Y0021920D01*
X0023960Y0021781D01*
X0024008Y0021641D01*
X0024053Y0021500D01*
X0024094Y0021358D01*
X0024132Y0021215D01*
X0024165Y0021071D01*
X0024195Y0020926D01*
X0024221Y0020780D01*
X0024242Y0020634D01*
X0024260Y0020487D01*
X0024274Y0020340D01*
X0024284Y0020192D01*
X0024290Y0020044D01*
X0024292Y0019896D01*
X0024290Y0019748D01*
X0024284Y0019600D01*
X0024274Y0019452D01*
X0024260Y0019305D01*
X0024242Y0019158D01*
X0024221Y0019012D01*
X0024195Y0018866D01*
X0024165Y0018721D01*
X0024132Y0018577D01*
X0024094Y0018434D01*
X0024053Y0018292D01*
X0024008Y0018151D01*
X0023960Y0018011D01*
X0023907Y0017872D01*
X0023851Y0017735D01*
X0023791Y0017600D01*
X0023728Y0017466D01*
X0023661Y0017334D01*
X0023590Y0017204D01*
X0023516Y0017076D01*
X0023439Y0016950D01*
X0023358Y0016826D01*
X0023274Y0016704D01*
X0023187Y0016585D01*
X0023096Y0016468D01*
X0023002Y0016353D01*
X0022906Y0016241D01*
X0022806Y0016131D01*
X0022704Y0016025D01*
X0022598Y0015921D01*
X0022490Y0015820D01*
X0022379Y0015722D01*
X0022266Y0015626D01*
X0022150Y0015534D01*
X0022032Y0015445D01*
X0021911Y0015360D01*
X0021788Y0015277D01*
X0021663Y0015198D01*
X0021536Y0015122D01*
X0021407Y0015050D01*
X0021276Y0014981D01*
X0021143Y0014916D01*
X0021008Y0014855D01*
X0020872Y0014797D01*
X0020735Y0014742D01*
X0020596Y0014692D01*
X0020455Y0014645D01*
X0020314Y0014602D01*
X0020171Y0014562D01*
X0020027Y0014527D01*
X0019883Y0014495D01*
X0019737Y0014468D01*
X0019591Y0014444D01*
X0019444Y0014424D01*
X0019297Y0014408D01*
X0019150Y0014396D01*
X0019002Y0014388D01*
X0018854Y0014384D01*
X0018706Y0014384D01*
X0018558Y0014388D01*
X0018410Y0014396D01*
X0018263Y0014408D01*
X0018116Y0014424D01*
X0017969Y0014444D01*
X0017823Y0014468D01*
X0017677Y0014495D01*
X0017533Y0014527D01*
X0017389Y0014562D01*
X0017246Y0014602D01*
X0017105Y0014645D01*
X0016964Y0014692D01*
X0016825Y0014742D01*
X0016688Y0014797D01*
X0016552Y0014855D01*
X0016417Y0014916D01*
X0016284Y0014981D01*
X0016153Y0015050D01*
X0016024Y0015122D01*
X0015897Y0015198D01*
X0015772Y0015277D01*
X0015649Y0015360D01*
X0015528Y0015445D01*
X0015410Y0015534D01*
X0015294Y0015626D01*
X0015181Y0015722D01*
X0015070Y0015820D01*
X0014962Y0015921D01*
X0014856Y0016025D01*
X0014754Y0016131D01*
X0014654Y0016241D01*
X0014558Y0016353D01*
X0014464Y0016468D01*
X0014373Y0016585D01*
X0014286Y0016704D01*
X0014202Y0016826D01*
X0014121Y0016950D01*
X0014044Y0017076D01*
X0013970Y0017204D01*
X0013899Y0017334D01*
X0013832Y0017466D01*
X0013769Y0017600D01*
X0013709Y0017735D01*
X0013653Y0017872D01*
X0013600Y0018011D01*
X0013552Y0018151D01*
X0013507Y0018292D01*
X0013466Y0018434D01*
X0013428Y0018577D01*
X0013395Y0018721D01*
X0013365Y0018866D01*
X0013339Y0019012D01*
X0013318Y0019158D01*
X0013300Y0019305D01*
X0013286Y0019452D01*
X0013276Y0019600D01*
X0013270Y0019748D01*
X0013268Y0019896D01*
X0013268Y0110447D02*
X0013270Y0110595D01*
X0013276Y0110743D01*
X0013286Y0110891D01*
X0013300Y0111038D01*
X0013318Y0111185D01*
X0013339Y0111331D01*
X0013365Y0111477D01*
X0013395Y0111622D01*
X0013428Y0111766D01*
X0013466Y0111909D01*
X0013507Y0112051D01*
X0013552Y0112192D01*
X0013600Y0112332D01*
X0013653Y0112471D01*
X0013709Y0112608D01*
X0013769Y0112743D01*
X0013832Y0112877D01*
X0013899Y0113009D01*
X0013970Y0113139D01*
X0014044Y0113267D01*
X0014121Y0113393D01*
X0014202Y0113517D01*
X0014286Y0113639D01*
X0014373Y0113758D01*
X0014464Y0113875D01*
X0014558Y0113990D01*
X0014654Y0114102D01*
X0014754Y0114212D01*
X0014856Y0114318D01*
X0014962Y0114422D01*
X0015070Y0114523D01*
X0015181Y0114621D01*
X0015294Y0114717D01*
X0015410Y0114809D01*
X0015528Y0114898D01*
X0015649Y0114983D01*
X0015772Y0115066D01*
X0015897Y0115145D01*
X0016024Y0115221D01*
X0016153Y0115293D01*
X0016284Y0115362D01*
X0016417Y0115427D01*
X0016552Y0115488D01*
X0016688Y0115546D01*
X0016825Y0115601D01*
X0016964Y0115651D01*
X0017105Y0115698D01*
X0017246Y0115741D01*
X0017389Y0115781D01*
X0017533Y0115816D01*
X0017677Y0115848D01*
X0017823Y0115875D01*
X0017969Y0115899D01*
X0018116Y0115919D01*
X0018263Y0115935D01*
X0018410Y0115947D01*
X0018558Y0115955D01*
X0018706Y0115959D01*
X0018854Y0115959D01*
X0019002Y0115955D01*
X0019150Y0115947D01*
X0019297Y0115935D01*
X0019444Y0115919D01*
X0019591Y0115899D01*
X0019737Y0115875D01*
X0019883Y0115848D01*
X0020027Y0115816D01*
X0020171Y0115781D01*
X0020314Y0115741D01*
X0020455Y0115698D01*
X0020596Y0115651D01*
X0020735Y0115601D01*
X0020872Y0115546D01*
X0021008Y0115488D01*
X0021143Y0115427D01*
X0021276Y0115362D01*
X0021407Y0115293D01*
X0021536Y0115221D01*
X0021663Y0115145D01*
X0021788Y0115066D01*
X0021911Y0114983D01*
X0022032Y0114898D01*
X0022150Y0114809D01*
X0022266Y0114717D01*
X0022379Y0114621D01*
X0022490Y0114523D01*
X0022598Y0114422D01*
X0022704Y0114318D01*
X0022806Y0114212D01*
X0022906Y0114102D01*
X0023002Y0113990D01*
X0023096Y0113875D01*
X0023187Y0113758D01*
X0023274Y0113639D01*
X0023358Y0113517D01*
X0023439Y0113393D01*
X0023516Y0113267D01*
X0023590Y0113139D01*
X0023661Y0113009D01*
X0023728Y0112877D01*
X0023791Y0112743D01*
X0023851Y0112608D01*
X0023907Y0112471D01*
X0023960Y0112332D01*
X0024008Y0112192D01*
X0024053Y0112051D01*
X0024094Y0111909D01*
X0024132Y0111766D01*
X0024165Y0111622D01*
X0024195Y0111477D01*
X0024221Y0111331D01*
X0024242Y0111185D01*
X0024260Y0111038D01*
X0024274Y0110891D01*
X0024284Y0110743D01*
X0024290Y0110595D01*
X0024292Y0110447D01*
X0024290Y0110299D01*
X0024284Y0110151D01*
X0024274Y0110003D01*
X0024260Y0109856D01*
X0024242Y0109709D01*
X0024221Y0109563D01*
X0024195Y0109417D01*
X0024165Y0109272D01*
X0024132Y0109128D01*
X0024094Y0108985D01*
X0024053Y0108843D01*
X0024008Y0108702D01*
X0023960Y0108562D01*
X0023907Y0108423D01*
X0023851Y0108286D01*
X0023791Y0108151D01*
X0023728Y0108017D01*
X0023661Y0107885D01*
X0023590Y0107755D01*
X0023516Y0107627D01*
X0023439Y0107501D01*
X0023358Y0107377D01*
X0023274Y0107255D01*
X0023187Y0107136D01*
X0023096Y0107019D01*
X0023002Y0106904D01*
X0022906Y0106792D01*
X0022806Y0106682D01*
X0022704Y0106576D01*
X0022598Y0106472D01*
X0022490Y0106371D01*
X0022379Y0106273D01*
X0022266Y0106177D01*
X0022150Y0106085D01*
X0022032Y0105996D01*
X0021911Y0105911D01*
X0021788Y0105828D01*
X0021663Y0105749D01*
X0021536Y0105673D01*
X0021407Y0105601D01*
X0021276Y0105532D01*
X0021143Y0105467D01*
X0021008Y0105406D01*
X0020872Y0105348D01*
X0020735Y0105293D01*
X0020596Y0105243D01*
X0020455Y0105196D01*
X0020314Y0105153D01*
X0020171Y0105113D01*
X0020027Y0105078D01*
X0019883Y0105046D01*
X0019737Y0105019D01*
X0019591Y0104995D01*
X0019444Y0104975D01*
X0019297Y0104959D01*
X0019150Y0104947D01*
X0019002Y0104939D01*
X0018854Y0104935D01*
X0018706Y0104935D01*
X0018558Y0104939D01*
X0018410Y0104947D01*
X0018263Y0104959D01*
X0018116Y0104975D01*
X0017969Y0104995D01*
X0017823Y0105019D01*
X0017677Y0105046D01*
X0017533Y0105078D01*
X0017389Y0105113D01*
X0017246Y0105153D01*
X0017105Y0105196D01*
X0016964Y0105243D01*
X0016825Y0105293D01*
X0016688Y0105348D01*
X0016552Y0105406D01*
X0016417Y0105467D01*
X0016284Y0105532D01*
X0016153Y0105601D01*
X0016024Y0105673D01*
X0015897Y0105749D01*
X0015772Y0105828D01*
X0015649Y0105911D01*
X0015528Y0105996D01*
X0015410Y0106085D01*
X0015294Y0106177D01*
X0015181Y0106273D01*
X0015070Y0106371D01*
X0014962Y0106472D01*
X0014856Y0106576D01*
X0014754Y0106682D01*
X0014654Y0106792D01*
X0014558Y0106904D01*
X0014464Y0107019D01*
X0014373Y0107136D01*
X0014286Y0107255D01*
X0014202Y0107377D01*
X0014121Y0107501D01*
X0014044Y0107627D01*
X0013970Y0107755D01*
X0013899Y0107885D01*
X0013832Y0108017D01*
X0013769Y0108151D01*
X0013709Y0108286D01*
X0013653Y0108423D01*
X0013600Y0108562D01*
X0013552Y0108702D01*
X0013507Y0108843D01*
X0013466Y0108985D01*
X0013428Y0109128D01*
X0013395Y0109272D01*
X0013365Y0109417D01*
X0013339Y0109563D01*
X0013318Y0109709D01*
X0013300Y0109856D01*
X0013286Y0110003D01*
X0013276Y0110151D01*
X0013270Y0110299D01*
X0013268Y0110447D01*
X0241614Y0110447D02*
X0241616Y0110595D01*
X0241622Y0110743D01*
X0241632Y0110891D01*
X0241646Y0111038D01*
X0241664Y0111185D01*
X0241685Y0111331D01*
X0241711Y0111477D01*
X0241741Y0111622D01*
X0241774Y0111766D01*
X0241812Y0111909D01*
X0241853Y0112051D01*
X0241898Y0112192D01*
X0241946Y0112332D01*
X0241999Y0112471D01*
X0242055Y0112608D01*
X0242115Y0112743D01*
X0242178Y0112877D01*
X0242245Y0113009D01*
X0242316Y0113139D01*
X0242390Y0113267D01*
X0242467Y0113393D01*
X0242548Y0113517D01*
X0242632Y0113639D01*
X0242719Y0113758D01*
X0242810Y0113875D01*
X0242904Y0113990D01*
X0243000Y0114102D01*
X0243100Y0114212D01*
X0243202Y0114318D01*
X0243308Y0114422D01*
X0243416Y0114523D01*
X0243527Y0114621D01*
X0243640Y0114717D01*
X0243756Y0114809D01*
X0243874Y0114898D01*
X0243995Y0114983D01*
X0244118Y0115066D01*
X0244243Y0115145D01*
X0244370Y0115221D01*
X0244499Y0115293D01*
X0244630Y0115362D01*
X0244763Y0115427D01*
X0244898Y0115488D01*
X0245034Y0115546D01*
X0245171Y0115601D01*
X0245310Y0115651D01*
X0245451Y0115698D01*
X0245592Y0115741D01*
X0245735Y0115781D01*
X0245879Y0115816D01*
X0246023Y0115848D01*
X0246169Y0115875D01*
X0246315Y0115899D01*
X0246462Y0115919D01*
X0246609Y0115935D01*
X0246756Y0115947D01*
X0246904Y0115955D01*
X0247052Y0115959D01*
X0247200Y0115959D01*
X0247348Y0115955D01*
X0247496Y0115947D01*
X0247643Y0115935D01*
X0247790Y0115919D01*
X0247937Y0115899D01*
X0248083Y0115875D01*
X0248229Y0115848D01*
X0248373Y0115816D01*
X0248517Y0115781D01*
X0248660Y0115741D01*
X0248801Y0115698D01*
X0248942Y0115651D01*
X0249081Y0115601D01*
X0249218Y0115546D01*
X0249354Y0115488D01*
X0249489Y0115427D01*
X0249622Y0115362D01*
X0249753Y0115293D01*
X0249882Y0115221D01*
X0250009Y0115145D01*
X0250134Y0115066D01*
X0250257Y0114983D01*
X0250378Y0114898D01*
X0250496Y0114809D01*
X0250612Y0114717D01*
X0250725Y0114621D01*
X0250836Y0114523D01*
X0250944Y0114422D01*
X0251050Y0114318D01*
X0251152Y0114212D01*
X0251252Y0114102D01*
X0251348Y0113990D01*
X0251442Y0113875D01*
X0251533Y0113758D01*
X0251620Y0113639D01*
X0251704Y0113517D01*
X0251785Y0113393D01*
X0251862Y0113267D01*
X0251936Y0113139D01*
X0252007Y0113009D01*
X0252074Y0112877D01*
X0252137Y0112743D01*
X0252197Y0112608D01*
X0252253Y0112471D01*
X0252306Y0112332D01*
X0252354Y0112192D01*
X0252399Y0112051D01*
X0252440Y0111909D01*
X0252478Y0111766D01*
X0252511Y0111622D01*
X0252541Y0111477D01*
X0252567Y0111331D01*
X0252588Y0111185D01*
X0252606Y0111038D01*
X0252620Y0110891D01*
X0252630Y0110743D01*
X0252636Y0110595D01*
X0252638Y0110447D01*
X0252636Y0110299D01*
X0252630Y0110151D01*
X0252620Y0110003D01*
X0252606Y0109856D01*
X0252588Y0109709D01*
X0252567Y0109563D01*
X0252541Y0109417D01*
X0252511Y0109272D01*
X0252478Y0109128D01*
X0252440Y0108985D01*
X0252399Y0108843D01*
X0252354Y0108702D01*
X0252306Y0108562D01*
X0252253Y0108423D01*
X0252197Y0108286D01*
X0252137Y0108151D01*
X0252074Y0108017D01*
X0252007Y0107885D01*
X0251936Y0107755D01*
X0251862Y0107627D01*
X0251785Y0107501D01*
X0251704Y0107377D01*
X0251620Y0107255D01*
X0251533Y0107136D01*
X0251442Y0107019D01*
X0251348Y0106904D01*
X0251252Y0106792D01*
X0251152Y0106682D01*
X0251050Y0106576D01*
X0250944Y0106472D01*
X0250836Y0106371D01*
X0250725Y0106273D01*
X0250612Y0106177D01*
X0250496Y0106085D01*
X0250378Y0105996D01*
X0250257Y0105911D01*
X0250134Y0105828D01*
X0250009Y0105749D01*
X0249882Y0105673D01*
X0249753Y0105601D01*
X0249622Y0105532D01*
X0249489Y0105467D01*
X0249354Y0105406D01*
X0249218Y0105348D01*
X0249081Y0105293D01*
X0248942Y0105243D01*
X0248801Y0105196D01*
X0248660Y0105153D01*
X0248517Y0105113D01*
X0248373Y0105078D01*
X0248229Y0105046D01*
X0248083Y0105019D01*
X0247937Y0104995D01*
X0247790Y0104975D01*
X0247643Y0104959D01*
X0247496Y0104947D01*
X0247348Y0104939D01*
X0247200Y0104935D01*
X0247052Y0104935D01*
X0246904Y0104939D01*
X0246756Y0104947D01*
X0246609Y0104959D01*
X0246462Y0104975D01*
X0246315Y0104995D01*
X0246169Y0105019D01*
X0246023Y0105046D01*
X0245879Y0105078D01*
X0245735Y0105113D01*
X0245592Y0105153D01*
X0245451Y0105196D01*
X0245310Y0105243D01*
X0245171Y0105293D01*
X0245034Y0105348D01*
X0244898Y0105406D01*
X0244763Y0105467D01*
X0244630Y0105532D01*
X0244499Y0105601D01*
X0244370Y0105673D01*
X0244243Y0105749D01*
X0244118Y0105828D01*
X0243995Y0105911D01*
X0243874Y0105996D01*
X0243756Y0106085D01*
X0243640Y0106177D01*
X0243527Y0106273D01*
X0243416Y0106371D01*
X0243308Y0106472D01*
X0243202Y0106576D01*
X0243100Y0106682D01*
X0243000Y0106792D01*
X0242904Y0106904D01*
X0242810Y0107019D01*
X0242719Y0107136D01*
X0242632Y0107255D01*
X0242548Y0107377D01*
X0242467Y0107501D01*
X0242390Y0107627D01*
X0242316Y0107755D01*
X0242245Y0107885D01*
X0242178Y0108017D01*
X0242115Y0108151D01*
X0242055Y0108286D01*
X0241999Y0108423D01*
X0241946Y0108562D01*
X0241898Y0108702D01*
X0241853Y0108843D01*
X0241812Y0108985D01*
X0241774Y0109128D01*
X0241741Y0109272D01*
X0241711Y0109417D01*
X0241685Y0109563D01*
X0241664Y0109709D01*
X0241646Y0109856D01*
X0241632Y0110003D01*
X0241622Y0110151D01*
X0241616Y0110299D01*
X0241614Y0110447D01*
X0241614Y0019896D02*
X0241616Y0020044D01*
X0241622Y0020192D01*
X0241632Y0020340D01*
X0241646Y0020487D01*
X0241664Y0020634D01*
X0241685Y0020780D01*
X0241711Y0020926D01*
X0241741Y0021071D01*
X0241774Y0021215D01*
X0241812Y0021358D01*
X0241853Y0021500D01*
X0241898Y0021641D01*
X0241946Y0021781D01*
X0241999Y0021920D01*
X0242055Y0022057D01*
X0242115Y0022192D01*
X0242178Y0022326D01*
X0242245Y0022458D01*
X0242316Y0022588D01*
X0242390Y0022716D01*
X0242467Y0022842D01*
X0242548Y0022966D01*
X0242632Y0023088D01*
X0242719Y0023207D01*
X0242810Y0023324D01*
X0242904Y0023439D01*
X0243000Y0023551D01*
X0243100Y0023661D01*
X0243202Y0023767D01*
X0243308Y0023871D01*
X0243416Y0023972D01*
X0243527Y0024070D01*
X0243640Y0024166D01*
X0243756Y0024258D01*
X0243874Y0024347D01*
X0243995Y0024432D01*
X0244118Y0024515D01*
X0244243Y0024594D01*
X0244370Y0024670D01*
X0244499Y0024742D01*
X0244630Y0024811D01*
X0244763Y0024876D01*
X0244898Y0024937D01*
X0245034Y0024995D01*
X0245171Y0025050D01*
X0245310Y0025100D01*
X0245451Y0025147D01*
X0245592Y0025190D01*
X0245735Y0025230D01*
X0245879Y0025265D01*
X0246023Y0025297D01*
X0246169Y0025324D01*
X0246315Y0025348D01*
X0246462Y0025368D01*
X0246609Y0025384D01*
X0246756Y0025396D01*
X0246904Y0025404D01*
X0247052Y0025408D01*
X0247200Y0025408D01*
X0247348Y0025404D01*
X0247496Y0025396D01*
X0247643Y0025384D01*
X0247790Y0025368D01*
X0247937Y0025348D01*
X0248083Y0025324D01*
X0248229Y0025297D01*
X0248373Y0025265D01*
X0248517Y0025230D01*
X0248660Y0025190D01*
X0248801Y0025147D01*
X0248942Y0025100D01*
X0249081Y0025050D01*
X0249218Y0024995D01*
X0249354Y0024937D01*
X0249489Y0024876D01*
X0249622Y0024811D01*
X0249753Y0024742D01*
X0249882Y0024670D01*
X0250009Y0024594D01*
X0250134Y0024515D01*
X0250257Y0024432D01*
X0250378Y0024347D01*
X0250496Y0024258D01*
X0250612Y0024166D01*
X0250725Y0024070D01*
X0250836Y0023972D01*
X0250944Y0023871D01*
X0251050Y0023767D01*
X0251152Y0023661D01*
X0251252Y0023551D01*
X0251348Y0023439D01*
X0251442Y0023324D01*
X0251533Y0023207D01*
X0251620Y0023088D01*
X0251704Y0022966D01*
X0251785Y0022842D01*
X0251862Y0022716D01*
X0251936Y0022588D01*
X0252007Y0022458D01*
X0252074Y0022326D01*
X0252137Y0022192D01*
X0252197Y0022057D01*
X0252253Y0021920D01*
X0252306Y0021781D01*
X0252354Y0021641D01*
X0252399Y0021500D01*
X0252440Y0021358D01*
X0252478Y0021215D01*
X0252511Y0021071D01*
X0252541Y0020926D01*
X0252567Y0020780D01*
X0252588Y0020634D01*
X0252606Y0020487D01*
X0252620Y0020340D01*
X0252630Y0020192D01*
X0252636Y0020044D01*
X0252638Y0019896D01*
X0252636Y0019748D01*
X0252630Y0019600D01*
X0252620Y0019452D01*
X0252606Y0019305D01*
X0252588Y0019158D01*
X0252567Y0019012D01*
X0252541Y0018866D01*
X0252511Y0018721D01*
X0252478Y0018577D01*
X0252440Y0018434D01*
X0252399Y0018292D01*
X0252354Y0018151D01*
X0252306Y0018011D01*
X0252253Y0017872D01*
X0252197Y0017735D01*
X0252137Y0017600D01*
X0252074Y0017466D01*
X0252007Y0017334D01*
X0251936Y0017204D01*
X0251862Y0017076D01*
X0251785Y0016950D01*
X0251704Y0016826D01*
X0251620Y0016704D01*
X0251533Y0016585D01*
X0251442Y0016468D01*
X0251348Y0016353D01*
X0251252Y0016241D01*
X0251152Y0016131D01*
X0251050Y0016025D01*
X0250944Y0015921D01*
X0250836Y0015820D01*
X0250725Y0015722D01*
X0250612Y0015626D01*
X0250496Y0015534D01*
X0250378Y0015445D01*
X0250257Y0015360D01*
X0250134Y0015277D01*
X0250009Y0015198D01*
X0249882Y0015122D01*
X0249753Y0015050D01*
X0249622Y0014981D01*
X0249489Y0014916D01*
X0249354Y0014855D01*
X0249218Y0014797D01*
X0249081Y0014742D01*
X0248942Y0014692D01*
X0248801Y0014645D01*
X0248660Y0014602D01*
X0248517Y0014562D01*
X0248373Y0014527D01*
X0248229Y0014495D01*
X0248083Y0014468D01*
X0247937Y0014444D01*
X0247790Y0014424D01*
X0247643Y0014408D01*
X0247496Y0014396D01*
X0247348Y0014388D01*
X0247200Y0014384D01*
X0247052Y0014384D01*
X0246904Y0014388D01*
X0246756Y0014396D01*
X0246609Y0014408D01*
X0246462Y0014424D01*
X0246315Y0014444D01*
X0246169Y0014468D01*
X0246023Y0014495D01*
X0245879Y0014527D01*
X0245735Y0014562D01*
X0245592Y0014602D01*
X0245451Y0014645D01*
X0245310Y0014692D01*
X0245171Y0014742D01*
X0245034Y0014797D01*
X0244898Y0014855D01*
X0244763Y0014916D01*
X0244630Y0014981D01*
X0244499Y0015050D01*
X0244370Y0015122D01*
X0244243Y0015198D01*
X0244118Y0015277D01*
X0243995Y0015360D01*
X0243874Y0015445D01*
X0243756Y0015534D01*
X0243640Y0015626D01*
X0243527Y0015722D01*
X0243416Y0015820D01*
X0243308Y0015921D01*
X0243202Y0016025D01*
X0243100Y0016131D01*
X0243000Y0016241D01*
X0242904Y0016353D01*
X0242810Y0016468D01*
X0242719Y0016585D01*
X0242632Y0016704D01*
X0242548Y0016826D01*
X0242467Y0016950D01*
X0242390Y0017076D01*
X0242316Y0017204D01*
X0242245Y0017334D01*
X0242178Y0017466D01*
X0242115Y0017600D01*
X0242055Y0017735D01*
X0241999Y0017872D01*
X0241946Y0018011D01*
X0241898Y0018151D01*
X0241853Y0018292D01*
X0241812Y0018434D01*
X0241774Y0018577D01*
X0241741Y0018721D01*
X0241711Y0018866D01*
X0241685Y0019012D01*
X0241664Y0019158D01*
X0241646Y0019305D01*
X0241632Y0019452D01*
X0241622Y0019600D01*
X0241616Y0019748D01*
X0241614Y0019896D01*
D11*
X0247126Y0019896D03*
X0247126Y0110447D03*
X0018780Y0110447D03*
X0018780Y0019896D03*
D12*
X0037835Y0105132D03*
D13*
X0047835Y0105132D03*
X0057835Y0105132D03*
X0067835Y0105132D03*
X0077835Y0105132D03*
X0087835Y0105132D03*
X0097835Y0105132D03*
X0107835Y0105132D03*
X0117835Y0105132D03*
X0127835Y0105132D03*
X0137835Y0105132D03*
X0147835Y0105132D03*
X0157835Y0105132D03*
X0167835Y0105132D03*
X0177835Y0105132D03*
X0187835Y0105132D03*
X0197835Y0105132D03*
X0207835Y0105132D03*
X0217835Y0105132D03*
X0227835Y0105132D03*
X0227835Y0115132D03*
X0217835Y0115132D03*
X0207835Y0115132D03*
X0197835Y0115132D03*
X0187835Y0115132D03*
X0177835Y0115132D03*
X0167835Y0115132D03*
X0157835Y0115132D03*
X0147835Y0115132D03*
X0137835Y0115132D03*
X0127835Y0115132D03*
X0117835Y0115132D03*
X0107835Y0115132D03*
X0097835Y0115132D03*
X0087835Y0115132D03*
X0077835Y0115132D03*
X0067835Y0115132D03*
X0057835Y0115132D03*
X0047835Y0115132D03*
X0037835Y0115132D03*
D14*
X0033937Y0065802D03*
X0031969Y0065802D03*
X0030000Y0065802D03*
X0028031Y0065802D03*
X0026063Y0065802D03*
X0026063Y0056481D03*
X0028031Y0056481D03*
X0030000Y0056481D03*
X0031969Y0056481D03*
X0033937Y0056481D03*
D15*
X0035610Y0058754D03*
X0035610Y0063479D03*
X0024390Y0063479D03*
X0024390Y0058754D03*
D16*
X0024390Y0060319D03*
X0024390Y0061914D03*
X0035610Y0061914D03*
X0035610Y0060319D03*
D17*
X0030049Y0061117D03*
D18*
X0030000Y0054985D03*
X0028031Y0054985D03*
X0026063Y0054985D03*
X0031969Y0054985D03*
X0033937Y0054985D03*
X0033937Y0067298D03*
X0031969Y0067298D03*
X0030000Y0067298D03*
X0028031Y0067298D03*
X0026063Y0067298D03*
D19*
X0015000Y0065442D03*
X0015000Y0056792D03*
D20*
X0097726Y0052967D03*
X0100876Y0052967D03*
X0104026Y0052967D03*
X0107175Y0052967D03*
X0110325Y0052967D03*
X0113474Y0052967D03*
X0116624Y0052967D03*
X0119774Y0052967D03*
X0119774Y0086767D03*
X0116624Y0086767D03*
X0113474Y0086767D03*
X0110325Y0086767D03*
X0107175Y0086767D03*
X0104026Y0086767D03*
X0100876Y0086767D03*
X0097726Y0086767D03*
D21*
X0091850Y0080890D03*
X0091850Y0077741D03*
X0091850Y0074591D03*
X0091850Y0071441D03*
X0091850Y0068292D03*
X0091850Y0065142D03*
X0091850Y0061993D03*
X0091850Y0058843D03*
X0125650Y0058843D03*
X0125650Y0061993D03*
X0125650Y0065142D03*
X0125650Y0068292D03*
X0125650Y0071441D03*
X0125650Y0074591D03*
X0125650Y0077741D03*
X0125650Y0080890D03*
D22*
X0146831Y0020723D03*
X0160610Y0020723D03*
X0174390Y0020723D03*
X0188169Y0020723D03*
X0054390Y0020723D03*
X0040610Y0020723D03*
D23*
X0105000Y0038922D03*
X0105000Y0045812D03*
X0156250Y0045797D03*
X0156250Y0052687D03*
D24*
X0124656Y0042751D03*
X0118750Y0042751D03*
X0112844Y0042751D03*
X0112844Y0034483D03*
X0118750Y0034483D03*
X0124656Y0034483D03*
D25*
X0124656Y0038617D03*
X0118750Y0038617D03*
X0112844Y0038617D03*
D26*
X0128430Y0026117D03*
X0135320Y0026117D03*
X0199680Y0026117D03*
X0206570Y0026117D03*
X0122195Y0093617D03*
X0115305Y0093617D03*
X0047195Y0067367D03*
X0040305Y0067367D03*
D27*
X0026437Y0072992D03*
X0018563Y0072992D03*
X0018563Y0080492D03*
X0026437Y0080492D03*
X0026437Y0087992D03*
X0018563Y0087992D03*
X0018563Y0049242D03*
X0026437Y0049242D03*
X0081063Y0026117D03*
X0088937Y0026117D03*
D28*
X0092500Y0017867D02*
X0092500Y0011867D01*
X0082500Y0011867D02*
X0082500Y0017867D01*
X0072500Y0017867D02*
X0072500Y0011867D01*
X0052500Y0011867D02*
X0052500Y0017867D01*
X0042500Y0017867D02*
X0042500Y0011867D01*
X0108750Y0011867D02*
X0108750Y0017867D01*
X0118750Y0017867D02*
X0118750Y0011867D01*
X0128750Y0011867D02*
X0128750Y0017867D01*
X0138750Y0017867D02*
X0138750Y0011867D01*
X0148750Y0011867D02*
X0148750Y0017867D01*
X0158750Y0017867D02*
X0158750Y0011867D01*
X0176250Y0011867D02*
X0176250Y0017867D01*
X0186250Y0017867D02*
X0186250Y0011867D01*
X0196250Y0011867D02*
X0196250Y0017867D01*
X0206250Y0017867D02*
X0206250Y0011867D01*
X0216250Y0011867D02*
X0216250Y0017867D01*
X0226250Y0017867D02*
X0226250Y0011867D01*
D29*
X0230000Y0064020D03*
X0230000Y0070713D03*
X0241875Y0070713D03*
X0241875Y0064020D03*
X0248750Y0079020D03*
X0248750Y0085713D03*
X0223750Y0086963D03*
X0223750Y0080270D03*
X0170000Y0082770D03*
X0170000Y0089463D03*
D30*
X0256250Y0085319D03*
X0256250Y0079414D03*
D31*
X0108750Y0074867D03*
X0108750Y0064867D03*
D32*
X0149375Y0048804D03*
X0149375Y0040930D03*
D33*
X0212500Y0079286D03*
X0208760Y0087947D03*
X0216240Y0087947D03*
X0235000Y0087947D03*
X0231260Y0079286D03*
X0238740Y0079286D03*
D34*
X0241875Y0057742D03*
X0256875Y0057742D03*
X0256875Y0035742D03*
X0241875Y0035742D03*
D35*
X0162579Y0041092D03*
D36*
X0164547Y0041092D03*
X0166516Y0041092D03*
X0168484Y0041092D03*
X0170453Y0041092D03*
X0172421Y0041092D03*
X0172421Y0048641D03*
X0170453Y0048641D03*
X0168484Y0048641D03*
X0166516Y0048641D03*
X0164547Y0048641D03*
X0162579Y0048641D03*
D37*
X0167500Y0044867D03*
D38*
X0166737Y0044832D02*
X0168263Y0044832D01*
X0168263Y0044930D02*
X0166737Y0044930D01*
X0166737Y0045029D02*
X0168263Y0045029D01*
X0168263Y0045127D02*
X0166737Y0045127D01*
X0166737Y0045226D02*
X0168263Y0045226D01*
X0168263Y0045324D02*
X0166737Y0045324D01*
X0166737Y0045423D02*
X0168263Y0045423D01*
X0168263Y0045521D02*
X0166737Y0045521D01*
X0166737Y0045620D02*
X0168263Y0045620D01*
X0168263Y0045718D02*
X0166737Y0045718D01*
X0166737Y0045817D02*
X0168263Y0045817D01*
X0168263Y0045915D02*
X0166737Y0045915D01*
X0166737Y0046014D02*
X0168263Y0046014D01*
X0168263Y0046112D02*
X0166737Y0046112D01*
X0166737Y0046211D02*
X0168263Y0046211D01*
X0168263Y0046309D02*
X0166737Y0046309D01*
X0166737Y0046408D02*
X0168263Y0046408D01*
X0168263Y0046506D02*
X0166737Y0046506D01*
X0166737Y0046605D02*
X0168263Y0046605D01*
X0168263Y0046703D02*
X0166737Y0046703D01*
X0166737Y0046802D02*
X0168263Y0046802D01*
X0168263Y0046888D02*
X0168263Y0042845D01*
X0166737Y0042845D01*
X0166737Y0046888D01*
X0168263Y0046888D01*
X0167658Y0047381D02*
X0167658Y0049901D01*
X0169311Y0049901D01*
X0169311Y0047381D01*
X0167658Y0047381D01*
X0167658Y0047393D02*
X0169311Y0047393D01*
X0169311Y0047491D02*
X0167658Y0047491D01*
X0167658Y0047590D02*
X0169311Y0047590D01*
X0169311Y0047688D02*
X0167658Y0047688D01*
X0167658Y0047787D02*
X0169311Y0047787D01*
X0169311Y0047885D02*
X0167658Y0047885D01*
X0167658Y0047984D02*
X0169311Y0047984D01*
X0169311Y0048082D02*
X0167658Y0048082D01*
X0167658Y0048181D02*
X0169311Y0048181D01*
X0169311Y0048280D02*
X0167658Y0048280D01*
X0167658Y0048378D02*
X0169311Y0048378D01*
X0169311Y0048477D02*
X0167658Y0048477D01*
X0167658Y0048575D02*
X0169311Y0048575D01*
X0169311Y0048674D02*
X0167658Y0048674D01*
X0167658Y0048772D02*
X0169311Y0048772D01*
X0169311Y0048871D02*
X0167658Y0048871D01*
X0167658Y0048969D02*
X0169311Y0048969D01*
X0169311Y0049068D02*
X0167658Y0049068D01*
X0167658Y0049166D02*
X0169311Y0049166D01*
X0169311Y0049265D02*
X0167658Y0049265D01*
X0167658Y0049363D02*
X0169311Y0049363D01*
X0169311Y0049462D02*
X0167658Y0049462D01*
X0167658Y0049560D02*
X0169311Y0049560D01*
X0169311Y0049659D02*
X0167658Y0049659D01*
X0167658Y0049757D02*
X0169311Y0049757D01*
X0169311Y0049856D02*
X0167658Y0049856D01*
X0167342Y0049856D02*
X0165689Y0049856D01*
X0165689Y0049901D02*
X0165689Y0047381D01*
X0167342Y0047381D01*
X0167342Y0049901D01*
X0165689Y0049901D01*
X0165689Y0049757D02*
X0167342Y0049757D01*
X0167342Y0049659D02*
X0165689Y0049659D01*
X0165689Y0049560D02*
X0167342Y0049560D01*
X0167342Y0049462D02*
X0165689Y0049462D01*
X0165689Y0049363D02*
X0167342Y0049363D01*
X0167342Y0049265D02*
X0165689Y0049265D01*
X0165689Y0049166D02*
X0167342Y0049166D01*
X0167342Y0049068D02*
X0165689Y0049068D01*
X0165689Y0048969D02*
X0167342Y0048969D01*
X0167342Y0048871D02*
X0165689Y0048871D01*
X0165689Y0048772D02*
X0167342Y0048772D01*
X0167342Y0048674D02*
X0165689Y0048674D01*
X0165689Y0048575D02*
X0167342Y0048575D01*
X0167342Y0048477D02*
X0165689Y0048477D01*
X0165689Y0048378D02*
X0167342Y0048378D01*
X0167342Y0048280D02*
X0165689Y0048280D01*
X0165689Y0048181D02*
X0167342Y0048181D01*
X0167342Y0048082D02*
X0165689Y0048082D01*
X0165689Y0047984D02*
X0167342Y0047984D01*
X0167342Y0047885D02*
X0165689Y0047885D01*
X0165689Y0047787D02*
X0167342Y0047787D01*
X0167342Y0047688D02*
X0165689Y0047688D01*
X0165689Y0047590D02*
X0167342Y0047590D01*
X0167342Y0047491D02*
X0165689Y0047491D01*
X0165689Y0047393D02*
X0167342Y0047393D01*
X0165374Y0047393D02*
X0163721Y0047393D01*
X0163721Y0047381D02*
X0163721Y0049901D01*
X0165374Y0049901D01*
X0165374Y0047381D01*
X0163721Y0047381D01*
X0163721Y0047491D02*
X0165374Y0047491D01*
X0165374Y0047590D02*
X0163721Y0047590D01*
X0163721Y0047688D02*
X0165374Y0047688D01*
X0165374Y0047787D02*
X0163721Y0047787D01*
X0163721Y0047885D02*
X0165374Y0047885D01*
X0165374Y0047984D02*
X0163721Y0047984D01*
X0163721Y0048082D02*
X0165374Y0048082D01*
X0165374Y0048181D02*
X0163721Y0048181D01*
X0163721Y0048280D02*
X0165374Y0048280D01*
X0165374Y0048378D02*
X0163721Y0048378D01*
X0163721Y0048477D02*
X0165374Y0048477D01*
X0165374Y0048575D02*
X0163721Y0048575D01*
X0163721Y0048674D02*
X0165374Y0048674D01*
X0165374Y0048772D02*
X0163721Y0048772D01*
X0163721Y0048871D02*
X0165374Y0048871D01*
X0165374Y0048969D02*
X0163721Y0048969D01*
X0163721Y0049068D02*
X0165374Y0049068D01*
X0165374Y0049166D02*
X0163721Y0049166D01*
X0163721Y0049265D02*
X0165374Y0049265D01*
X0165374Y0049363D02*
X0163721Y0049363D01*
X0163721Y0049462D02*
X0165374Y0049462D01*
X0165374Y0049560D02*
X0163721Y0049560D01*
X0163721Y0049659D02*
X0165374Y0049659D01*
X0165374Y0049757D02*
X0163721Y0049757D01*
X0163721Y0049856D02*
X0165374Y0049856D01*
X0163405Y0049856D02*
X0161752Y0049856D01*
X0161752Y0049901D02*
X0161752Y0047381D01*
X0163405Y0047381D01*
X0163405Y0049901D01*
X0161752Y0049901D01*
X0161752Y0049757D02*
X0163405Y0049757D01*
X0163405Y0049659D02*
X0161752Y0049659D01*
X0161752Y0049560D02*
X0163405Y0049560D01*
X0163405Y0049462D02*
X0161752Y0049462D01*
X0161752Y0049363D02*
X0163405Y0049363D01*
X0163405Y0049265D02*
X0161752Y0049265D01*
X0161752Y0049166D02*
X0163405Y0049166D01*
X0163405Y0049068D02*
X0161752Y0049068D01*
X0161752Y0048969D02*
X0163405Y0048969D01*
X0163405Y0048871D02*
X0161752Y0048871D01*
X0161752Y0048772D02*
X0163405Y0048772D01*
X0163405Y0048674D02*
X0161752Y0048674D01*
X0161752Y0048575D02*
X0163405Y0048575D01*
X0163405Y0048477D02*
X0161752Y0048477D01*
X0161752Y0048378D02*
X0163405Y0048378D01*
X0163405Y0048280D02*
X0161752Y0048280D01*
X0161752Y0048181D02*
X0163405Y0048181D01*
X0163405Y0048082D02*
X0161752Y0048082D01*
X0161752Y0047984D02*
X0163405Y0047984D01*
X0163405Y0047885D02*
X0161752Y0047885D01*
X0161752Y0047787D02*
X0163405Y0047787D01*
X0163405Y0047688D02*
X0161752Y0047688D01*
X0161752Y0047590D02*
X0163405Y0047590D01*
X0163405Y0047491D02*
X0161752Y0047491D01*
X0161752Y0047393D02*
X0163405Y0047393D01*
X0163313Y0046888D02*
X0171687Y0046888D01*
X0171687Y0045654D01*
X0163313Y0045654D01*
X0163313Y0046888D01*
X0165163Y0046888D01*
X0165163Y0042845D01*
X0163313Y0042845D01*
X0171687Y0042845D01*
X0171687Y0044079D01*
X0163313Y0044079D01*
X0163313Y0042845D01*
X0163313Y0046888D01*
X0163313Y0046802D02*
X0171687Y0046802D01*
X0169837Y0046802D01*
X0169837Y0046888D02*
X0171687Y0046888D01*
X0171687Y0042845D01*
X0169837Y0042845D01*
X0169837Y0046888D01*
X0169837Y0046703D02*
X0171687Y0046703D01*
X0163313Y0046703D01*
X0165163Y0046703D01*
X0165163Y0046605D02*
X0163313Y0046605D01*
X0171687Y0046605D01*
X0169837Y0046605D01*
X0169837Y0046506D02*
X0171687Y0046506D01*
X0163313Y0046506D01*
X0165163Y0046506D01*
X0165163Y0046408D02*
X0163313Y0046408D01*
X0171687Y0046408D01*
X0169837Y0046408D01*
X0169837Y0046309D02*
X0171687Y0046309D01*
X0163313Y0046309D01*
X0165163Y0046309D01*
X0165163Y0046211D02*
X0163313Y0046211D01*
X0171687Y0046211D01*
X0169837Y0046211D01*
X0169837Y0046112D02*
X0171687Y0046112D01*
X0163313Y0046112D01*
X0165163Y0046112D01*
X0165163Y0046014D02*
X0163313Y0046014D01*
X0171687Y0046014D01*
X0169837Y0046014D01*
X0169837Y0045915D02*
X0171687Y0045915D01*
X0163313Y0045915D01*
X0165163Y0045915D01*
X0165163Y0045817D02*
X0163313Y0045817D01*
X0171687Y0045817D01*
X0169837Y0045817D01*
X0169837Y0045718D02*
X0171687Y0045718D01*
X0163313Y0045718D01*
X0165163Y0045718D01*
X0165163Y0045620D02*
X0163313Y0045620D01*
X0163313Y0045521D02*
X0165163Y0045521D01*
X0165163Y0045423D02*
X0163313Y0045423D01*
X0163313Y0045324D02*
X0165163Y0045324D01*
X0165163Y0045226D02*
X0163313Y0045226D01*
X0163313Y0045127D02*
X0165163Y0045127D01*
X0165163Y0045029D02*
X0163313Y0045029D01*
X0163313Y0044930D02*
X0165163Y0044930D01*
X0165163Y0044832D02*
X0163313Y0044832D01*
X0163313Y0044733D02*
X0165163Y0044733D01*
X0165163Y0044635D02*
X0163313Y0044635D01*
X0163313Y0044536D02*
X0165163Y0044536D01*
X0165163Y0044438D02*
X0163313Y0044438D01*
X0163313Y0044339D02*
X0165163Y0044339D01*
X0165163Y0044241D02*
X0163313Y0044241D01*
X0163313Y0044142D02*
X0165163Y0044142D01*
X0165163Y0044044D02*
X0163313Y0044044D01*
X0171687Y0044044D01*
X0169837Y0044044D01*
X0169837Y0044142D02*
X0171687Y0044142D01*
X0171687Y0044241D02*
X0169837Y0044241D01*
X0169837Y0044339D02*
X0171687Y0044339D01*
X0171687Y0044438D02*
X0169837Y0044438D01*
X0169837Y0044536D02*
X0171687Y0044536D01*
X0171687Y0044635D02*
X0169837Y0044635D01*
X0169837Y0044733D02*
X0171687Y0044733D01*
X0171687Y0044832D02*
X0169837Y0044832D01*
X0169837Y0044930D02*
X0171687Y0044930D01*
X0171687Y0045029D02*
X0169837Y0045029D01*
X0169837Y0045127D02*
X0171687Y0045127D01*
X0171687Y0045226D02*
X0169837Y0045226D01*
X0169837Y0045324D02*
X0171687Y0045324D01*
X0171687Y0045423D02*
X0169837Y0045423D01*
X0169837Y0045521D02*
X0171687Y0045521D01*
X0171687Y0045620D02*
X0169837Y0045620D01*
X0169626Y0047381D02*
X0169626Y0049901D01*
X0171279Y0049901D01*
X0171279Y0047381D01*
X0169626Y0047381D01*
X0169626Y0047393D02*
X0171279Y0047393D01*
X0171279Y0047491D02*
X0169626Y0047491D01*
X0169626Y0047590D02*
X0171279Y0047590D01*
X0171279Y0047688D02*
X0169626Y0047688D01*
X0169626Y0047787D02*
X0171279Y0047787D01*
X0171279Y0047885D02*
X0169626Y0047885D01*
X0169626Y0047984D02*
X0171279Y0047984D01*
X0171279Y0048082D02*
X0169626Y0048082D01*
X0169626Y0048181D02*
X0171279Y0048181D01*
X0171279Y0048280D02*
X0169626Y0048280D01*
X0169626Y0048378D02*
X0171279Y0048378D01*
X0171279Y0048477D02*
X0169626Y0048477D01*
X0169626Y0048575D02*
X0171279Y0048575D01*
X0171279Y0048674D02*
X0169626Y0048674D01*
X0169626Y0048772D02*
X0171279Y0048772D01*
X0171279Y0048871D02*
X0169626Y0048871D01*
X0169626Y0048969D02*
X0171279Y0048969D01*
X0171279Y0049068D02*
X0169626Y0049068D01*
X0169626Y0049166D02*
X0171279Y0049166D01*
X0171279Y0049265D02*
X0169626Y0049265D01*
X0169626Y0049363D02*
X0171279Y0049363D01*
X0171279Y0049462D02*
X0169626Y0049462D01*
X0169626Y0049560D02*
X0171279Y0049560D01*
X0171279Y0049659D02*
X0169626Y0049659D01*
X0169626Y0049757D02*
X0171279Y0049757D01*
X0171279Y0049856D02*
X0169626Y0049856D01*
X0171595Y0049856D02*
X0173248Y0049856D01*
X0173248Y0049901D02*
X0171595Y0049901D01*
X0171595Y0047381D01*
X0173248Y0047381D01*
X0173248Y0049901D01*
X0173248Y0049757D02*
X0171595Y0049757D01*
X0171595Y0049659D02*
X0173248Y0049659D01*
X0173248Y0049560D02*
X0171595Y0049560D01*
X0171595Y0049462D02*
X0173248Y0049462D01*
X0173248Y0049363D02*
X0171595Y0049363D01*
X0171595Y0049265D02*
X0173248Y0049265D01*
X0173248Y0049166D02*
X0171595Y0049166D01*
X0171595Y0049068D02*
X0173248Y0049068D01*
X0173248Y0048969D02*
X0171595Y0048969D01*
X0171595Y0048871D02*
X0173248Y0048871D01*
X0173248Y0048772D02*
X0171595Y0048772D01*
X0171595Y0048674D02*
X0173248Y0048674D01*
X0173248Y0048575D02*
X0171595Y0048575D01*
X0171595Y0048477D02*
X0173248Y0048477D01*
X0173248Y0048378D02*
X0171595Y0048378D01*
X0171595Y0048280D02*
X0173248Y0048280D01*
X0173248Y0048181D02*
X0171595Y0048181D01*
X0171595Y0048082D02*
X0173248Y0048082D01*
X0173248Y0047984D02*
X0171595Y0047984D01*
X0171595Y0047885D02*
X0173248Y0047885D01*
X0173248Y0047787D02*
X0171595Y0047787D01*
X0171595Y0047688D02*
X0173248Y0047688D01*
X0173248Y0047590D02*
X0171595Y0047590D01*
X0171595Y0047491D02*
X0173248Y0047491D01*
X0173248Y0047393D02*
X0171595Y0047393D01*
X0168263Y0044733D02*
X0166737Y0044733D01*
X0166737Y0044635D02*
X0168263Y0044635D01*
X0168263Y0044536D02*
X0166737Y0044536D01*
X0166737Y0044438D02*
X0168263Y0044438D01*
X0168263Y0044339D02*
X0166737Y0044339D01*
X0166737Y0044241D02*
X0168263Y0044241D01*
X0168263Y0044142D02*
X0166737Y0044142D01*
X0166737Y0044044D02*
X0168263Y0044044D01*
X0168263Y0043945D02*
X0166737Y0043945D01*
X0166737Y0043846D02*
X0168263Y0043846D01*
X0168263Y0043748D02*
X0166737Y0043748D01*
X0166737Y0043649D02*
X0168263Y0043649D01*
X0168263Y0043551D02*
X0166737Y0043551D01*
X0166737Y0043452D02*
X0168263Y0043452D01*
X0168263Y0043354D02*
X0166737Y0043354D01*
X0166737Y0043255D02*
X0168263Y0043255D01*
X0168263Y0043157D02*
X0166737Y0043157D01*
X0166737Y0043058D02*
X0168263Y0043058D01*
X0168263Y0042960D02*
X0166737Y0042960D01*
X0166737Y0042861D02*
X0168263Y0042861D01*
X0167658Y0042352D02*
X0167658Y0039832D01*
X0169311Y0039832D01*
X0169311Y0042352D01*
X0167658Y0042352D01*
X0167658Y0042270D02*
X0169311Y0042270D01*
X0169311Y0042172D02*
X0167658Y0042172D01*
X0167658Y0042073D02*
X0169311Y0042073D01*
X0169311Y0041975D02*
X0167658Y0041975D01*
X0167658Y0041876D02*
X0169311Y0041876D01*
X0169311Y0041778D02*
X0167658Y0041778D01*
X0167658Y0041679D02*
X0169311Y0041679D01*
X0169311Y0041581D02*
X0167658Y0041581D01*
X0167658Y0041482D02*
X0169311Y0041482D01*
X0169311Y0041384D02*
X0167658Y0041384D01*
X0167658Y0041285D02*
X0169311Y0041285D01*
X0169311Y0041187D02*
X0167658Y0041187D01*
X0167658Y0041088D02*
X0169311Y0041088D01*
X0169311Y0040990D02*
X0167658Y0040990D01*
X0167658Y0040891D02*
X0169311Y0040891D01*
X0169311Y0040793D02*
X0167658Y0040793D01*
X0167658Y0040694D02*
X0169311Y0040694D01*
X0169311Y0040596D02*
X0167658Y0040596D01*
X0167658Y0040497D02*
X0169311Y0040497D01*
X0169311Y0040399D02*
X0167658Y0040399D01*
X0167658Y0040300D02*
X0169311Y0040300D01*
X0169311Y0040202D02*
X0167658Y0040202D01*
X0167658Y0040103D02*
X0169311Y0040103D01*
X0169311Y0040005D02*
X0167658Y0040005D01*
X0167658Y0039906D02*
X0169311Y0039906D01*
X0169626Y0039906D02*
X0171279Y0039906D01*
X0171279Y0039832D02*
X0171279Y0042352D01*
X0169626Y0042352D01*
X0169626Y0039832D01*
X0171279Y0039832D01*
X0171279Y0040005D02*
X0169626Y0040005D01*
X0169626Y0040103D02*
X0171279Y0040103D01*
X0171279Y0040202D02*
X0169626Y0040202D01*
X0169626Y0040300D02*
X0171279Y0040300D01*
X0171279Y0040399D02*
X0169626Y0040399D01*
X0169626Y0040497D02*
X0171279Y0040497D01*
X0171279Y0040596D02*
X0169626Y0040596D01*
X0169626Y0040694D02*
X0171279Y0040694D01*
X0171279Y0040793D02*
X0169626Y0040793D01*
X0169626Y0040891D02*
X0171279Y0040891D01*
X0171279Y0040990D02*
X0169626Y0040990D01*
X0169626Y0041088D02*
X0171279Y0041088D01*
X0171279Y0041187D02*
X0169626Y0041187D01*
X0169626Y0041285D02*
X0171279Y0041285D01*
X0171279Y0041384D02*
X0169626Y0041384D01*
X0169626Y0041482D02*
X0171279Y0041482D01*
X0171279Y0041581D02*
X0169626Y0041581D01*
X0169626Y0041679D02*
X0171279Y0041679D01*
X0171279Y0041778D02*
X0169626Y0041778D01*
X0169626Y0041876D02*
X0171279Y0041876D01*
X0171279Y0041975D02*
X0169626Y0041975D01*
X0169626Y0042073D02*
X0171279Y0042073D01*
X0171279Y0042172D02*
X0169626Y0042172D01*
X0169626Y0042270D02*
X0171279Y0042270D01*
X0171595Y0042270D02*
X0173248Y0042270D01*
X0173248Y0042352D02*
X0171595Y0042352D01*
X0171595Y0039832D01*
X0173248Y0039832D01*
X0173248Y0042352D01*
X0173248Y0042172D02*
X0171595Y0042172D01*
X0171595Y0042073D02*
X0173248Y0042073D01*
X0173248Y0041975D02*
X0171595Y0041975D01*
X0171595Y0041876D02*
X0173248Y0041876D01*
X0173248Y0041778D02*
X0171595Y0041778D01*
X0171595Y0041679D02*
X0173248Y0041679D01*
X0173248Y0041581D02*
X0171595Y0041581D01*
X0171595Y0041482D02*
X0173248Y0041482D01*
X0173248Y0041384D02*
X0171595Y0041384D01*
X0171595Y0041285D02*
X0173248Y0041285D01*
X0173248Y0041187D02*
X0171595Y0041187D01*
X0171595Y0041088D02*
X0173248Y0041088D01*
X0173248Y0040990D02*
X0171595Y0040990D01*
X0171595Y0040891D02*
X0173248Y0040891D01*
X0173248Y0040793D02*
X0171595Y0040793D01*
X0171595Y0040694D02*
X0173248Y0040694D01*
X0173248Y0040596D02*
X0171595Y0040596D01*
X0171595Y0040497D02*
X0173248Y0040497D01*
X0173248Y0040399D02*
X0171595Y0040399D01*
X0171595Y0040300D02*
X0173248Y0040300D01*
X0173248Y0040202D02*
X0171595Y0040202D01*
X0171595Y0040103D02*
X0173248Y0040103D01*
X0173248Y0040005D02*
X0171595Y0040005D01*
X0171595Y0039906D02*
X0173248Y0039906D01*
X0171687Y0042861D02*
X0169837Y0042861D01*
X0169837Y0042960D02*
X0171687Y0042960D01*
X0163313Y0042960D01*
X0165163Y0042960D01*
X0165163Y0043058D02*
X0163313Y0043058D01*
X0171687Y0043058D01*
X0169837Y0043058D01*
X0169837Y0043157D02*
X0171687Y0043157D01*
X0163313Y0043157D01*
X0165163Y0043157D01*
X0165163Y0043255D02*
X0163313Y0043255D01*
X0171687Y0043255D01*
X0169837Y0043255D01*
X0169837Y0043354D02*
X0171687Y0043354D01*
X0163313Y0043354D01*
X0165163Y0043354D01*
X0165163Y0043452D02*
X0163313Y0043452D01*
X0171687Y0043452D01*
X0169837Y0043452D01*
X0169837Y0043551D02*
X0171687Y0043551D01*
X0163313Y0043551D01*
X0165163Y0043551D01*
X0165163Y0043649D02*
X0163313Y0043649D01*
X0171687Y0043649D01*
X0169837Y0043649D01*
X0169837Y0043748D02*
X0171687Y0043748D01*
X0163313Y0043748D01*
X0165163Y0043748D01*
X0165163Y0043846D02*
X0163313Y0043846D01*
X0171687Y0043846D01*
X0169837Y0043846D01*
X0169837Y0043945D02*
X0171687Y0043945D01*
X0163313Y0043945D01*
X0165163Y0043945D01*
X0165163Y0042861D02*
X0163313Y0042861D01*
X0171687Y0042861D01*
X0167342Y0042352D02*
X0167342Y0039832D01*
X0165689Y0039832D01*
X0165689Y0042352D01*
X0167342Y0042352D01*
X0167342Y0042270D02*
X0165689Y0042270D01*
X0165689Y0042172D02*
X0167342Y0042172D01*
X0167342Y0042073D02*
X0165689Y0042073D01*
X0165689Y0041975D02*
X0167342Y0041975D01*
X0167342Y0041876D02*
X0165689Y0041876D01*
X0165689Y0041778D02*
X0167342Y0041778D01*
X0167342Y0041679D02*
X0165689Y0041679D01*
X0165689Y0041581D02*
X0167342Y0041581D01*
X0167342Y0041482D02*
X0165689Y0041482D01*
X0165689Y0041384D02*
X0167342Y0041384D01*
X0167342Y0041285D02*
X0165689Y0041285D01*
X0165689Y0041187D02*
X0167342Y0041187D01*
X0167342Y0041088D02*
X0165689Y0041088D01*
X0165689Y0040990D02*
X0167342Y0040990D01*
X0167342Y0040891D02*
X0165689Y0040891D01*
X0165689Y0040793D02*
X0167342Y0040793D01*
X0167342Y0040694D02*
X0165689Y0040694D01*
X0165689Y0040596D02*
X0167342Y0040596D01*
X0167342Y0040497D02*
X0165689Y0040497D01*
X0165689Y0040399D02*
X0167342Y0040399D01*
X0167342Y0040300D02*
X0165689Y0040300D01*
X0165689Y0040202D02*
X0167342Y0040202D01*
X0167342Y0040103D02*
X0165689Y0040103D01*
X0165689Y0040005D02*
X0167342Y0040005D01*
X0167342Y0039906D02*
X0165689Y0039906D01*
X0165374Y0039906D02*
X0163721Y0039906D01*
X0163721Y0039832D02*
X0163721Y0042352D01*
X0165374Y0042352D01*
X0165374Y0039832D01*
X0163721Y0039832D01*
X0163721Y0040005D02*
X0165374Y0040005D01*
X0165374Y0040103D02*
X0163721Y0040103D01*
X0163721Y0040202D02*
X0165374Y0040202D01*
X0165374Y0040300D02*
X0163721Y0040300D01*
X0163721Y0040399D02*
X0165374Y0040399D01*
X0165374Y0040497D02*
X0163721Y0040497D01*
X0163721Y0040596D02*
X0165374Y0040596D01*
X0165374Y0040694D02*
X0163721Y0040694D01*
X0163721Y0040793D02*
X0165374Y0040793D01*
X0165374Y0040891D02*
X0163721Y0040891D01*
X0163721Y0040990D02*
X0165374Y0040990D01*
X0165374Y0041088D02*
X0163721Y0041088D01*
X0163721Y0041187D02*
X0165374Y0041187D01*
X0165374Y0041285D02*
X0163721Y0041285D01*
X0163721Y0041384D02*
X0165374Y0041384D01*
X0165374Y0041482D02*
X0163721Y0041482D01*
X0163721Y0041581D02*
X0165374Y0041581D01*
X0165374Y0041679D02*
X0163721Y0041679D01*
X0163721Y0041778D02*
X0165374Y0041778D01*
X0165374Y0041876D02*
X0163721Y0041876D01*
X0163721Y0041975D02*
X0165374Y0041975D01*
X0165374Y0042073D02*
X0163721Y0042073D01*
X0163721Y0042172D02*
X0165374Y0042172D01*
X0165374Y0042270D02*
X0163721Y0042270D01*
X0163405Y0042270D02*
X0161752Y0042270D01*
X0161752Y0042352D02*
X0161752Y0039832D01*
X0163405Y0039832D01*
X0163405Y0042352D01*
X0161752Y0042352D01*
X0161752Y0042172D02*
X0163405Y0042172D01*
X0163405Y0042073D02*
X0161752Y0042073D01*
X0161752Y0041975D02*
X0163405Y0041975D01*
X0163405Y0041876D02*
X0161752Y0041876D01*
X0161752Y0041778D02*
X0163405Y0041778D01*
X0163405Y0041679D02*
X0161752Y0041679D01*
X0161752Y0041581D02*
X0163405Y0041581D01*
X0163405Y0041482D02*
X0161752Y0041482D01*
X0161752Y0041384D02*
X0163405Y0041384D01*
X0163405Y0041285D02*
X0161752Y0041285D01*
X0161752Y0041187D02*
X0163405Y0041187D01*
X0163405Y0041088D02*
X0161752Y0041088D01*
X0161752Y0040990D02*
X0163405Y0040990D01*
X0163405Y0040891D02*
X0161752Y0040891D01*
X0161752Y0040793D02*
X0163405Y0040793D01*
X0163405Y0040694D02*
X0161752Y0040694D01*
X0161752Y0040596D02*
X0163405Y0040596D01*
X0163405Y0040497D02*
X0161752Y0040497D01*
X0161752Y0040399D02*
X0163405Y0040399D01*
X0163405Y0040300D02*
X0161752Y0040300D01*
X0161752Y0040202D02*
X0163405Y0040202D01*
X0163405Y0040103D02*
X0161752Y0040103D01*
X0161752Y0040005D02*
X0163405Y0040005D01*
X0163405Y0039906D02*
X0161752Y0039906D01*
X0163313Y0046802D02*
X0165163Y0046802D01*
D39*
X0163563Y0046343D02*
X0160807Y0046343D01*
X0160807Y0045359D01*
X0163563Y0045359D01*
X0163563Y0046343D01*
X0163563Y0046217D02*
X0160807Y0046217D01*
X0160807Y0045618D02*
X0163563Y0045618D01*
X0163563Y0044375D02*
X0160807Y0044375D01*
X0160807Y0043390D01*
X0163563Y0043390D01*
X0163563Y0044375D01*
X0163563Y0043823D02*
X0160807Y0043823D01*
X0171437Y0043823D02*
X0174193Y0043823D01*
X0174193Y0043390D02*
X0171437Y0043390D01*
X0171437Y0044375D01*
X0174193Y0044375D01*
X0174193Y0043390D01*
X0174193Y0045359D02*
X0171437Y0045359D01*
X0171437Y0046343D01*
X0174193Y0046343D01*
X0174193Y0045359D01*
X0174193Y0045618D02*
X0171437Y0045618D01*
X0171437Y0046217D02*
X0174193Y0046217D01*
M02*
